<?xml version="1.0" encoding="UTF-8" standalone="no"?>
<!DOCTYPE svg PUBLIC "-//W3C//DTD SVG 1.0//EN"
 "http://www.w3.org/TR/2001/REC-SVG-20010904/DTD/svg10.dtd" [
 <!ATTLIST svg xmlns:xlink CDATA #FIXED "http://www.w3.org/1999/xlink">
]>
<!-- Generated by Graphviz version 2.14.1 (Fri Aug 17 06:36:20 UTC 2007)
     For user: (duckhorn) Frank Duckhorn -->
<!-- Title: lazymin Pages: 1 -->
<svg width="368pt" height="257pt"
 viewBox="0.00 0.00 368.00 257.00" xmlns="http://www.w3.org/2000/svg" xmlns:xlink="http://www.w3.org/1999/xlink">
<g id="graph0" class="graph" transform="scale(1 1) rotate(0) translate(4 253)">
<title>lazymin</title>
<polygon style="fill:white;stroke:white;" points="-4,4 -4,-253 364,-253 364,4 -4,4"/>
<!-- 20 -->
<g id="node1" class="node"><title>20</title>
<ellipse style="fill:none;stroke:black;" cx="27" cy="-107" rx="27" ry="18"/>
<text text-anchor="middle" x="27" y="-102" style="font-family:Times New Roman;font-size:14.00;">20</text>
</g>
<!-- 39 -->
<g id="node3" class="node"><title>39</title>
<ellipse style="fill:none;stroke:black;" cx="131" cy="-107" rx="27" ry="18"/>
<text text-anchor="middle" x="131" y="-102" style="font-family:Times New Roman;font-size:14.00;">39</text>
</g>
<!-- 20&#45;&gt;39 -->
<g id="edge2" class="edge"><title>20&#45;&gt;39</title>
<path style="fill:none;stroke:black;" d="M54,-107C66,-107 80,-107 94,-107"/>
<polygon style="fill:black;stroke:black;" points="94,-110.5 104,-107 94,-103.5 94,-110.5"/>
<text text-anchor="middle" x="79" y="-110" style="font-family:Times New Roman;font-size:14.00;">23</text>
</g>
<!-- 39&#45;&gt;39 -->
<g id="edge4" class="edge"><title>39&#45;&gt;39</title>
<path style="fill:none;stroke:black;" d="M122,-124C121,-134 124,-143 131,-143 135,-143 138,-139 140,-134"/>
<polygon style="fill:black;stroke:black;" points="143.5,-134 140,-124 136.5,-134 143.5,-134"/>
<text text-anchor="middle" x="131" y="-146" style="font-family:Times New Roman;font-size:14.00;">23</text>
</g>
<!-- 62 -->
<g id="node6" class="node"><title>62</title>
<ellipse style="fill:none;stroke:black;" cx="229" cy="-196" rx="27" ry="18"/>
<text text-anchor="middle" x="229" y="-191" style="font-family:Times New Roman;font-size:14.00;">62</text>
</g>
<!-- 39&#45;&gt;62 -->
<g id="edge6" class="edge"><title>39&#45;&gt;62</title>
<path style="fill:none;stroke:black;" d="M147,-122C163,-136 187,-158 205,-174"/>
<polygon style="fill:black;stroke:black;" points="203.169,-177.049 213,-181 207.779,-171.781 203.169,-177.049"/>
<text text-anchor="middle" x="180" y="-156" style="font-family:Times New Roman;font-size:14.00;">5</text>
</g>
<!-- 63 -->
<g id="node8" class="node"><title>63</title>
<ellipse style="fill:none;stroke:black;" cx="229" cy="-107" rx="27" ry="18"/>
<text text-anchor="middle" x="229" y="-102" style="font-family:Times New Roman;font-size:14.00;">63</text>
</g>
<!-- 39&#45;&gt;63 -->
<g id="edge8" class="edge"><title>39&#45;&gt;63</title>
<path style="fill:none;stroke:black;" d="M158,-107C169,-107 181,-107 192,-107"/>
<polygon style="fill:black;stroke:black;" points="192,-110.5 202,-107 192,-103.5 192,-110.5"/>
<text text-anchor="middle" x="180" y="-110" style="font-family:Times New Roman;font-size:14.00;">5</text>
</g>
<!-- 64 -->
<g id="node10" class="node"><title>64</title>
<ellipse style="fill:none;stroke:black;" cx="229" cy="-18" rx="27" ry="18"/>
<text text-anchor="middle" x="229" y="-13" style="font-family:Times New Roman;font-size:14.00;">64</text>
</g>
<!-- 39&#45;&gt;64 -->
<g id="edge10" class="edge"><title>39&#45;&gt;64</title>
<path style="fill:none;stroke:black;" d="M147,-92C163,-78 187,-56 205,-40"/>
<polygon style="fill:black;stroke:black;" points="207.779,-42.2191 213,-33 203.169,-36.9511 207.779,-42.2191"/>
<text text-anchor="middle" x="180" y="-70" style="font-family:Times New Roman;font-size:14.00;">5</text>
</g>
<!-- 62&#45;&gt;62 -->
<g id="edge12" class="edge"><title>62&#45;&gt;62</title>
<path style="fill:none;stroke:black;" d="M220,-213C219,-223 222,-232 229,-232 233,-232 236,-228 238,-223"/>
<polygon style="fill:black;stroke:black;" points="241.5,-223 238,-213 234.5,-223 241.5,-223"/>
<text text-anchor="middle" x="229" y="-235" style="font-family:Times New Roman;font-size:14.00;">12</text>
</g>
<!-- 76 -->
<g id="node15" class="node"><title>76</title>
<ellipse style="fill:none;stroke:black;" cx="333" cy="-196" rx="27" ry="18"/>
<text text-anchor="middle" x="333" y="-191" style="font-family:Times New Roman;font-size:14.00;">76</text>
</g>
<!-- 62&#45;&gt;76 -->
<g id="edge18" class="edge"><title>62&#45;&gt;76</title>
<path style="fill:none;stroke:black;" d="M256,-196C268,-196 282,-196 296,-196"/>
<polygon style="fill:black;stroke:black;" points="296,-199.5 306,-196 296,-192.5 296,-199.5"/>
<text text-anchor="middle" x="281" y="-199" style="font-family:Times New Roman;font-size:14.00;">12</text>
</g>
<!-- 63&#45;&gt;63 -->
<g id="edge14" class="edge"><title>63&#45;&gt;63</title>
<path style="fill:none;stroke:black;" d="M220,-124C219,-134 222,-143 229,-143 233,-143 236,-139 238,-134"/>
<polygon style="fill:black;stroke:black;" points="241.5,-134 238,-124 234.5,-134 241.5,-134"/>
<text text-anchor="middle" x="229" y="-146" style="font-family:Times New Roman;font-size:14.00;">42</text>
</g>
<!-- 77 -->
<g id="node17" class="node"><title>77</title>
<ellipse style="fill:none;stroke:black;" cx="333" cy="-107" rx="27" ry="18"/>
<text text-anchor="middle" x="333" y="-102" style="font-family:Times New Roman;font-size:14.00;">77</text>
</g>
<!-- 63&#45;&gt;77 -->
<g id="edge20" class="edge"><title>63&#45;&gt;77</title>
<path style="fill:none;stroke:black;" d="M256,-107C268,-107 282,-107 296,-107"/>
<polygon style="fill:black;stroke:black;" points="296,-110.5 306,-107 296,-103.5 296,-110.5"/>
<text text-anchor="middle" x="281" y="-110" style="font-family:Times New Roman;font-size:14.00;">42</text>
</g>
<!-- 64&#45;&gt;64 -->
<g id="edge16" class="edge"><title>64&#45;&gt;64</title>
<path style="fill:none;stroke:black;" d="M220,-35C219,-45 222,-54 229,-54 233,-54 236,-50 238,-45"/>
<polygon style="fill:black;stroke:black;" points="241.5,-45 238,-35 234.5,-45 241.5,-45"/>
<text text-anchor="middle" x="229" y="-57" style="font-family:Times New Roman;font-size:14.00;">31</text>
</g>
<!-- 78 -->
<g id="node19" class="node"><title>78</title>
<ellipse style="fill:none;stroke:black;" cx="333" cy="-18" rx="27" ry="18"/>
<text text-anchor="middle" x="333" y="-13" style="font-family:Times New Roman;font-size:14.00;">78</text>
</g>
<!-- 64&#45;&gt;78 -->
<g id="edge22" class="edge"><title>64&#45;&gt;78</title>
<path style="fill:none;stroke:black;" d="M256,-18C268,-18 282,-18 296,-18"/>
<polygon style="fill:black;stroke:black;" points="296,-21.5001 306,-18 296,-14.5001 296,-21.5001"/>
<text text-anchor="middle" x="281" y="-21" style="font-family:Times New Roman;font-size:14.00;">31</text>
</g>
</g>
</svg>
