<?xml version="1.0" encoding="UTF-8" standalone="no"?>
<!DOCTYPE svg PUBLIC "-//W3C//DTD SVG 1.0//EN"
 "http://www.w3.org/TR/2001/REC-SVG-20010904/DTD/svg10.dtd" [
 <!ATTLIST svg xmlns:xlink CDATA #FIXED "http://www.w3.org/1999/xlink">
]>
<!-- Generated by Graphviz version 2.14.1 (Fri Aug 17 06:36:20 UTC 2007)
     For user: (duckhorn) Frank Duckhorn -->
<!-- Title: lazymin Pages: 1 -->
<svg width="470pt" height="257pt"
 viewBox="0.00 0.00 470.00 257.00" xmlns="http://www.w3.org/2000/svg" xmlns:xlink="http://www.w3.org/1999/xlink">
<g id="graph0" class="graph" transform="scale(1 1) rotate(0) translate(4 253)">
<title>lazymin</title>
<polygon style="fill:white;stroke:white;" points="-4,4 -4,-253 466,-253 466,4 -4,4"/>
<!-- 20 -->
<g id="node1" class="node"><title>20</title>
<ellipse style="fill:none;stroke:black;" cx="27" cy="-107" rx="27" ry="18"/>
<text text-anchor="middle" x="27" y="-102" style="font-family:Times New Roman;font-size:14.00;">20</text>
</g>
<!-- 39 -->
<g id="node3" class="node"><title>39</title>
<ellipse style="fill:none;stroke:black;" cx="131" cy="-107" rx="27" ry="18"/>
<text text-anchor="middle" x="131" y="-102" style="font-family:Times New Roman;font-size:14.00;">39</text>
</g>
<!-- 20&#45;&gt;39 -->
<g id="edge2" class="edge"><title>20&#45;&gt;39</title>
<path style="fill:none;stroke:black;" d="M54,-107C66,-107 80,-107 94,-107"/>
<polygon style="fill:black;stroke:black;" points="94,-110.5 104,-107 94,-103.5 94,-110.5"/>
<text text-anchor="middle" x="79" y="-110" style="font-family:Times New Roman;font-size:14.00;">23</text>
</g>
<!-- 39&#45;&gt;39 -->
<g id="edge4" class="edge"><title>39&#45;&gt;39</title>
<path style="fill:none;stroke:black;" d="M122,-124C121,-134 124,-143 131,-143 135,-143 138,-139 140,-134"/>
<polygon style="fill:black;stroke:black;" points="143.5,-134 140,-124 136.5,-134 143.5,-134"/>
<text text-anchor="middle" x="131" y="-146" style="font-family:Times New Roman;font-size:14.00;">23</text>
</g>
<!-- 55 -->
<g id="node6" class="node"><title>55</title>
<ellipse style="fill:none;stroke:black;" cx="229" cy="-107" rx="27" ry="18"/>
<text text-anchor="middle" x="229" y="-102" style="font-family:Times New Roman;font-size:14.00;">55</text>
</g>
<!-- 39&#45;&gt;55 -->
<g id="edge6" class="edge"><title>39&#45;&gt;55</title>
<path style="fill:none;stroke:black;" d="M158,-107C169,-107 181,-107 192,-107"/>
<polygon style="fill:black;stroke:black;" points="192,-110.5 202,-107 192,-103.5 192,-110.5"/>
<text text-anchor="middle" x="180" y="-110" style="font-family:Times New Roman;font-size:14.00;">5</text>
</g>
<!-- 62 -->
<g id="node8" class="node"><title>62</title>
<ellipse style="fill:none;stroke:black;" cx="331" cy="-196" rx="27" ry="18"/>
<text text-anchor="middle" x="331" y="-191" style="font-family:Times New Roman;font-size:14.00;">62</text>
</g>
<!-- 55&#45;&gt;62 -->
<g id="edge8" class="edge"><title>55&#45;&gt;62</title>
<path style="fill:none;stroke:black;" d="M246,-122C263,-136 288,-158 307,-175"/>
<polygon style="fill:black;stroke:black;" points="305.169,-178.049 315,-182 309.779,-172.781 305.169,-178.049"/>
<text text-anchor="middle" x="280" y="-156" style="font-family:Times New Roman;font-size:14.00;">&#45;1</text>
</g>
<!-- 63 -->
<g id="node10" class="node"><title>63</title>
<ellipse style="fill:none;stroke:black;" cx="331" cy="-107" rx="27" ry="18"/>
<text text-anchor="middle" x="331" y="-102" style="font-family:Times New Roman;font-size:14.00;">63</text>
</g>
<!-- 55&#45;&gt;63 -->
<g id="edge10" class="edge"><title>55&#45;&gt;63</title>
<path style="fill:none;stroke:black;" d="M256,-107C268,-107 281,-107 294,-107"/>
<polygon style="fill:black;stroke:black;" points="294,-110.5 304,-107 294,-103.5 294,-110.5"/>
<text text-anchor="middle" x="280" y="-110" style="font-family:Times New Roman;font-size:14.00;">&#45;1</text>
</g>
<!-- 64 -->
<g id="node12" class="node"><title>64</title>
<ellipse style="fill:none;stroke:black;" cx="331" cy="-18" rx="27" ry="18"/>
<text text-anchor="middle" x="331" y="-13" style="font-family:Times New Roman;font-size:14.00;">64</text>
</g>
<!-- 55&#45;&gt;64 -->
<g id="edge12" class="edge"><title>55&#45;&gt;64</title>
<path style="fill:none;stroke:black;" d="M246,-92C263,-78 288,-56 307,-39"/>
<polygon style="fill:black;stroke:black;" points="309.779,-41.2191 315,-32 305.169,-35.9511 309.779,-41.2191"/>
<text text-anchor="middle" x="280" y="-70" style="font-family:Times New Roman;font-size:14.00;">&#45;1</text>
</g>
<!-- 62&#45;&gt;62 -->
<g id="edge14" class="edge"><title>62&#45;&gt;62</title>
<path style="fill:none;stroke:black;" d="M322,-213C321,-223 324,-232 331,-232 335,-232 338,-228 340,-223"/>
<polygon style="fill:black;stroke:black;" points="343.5,-223 340,-213 336.5,-223 343.5,-223"/>
<text text-anchor="middle" x="331" y="-235" style="font-family:Times New Roman;font-size:14.00;">12</text>
</g>
<!-- 76 -->
<g id="node17" class="node"><title>76</title>
<ellipse style="fill:none;stroke:black;" cx="435" cy="-196" rx="27" ry="18"/>
<text text-anchor="middle" x="435" y="-191" style="font-family:Times New Roman;font-size:14.00;">76</text>
</g>
<!-- 62&#45;&gt;76 -->
<g id="edge20" class="edge"><title>62&#45;&gt;76</title>
<path style="fill:none;stroke:black;" d="M358,-196C370,-196 384,-196 398,-196"/>
<polygon style="fill:black;stroke:black;" points="398,-199.5 408,-196 398,-192.5 398,-199.5"/>
<text text-anchor="middle" x="383" y="-199" style="font-family:Times New Roman;font-size:14.00;">12</text>
</g>
<!-- 63&#45;&gt;63 -->
<g id="edge16" class="edge"><title>63&#45;&gt;63</title>
<path style="fill:none;stroke:black;" d="M322,-124C321,-134 324,-143 331,-143 335,-143 338,-139 340,-134"/>
<polygon style="fill:black;stroke:black;" points="343.5,-134 340,-124 336.5,-134 343.5,-134"/>
<text text-anchor="middle" x="331" y="-146" style="font-family:Times New Roman;font-size:14.00;">42</text>
</g>
<!-- 77 -->
<g id="node19" class="node"><title>77</title>
<ellipse style="fill:none;stroke:black;" cx="435" cy="-107" rx="27" ry="18"/>
<text text-anchor="middle" x="435" y="-102" style="font-family:Times New Roman;font-size:14.00;">77</text>
</g>
<!-- 63&#45;&gt;77 -->
<g id="edge22" class="edge"><title>63&#45;&gt;77</title>
<path style="fill:none;stroke:black;" d="M358,-107C370,-107 384,-107 398,-107"/>
<polygon style="fill:black;stroke:black;" points="398,-110.5 408,-107 398,-103.5 398,-110.5"/>
<text text-anchor="middle" x="383" y="-110" style="font-family:Times New Roman;font-size:14.00;">42</text>
</g>
<!-- 64&#45;&gt;64 -->
<g id="edge18" class="edge"><title>64&#45;&gt;64</title>
<path style="fill:none;stroke:black;" d="M322,-35C321,-45 324,-54 331,-54 335,-54 338,-50 340,-45"/>
<polygon style="fill:black;stroke:black;" points="343.5,-45 340,-35 336.5,-45 343.5,-45"/>
<text text-anchor="middle" x="331" y="-57" style="font-family:Times New Roman;font-size:14.00;">31</text>
</g>
<!-- 78 -->
<g id="node21" class="node"><title>78</title>
<ellipse style="fill:none;stroke:black;" cx="435" cy="-18" rx="27" ry="18"/>
<text text-anchor="middle" x="435" y="-13" style="font-family:Times New Roman;font-size:14.00;">78</text>
</g>
<!-- 64&#45;&gt;78 -->
<g id="edge24" class="edge"><title>64&#45;&gt;78</title>
<path style="fill:none;stroke:black;" d="M358,-18C370,-18 384,-18 398,-18"/>
<polygon style="fill:black;stroke:black;" points="398,-21.5001 408,-18 398,-14.5001 398,-21.5001"/>
<text text-anchor="middle" x="383" y="-21" style="font-family:Times New Roman;font-size:14.00;">31</text>
</g>
</g>
</svg>
