<?xml version="1.0" encoding="iso-8859-1"?>
<!DOCTYPE svg PUBLIC "-//W3C//DTD SVG 1.0//EN" "http://www.w3.org/TR/2001/REC-SVG-20010904/DTD/svg10.dtd">
<!-- Creator: CorelDRAW -->
<svg xmlns="http://www.w3.org/2000/svg" xmlns:odm="http://product.corel.com/CGS/11/cddns/" xml:space="preserve" width="2.33402in" height="0.176378in" style="shape-rendering:geometricPrecision; text-rendering:geometricPrecision; image-rendering:optimizeQuality; fill-rule:evenodd"
     viewBox="0 0 2334 176">
 <defs>
  <style type="text/css">
   <![CDATA[
    .fil0 {fill:#1F1A17}
   ]]>
  </style>
 </defs>
 <g id="Ebene 1">
  <path class="fil0" d="M72 39c0,-1 0,-2 0,-2 0,-1 -1,-2 -2,-2 -3,0 -15,1 -18,1 -2,1 -4,1 -4,3 0,2 2,2 5,2 7,0 7,1 7,2 0,1 -1,7 -2,10 -3,8 -2,3 -3,12 -2,6 -3,10 -5,16 -2,-4 -7,-8 -14,-8 -17,0 -36,20 -36,43 0,17 10,24 20,24 10,0 17,-8 20,-11 2,9 9,11 14,11 5,0 8,-2 11,-8 3,-5 5,-15 5,-15 0,-1 0,-2 -2,-2 -2,0 -2,1 -2,4 -4,13 -7,18 -12,18 -4,0 -5,-4 -5,-8 0,-1 1,-6 1,-6l22 -84zm-31 82c-1,2 -1,2 -4,5 -5,7 -11,11 -17,11 -7,0 -9,-8 -9,-15 0,-7 3,-24 7,-31 5,-10 12,-14 18,-14 10,0 12,12 12,12 0,1 0,2 0,2l-7 30zm139 -26c1,-4 1,-4 10,-4 1,0 3,0 3,-2 0,-3 -2,-3 -3,-3l-15 0c-2,0 -2,0 -5,3l-39 56 -11 -55c0,-4 -1,-4 -4,-4l-14 0c-2,0 -4,0 -4,3 0,2 2,2 3,2 2,0 5,0 7,0 0,1 0,2 -1,4l-12 49c-1,3 -3,6 -11,7 -1,0 -2,1 -2,2 0,0 1,2 2,2 2,0 8,0 11,0l5 0c2,0 3,0 6,0 2,0 2,-3 2,-3 -1,-1 -1,-1 -2,-1 -5,0 -8,-1 -8,-5 0,0 0,0 2,-1l13 -54 0 0 12 61c0,1 0,3 1,3 2,0 2,-2 4,-3l43 -61 0 0 -15 55c0,4 -1,5 -8,5 -2,0 -2,0 -2,0 0,0 -2,1 -2,2 0,0 0,2 3,2 1,0 3,0 6,0 2,0 3,0 6,0l7 0c2,0 5,0 6,0 1,0 1,0 2,-2 0,0 0,-1 0,-1 0,-1 -1,-1 -3,-1 -1,0 -3,0 -4,0 -1,-1 -2,-1 -2,-2 0,0 0,0 0,-2l13 -52zm78 79c0,0 0,-1 -1,-3 -19,-16 -25,-44 -25,-69 0,-24 4,-52 25,-72 1,0 1,-1 1,-1 0,-2 0,-3 -1,-3 -3,0 -16,11 -24,28 -7,14 -11,30 -11,47 0,10 1,28 10,45 9,19 22,30 25,30 1,0 1,-1 1,-2l0 0zm88 -124c0,0 -6,6 -6,9 0,1 1,3 3,3 1,0 1,-1 3,-2 1,-3 4,-6 12,-10 1,-1 2,-1 2,-3 0,-2 -1,-3 -1,-4 -3,-1 -5,-4 -7,-8 0,-2 -2,-4 -4,-4 -1,0 -2,1 -2,4 0,2 2,8 3,8l-51 0c-3,0 -5,0 -5,4 0,3 2,3 5,3l48 0zm-5 28c-6,1 -7,6 -7,8 0,3 2,6 6,6 3,0 8,-3 8,-9 0,-8 -8,-10 -14,-10 -10,0 -15,7 -17,11 -3,-7 -10,-11 -17,-11 -16,0 -24,19 -24,23 0,1 1,1 2,1 2,0 2,0 2,-1 4,-15 14,-19 20,-19 5,0 8,2 8,9 0,5 -6,29 -8,36 -1,5 -6,15 -14,15 -3,0 -6,-2 -8,-3 4,0 8,-3 8,-7 0,-5 -3,-6 -6,-6 -4,0 -9,4 -9,8 0,9 9,11 15,11 9,0 14,-7 16,-11 4,10 12,11 17,11 16,0 24,-19 24,-23 0,-1 0,-2 -2,-2 -1,0 -1,1 -3,4 -2,10 -12,18 -19,18 -5,0 -8,-3 -8,-10 0,-4 2,-12 3,-18 0,-2 5,-18 5,-19 1,-6 6,-13 13,-13 4,0 6,0 9,1l0 0zm42 59c0,4 0,16 -12,27 0,1 0,1 0,1 0,2 1,3 1,3 2,0 14,-12 14,-30 0,-9 -3,-16 -9,-16 -6,0 -9,4 -9,9 0,3 3,8 9,8 2,0 3,-1 6,-2l0 0zm83 -98c1,-1 1,-2 1,-2 0,-1 -1,-2 -3,-2 -2,0 -15,1 -18,1 -1,1 -3,1 -3,3 0,2 2,2 5,2 6,0 6,1 6,2 0,1 0,1 0,4l-22 86c0,2 0,2 0,2 0,3 1,5 4,5 4,0 6,-5 7,-7 2,-10 5,-19 7,-29 10,1 18,6 18,13 0,0 0,2 -1,4 0,0 0,2 0,4 0,9 6,15 14,15 5,0 9,-3 12,-7 4,-6 6,-16 6,-16 0,-1 -1,-2 -2,-2 -1,0 -3,1 -3,4 -2,8 -6,18 -13,18 -5,0 -5,-4 -5,-8 0,-3 2,-7 2,-8 0,0 0,-2 0,-4 0,-10 -11,-14 -22,-16 5,-3 7,-6 12,-11 8,-7 14,-13 22,-13 2,0 4,0 6,1 -8,1 -9,6 -9,8 0,3 1,6 5,6 4,0 8,-3 8,-9 0,-5 -3,-10 -10,-10 -9,0 -16,7 -22,13 -7,7 -11,11 -17,13l15 -60zm86 62c0,-12 -2,-29 -10,-45 -9,-19 -22,-30 -25,-30 -1,0 -1,1 -1,3 0,0 0,1 1,2 9,7 25,28 25,70 0,21 -3,51 -25,72 -1,0 -1,1 -1,1 0,1 0,2 1,2 3,0 16,-11 24,-27 7,-15 11,-30 11,-48l0 0zm163 -12c3,0 5,0 5,-3 0,-3 -4,-3 -6,-3l-91 0c-1,0 -5,0 -5,3 0,3 2,3 5,3l92 0zm-1 31c2,0 6,0 6,-4 0,-3 -2,-3 -5,-3l-92 0c-3,0 -5,0 -5,3 0,4 4,4 5,4l91 0zm108 54c0,0 0,-1 -1,-3 -19,-16 -25,-44 -25,-69 0,-24 4,-52 25,-72 1,0 1,-1 1,-1 0,-2 0,-3 -1,-3 -3,0 -16,11 -24,28 -7,14 -11,30 -11,47 0,10 1,28 10,45 9,19 22,30 25,30 1,0 1,-1 1,-2l0 0zm88 -124c0,0 -6,6 -6,9 0,1 1,3 3,3 1,0 1,-1 3,-2 1,-3 4,-6 12,-10 1,-1 2,-1 2,-3 0,-2 -1,-3 -1,-4 -3,-1 -5,-4 -7,-8 0,-2 -2,-4 -4,-4 -1,0 -2,1 -2,4 0,2 2,8 3,8l-51 0c-3,0 -5,0 -5,4 0,3 2,3 5,3l48 0zm-5 28c-6,1 -7,6 -7,8 0,3 2,6 6,6 3,0 8,-3 8,-9 0,-8 -8,-10 -14,-10 -10,0 -15,7 -17,11 -3,-7 -10,-11 -17,-11 -16,0 -24,19 -24,23 0,1 1,1 2,1 2,0 2,0 2,-1 4,-15 14,-19 20,-19 5,0 8,2 8,9 0,5 -6,29 -8,36 -1,5 -6,15 -14,15 -3,0 -6,-2 -8,-3 4,0 8,-3 8,-7 0,-5 -3,-6 -6,-6 -4,0 -9,4 -9,8 0,9 9,11 15,11 9,0 14,-7 16,-11 4,10 12,11 17,11 16,0 24,-19 24,-23 0,-1 0,-2 -2,-2 -1,0 -1,1 -3,4 -2,10 -12,18 -19,18 -5,0 -8,-3 -8,-10 0,-4 2,-12 3,-18 0,-2 5,-18 5,-19 1,-6 6,-13 13,-13 4,0 6,0 9,1l0 0zm150 26c1,0 5,0 5,-2 0,-4 -3,-4 -5,-4l-84 0c-1,0 -5,0 -5,3 0,3 2,3 5,3l84 0zm133 -54c0,0 -7,6 -7,9 0,1 2,3 3,3 2,0 3,-1 4,-2 1,-3 5,-6 11,-10 2,-1 3,-1 3,-3 0,-2 -1,-3 -2,-4 -2,-1 -5,-4 -6,-8 -1,-2 -1,-4 -4,-4 -1,0 -3,1 -3,4 0,2 3,8 3,8l-50 0c-2,0 -6,0 -6,4 0,3 4,3 6,3l48 0zm-46 35c2,-2 3,-7 3,-8 0,-3 -3,-4 -5,-4 -5,0 -6,4 -6,5l-22 85c0,2 0,2 0,4 0,2 2,4 4,4 5,0 6,-4 7,-7l7 -29c4,4 10,5 15,5 6,0 13,-1 20,-11 1,9 9,11 15,11 3,0 7,-2 10,-8 3,-5 5,-15 5,-15 0,-1 0,-2 -2,-2 -1,0 -1,1 -3,4 -2,13 -6,18 -10,18 -4,0 -5,-4 -5,-8 0,-2 1,-6 2,-10 1,-8 3,-10 4,-16l3 -13c2,-4 3,-11 3,-11 0,-2 -1,-5 -5,-5 -5,0 -6,4 -7,9l-3 12c-1,6 -6,24 -7,27 0,0 -7,15 -19,15 -12,0 -12,-11 -12,-14 0,-3 1,-6 2,-13l6 -25zm90 6c0,-1 0,-1 0,-2 0,-2 -2,-2 -3,-2l-11 2c-1,0 -2,0 -2,2 0,1 1,1 2,1 4,0 4,1 5,1 0,2 0,2 0,3l-15 56c0,1 0,3 0,3 0,2 3,2 4,2 1,0 2,0 4,-1 1,-3 4,-18 6,-22 6,0 13,3 13,9 0,0 0,1 0,1 0,2 0,2 0,3 0,6 5,10 11,10 9,0 13,-14 13,-14 0,0 0,-2 -3,-2 -1,0 -1,0 -1,2 -1,3 -3,12 -9,12 -4,0 -4,-5 -4,-6 0,-2 0,-2 1,-4 0,0 0,-2 0,-4 0,-7 -8,-9 -17,-10 3,-2 5,-3 9,-6 6,-5 11,-9 17,-9 1,0 2,0 2,1 -4,0 -5,4 -5,6 0,3 3,4 4,4 2,0 6,-2 6,-7 0,-4 -3,-7 -7,-7 -8,0 -14,4 -17,8 -6,5 -9,7 -12,8l9 -38zm88 10c0,-12 -2,-29 -10,-45 -9,-19 -22,-30 -25,-30 -1,0 -1,1 -1,3 0,0 0,1 1,2 9,7 25,28 25,70 0,21 -3,51 -25,72 -1,0 -1,1 -1,1 0,1 0,2 1,2 3,0 16,-11 24,-27 7,-15 11,-30 11,-48l0 0zm67 -94c1,-4 1,-4 5,-4l10 0c10,0 12,3 12,9 0,1 0,5 -2,7 0,0 0,1 0,2 0,0 2,2 3,2 1,0 1,-2 1,-3l4 -19c0,-1 -2,-1 -4,-1l-65 0c-2,0 -2,0 -3,1l-6 18c-2,1 -2,2 -2,2 0,0 0,2 3,2 1,0 1,0 2,-3 5,-13 7,-17 21,-17l8 0c2,0 2,0 4,0l-14 56c-1,2 -1,3 -3,3 -4,0 -9,0 -10,0 -2,0 -2,0 -2,1 -1,0 -1,2 -1,3 0,0 0,1 2,1 2,0 5,-1 8,-1 4,0 6,0 9,0 3,0 6,0 9,0 3,0 6,1 9,1 1,0 2,0 2,-1 0,0 0,-1 0,-1 0,-3 0,-3 -3,-3 -3,0 -5,0 -6,0 -3,0 -4,0 -4,-1l13 -54zm145 68l36 -28c4,-4 10,-4 15,-4l2 0 0 -7c-6,1 -14,1 -15,1 -6,0 -16,0 -22,-1l0 7c4,0 7,1 8,1 2,0 2,1 2,1l-57 46 0 -48 17 0 0 -7c-6,1 -22,1 -28,1 -6,0 -21,0 -26,-1l0 7 16 0 0 89 -16 0 0 7c5,-1 20,-1 26,-1 6,0 22,0 28,1l0 -7 -17 0 0 -31 16 -14 32 41c0,0 1,1 1,1 0,3 -7,3 -10,3l0 7c6,-1 19,-1 26,-1 1,0 13,0 22,1l0 -7 -4 0c-8,0 -8,-1 -11,-4l-41 -53zm143 -31c1,0 4,0 4,-2 0,-3 -3,-3 -4,-3l-63 0c-2,0 -4,0 -4,3 0,2 2,2 4,2l63 0zm52 -41c0,-3 0,-3 -4,-3 -6,7 -17,7 -20,7l0 4c3,0 9,0 15,-3l0 51c0,2 0,3 -10,3l-4 0 0 5c5,-1 13,-1 19,-1 5,0 13,0 18,1l0 -5 -3 0c-11,0 -11,-1 -11,-3l0 -56zm-99 106c0,-1 0,-1 0,-2 0,-2 -2,-2 -3,-2l-11 2c-1,0 -2,0 -2,2 0,1 1,1 2,1 4,0 4,1 5,1 0,2 0,2 0,3l-15 56c0,1 0,3 0,3 0,2 3,2 4,2 1,0 2,0 4,-1 1,-3 4,-18 6,-22 6,0 13,3 13,9 0,0 0,1 0,1 0,2 0,2 0,3 0,6 5,10 11,10 9,0 13,-14 13,-14 0,0 0,-2 -3,-2 -1,0 -1,0 -1,2 -1,3 -3,12 -9,12 -4,0 -4,-5 -4,-6 0,-2 0,-2 1,-4 0,0 0,-2 0,-4 0,-7 -8,-9 -17,-10 3,-2 5,-3 9,-6 6,-5 11,-9 17,-9 1,0 2,0 2,1 -4,0 -5,4 -5,6 0,3 3,4 4,4 2,0 6,-2 6,-7 0,-4 -3,-7 -7,-7 -8,0 -14,4 -17,8 -6,5 -9,7 -12,8l9 -38zm210 65c0,0 -1,-1 -1,-3 -19,-16 -25,-44 -25,-69 0,-24 4,-52 25,-72 1,0 1,-1 1,-1 0,-2 -1,-3 -2,-3 -1,0 -14,11 -23,28 -7,14 -11,30 -11,47 0,10 2,28 10,45 8,19 23,30 24,30 1,0 2,-1 2,-2l0 0zm88 -124c0,0 -7,6 -7,9 0,1 2,3 3,3 2,0 3,-1 4,-2 1,-3 5,-6 11,-10 2,-1 3,-1 3,-3 0,-2 -1,-3 -2,-4 -2,-1 -5,-4 -6,-8 -1,-2 -1,-4 -4,-4 -1,0 -3,1 -3,4 0,2 3,8 3,8l-50 0c-2,0 -6,0 -6,4 0,3 4,3 6,3l48 0zm-5 28c-6,1 -7,6 -7,8 0,3 1,6 5,6 5,0 8,-3 8,-9 0,-8 -7,-10 -14,-10 -9,0 -15,7 -16,11 -2,-7 -9,-11 -17,-11 -15,0 -24,19 -24,23 0,1 0,1 2,1 1,0 2,0 2,-1 5,-15 14,-19 20,-19 4,0 9,2 9,9 0,5 -7,29 -9,36 -1,5 -6,15 -14,15 -2,0 -6,-2 -7,-3 3,0 7,-3 7,-7 0,-5 -4,-6 -6,-6 -5,0 -8,4 -8,8 0,9 8,11 14,11 8,0 13,-7 16,-11 3,10 13,11 16,11 17,0 26,-19 26,-23 0,-1 -2,-2 -3,-2 -1,0 -1,1 -2,4 -4,10 -12,18 -19,18 -5,0 -9,-3 -9,-10 0,-4 1,-12 3,-18 1,-2 4,-18 6,-19 1,-6 6,-13 13,-13 2,0 6,0 8,1l0 0zm148 26c1,0 5,0 5,-2 0,-4 -3,-4 -5,-4l-84 0c-1,0 -5,0 -5,3 0,3 2,3 5,3l84 0zm133 -54c0,0 -7,6 -7,9 0,1 2,3 3,3 2,0 3,-1 4,-2 1,-3 5,-6 11,-10 2,-1 3,-1 3,-3 0,-2 -1,-3 -2,-4 -2,-1 -5,-4 -6,-8 -1,-2 -1,-4 -4,-4 -1,0 -3,1 -3,4 0,2 3,8 3,8l-50 0c-2,0 -6,0 -6,4 0,3 4,3 6,3l48 0zm-46 35c2,-2 3,-7 3,-8 0,-3 -3,-4 -5,-4 -5,0 -6,4 -6,5l-22 85c0,2 0,2 0,4 0,2 2,4 4,4 5,0 6,-4 7,-7l7 -29c4,4 10,5 15,5 6,0 13,-1 20,-11 1,9 9,11 15,11 3,0 7,-2 10,-8 3,-5 5,-15 5,-15 0,-1 0,-2 -2,-2 -1,0 -1,1 -3,4 -2,13 -6,18 -10,18 -4,0 -5,-4 -5,-8 0,-2 1,-6 2,-10 1,-8 3,-10 4,-16l3 -13c2,-4 3,-11 3,-11 0,-2 -1,-5 -5,-5 -5,0 -6,4 -7,9l-3 12c-1,6 -6,24 -7,27 0,0 -7,15 -19,15 -12,0 -12,-11 -12,-14 0,-3 1,-6 2,-13l6 -25zm90 6c0,-1 0,-1 0,-2 0,-2 -2,-2 -3,-2l-11 2c-1,0 -2,0 -2,2 0,1 1,1 2,1 4,0 4,1 5,1 0,2 0,2 0,3l-15 56c0,1 0,3 0,3 0,2 3,2 4,2 1,0 2,0 4,-1 1,-3 4,-18 6,-22 6,0 13,3 13,9 0,0 0,1 0,1 0,2 0,2 0,3 0,6 5,10 11,10 9,0 13,-14 13,-14 0,0 0,-2 -3,-2 -1,0 -1,0 -1,2 -1,3 -3,12 -9,12 -4,0 -4,-5 -4,-6 0,-2 0,-2 1,-4 0,0 0,-2 0,-4 0,-7 -8,-9 -17,-10 3,-2 5,-3 9,-6 6,-5 11,-9 17,-9 1,0 2,0 2,1 -4,0 -5,4 -5,6 0,3 3,4 4,4 2,0 6,-2 6,-7 0,-4 -3,-7 -7,-7 -8,0 -14,4 -17,8 -6,5 -9,7 -12,8l9 -38zm88 10c0,-12 -2,-29 -10,-45 -9,-19 -22,-30 -25,-30 -1,0 -1,1 -1,3 0,0 0,1 1,2 9,7 25,28 25,70 0,21 -3,51 -25,72 -1,0 -1,1 -1,1 0,1 0,2 1,2 3,0 16,-11 24,-27 7,-15 11,-30 11,-48l0 0z"/>
 </g>
</svg>
