<?xml version="1.0" encoding="iso-8859-1"?>
<!DOCTYPE svg PUBLIC "-//W3C//DTD SVG 1.0//EN" "http://www.w3.org/TR/2001/REC-SVG-20010904/DTD/svg10.dtd">
<!-- Creator: CorelDRAW -->
<svg xmlns="http://www.w3.org/2000/svg" xmlns:odm="http://product.corel.com/CGS/11/cddns/" xml:space="preserve" width="4.68in" height="0.709213in" style="shape-rendering:geometricPrecision; text-rendering:geometricPrecision; image-rendering:optimizeQuality; fill-rule:evenodd"
     viewBox="0 0 4680 710">
 <defs>
  <style type="text/css">
   <![CDATA[
    .fil0 {fill:#1F1A17}
    .fil1 {fill:#131516}
   ]]>
  </style>
 </defs>
 <g id="Ebene 1">
  <g>
   <path class="fil0" d="M72 155c0,-1 0,-2 0,-2 0,-1 -1,-3 -2,-3 -3,0 -15,2 -18,2 -2,1 -4,1 -4,3 0,1 2,1 5,1 7,0 7,2 7,3 0,1 -1,7 -2,9 -3,9 -2,4 -3,12 -2,6 -3,11 -5,17 -2,-5 -7,-8 -14,-8 -17,0 -36,20 -36,43 0,17 10,24 20,24 10,0 17,-8 20,-11 2,9 9,11 14,11 5,0 8,-2 11,-8 3,-5 5,-15 5,-15 0,-1 0,-2 -2,-2 -2,0 -2,1 -2,3 -4,14 -7,18 -12,18 -4,0 -5,-3 -5,-7 0,-1 1,-6 1,-6l22 -84zm-31 82c-1,2 -1,2 -4,5 -5,7 -11,10 -17,10 -7,0 -9,-7 -9,-14 0,-7 3,-24 7,-31 5,-10 12,-15 18,-15 10,0 12,12 12,12 0,2 0,3 0,3l-7 30z"/>
   <path class="fil0" d="M180 210c1,-3 1,-3 10,-3 1,0 3,0 3,-3 0,-2 -2,-2 -3,-2l-15 0c-2,0 -2,0 -5,2l-39 57 -11 -55c0,-4 -1,-4 -4,-4l-14 0c-2,0 -4,0 -4,2 0,3 2,3 3,3 2,0 5,0 7,0 0,1 0,2 -1,3l-12 50c-1,3 -3,6 -11,7 -1,0 -2,1 -2,2 0,0 1,1 2,1 2,0 8,0 11,0l5 0c2,0 3,0 6,0 2,0 2,-2 2,-2 -1,-1 -1,-1 -2,-1 -5,0 -8,-1 -8,-5 0,0 0,0 2,-1l13 -54 0 0 12 61c0,1 0,2 1,2 2,0 2,-1 4,-2l43 -61 0 0 -15 55c0,4 -1,5 -8,5 -2,0 -2,0 -2,0 0,0 -2,1 -2,2 0,0 0,1 3,1 1,0 3,0 6,0 2,0 3,0 6,0l7 0c2,0 5,0 6,0 1,0 1,0 2,-1 0,0 0,-1 0,-1 0,-1 -1,-1 -3,-1 -1,0 -3,0 -4,0 -1,-1 -2,-1 -2,-3 0,0 0,0 0,-1l13 -53z"/>
   <path class="fil0" d="M258 290c0,0 0,-2 -1,-3 -19,-17 -25,-44 -25,-69 0,-24 4,-52 25,-72 1,0 1,-2 1,-2 0,-1 0,-2 -1,-2 -3,0 -16,11 -24,28 -7,14 -11,30 -11,46 0,11 1,29 10,46 9,19 22,30 25,30 1,0 1,-1 1,-2l0 0z"/>
   <path class="fil0" d="M346 166c0,0 -6,6 -6,8 0,2 1,4 3,4 1,0 1,-1 3,-2 1,-3 4,-6 12,-10 1,-1 2,-1 2,-4 0,-1 -1,-2 -1,-3 -3,-1 -5,-4 -7,-9 0,-1 -2,-3 -4,-3 -1,0 -2,1 -2,3 0,3 2,9 3,9l-51 0c-3,0 -5,0 -5,3 0,4 2,4 5,4l48 0z"/>
   <path class="fil0" d="M341 194c-6,1 -7,6 -7,8 0,2 2,6 6,6 3,0 8,-4 8,-10 0,-7 -8,-9 -14,-9 -10,0 -15,7 -17,11 -3,-8 -10,-11 -17,-11 -16,0 -24,19 -24,23 0,1 1,1 2,1 2,0 2,0 2,-1 4,-15 14,-20 20,-20 5,0 8,3 8,10 0,5 -6,29 -8,36 -1,5 -6,14 -14,14 -3,0 -6,-1 -8,-2 4,0 8,-4 8,-7 0,-5 -3,-6 -6,-6 -4,0 -9,3 -9,8 0,9 9,11 15,11 9,0 14,-7 16,-11 4,10 12,11 17,11 16,0 24,-19 24,-23 0,-1 0,-2 -2,-2 -1,0 -1,1 -3,3 -2,11 -12,18 -19,18 -5,0 -8,-2 -8,-9 0,-4 2,-12 3,-18 0,-3 5,-18 5,-19 1,-6 6,-14 13,-14 4,0 6,0 9,2l0 0z"/>
   <path class="fil0" d="M383 252c0,5 0,17 -12,28 0,1 0,1 0,1 0,1 1,3 1,3 2,0 14,-12 14,-30 0,-9 -3,-16 -9,-16 -6,0 -9,4 -9,8 0,4 3,9 9,9 2,0 3,-1 6,-3l0 0z"/>
   <path class="fil0" d="M466 155c1,-1 1,-2 1,-2 0,-1 -1,-3 -3,-3 -2,0 -15,2 -18,2 -1,1 -3,1 -3,3 0,1 2,1 5,1 6,0 6,2 6,3 0,1 0,1 0,3l-22 87c0,2 0,2 0,2 0,3 1,5 4,5 4,0 6,-5 7,-7 2,-10 5,-19 7,-29 10,1 18,6 18,13 0,0 0,1 -1,4 0,0 0,2 0,3 0,10 6,16 14,16 5,0 9,-4 12,-7 4,-6 6,-16 6,-16 0,-1 -1,-2 -2,-2 -1,0 -3,1 -3,3 -2,9 -6,18 -13,18 -5,0 -5,-3 -5,-7 0,-3 2,-7 2,-8 0,0 0,-3 0,-4 0,-11 -11,-14 -22,-17 5,-2 7,-6 12,-10 8,-8 14,-14 22,-14 2,0 4,0 6,2 -8,1 -9,6 -9,8 0,2 1,6 5,6 4,0 8,-4 8,-10 0,-4 -3,-9 -10,-9 -9,0 -16,7 -22,13 -7,7 -11,11 -17,13l15 -60z"/>
   <path class="fil0" d="M552 216c0,-12 -2,-28 -10,-44 -9,-19 -22,-30 -25,-30 -1,0 -1,1 -1,2 0,0 0,2 1,3 9,7 25,27 25,69 0,22 -3,52 -25,72 -1,0 -1,2 -1,2 0,1 0,2 1,2 3,0 16,-11 24,-28 7,-14 11,-30 11,-48l0 0z"/>
   <path class="fil0" d="M715 204c3,0 5,0 5,-2 0,-4 -4,-4 -6,-4l-91 0c-1,0 -5,0 -5,4 0,2 2,2 5,2l92 0zm-1 32c2,0 6,0 6,-4 0,-4 -2,-4 -5,-4l-92 0c-3,0 -5,0 -5,4 0,4 4,4 5,4l91 0z"/>
   <path class="fil0" d="M845 219c0,-22 -13,-30 -27,-30 -20,0 -40,20 -40,42 0,15 10,25 25,25 15,0 27,-10 32,-12 1,7 6,12 15,12 7,0 12,-8 12,-11 0,-1 -2,-1 -2,-1 -2,0 -2,0 -2,1 -2,5 -6,7 -8,7 -5,0 -5,-13 -5,-16 0,-2 0,-3 1,-4 2,-4 7,-8 11,-16 5,-9 7,-18 7,-19 0,0 0,-1 -2,-1 -3,0 -3,0 -3,2 -1,5 -5,17 -14,29l0 -8zm-11 20c-4,4 -16,13 -31,13 -9,0 -13,-6 -13,-16 0,-6 2,-21 8,-30 4,-6 12,-14 20,-14 10,0 14,9 15,18 1,8 0,22 1,29l0 0z"/>
   <path class="fil0" d="M902 207c0,-1 0,-1 0,-3 0,-1 -2,-1 -3,-1l-11 1c-1,0 -2,0 -2,3 0,1 1,1 2,1 4,0 4,1 5,1 0,1 0,1 0,3l-15 56c0,1 0,2 0,2 0,3 3,3 4,3 1,0 2,0 4,-1 1,-2 4,-18 6,-22 6,0 13,2 13,8 0,0 0,2 0,2 0,2 0,2 0,3 0,6 5,10 11,10 9,0 13,-15 13,-15 0,0 0,-1 -3,-1 -1,0 -1,0 -1,1 -1,4 -3,12 -9,12 -4,0 -4,-4 -4,-6 0,-1 0,-1 1,-3 0,0 0,-3 0,-4 0,-7 -8,-9 -17,-11 3,-1 5,-2 9,-6 6,-4 11,-8 17,-8 1,0 2,0 2,1 -4,0 -5,4 -5,6 0,3 3,4 4,4 2,0 6,-3 6,-7 0,-4 -3,-8 -7,-8 -8,0 -14,5 -17,9 -6,5 -9,7 -12,8l9 -38z"/>
   <path class="fil0" d="M1082 220c3,0 5,0 5,-2 0,-4 -2,-4 -5,-4l-82 0c-3,0 -6,0 -6,2 0,4 3,4 6,4l82 0z"/>
   <path class="fil0" d="M1205 228l-5 0c0,2 -1,11 -4,14 -1,1 -10,1 -14,1l-26 0c3,-4 13,-13 15,-15 24,-21 34,-28 34,-44 0,-17 -15,-29 -34,-29 -17,0 -29,13 -29,27 0,8 8,8 9,8 3,0 7,-2 7,-7 0,-5 -2,-9 -7,-9 -1,0 -1,0 -3,0 4,-9 14,-14 22,-14 16,0 20,13 20,24 0,16 -12,28 -18,36l-27 29c-3,2 -3,2 -3,6l58 0 5 -27z"/>
   <path class="fil0" d="M1387 11c1,-3 3,-6 11,-7 0,0 1,0 1,-2 0,-2 0,-2 -1,-2 -2,0 -8,0 -11,0l-5 0c-2,0 -4,0 -6,0 -1,0 -2,2 -2,3 0,1 2,1 2,1 5,0 8,1 8,5 0,0 0,0 -2,1l-10 43 -27 -51c-1,-2 -1,-2 -3,-2l-15 0c-2,0 -3,0 -3,3 0,1 1,1 3,1 1,0 4,0 6,1l-13 52c0,5 -2,7 -11,7 -1,0 -1,1 -1,4 0,0 0,1 1,1 3,0 9,-1 11,-1l6 0c1,0 4,1 5,1 2,0 2,-3 2,-3 0,-2 -1,-2 -2,-2 -5,0 -7,-1 -7,-4 0,0 1,-1 1,-2l12 -50 31 58c1,2 1,3 2,3 3,0 3,-1 3,-3l14 -55z"/>
   <path class="fil0" d="M1430 322l18 -48 -3 0c-6,16 -22,25 -39,30 -3,1 -18,5 -46,5l-90 0 75 -90c1,-1 1,-1 1,-1 0,-2 0,-2 -1,-3l-69 -96 82 0c20,0 34,3 35,3 7,1 21,3 33,12 3,2 14,8 19,20l3 0 -18 -42 -176 0c-4,0 -4,0 -5,1 0,1 0,4 0,5l79 108 -76 91c-3,3 -3,3 -3,3 0,2 3,2 5,2l176 0z"/>
   <path class="fil0" d="M1266 394c0,-7 -7,-10 -11,-10 -3,0 -6,3 -8,6 -3,4 -4,9 -4,10 0,1 1,1 3,1 1,0 1,-1 1,-2 2,-9 5,-11 8,-11 4,0 4,4 4,5 0,1 -1,6 -3,8 0,3 -1,7 -2,9 0,3 -1,6 -1,8 -1,2 -3,7 -3,8 0,3 3,3 4,3 2,0 4,-1 5,-3 0,0 1,-3 1,-6 1,-2 1,-6 2,-8 0,-2 2,-5 2,-7 1,-4 4,-9 8,-12 2,-3 6,-5 12,-5 6,0 6,5 6,7 0,5 -5,16 -6,21 -1,2 -1,3 -1,4 0,6 5,9 9,9 11,0 16,-12 16,-15 0,0 0,-1 -2,-1 -2,0 -2,0 -3,3 -1,4 -5,10 -11,10 -1,0 -2,-1 -2,-3 0,-3 1,-4 2,-6 2,-4 6,-16 6,-21 0,-8 -7,-12 -14,-12 -5,0 -11,2 -18,10l0 0z"/>
   <path class="fil0" d="M1394 395c2,0 4,0 4,-3 0,-3 -2,-3 -4,-3l-69 0c-1,0 -4,0 -4,3 0,3 3,3 4,3l69 0zm0 23c2,0 4,0 4,-4 0,-2 -2,-2 -4,-2l-69 0c-1,0 -4,0 -4,2 0,4 3,4 4,4l69 0z"/>
   <path class="fil0" d="M1442 365c0,-3 0,-3 -2,-3 -7,7 -17,7 -20,7l0 3c2,0 8,0 14,-2l0 50c0,3 0,4 -10,4l-4 0 0 5c6,-1 13,-1 19,-1 6,0 13,0 19,1l0 -5 -5 0c-11,0 -11,-1 -11,-4l0 -55z"/>
   <path class="fil0" d="M1496 281c0,1 0,3 3,3 1,0 1,0 1,-2 1,0 5,-18 12,-43 2,9 11,17 24,17 22,0 41,-20 41,-41 0,-9 -4,-17 -10,-20 11,-7 16,-18 16,-27 0,-10 -9,-19 -21,-19 -20,0 -37,21 -42,40l-24 92zm60 -86c-2,1 -6,1 -7,1 0,0 -6,0 -6,-1 0,-1 7,-1 7,-1 3,0 4,0 6,1l0 0zm5 -4c-3,-1 -8,-1 -9,-1 -5,0 -14,0 -14,5 0,3 6,5 11,5 3,0 7,0 12,-3 4,4 5,7 5,12 0,7 -4,21 -8,30 -3,4 -10,13 -22,13 -12,0 -22,-8 -22,-21 0,-4 2,-5 3,-11 1,-5 5,-22 6,-24 2,-10 5,-20 15,-32 6,-6 16,-11 24,-11 8,0 11,6 11,12 0,3 -1,9 -3,14 -3,7 -6,10 -9,12l0 0z"/>
   <path class="fil0" d="M1627 201c-11,-9 -20,-24 -20,-47 0,-24 8,-40 20,-48 0,0 0,0 0,-1 0,0 0,-1 -1,-1 -2,0 -26,15 -26,50 0,34 24,49 26,49 1,0 1,-1 1,-1 0,0 0,-1 0,-1l0 0z"/>
   <path class="fil0" d="M1664 144c0,-8 -7,-9 -10,-9 -5,0 -8,2 -9,5 -2,4 -3,9 -3,9 0,1 0,3 1,3 2,0 2,-2 2,-3 3,-8 5,-12 7,-12 4,0 4,5 4,6 0,1 0,5 -1,9 -1,2 -1,6 -3,8 0,2 -1,5 -2,7 0,4 -1,9 -1,9 0,2 1,3 3,3 2,0 4,-1 4,-2 1,-1 1,-4 2,-6 0,-4 2,-6 3,-10 0,-2 0,-3 1,-6 1,-3 5,-8 8,-12 2,-2 6,-6 11,-6 7,0 7,6 7,7 0,6 -4,17 -6,22 -1,1 -1,4 -1,5 0,5 4,8 10,8 9,0 14,-13 14,-15 0,0 0,-2 -1,-2 -1,0 -1,2 -2,3 -2,6 -6,11 -11,11 -1,0 -3,-2 -3,-4 0,-1 0,-4 2,-5 1,-5 6,-15 6,-21 0,-8 -6,-11 -14,-11 -4,0 -12,1 -18,9l0 0z"/>
   <path class="fil0" d="M1746 154c0,-35 -24,-50 -25,-50 -1,0 -1,1 -1,1 0,1 0,1 1,2 9,9 18,23 18,47 0,20 -7,36 -18,46 -1,1 -1,1 -1,2 0,0 0,1 1,1 1,0 25,-15 25,-49l0 0z"/>
   <path class="fil0" d="M1613 232c0,0 0,-1 0,-1 0,-1 -3,-1 -4,-1l-11 1c-2,0 -3,0 -3,2 0,1 1,1 3,1 3,0 4,0 5,2 0,1 0,1 0,2l-14 55c0,3 0,3 0,3 0,2 1,3 2,3 1,0 4,0 5,-2 0,-1 5,-18 5,-21 7,0 14,2 14,8 0,1 0,1 0,2 -1,1 -1,2 -1,4 0,6 6,9 12,9 10,0 13,-14 13,-15 0,0 0,-2 -2,-2 -1,0 -1,2 -3,3 0,3 -3,11 -8,11 -4,0 -4,-4 -4,-5 0,-1 0,-1 0,-4 0,0 2,-2 2,-3 0,-8 -10,-10 -17,-11 2,-1 5,-3 8,-6 5,-5 11,-10 16,-10 1,0 2,1 3,3 -3,0 -4,2 -4,4 0,4 2,4 3,4 3,0 6,-1 6,-6 0,-5 -3,-7 -8,-7 -6,0 -12,5 -17,8 -5,5 -8,7 -12,9l11 -40z"/>
   <path class="fil0" d="M1843 194c-6,1 -7,6 -7,8 0,2 1,6 5,6 5,0 8,-4 8,-10 0,-7 -7,-9 -14,-9 -9,0 -15,7 -16,11 -2,-8 -9,-11 -17,-11 -15,0 -24,19 -24,23 0,1 0,1 2,1 1,0 2,0 2,-1 5,-15 14,-20 20,-20 4,0 9,3 9,10 0,5 -7,29 -9,36 -1,5 -6,14 -14,14 -2,0 -6,-1 -7,-2 3,0 7,-4 7,-7 0,-5 -4,-6 -6,-6 -5,0 -8,3 -8,8 0,9 8,11 14,11 8,0 13,-7 16,-11 3,10 13,11 16,11 17,0 26,-19 26,-23 0,-1 -2,-2 -3,-2 -1,0 -1,1 -2,3 -4,11 -12,18 -19,18 -5,0 -9,-2 -9,-9 0,-4 1,-12 3,-18 1,-3 4,-18 6,-19 1,-6 6,-14 13,-14 2,0 6,0 8,2l0 0z"/>
   <path class="fil0" d="M1886 236c0,-8 -7,-10 -10,-10 -5,0 -8,2 -9,6 -2,4 -3,10 -3,10 0,1 0,1 1,1 2,0 2,0 2,-3 3,-7 5,-10 7,-10 4,0 4,4 4,4 0,3 0,6 -1,9 -1,3 -1,7 -3,9 0,3 -1,5 -2,8 0,2 -1,8 -1,8 0,2 1,4 3,4 2,0 4,-2 4,-3 1,-1 1,-5 2,-6 0,-3 2,-6 3,-9 0,-3 0,-5 1,-8 1,-2 5,-8 8,-12 2,-1 6,-4 11,-4 7,0 7,4 7,7 0,6 -4,17 -6,20 -1,3 -1,4 -1,6 0,5 4,9 10,9 9,0 14,-14 14,-16 0,0 0,-1 -1,-1 -1,0 -1,0 -2,2 -2,5 -6,11 -11,11 -1,0 -3,-1 -3,-4 0,-2 0,-3 2,-6 1,-3 6,-14 6,-20 0,-8 -6,-12 -14,-12 -4,0 -12,2 -18,10l0 0z"/>
   <path class="fil0" d="M840 498c0,-3 0,-3 -2,-3 -9,0 -24,-1 -38,-9 -15,-8 -21,-16 -26,-22 0,-2 -1,-2 -2,-2 -4,0 -4,0 -4,4l0 2c20,38 54,45 68,45 4,0 4,0 4,-5l0 -10z"/>
   <path class="fil0" d="M1360 538c-21,-36 -54,-43 -69,-43 -3,0 -3,0 -3,3l0 10c0,4 0,5 2,5 8,0 24,1 37,7 16,8 23,18 27,24 0,0 1,0 2,0 4,0 4,0 4,-4l0 -2z"/>
   <path class="fil0" d="M1426 498c0,-3 0,-3 -3,-3 -15,0 -49,7 -69,43l0 2c0,4 0,4 3,4 3,0 3,0 4,-1 12,-19 33,-30 63,-30 2,0 2,-1 2,-5l0 -10z"/>
   <path class="fil0" d="M1946 466c0,-4 0,-4 -3,-4 -4,0 -4,0 -4,2 -13,19 -33,30 -63,31 -3,0 -3,1 -3,3l0 10c0,5 0,5 4,5 15,0 49,-7 69,-45l0 -2z"/>
   <path class="fil0" d="M1391 599c1,-3 3,-6 11,-7 0,0 2,0 2,-2 0,-2 -1,-2 -2,-2 -3,0 -8,0 -10,0l-6 0c-2,0 -4,0 -6,0 -1,0 -1,2 -1,3 0,1 1,1 2,1 4,0 6,1 6,5 0,0 0,0 0,1l-11 43 -27 -51c-1,-2 -1,-2 -4,-2l-14 0c-1,0 -4,0 -4,3 0,1 3,1 4,1 1,0 5,0 7,1l-13 52c-1,5 -3,7 -11,7 -1,0 -2,1 -2,4 0,0 0,1 1,1 2,0 8,-1 11,-1l6 0c1,0 3,1 4,1 3,0 3,-3 3,-3 0,-2 -1,-2 -3,-2 -4,0 -6,-1 -6,-4 0,0 0,-1 0,-2l14 -50 31 58c0,2 1,3 2,3 1,0 1,-1 3,-3l13 -55z"/>
   <path class="fil0" d="M2028 220l43 0c1,0 5,0 5,-2 0,-4 -2,-4 -5,-4l-43 0 0 -43c0,-3 0,-5 -4,-5 -2,0 -2,2 -2,5l0 43 -43 0c-3,0 -5,0 -5,2 0,4 2,4 5,4l43 0 0 43c0,3 0,5 2,5 4,0 4,-2 4,-5l0 -43z"/>
   <path class="fil0" d="M2261 11c1,-3 3,-6 11,-7 0,0 2,0 2,-2 0,-2 -1,-2 -2,-2 -3,0 -8,0 -10,0l-6 0c-2,0 -4,0 -6,0 -1,0 -1,2 -1,3 0,1 1,1 2,1 4,0 6,1 6,5 0,0 0,0 0,1l-11 43 -27 -51c-1,-2 -1,-2 -4,-2l-14 0c-1,0 -4,0 -4,3 0,1 3,1 4,1 1,0 5,0 7,1l-13 52c-1,5 -3,7 -11,7 -1,0 -2,1 -2,4 0,0 0,1 1,1 2,0 8,-1 11,-1l6 0c1,0 3,1 4,1 3,0 3,-3 3,-3 0,-2 -1,-2 -3,-2 -4,0 -6,-1 -6,-4 0,0 0,-1 0,-2l14 -50 31 58c0,2 1,3 2,3 1,0 1,-1 3,-3l13 -55z"/>
   <path class="fil0" d="M2304 322l18 -48 -4 0c-6,16 -21,25 -38,30 -4,1 -18,5 -47,5l-90 0 76 -90c1,-1 2,-1 2,-1 0,-2 0,-2 -1,-3l-70 -96 82 0c20,0 34,3 35,3 8,1 21,3 32,12 5,2 15,8 19,20l4 0 -18 -42 -176 0c-4,0 -4,0 -4,1 0,1 0,4 0,5l79 108 -78 91c-1,3 -1,3 -1,3 0,2 1,2 4,2l176 0z"/>
   <path class="fil0" d="M2141 394c-1,-7 -9,-10 -12,-10 -4,0 -6,3 -9,6 -2,4 -3,9 -3,10 0,1 1,1 2,1 1,0 1,-1 3,-2 1,-9 3,-11 7,-11 3,0 3,4 3,5 0,1 -1,6 -1,8 -1,3 -2,7 -2,9 -1,3 -1,6 -3,8 0,2 -1,7 -1,8 0,3 1,3 3,3 2,0 3,-1 4,-3 0,0 2,-3 2,-6 1,-2 2,-6 2,-8 1,-2 1,-5 2,-7 0,-4 4,-9 8,-12 2,-3 7,-5 12,-5 6,0 6,5 6,7 0,5 -4,16 -6,21 0,2 -2,3 -2,4 0,6 5,9 11,9 10,0 15,-12 15,-15 0,0 0,-1 -2,-1 -2,0 -2,0 -2,3 -2,4 -6,10 -11,10 -2,0 -2,-1 -2,-3 0,-3 0,-4 1,-6 1,-4 6,-16 6,-21 0,-8 -6,-12 -14,-12 -5,0 -11,2 -17,10l0 0z"/>
   <path class="fil0" d="M2269 395c1,0 4,0 4,-3 0,-3 -4,-3 -5,-3l-68 0c-3,0 -5,0 -5,3 0,3 2,3 3,3l71 0zm-1 23c1,0 5,0 5,-4 0,-2 -3,-2 -4,-2l-71 0c-1,0 -3,0 -3,2 0,4 2,4 5,4l68 0z"/>
   <path class="fil0" d="M2317 365c0,-3 -1,-3 -3,-3 -6,7 -17,7 -21,7l0 3c3,0 10,0 16,-2l0 50c0,3 0,4 -11,4l-4 0 0 5c5,-1 14,-1 18,-1 6,0 14,0 20,1l0 -5 -5 0c-10,0 -10,-1 -10,-4l0 -55z"/>
   <path class="fil0" d="M2420 213l21 -15c1,-2 3,-3 13,-3l0 -7c-5,1 -10,1 -13,1 -4,0 -10,0 -17,-1l0 7c4,0 4,1 5,2l-29 22 0 -69 -26 2 0 7c8,0 9,0 9,6l0 83 -9 0 0 7c9,-1 10,-1 18,-1 6,0 7,0 18,1l0 -7 -11 0 0 -20 9 -6c0,0 20,23 20,23 0,3 -3,3 -4,3l0 7c8,-1 13,-1 18,-1 6,0 10,0 16,1l0 -7c-3,0 -5,0 -8,-2 -2,0 -2,0 -3,-2l-27 -31z"/>
   <path class="fil0" d="M2501 201c-11,-9 -21,-24 -21,-47 0,-24 10,-40 21,-48 0,0 0,0 0,-1 0,0 0,-1 -1,-1 -3,0 -27,15 -27,50 0,34 24,49 27,49 1,0 1,-1 1,-1 0,0 0,-1 0,-1l0 0z"/>
   <path class="fil0" d="M2538 144c0,-8 -7,-9 -11,-9 -3,0 -6,2 -8,5 -3,4 -4,9 -4,9 0,1 1,3 3,3 1,0 1,-2 1,-3 2,-8 5,-12 8,-12 4,0 4,5 4,6 0,1 -1,5 -3,9 0,2 -1,6 -2,8 0,2 -1,5 -1,7 -1,4 -3,9 -3,9 0,2 3,3 4,3 2,0 4,-1 5,-2 0,-1 1,-4 1,-6 1,-4 1,-6 2,-10 0,-2 2,-3 2,-6 1,-3 4,-8 8,-12 2,-2 6,-6 12,-6 6,0 6,6 6,7 0,6 -5,17 -6,22 -1,1 -1,4 -1,5 0,5 5,8 9,8 11,0 16,-13 16,-15 0,0 0,-2 -2,-2 -2,0 -2,2 -3,3 -1,6 -5,11 -11,11 -1,0 -2,-2 -2,-4 0,-1 1,-4 2,-5 2,-5 6,-15 6,-21 0,-8 -7,-11 -14,-11 -5,0 -11,1 -18,9l0 0z"/>
   <path class="fil0" d="M2615 144c-1,-8 -9,-9 -12,-9 -4,0 -6,2 -9,5 -2,4 -3,9 -3,9 0,1 1,3 2,3 1,0 1,-2 3,-3 1,-8 3,-12 7,-12 3,0 3,5 3,6 0,1 -1,5 -1,9 -1,2 -2,6 -2,8 -1,2 -1,5 -3,7 0,4 -1,9 -1,9 0,2 1,3 3,3 2,0 3,-1 4,-2 0,-1 2,-4 2,-6 1,-4 2,-6 2,-10 1,-2 1,-3 2,-6 0,-3 4,-8 8,-12 2,-2 7,-6 12,-6 6,0 6,6 6,7 0,6 -4,17 -6,22 0,1 -2,4 -2,5 0,5 5,8 11,8 10,0 15,-13 15,-15 0,0 0,-2 -2,-2 -2,0 -2,2 -2,3 -2,6 -6,11 -11,11 -2,0 -2,-2 -2,-4 0,-1 0,-4 1,-5 1,-5 6,-15 6,-21 0,-8 -6,-11 -14,-11 -5,0 -11,1 -17,9l0 0z"/>
   <path class="fil0" d="M2696 154c0,-35 -24,-50 -25,-50 -1,0 -2,1 -2,1 0,1 0,1 2,2 9,9 18,23 18,47 0,20 -7,36 -18,46 -2,1 -2,1 -2,2 0,0 1,1 2,1 1,0 25,-15 25,-49l0 0z"/>
   <path class="fil0" d="M2495 232c0,0 0,-1 0,-1 0,-1 -3,-1 -4,-1l-11 1c-2,0 -3,0 -3,2 0,1 1,1 3,1 3,0 4,0 5,2 0,1 0,1 0,2l-14 55c0,3 0,3 0,3 0,2 1,3 2,3 1,0 4,0 5,-2 0,-1 5,-18 5,-21 7,0 14,2 14,8 0,1 0,1 0,2 -1,1 -1,2 -1,4 0,6 6,9 12,9 10,0 13,-14 13,-15 0,0 0,-2 -2,-2 -1,0 -1,2 -3,3 0,3 -3,11 -8,11 -4,0 -4,-4 -4,-5 0,-1 0,-1 0,-4 0,0 2,-2 2,-3 0,-8 -10,-10 -17,-11 2,-1 5,-3 8,-6 5,-5 11,-10 16,-10 1,0 2,1 3,3 -3,0 -4,2 -4,4 0,4 2,4 3,4 3,0 6,-1 6,-6 0,-5 -3,-7 -8,-7 -6,0 -12,5 -17,8 -5,5 -8,7 -12,9l11 -40z"/>
   <path class="fil0" d="M2792 194c-4,1 -7,6 -7,8 0,2 3,6 6,6 5,0 9,-4 9,-10 0,-7 -8,-9 -15,-9 -9,0 -14,7 -15,11 -4,-8 -10,-11 -17,-11 -17,0 -25,19 -25,23 0,1 1,1 2,1 1,0 1,0 2,-1 5,-15 15,-20 21,-20 3,0 7,3 7,10 0,5 -6,29 -8,36 -2,5 -5,14 -14,14 -3,0 -6,-1 -8,-2 5,0 7,-4 7,-7 0,-5 -2,-6 -5,-6 -4,0 -8,3 -8,8 0,9 7,11 14,11 9,0 14,-7 16,-11 4,10 12,11 17,11 15,0 24,-19 24,-23 0,-1 0,-2 -1,-2 -3,0 -3,1 -3,3 -3,11 -12,18 -20,18 -4,0 -9,-2 -9,-9 0,-4 3,-12 4,-18 1,-3 5,-18 5,-19 2,-6 6,-14 14,-14 3,0 5,0 7,2l0 0z"/>
   <path class="fil0" d="M2861 164l-4 0c0,1 -1,8 -2,9 -1,0 -10,0 -11,0l-18 0c2,-2 10,-8 12,-9 4,-4 13,-10 16,-12 3,-4 7,-9 7,-16 0,-12 -11,-20 -25,-20 -12,0 -22,9 -22,18 0,6 5,6 6,6 2,0 5,-2 5,-5 0,-3 -1,-6 -5,-6 1,-5 8,-9 14,-9 11,0 17,8 17,16 0,7 -5,14 -12,20l-24 22c-1,1 -1,1 -1,5l43 0 4 -19z"/>
   <path class="fil0" d="M2837 248c-1,-8 -9,-10 -12,-10 -4,0 -6,2 -9,6 -2,4 -3,10 -3,10 0,1 1,1 2,1 1,0 1,0 3,-3 1,-7 3,-10 7,-10 3,0 3,4 3,4 0,3 -1,6 -1,9 -1,3 -2,7 -2,9 -1,3 -1,5 -3,8 0,2 -1,8 -1,8 0,2 1,4 3,4 2,0 3,-2 4,-3 0,-1 2,-5 2,-6 1,-3 2,-6 2,-9 1,-3 1,-5 2,-8 0,-2 4,-8 8,-12 2,-1 7,-4 12,-4 6,0 6,4 6,7 0,6 -4,17 -6,20 0,3 -2,4 -2,6 0,5 5,9 11,9 10,0 15,-14 15,-16 0,0 0,-1 -2,-1 -2,0 -2,0 -2,2 -2,5 -6,11 -11,11 -2,0 -2,-1 -2,-4 0,-2 0,-3 1,-6 1,-3 6,-14 6,-20 0,-8 -6,-12 -14,-12 -5,0 -11,2 -17,10l0 0z"/>
   <path class="fil0" d="M2180 498c0,-3 0,-3 -2,-3 -10,0 -24,-1 -37,-9 -17,-8 -23,-16 -27,-22 0,-2 -1,-2 -3,-2 -4,0 -4,0 -4,4l0 2c21,38 54,45 70,45 3,0 3,0 3,-5l0 -10z"/>
   <path class="fil0" d="M2506 538c-21,-36 -54,-43 -69,-43 -3,0 -3,0 -3,3l0 10c0,4 0,5 2,5 8,0 24,1 37,7 16,8 23,18 27,24 0,0 1,0 2,0 4,0 4,0 4,-4l0 -2z"/>
   <path class="fil0" d="M2572 498c0,-3 0,-3 -3,-3 -15,0 -49,7 -69,43l0 2c0,4 0,4 3,4 3,0 3,0 4,-1 12,-19 33,-30 63,-30 2,0 2,-1 2,-5l0 -10z"/>
   <path class="fil0" d="M2898 466c0,-4 0,-4 -4,-4 -2,0 -2,0 -3,2 -12,19 -33,30 -64,31 -1,0 -1,1 -1,3l0 10c0,5 0,5 2,5 16,0 50,-7 70,-45l0 -2z"/>
   <path class="fil0" d="M2534 599c2,-3 4,-6 11,-7 1,0 3,0 3,-2 0,-2 0,-2 -2,-2 -2,0 -8,0 -10,0l-6 0c-2,0 -4,0 -5,0 -3,0 -3,2 -3,3 0,1 2,1 3,1 5,0 6,1 6,5 0,0 0,0 0,1l-11 43 -28 -51c0,-2 -1,-2 -3,-2l-15 0c-1,0 -2,0 -2,3 0,1 1,1 4,1 0,0 3,0 6,1l-14 52c-1,5 -2,7 -10,7 -2,0 -3,1 -3,4 0,0 0,1 3,1 2,0 8,-1 10,-1l5 0c3,0 4,1 6,1 3,0 3,-3 3,-3 -2,-2 -2,-2 -3,-2 -5,0 -7,-1 -7,-4 0,0 0,-1 0,-2l13 -50 31 58c2,2 2,3 3,3 1,0 2,-1 2,-3l13 -55z"/>
   <path class="fil0" d="M2978 220l42 0c3,0 6,0 6,-2 0,-4 -3,-4 -6,-4l-42 0 0 -43c0,-3 0,-5 -3,-5 -4,0 -4,2 -4,5l0 43 -42 0c-2,0 -6,0 -6,2 0,4 4,4 6,4l42 0 0 43c0,3 0,5 4,5 3,0 3,-2 3,-5l0 -43z"/>
   <path class="fil0" d="M3131 228l-5 0c0,2 -1,11 -4,14 -1,1 -10,1 -14,1l-26 0c3,-4 13,-13 15,-15 24,-21 34,-28 34,-44 0,-17 -15,-29 -34,-29 -17,0 -29,13 -29,27 0,8 8,8 9,8 3,0 7,-2 7,-7 0,-5 -2,-9 -7,-9 -1,0 -1,0 -3,0 4,-9 14,-14 22,-14 16,0 20,13 20,24 0,16 -12,28 -18,36l-27 29c-3,2 -3,2 -3,6l58 0 5 -27z"/>
   <path class="fil0" d="M3251 11c1,-3 3,-6 11,-7 0,0 2,0 2,-2 0,-2 -1,-2 -2,-2 -3,0 -8,0 -10,0l-6 0c-2,0 -4,0 -6,0 -1,0 -1,2 -1,3 0,1 1,1 2,1 4,0 6,1 6,5 0,0 0,0 0,1l-11 43 -27 -51c-1,-2 -1,-2 -4,-2l-14 0c-1,0 -4,0 -4,3 0,1 3,1 4,1 1,0 5,0 7,1l-13 52c-1,5 -3,7 -11,7 -1,0 -2,1 -2,4 0,0 0,1 1,1 2,0 8,-1 11,-1l6 0c1,0 3,1 4,1 3,0 3,-3 3,-3 0,-2 -1,-2 -3,-2 -4,0 -6,-1 -6,-4 0,0 0,-1 0,-2l14 -50 31 58c0,2 1,3 2,3 1,0 1,-1 3,-3l13 -55z"/>
   <path class="fil0" d="M3349 46c1,0 4,0 4,-2 0,-3 -3,-3 -4,-3l-63 0c-2,0 -4,0 -4,3 0,2 2,2 4,2l63 0z"/>
   <path class="fil0" d="M3401 5c0,-3 0,-3 -4,-3 -6,7 -17,7 -20,7l0 3c3,0 9,0 15,-2l0 50c0,3 0,4 -10,4l-4 0 0 5c5,-1 13,-1 19,-1 5,0 13,0 18,1l0 -5 -3 0c-11,0 -11,-1 -11,-4l0 -55z"/>
   <path class="fil0" d="M3374 322l18 -48 -3 0c-6,16 -22,25 -39,30 -3,1 -18,5 -46,5l-90 0 75 -90c1,-1 1,-1 1,-1 0,-2 0,-2 -1,-3l-69 -96 82 0c20,0 34,3 35,3 7,1 21,3 33,12 3,2 14,8 19,20l3 0 -18 -42 -176 0c-4,0 -4,0 -5,1 0,1 0,4 0,5l79 108 -76 91c-3,3 -3,3 -3,3 0,2 3,2 5,2l176 0z"/>
   <path class="fil0" d="M3209 394c-1,-7 -9,-10 -12,-10 -4,0 -6,3 -9,6 -2,4 -3,9 -3,10 0,1 1,1 2,1 1,0 1,-1 3,-2 1,-9 3,-11 7,-11 3,0 3,4 3,5 0,1 -1,6 -1,8 -1,3 -2,7 -2,9 -1,3 -1,6 -3,8 0,2 -1,7 -1,8 0,3 1,3 3,3 2,0 3,-1 4,-3 0,0 2,-3 2,-6 1,-2 2,-6 2,-8 1,-2 1,-5 2,-7 0,-4 4,-9 8,-12 2,-3 7,-5 12,-5 6,0 6,5 6,7 0,5 -4,16 -6,21 0,2 -2,3 -2,4 0,6 5,9 11,9 10,0 15,-12 15,-15 0,0 0,-1 -2,-1 -2,0 -2,0 -2,3 -2,4 -6,10 -11,10 -2,0 -2,-1 -2,-3 0,-3 0,-4 1,-6 1,-4 6,-16 6,-21 0,-8 -6,-12 -14,-12 -5,0 -11,2 -17,10l0 0z"/>
   <path class="fil0" d="M3337 395c1,0 4,0 4,-3 0,-3 -4,-3 -5,-3l-68 0c-3,0 -5,0 -5,3 0,3 2,3 3,3l71 0zm-1 23c1,0 5,0 5,-4 0,-2 -3,-2 -4,-2l-71 0c-1,0 -3,0 -3,2 0,4 2,4 5,4l68 0z"/>
   <path class="fil0" d="M3385 365c0,-3 -1,-3 -3,-3 -6,7 -17,7 -21,7l0 3c3,0 10,0 16,-2l0 50c0,3 0,4 -11,4l-4 0 0 5c5,-1 14,-1 18,-1 6,0 14,0 20,1l0 -5 -5 0c-10,0 -10,-1 -10,-4l0 -55z"/>
   <path class="fil0" d="M3703 11c1,-3 3,-6 11,-7 0,0 1,0 1,-2 0,-2 0,-2 -1,-2 -2,0 -8,0 -11,0l-5 0c-2,0 -4,0 -6,0 -1,0 -2,2 -2,3 0,1 2,1 2,1 5,0 8,1 8,5 0,0 0,0 -2,1l-10 43 -27 -51c-1,-2 -1,-2 -3,-2l-15 0c-2,0 -3,0 -3,3 0,1 1,1 3,1 1,0 4,0 6,1l-13 52c0,5 -2,7 -11,7 -1,0 -1,1 -1,4 0,0 0,1 1,1 3,0 9,-1 11,-1l6 0c1,0 4,1 5,1 2,0 2,-3 2,-3 0,-2 -1,-2 -2,-2 -5,0 -7,-1 -7,-4 0,0 1,-1 1,-2l12 -50 31 58c1,2 1,3 2,3 3,0 3,-1 3,-3l14 -55z"/>
   <path class="fil0" d="M3749 322l18 -48 -4 0c-6,16 -21,25 -39,30 -3,1 -18,5 -46,5l-91 0 77 -90c1,-1 1,-1 1,-1 0,-2 0,-2 -1,-3l-70 -96 82 0c20,0 33,3 34,3 9,1 22,3 34,12 4,2 13,8 19,20l4 0 -18 -42 -178 0c-2,0 -3,0 -3,1 0,1 0,4 0,5l79 108 -78 91c-1,3 -1,3 -1,3 0,2 1,2 3,2l178 0z"/>
   <path class="fil0" d="M3500 420c0,2 -1,5 -1,6 0,3 1,3 4,3 1,0 3,-1 3,-3 0,0 2,-3 3,-6 0,-2 1,-6 1,-8 1,-2 1,-5 2,-7 2,-4 4,-9 9,-12 1,-3 6,-5 11,-5 7,0 7,5 7,7 0,5 -5,16 -6,21 -1,2 -3,3 -3,4 0,6 5,9 11,9 10,0 15,-12 15,-15 0,0 0,-1 -2,-1 -1,0 -1,0 -2,3 -1,4 -6,10 -11,10 -1,0 -2,-1 -2,-3 0,-3 0,-4 1,-6 1,-3 6,-16 6,-21 0,-8 -6,-12 -13,-12 -6,0 -12,3 -19,11 0,-7 -6,-11 -14,-11 -4,0 -12,2 -18,10 0,-7 -7,-10 -10,-10 -5,0 -8,3 -9,6 -2,4 -3,10 -3,10 0,1 0,1 1,1 2,0 2,-1 2,-2 3,-7 5,-11 7,-11 4,0 4,4 4,5 0,1 0,6 -1,8 -1,3 -1,7 -3,9 0,3 -1,6 -2,8 0,2 -1,7 -1,8 0,3 1,3 3,3 2,0 4,-1 4,-3 1,0 1,-3 2,-6 0,-2 2,-6 3,-8 0,-2 0,-5 1,-7 1,-4 5,-9 8,-12 2,-3 6,-5 11,-5 7,0 7,5 7,7 0,3 -1,6 -2,10l-4 15z"/>
   <path class="fil0" d="M3643 395c1,0 4,0 4,-3 0,-3 -4,-3 -5,-3l-68 0c-3,0 -5,0 -5,3 0,3 2,3 3,3l71 0zm-1 23c1,0 5,0 5,-4 0,-2 -3,-2 -4,-2l-71 0c-1,0 -3,0 -3,2 0,4 2,4 5,4l68 0z"/>
   <path class="fil0" d="M3684 394c0,-7 -7,-10 -11,-10 -3,0 -6,3 -8,6 -3,4 -4,9 -4,10 0,1 1,1 3,1 1,0 1,-1 1,-2 2,-9 5,-11 8,-11 4,0 4,4 4,5 0,1 -1,6 -3,8 0,3 -1,7 -2,9 0,3 -1,6 -1,8 -1,2 -3,7 -3,8 0,3 3,3 4,3 2,0 4,-1 5,-3 0,0 1,-3 1,-6 1,-2 1,-6 2,-8 0,-2 2,-5 2,-7 1,-4 4,-9 8,-12 2,-3 6,-5 12,-5 6,0 6,5 6,7 0,5 -5,16 -6,21 -1,2 -1,3 -1,4 0,6 5,9 9,9 11,0 16,-12 16,-15 0,0 0,-1 -2,-1 -2,0 -2,0 -3,3 -1,4 -5,10 -11,10 -1,0 -2,-1 -2,-3 0,-3 1,-4 2,-6 2,-4 6,-16 6,-21 0,-8 -7,-12 -14,-12 -5,0 -11,2 -18,10l0 0z"/>
   <path class="fil0" d="M3780 406l32 0c2,0 4,0 4,-2 0,-3 -2,-3 -4,-3l-32 0 0 -32c0,-1 0,-4 -2,-4 -3,0 -3,3 -3,4l0 32 -32 0c-1,0 -4,0 -4,3 0,2 3,2 4,2l32 0 0 32c0,2 0,4 3,4 2,0 2,-2 2,-4l0 -32z"/>
   <path class="fil0" d="M3860 365c0,-3 0,-3 -2,-3 -7,7 -17,7 -20,7l0 3c2,0 8,0 14,-2l0 50c0,3 0,4 -10,4l-4 0 0 5c6,-1 13,-1 19,-1 6,0 13,0 19,1l0 -5 -5 0c-11,0 -11,-1 -11,-4l0 -55z"/>
   <path class="fil0" d="M3964 213l20 -15c2,-2 4,-3 13,-3l0 -7c-5,1 -8,1 -12,1 -3,0 -9,0 -17,-1l0 7c4,0 4,1 5,2l-29 22 0 -69 -27 2 0 7c9,0 11,0 11,6l0 83 -11 0 0 7c9,-1 12,-1 18,-1 7,0 8,0 18,1l0 -7 -10 0 0 -20 10 -6c0,0 19,23 19,23 0,3 -2,3 -4,3l0 7c9,-1 12,-1 17,-1 6,0 11,0 17,1l0 -7c-2,0 -6,0 -7,-2 -3,0 -4,0 -5,-2l-26 -31z"/>
   <path class="fil0" d="M4045 201c-11,-9 -20,-24 -20,-47 0,-24 8,-40 20,-48 0,0 0,0 0,-1 0,0 0,-1 -1,-1 -2,0 -26,15 -26,50 0,34 24,49 26,49 1,0 1,-1 1,-1 0,0 0,-1 0,-1l0 0z"/>
   <path class="fil0" d="M4100 170c0,2 -1,6 -1,6 0,2 1,3 4,3 1,0 3,-1 3,-2 0,-1 2,-4 3,-6 0,-4 1,-6 1,-10 1,-2 1,-3 2,-6 2,-3 4,-8 9,-12 1,-2 6,-6 11,-6 7,0 7,6 7,7 0,6 -5,17 -6,22 -1,1 -3,4 -3,5 0,5 5,8 11,8 10,0 15,-13 15,-15 0,0 0,-2 -2,-2 -1,0 -1,2 -2,3 -1,6 -6,11 -11,11 -1,0 -2,0 -2,-4 0,-1 0,-4 1,-5 1,-3 6,-15 6,-21 0,-8 -6,-11 -13,-11 -6,0 -12,1 -19,9 0,-7 -6,-9 -14,-9 -4,0 -12,1 -18,9 0,-8 -7,-9 -10,-9 -5,0 -8,2 -9,5 -2,4 -3,9 -3,9 0,1 0,3 1,3 2,0 2,-2 2,-3 3,-8 5,-12 7,-12 4,0 4,4 4,6 0,1 0,5 -1,9 -1,2 -1,6 -3,8 0,2 -1,5 -2,7 0,4 -1,9 -1,9 0,2 1,3 3,3 2,0 4,-1 4,-2 1,-1 1,-4 2,-6 0,-4 2,-6 3,-10 0,-2 0,-3 1,-6 1,-3 5,-8 8,-12 2,-2 6,-6 11,-6 7,0 7,6 7,7 0,3 -1,8 -2,10l-4 16z"/>
   <path class="fil0" d="M4190 144c0,-8 -7,-9 -10,-9 -5,0 -8,2 -9,5 -2,4 -3,9 -3,9 0,1 0,3 1,3 2,0 2,-2 2,-3 3,-8 5,-12 7,-12 4,0 4,5 4,6 0,1 0,5 -1,9 -1,2 -1,6 -3,8 0,2 -1,5 -2,7 0,4 -1,9 -1,9 0,2 1,3 3,3 2,0 4,-1 4,-2 1,-1 1,-4 2,-6 0,-4 2,-6 3,-10 0,-2 0,-3 1,-6 1,-3 5,-8 8,-12 2,-2 6,-6 11,-6 7,0 7,6 7,7 0,6 -4,17 -6,22 -1,1 -1,4 -1,5 0,5 4,8 10,8 9,0 14,-13 14,-15 0,0 0,-2 -1,-2 -1,0 -1,2 -2,3 -2,6 -6,11 -11,11 -1,0 -3,-2 -3,-4 0,-1 2,-4 2,-5 1,-5 6,-15 6,-21 0,-8 -6,-11 -14,-11 -4,0 -12,1 -18,9l0 0z"/>
   <path class="fil0" d="M4272 154c0,-35 -24,-50 -25,-50 -1,0 -1,1 -1,1 0,1 0,1 1,2 9,9 18,23 18,47 0,20 -7,36 -18,46 -1,1 -1,1 -1,2 0,0 0,1 1,1 1,0 25,-15 25,-49l0 0z"/>
   <path class="fil0" d="M4038 232c0,0 0,-1 0,-1 0,-1 -1,-1 -2,-1l-11 1c-3,0 -4,0 -4,2 0,1 1,1 3,1 3,0 3,0 6,2 0,1 0,1 -2,2l-13 55c-1,3 -1,3 -1,3 0,2 2,3 4,3 1,0 2,0 4,-2 0,-1 4,-18 5,-21 7,0 15,2 15,8 0,1 0,1 -2,2 0,1 0,2 0,4 0,6 6,9 11,9 10,0 13,-14 13,-15 0,0 0,-2 -1,-2 -1,0 -2,2 -2,3 -1,3 -4,11 -9,11 -3,0 -3,-4 -3,-5 0,-1 0,-1 0,-4 0,0 0,-2 0,-3 0,-8 -9,-10 -16,-11 3,-1 4,-3 9,-6 4,-5 9,-10 15,-10 1,0 3,1 4,3 -4,0 -5,2 -5,4 0,4 2,4 4,4 2,0 6,-1 6,-6 0,-5 -4,-7 -9,-7 -6,0 -12,5 -17,8 -4,5 -8,7 -12,9l10 -40z"/>
   <path class="fil0" d="M4369 194c-6,1 -7,6 -7,8 0,2 1,6 5,6 5,0 8,-4 8,-10 0,-7 -7,-9 -14,-9 -9,0 -15,7 -16,11 -2,-8 -9,-11 -17,-11 -15,0 -24,19 -24,23 0,1 0,1 2,1 1,0 2,0 2,-1 5,-15 14,-20 20,-20 4,0 9,3 9,10 0,5 -7,29 -9,36 -1,5 -6,14 -14,14 -2,0 -6,-1 -7,-2 3,0 7,-4 7,-7 0,-5 -4,-6 -6,-6 -5,0 -8,3 -8,8 0,9 8,11 14,11 8,0 13,-7 16,-11 3,10 13,11 16,11 17,0 26,-19 26,-23 0,-1 -2,-2 -3,-2 -1,0 -1,1 -2,3 -4,11 -12,18 -19,18 -5,0 -9,-2 -9,-9 0,-4 1,-12 3,-18 1,-3 4,-18 6,-19 1,-6 6,-14 13,-14 2,0 6,0 8,2l0 0z"/>
   <path class="fil0" d="M4430 262c0,2 -1,6 -1,6 0,2 1,4 4,4 1,0 3,-2 3,-3 0,-1 2,-5 3,-6 0,-3 1,-6 1,-9 1,-3 1,-5 2,-8 2,-2 4,-8 9,-12 1,-1 6,-4 11,-4 7,0 7,4 7,7 0,6 -5,17 -6,20 -1,3 -3,4 -3,6 0,5 5,9 11,9 10,0 15,-14 15,-16 0,0 0,-1 -2,-1 -1,0 -1,0 -2,2 -1,6 -6,11 -11,11 -1,0 -2,0 -2,-4 0,-2 0,-3 1,-6 1,-2 6,-14 6,-20 0,-8 -6,-12 -13,-12 -6,0 -12,2 -19,11 0,-7 -6,-11 -14,-11 -4,0 -12,2 -18,10 0,-8 -7,-10 -10,-10 -5,0 -8,2 -9,6 -2,4 -3,10 -3,10 0,1 0,1 1,1 2,0 2,0 2,-3 3,-7 5,-10 7,-10 4,0 4,3 4,4 0,3 0,6 -1,9 -1,3 -1,7 -3,9 0,3 -1,5 -2,8 0,2 -1,8 -1,8 0,2 1,4 3,4 2,0 4,-2 4,-3 1,-1 1,-5 2,-6 0,-3 2,-6 3,-9 0,-3 0,-5 1,-8 1,-2 5,-8 8,-12 2,-1 6,-4 11,-4 7,0 7,4 7,7 0,2 -1,6 -2,9l-4 16z"/>
   <path class="fil0" d="M4573 194c-6,1 -7,6 -7,8 0,2 1,6 5,6 5,0 8,-4 8,-10 0,-7 -7,-9 -14,-9 -9,0 -15,7 -16,11 -2,-8 -9,-11 -17,-11 -15,0 -24,19 -24,23 0,1 0,1 2,1 1,0 2,0 2,-1 5,-15 14,-20 20,-20 4,0 9,3 9,10 0,5 -7,29 -9,36 -1,5 -6,14 -14,14 -2,0 -6,-1 -7,-2 3,0 7,-4 7,-7 0,-5 -4,-6 -6,-6 -5,0 -8,3 -8,8 0,9 8,11 14,11 8,0 13,-7 16,-11 3,10 13,11 16,11 17,0 26,-19 26,-23 0,-1 -2,-2 -3,-2 -1,0 -1,1 -2,3 -4,11 -12,18 -19,18 -5,0 -9,-2 -9,-9 0,-4 1,-12 3,-18 1,-3 4,-18 6,-19 1,-6 6,-14 13,-14 2,0 6,0 8,2l0 0z"/>
   <path class="fil0" d="M4616 236c0,-8 -7,-10 -10,-10 -5,0 -8,2 -9,6 -2,4 -3,10 -3,10 0,1 0,1 1,1 2,0 2,0 2,-3 3,-7 5,-10 7,-10 4,0 4,4 4,4 0,3 0,6 -1,9 -1,3 -1,7 -3,9 0,3 -1,5 -2,8 0,2 -1,8 -1,8 0,2 1,4 3,4 2,0 4,-2 4,-3 1,-1 1,-5 2,-6 0,-3 2,-6 3,-9 0,-3 0,-5 1,-8 1,-2 5,-8 8,-12 2,-1 6,-4 11,-4 7,0 7,4 7,7 0,6 -4,17 -6,20 -1,3 -1,4 -1,6 0,5 4,9 10,9 9,0 14,-14 14,-16 0,0 0,-1 -1,-1 -1,0 -1,0 -2,2 -2,5 -6,11 -11,11 -1,0 -3,-1 -3,-4 0,-2 2,-3 2,-6 1,-3 6,-14 6,-20 0,-8 -6,-12 -14,-12 -4,0 -12,2 -18,10l0 0z"/>
   <path class="fil0" d="M3130 513c0,-4 0,-5 -2,-5 -9,0 -24,-1 -38,-7 -16,-9 -22,-18 -25,-24 -1,0 -1,0 -4,0 -3,0 -3,0 -3,3l0 3c20,36 54,43 69,43 3,0 3,0 3,-4l0 -9z"/>
   <path class="fil0" d="M3872 552c-20,-37 -54,-44 -69,-44 -4,0 -4,1 -4,5l0 9c0,4 0,4 3,4 9,0 24,1 37,8 17,9 23,18 26,23 0,1 1,1 4,1 3,0 3,0 3,-3l0 -3z"/>
   <path class="fil0" d="M3938 513c0,-4 0,-5 -3,-5 -16,0 -49,7 -70,44l0 3c0,3 0,3 4,3 3,0 3,0 3,-1 14,-19 34,-30 64,-31 2,0 2,-1 2,-4l0 -9z"/>
   <path class="fil0" d="M4680 480c0,-3 0,-3 -4,-3 -2,0 -2,0 -3,1 -12,19 -33,30 -64,30 -1,0 -1,1 -1,5l0 9c0,4 0,4 2,4 16,0 50,-7 70,-43l0 -3z"/>
   <path class="fil0" d="M3703 627c1,-4 3,-6 11,-6 0,0 1,0 1,-3 0,-1 0,-2 -1,-2 -2,0 -8,1 -11,1l-5 0c-2,0 -4,-1 -6,-1 -1,0 -2,1 -2,2 0,3 2,3 2,3 5,0 8,1 8,3 0,0 0,2 -2,2l-10 44 -27 -52c-1,-2 -1,-2 -3,-2l-15 0c-2,0 -3,0 -3,2 0,3 1,3 3,3 1,0 4,0 6,0l-13 53c0,3 -2,6 -11,7 -1,0 -1,0 -1,2 0,0 0,1 1,1 3,0 9,0 11,0l6 0c1,0 4,0 5,0 2,0 2,-2 2,-2 0,-1 -1,-1 -2,-1 -5,0 -7,-1 -7,-5 0,0 1,0 1,-1l12 -52 31 60c1,1 1,1 2,1 3,0 3,0 3,-2l14 -55z"/>
   <path class="fil0" d="M3770 640l-3 0c0,2 -1,7 -3,8 -1,0 -8,0 -9,0l-16 0c5,-3 12,-8 17,-12 7,-4 14,-9 14,-19 0,-11 -10,-15 -22,-15 -11,0 -20,6 -20,14 0,4 4,5 5,5 3,0 5,-1 5,-5 0,-4 -1,-5 -5,-5 3,-3 7,-6 13,-6 9,0 15,5 15,12 0,7 -5,13 -11,18l-20 17c-2,1 -2,1 -2,2l0 3 39 0 3 -17z"/>
   <path class="fil0" d="M3841 615c0,-3 0,-3 0,-3 0,-1 -1,-2 -2,-2 -1,0 -3,1 -3,2l-39 93c0,1 0,1 0,2 0,1 1,3 2,3 1,0 3,-2 3,-3l39 -92z"/>
   <path class="fil0" d="M3905 665l-4 0c0,3 -1,9 -2,10 -1,1 -10,1 -11,1l-18 0c2,-2 10,-8 12,-11 4,-2 13,-9 16,-12 3,-3 7,-8 7,-15 0,-12 -11,-20 -25,-20 -12,0 -22,9 -22,18 0,5 5,5 6,5 2,0 5,-1 5,-5 0,-2 -1,-6 -5,-6 1,-4 8,-8 14,-8 11,0 17,8 17,16 0,7 -5,14 -12,20l-24 23c-1,0 -1,0 -1,3l43 0 4 -19z"/>
   <path class="fil0" d="M3991 662c1,0 4,0 4,-3 0,-2 -3,-2 -4,-2l-63 0c-2,0 -4,0 -4,2 0,3 2,3 4,3l63 0z"/>
   <path class="fil0" d="M4094 627c2,-4 4,-6 11,-6 1,0 3,0 3,-3 0,-1 0,-2 -2,-2 -2,0 -8,1 -10,1l-6 0c-2,0 -4,-1 -5,-1 -3,0 -3,1 -3,2 0,3 2,3 3,3 5,0 6,1 6,3 0,0 0,2 0,2l-11 44 -28 -52c0,-2 -1,-2 -3,-2l-13 0c-3,0 -4,0 -4,2 0,3 1,3 4,3 0,0 3,0 6,0l-14 53c-1,3 -2,6 -10,7 -2,0 -3,0 -3,2 0,0 0,1 3,1 2,0 8,0 10,0l5 0c3,0 4,0 6,0 3,0 3,-2 3,-2 -2,-1 -2,-1 -3,-1 -5,0 -7,-1 -7,-5 0,0 0,0 0,-1l13 -52 31 60c2,1 2,1 3,1 1,0 2,0 2,-2l13 -55z"/>
   <rect class="fil1" x="838" y="495" width="450" height="18"/>
   <rect class="fil1" x="2178" y="495" width="259" height="18"/>
   <rect class="fil1" x="2569" y="495" width="259" height="18"/>
   <rect class="fil1" x="3128" y="508" width="671" height="18"/>
   <rect class="fil1" x="3935" y="508" width="673" height="18"/>
   <rect class="fil1" x="1423" y="495" width="451" height="18"/>
  </g>
 </g>
</svg>
