<?xml version="1.0" encoding="iso-8859-1"?>
<!DOCTYPE svg PUBLIC "-//W3C//DTD SVG 1.0//EN" "http://www.w3.org/TR/2001/REC-SVG-20010904/DTD/svg10.dtd">
<!-- Creator: CorelDRAW -->
<svg xmlns="http://www.w3.org/2000/svg" xmlns:odm="http://product.corel.com/CGS/11/cddns/" xml:space="preserve" width="3.34201in" height="0.432008in" style="shape-rendering:geometricPrecision; text-rendering:geometricPrecision; image-rendering:optimizeQuality; fill-rule:evenodd"
     viewBox="0 0 3342 432">
 <defs>
  <style type="text/css">
   <![CDATA[
    .fil0 {fill:#1F1A17}
   ]]>
  </style>
 </defs>
 <g id="Ebene 1">
  <g>
   <path class="fil0" d="M11 275c-1,3 -1,5 -7,5 -3,0 -4,0 -4,3 0,0 0,1 1,1l7 0c0,0 4,0 6,0 3,0 5,0 8,0 2,0 6,0 7,0 1,0 3,0 3,-2 0,-2 -1,-2 -4,-2 -6,0 -6,-2 -6,-3 0,0 0,-5 1,-7 1,-7 3,-14 6,-22 1,3 5,9 13,9 18,0 37,-21 37,-43 0,-16 -9,-24 -20,-24 -4,0 -11,1 -21,10 -2,-8 -8,-10 -14,-10 -6,0 -8,4 -11,8 -2,6 -5,14 -5,14 0,2 2,3 3,3 1,0 1,-1 2,-4 3,-12 6,-18 11,-18 5,0 5,5 5,7 0,2 0,4 0,5l-18 70zm27 -65c0,-4 0,-4 3,-6 3,-5 11,-11 17,-11 7,0 10,7 10,15 0,6 -4,25 -9,32 -5,10 -11,13 -17,13 -10,0 -12,-12 -12,-12 0,-1 0,-2 1,-2l7 -29z"/>
   <path class="fil0" d="M133 292c0,-2 -1,-2 -1,-3 -19,-18 -25,-44 -25,-71 0,-22 3,-51 25,-72 1,0 1,0 1,-1 0,-1 -1,-1 -2,-1 -1,0 -15,11 -23,26 -7,15 -11,30 -11,48 0,11 1,28 10,46 8,18 23,29 24,29 1,0 2,0 2,-1l0 0z"/>
   <path class="fil0" d="M221 167c0,0 -7,6 -7,8 0,3 2,4 3,4 1,0 3,-1 4,-3 1,-1 5,-6 11,-9 2,0 3,-1 3,-4 0,-1 -1,-2 -2,-2 -3,-1 -5,-4 -6,-9 -1,-2 -1,-3 -4,-3 -1,0 -3,1 -3,3 0,3 3,8 3,9l-50 0c-3,0 -6,0 -6,2 0,4 3,4 6,4l48 0z"/>
   <path class="fil0" d="M216 196c-6,1 -7,6 -7,7 0,3 1,6 5,6 4,0 8,-4 8,-9 0,-7 -7,-10 -14,-10 -9,0 -15,8 -16,10 -2,-7 -10,-10 -17,-10 -15,0 -24,19 -24,22 0,2 0,3 1,3 2,0 3,-1 3,-3 5,-14 14,-19 20,-19 4,0 9,3 9,10 0,6 -8,30 -9,37 -1,5 -6,13 -14,13 -3,0 -6,-1 -7,-1 3,-1 7,-5 7,-8 0,-4 -4,-6 -6,-6 -5,0 -9,4 -9,9 0,7 9,10 15,10 8,0 13,-7 15,-11 4,10 14,11 17,11 17,0 25,-19 25,-23 0,0 -1,-1 -2,-1 -1,0 -1,0 -2,2 -4,11 -12,18 -20,18 -4,0 -8,-2 -8,-9 0,-4 1,-12 2,-17 2,-4 5,-19 6,-21 2,-4 6,-13 14,-13 2,0 6,0 8,3l0 0z"/>
   <path class="fil0" d="M252 149c0,-3 0,-5 -2,-5 -4,0 -4,2 -4,5l0 139c0,2 0,5 4,5 2,0 2,-3 2,-5l0 -139z"/>
   <path class="fil0" d="M299 232c1,-6 3,-17 3,-18 2,-2 5,-9 10,-15 5,-3 11,-6 16,-6 8,0 8,9 8,11 0,1 0,4 -1,11 -1,5 -3,8 -4,13 -5,19 -6,24 -6,25 0,1 1,4 5,4 1,0 4,-1 5,-3 1,-1 2,-6 2,-8l4 -14c1,-6 5,-17 5,-18 0,-2 3,-9 9,-15 4,-3 10,-6 16,-6 8,0 8,9 8,11 0,8 -7,28 -9,31 -2,5 -3,7 -3,10 0,8 7,12 13,12 15,0 21,-21 21,-23 0,0 0,-1 -3,-1 -1,0 -1,0 -2,2 -4,13 -10,18 -14,18 -2,0 -5,0 -5,-5 0,-3 2,-7 3,-10 3,-8 9,-23 9,-32 0,-13 -10,-16 -18,-16 -15,0 -22,10 -24,14 -1,-12 -12,-14 -18,-14 -15,0 -22,9 -24,13 -1,-9 -7,-13 -15,-13 -6,0 -9,4 -12,8 -2,6 -3,14 -3,14 0,2 0,3 1,3 2,0 2,-1 4,-4 2,-12 6,-18 10,-18 5,0 5,5 5,7 0,4 -1,8 -2,12 -1,4 -3,10 -4,12 -1,9 -3,16 -6,24 -1,4 -1,4 -1,5 0,1 1,4 5,4 2,0 5,-1 6,-3 0,-1 1,-6 2,-8l4 -14z"/>
   <path class="fil0" d="M450 218c0,-12 -1,-28 -10,-45 -8,-18 -21,-29 -24,-29 -1,0 -1,1 -1,1 0,1 0,1 1,3 9,7 26,27 26,70 0,22 -5,51 -27,71 0,1 0,1 0,3 0,0 0,1 1,1 3,0 16,-11 23,-28 7,-13 11,-29 11,-47l0 0z"/>
   <path class="fil0" d="M614 206c2,0 5,0 5,-3 0,-4 -3,-4 -6,-4l-91 0c-2,0 -6,0 -6,4 0,3 4,3 6,3l92 0zm-1 30c3,0 6,0 6,-3 0,-3 -3,-3 -5,-3l-92 0c-2,0 -6,0 -6,3 0,3 4,3 6,3l91 0z"/>
   <path class="fil0" d="M788 28c0,0 0,-2 0,-2 0,0 0,0 2,-1 9,-7 24,-17 28,-19 4,-1 6,-2 10,-2 1,0 2,0 2,-3 0,-1 0,-1 -1,-1 -2,0 -5,0 -7,0 -1,0 -5,0 -7,0 -1,0 -5,0 -5,0 -1,0 -2,0 -2,2 0,2 1,2 1,2 2,0 2,1 2,1 0,1 -2,2 -2,3 0,0 0,0 -1,0 0,0 0,2 -2,2l-43 28 9 -31c0,-2 1,-3 8,-3 2,0 4,0 4,-3 0,-1 0,-1 -3,-1 -1,0 -3,0 -6,0 -2,0 -5,0 -7,0 -2,0 -4,0 -6,0 -2,0 -5,0 -7,0 -1,0 -3,0 -3,2 0,2 2,2 4,2 1,0 4,0 6,1 0,0 0,1 0,2l-13 52c-1,3 -1,5 -9,5 -2,0 -3,0 -3,2 0,1 0,1 1,1 2,0 5,0 7,0 3,0 4,0 6,0 3,0 5,0 7,0 3,0 5,0 8,0 0,0 2,0 2,-2 0,-1 -1,-1 -4,-1 0,0 -2,0 -3,0 -3,0 -4,0 -4,-2 0,-1 1,-3 1,-4 2,-2 2,-2 2,-4 1,-6 1,-6 2,-11l18 -12 16 30c0,1 0,3 -4,3 -1,0 -4,0 -4,2 0,1 2,1 3,1 2,0 9,0 13,0 1,0 4,0 5,0 1,0 3,0 5,0 1,0 2,0 2,-2 0,-1 -1,-1 -2,-1 -5,0 -6,-2 -8,-4l-18 -32z"/>
   <path class="fil0" d="M859 323l18 -48 -3 0c-6,15 -22,26 -39,30 -3,1 -18,5 -47,5l-90 0 76 -89c1,-1 1,-3 1,-3 0,0 0,-1 -1,-2l-70 -95 83 0c19,0 34,1 35,3 7,1 20,3 32,10 4,3 15,10 20,22l3 0 -18 -42 -176 0c-4,0 -4,0 -5,1 0,0 0,3 0,5l79 108 -77 90c-2,2 -2,4 -2,4 0,1 2,1 5,1l176 0z"/>
   <path class="fil0" d="M703 366c0,-1 0,-1 0,-2 0,-2 -2,-2 -3,-2l-11 2c-1,0 -3,0 -3,2 0,1 2,1 3,1 3,0 3,1 5,1 0,2 0,2 0,3l-15 56c0,1 0,3 0,3 0,2 3,2 4,2 1,0 2,0 3,-1 2,-3 5,-18 6,-22 6,0 14,3 14,9 0,0 0,1 0,1 0,2 0,2 0,3 0,6 4,10 10,10 10,0 14,-14 14,-14 0,0 0,-2 -3,-2 -1,0 -1,0 -1,2 -1,3 -4,12 -10,12 -3,0 -3,-5 -3,-6 0,-2 0,-2 1,-4 0,0 0,-2 0,-4 0,-7 -8,-9 -17,-10 3,-2 5,-3 9,-6 6,-5 10,-9 16,-9 2,0 3,0 3,1 -4,0 -5,4 -5,6 0,3 2,4 4,4 2,0 6,-2 6,-7 0,-4 -3,-7 -8,-7 -7,0 -13,4 -16,8 -6,5 -9,7 -12,8l9 -38z"/>
   <path class="fil0" d="M820 398c1,0 3,0 3,-3 0,-3 -2,-3 -5,-3l-68 0c-1,0 -4,0 -4,3 0,3 2,3 4,3l70 0zm-2 23c3,0 5,0 5,-3 0,-3 -2,-3 -3,-3l-70 0c-2,0 -4,0 -4,3 0,3 3,3 4,3l68 0z"/>
   <path class="fil0" d="M868 368c0,-3 0,-3 -4,-3 -6,7 -17,7 -20,7l0 4c3,0 9,0 15,-3l0 51c0,2 0,3 -11,3l-3 0 0 5c5,-1 13,-1 19,-1 5,0 13,0 18,1l0 -5 -4 0c-10,0 -10,-1 -10,-3l0 -56z"/>
   <path class="fil0" d="M991 197c0,-3 -2,-5 -5,-5 -2,0 -6,2 -7,6 -2,-5 -7,-8 -13,-8 -18,0 -37,21 -37,42 0,14 9,24 21,24 6,0 12,-4 17,-9 -1,9 -3,18 -5,22 -1,1 -6,13 -21,13 -4,0 -9,0 -12,-1 3,-1 6,-4 6,-7 0,-4 -3,-5 -6,-5 -4,0 -9,2 -9,8 0,7 9,10 21,10 19,0 30,-12 32,-22l18 -68zm-20 39c-1,3 -1,3 -4,6 -7,9 -14,10 -17,10 -7,0 -9,-7 -9,-14 0,-6 3,-22 7,-32 5,-7 11,-13 18,-13 10,0 12,12 12,13 0,0 0,2 -1,3l-6 27z"/>
   <path class="fil0" d="M1039 263c0,2 -1,6 -1,6 0,2 1,3 4,3 1,0 3,-1 3,-2 0,-1 1,-4 3,-6 0,-4 1,-6 1,-10 1,-2 1,-3 2,-6 1,-3 4,-8 9,-12 1,-2 6,-6 10,-6 8,0 8,6 8,8 0,6 -5,16 -6,21 -2,1 -3,4 -3,5 0,5 5,8 11,8 10,0 14,-13 14,-15 0,0 0,-1 -1,-1 -1,0 -1,1 -2,2 -1,6 -6,11 -11,11 -1,0 -2,0 -2,-4 0,-1 0,-3 1,-5 1,-3 6,-15 6,-21 0,-7 -6,-11 -13,-11 -6,0 -12,1 -20,10 0,-8 -6,-10 -13,-10 -5,0 -12,1 -18,10 0,-9 -7,-10 -11,-10 -4,0 -7,2 -8,5 -2,5 -4,9 -4,9 0,2 0,3 2,3 2,0 2,-1 2,-3 2,-8 5,-12 7,-12 4,0 4,4 4,6 0,2 0,5 -1,9 -2,2 -2,6 -3,8 0,3 -1,5 -2,7 0,4 -1,9 -1,9 0,2 1,3 3,3 1,0 4,-1 4,-2 1,-1 1,-4 2,-6 0,-4 1,-6 3,-10 0,-2 0,-3 1,-6 1,-3 5,-8 8,-12 1,-2 6,-6 11,-6 7,0 7,6 7,8 0,2 -1,7 -2,9l-4 16z"/>
   <path class="fil0" d="M1159 292c0,-2 -1,-2 -1,-3 -19,-18 -25,-44 -25,-71 0,-22 3,-51 25,-72 1,0 1,0 1,-1 0,-1 -1,-1 -2,-1 -1,0 -15,11 -23,26 -7,15 -11,30 -11,48 0,11 1,28 10,46 8,18 23,29 24,29 1,0 2,0 2,-1l0 0z"/>
   <path class="fil0" d="M1211 157c1,-2 1,-2 1,-3 0,-2 -1,-2 -2,-2 -3,0 -16,2 -18,2 -3,0 -4,0 -4,2 0,2 1,2 4,2 7,0 7,2 7,3 0,0 0,1 -1,3l-21 86c-1,2 -1,2 -1,3 0,3 2,4 5,4 5,0 6,-4 7,-7 2,-10 5,-18 7,-28 10,0 17,5 17,12 0,1 0,1 0,4 0,1 -1,2 -1,4 0,9 7,15 14,15 6,0 10,-3 12,-7 4,-6 6,-15 6,-16 0,0 0,-1 -1,-1 -2,0 -2,0 -4,3 -1,8 -4,17 -12,17 -4,0 -4,-3 -4,-7 0,-4 1,-7 1,-7 0,-1 0,-4 0,-5 0,-11 -11,-14 -23,-16 5,-3 8,-6 13,-10 7,-9 15,-15 22,-15 2,0 3,0 5,3 -6,0 -9,6 -9,7 0,3 3,6 6,6 4,0 9,-3 9,-10 0,-5 -4,-9 -11,-9 -9,0 -17,7 -23,13 -7,7 -11,11 -16,13l15 -59z"/>
   <path class="fil0" d="M1296 218c0,-12 -1,-28 -10,-45 -8,-18 -21,-29 -24,-29 -1,0 -1,1 -1,1 0,1 0,1 1,3 9,7 26,27 26,70 0,22 -5,51 -27,71 0,1 0,1 0,3 0,0 0,1 1,1 3,0 16,-11 23,-28 7,-13 11,-29 11,-47l0 0z"/>
   <path class="fil0" d="M1345 275c-1,3 -1,5 -8,5 -1,0 -4,0 -4,3 0,0 1,1 3,1l6 0c1,0 4,0 7,0 2,0 5,0 7,0 2,0 5,0 7,0 1,0 3,0 3,-2 0,-2 -2,-2 -4,-2 -7,0 -7,-2 -7,-3 0,0 1,-5 2,-7 1,-7 4,-14 5,-22 1,3 6,9 14,9 18,0 38,-21 38,-43 0,-16 -10,-24 -22,-24 -2,0 -11,1 -19,10 -3,-8 -10,-10 -15,-10 -6,0 -9,4 -12,8 -2,6 -3,14 -3,14 0,2 0,3 1,3 2,0 2,-1 4,-4 2,-12 6,-18 10,-18 5,0 5,5 5,7 0,2 -1,4 -1,5l-17 70zm27 -65c1,-4 1,-4 3,-6 4,-5 10,-11 17,-11 7,0 10,7 10,15 0,6 -4,25 -9,32 -5,10 -12,13 -17,13 -9,0 -12,-12 -12,-12 0,-1 0,-2 0,-2l8 -29z"/>
   <path class="fil0" d="M1466 292c0,-2 0,-2 -1,-3 -19,-18 -25,-44 -25,-71 0,-22 5,-51 26,-72 0,0 0,0 0,-1 0,-1 0,-1 -1,-1 -2,0 -15,11 -23,26 -7,15 -10,30 -10,48 0,11 1,28 9,46 9,18 22,29 24,29 1,0 1,0 1,-1l0 0z"/>
   <path class="fil0" d="M1555 167c0,0 -7,6 -7,8 0,3 1,4 4,4 1,0 2,-1 2,-3 2,-1 5,-6 12,-9 2,0 4,-1 4,-4 0,-1 -2,-2 -3,-2 -2,-1 -5,-4 -6,-9 -1,-2 -1,-3 -3,-3 -2,0 -4,1 -4,3 0,3 4,8 4,9l-51 0c-2,0 -6,0 -6,2 0,4 3,4 6,4l48 0z"/>
   <path class="fil0" d="M1549 196c-5,1 -7,6 -7,7 0,3 2,6 6,6 5,0 8,-4 8,-9 0,-7 -7,-10 -14,-10 -10,0 -14,8 -16,10 -3,-7 -9,-10 -16,-10 -17,0 -26,19 -26,22 0,2 2,3 3,3 1,0 1,-1 2,-3 5,-14 15,-19 21,-19 3,0 7,3 7,10 0,6 -6,30 -9,37 -1,5 -4,13 -13,13 -3,0 -6,-1 -8,-1 5,-1 7,-5 7,-8 0,-4 -2,-6 -5,-6 -5,0 -8,4 -8,9 0,7 7,10 14,10 9,0 13,-7 16,-11 3,10 12,11 17,11 15,0 24,-19 24,-23 0,0 0,-1 -2,-1 -2,0 -2,0 -2,2 -4,11 -12,18 -20,18 -4,0 -9,-2 -9,-9 0,-4 3,-12 4,-17 1,-4 5,-19 5,-21 2,-4 6,-13 14,-13 2,0 5,0 7,3l0 0z"/>
   <path class="fil0" d="M1586 149c0,-3 0,-5 -3,-5 -3,0 -3,2 -3,5l0 139c0,2 0,5 3,5 3,0 3,-3 3,-5l0 -139z"/>
   <path class="fil0" d="M1646 157c2,-2 2,-2 2,-3 0,-2 -2,-2 -3,-2 -2,0 -15,2 -18,2 -1,0 -3,0 -3,2 0,2 2,2 4,2 6,0 6,2 6,3 0,0 0,1 0,3l-21 86c0,2 0,2 0,3 0,3 1,4 3,4 5,0 6,-4 8,-7 2,-10 4,-18 7,-28 9,0 18,5 18,12 0,1 0,1 -1,4 0,1 0,2 0,4 0,9 6,15 14,15 5,0 8,-3 12,-7 4,-6 6,-15 6,-16 0,0 -1,-1 -2,-1 -2,0 -3,0 -3,3 -2,8 -6,17 -13,17 -4,0 -5,-3 -5,-7 0,-4 1,-7 1,-7 0,-1 0,-4 0,-5 0,-11 -10,-14 -21,-16 5,-3 7,-6 12,-10 8,-9 14,-15 21,-15 3,0 5,0 6,3 -7,0 -8,6 -8,7 0,3 1,6 5,6 3,0 8,-3 8,-10 0,-5 -3,-9 -11,-9 -8,0 -15,7 -21,13 -7,7 -11,11 -17,13l14 -59z"/>
   <path class="fil0" d="M1733 218c0,-12 -3,-28 -10,-45 -9,-18 -23,-29 -25,-29 -1,0 -1,1 -1,1 0,1 0,1 1,3 8,7 25,27 25,70 0,22 -3,51 -25,71 -1,1 -1,1 -1,3 0,0 0,1 1,1 2,0 16,-11 24,-28 7,-13 11,-29 11,-47l0 0z"/>
   <path class="fil0" d="M2152 205c2,-8 9,-9 12,-9l0 -5c-6,1 -6,1 -11,1 -6,0 -9,0 -15,-1l0 5c8,0 9,4 9,7 0,1 0,2 0,3l-15 38 -14 -41c-1,-3 -1,-3 -1,-3 0,-4 5,-4 8,-4l0 -5c-6,1 -13,1 -15,1 -4,0 -9,0 -14,-1l0 5c5,0 8,0 10,2 1,1 4,7 4,8 0,0 -2,2 -2,3l-12 33 -14 -39c-1,-3 -1,-3 -1,-3 0,-4 6,-4 8,-4l0 -5c-6,1 -9,1 -15,1 -5,0 -10,0 -15,-1l0 5c7,0 9,0 11,6l19 52c1,2 1,3 4,3 2,0 2,-1 3,-3l15 -42 15 42c2,2 2,3 4,3 2,0 2,-1 4,-3l18 -49z"/>
   <path class="fil0" d="M2194 163c0,-3 -4,-7 -8,-7 -4,0 -8,4 -8,7 0,5 4,9 8,9 4,0 8,-4 8,-9l0 0zm-22 28l0 5c10,0 11,1 11,8l0 40c0,7 -1,7 -12,7l0 5c7,0 11,0 17,0 2,0 8,0 16,0l0 -5c-10,0 -10,0 -10,-6l0 -55 -22 1z"/>
   <path class="fil0" d="M2234 196l22 0 0 -5 -22 0 0 -28 -3 0c0,13 -6,29 -21,29l0 4 14 0 0 42c0,15 12,19 20,19 10,0 16,-10 16,-19l0 -10 -5 0 0 8c0,11 -5,17 -10,17 -11,0 -11,-13 -11,-15l0 -42z"/>
   <path class="fil0" d="M2339 217c0,-12 0,-17 -5,-21 -4,-4 -10,-6 -17,-6 -9,0 -17,4 -21,13l0 0 0 -51 -23 2 0 4c11,0 12,2 12,9l0 77c0,7 -1,7 -12,7l0 5c7,0 11,0 18,0 7,0 8,0 17,0l0 -5c-10,0 -12,0 -12,-7l0 -27c0,-15 12,-24 20,-24 10,0 11,7 11,17l0 34c0,7 -1,7 -11,7l0 5c7,0 10,0 17,0 7,0 9,0 17,0l0 -5c-8,0 -11,0 -11,-5l0 -29z"/>
   <path class="fil0" d="M2549 28c0,0 -1,-2 -1,-2 0,0 0,0 2,-1 10,-7 23,-17 29,-19 3,-1 6,-2 9,-2 2,0 3,0 3,-3 0,-1 -1,-1 -1,-1 -3,0 -6,0 -9,0 -1,0 -5,0 -6,0 -1,0 -5,0 -6,0 0,0 -2,0 -2,2 0,2 1,2 2,2 3,0 3,1 3,1 0,1 -3,2 -3,3 -1,0 -1,0 -1,0 0,0 -1,2 -1,2l-43 28 7 -31c1,-2 1,-3 9,-3 2,0 4,0 4,-3 0,-1 -1,-1 -2,-1 -3,0 -5,0 -6,0 -3,0 -5,0 -8,0 -2,0 -4,0 -7,0 -2,0 -5,0 -6,0 -1,0 -2,0 -2,2 0,2 1,2 2,2 3,0 5,0 7,1 0,0 0,1 -1,2l-12 52c-1,3 -1,5 -9,5 -3,0 -4,0 -4,2 0,1 1,1 2,1 3,0 5,0 6,0 3,0 5,0 8,0 2,0 4,0 7,0 1,0 5,0 6,0 1,0 2,0 2,-2 0,-1 -1,-1 -3,-1 0,0 -2,0 -4,0 -1,0 -2,0 -2,-2 0,-1 1,-3 1,-4 0,-2 0,-2 1,-4 1,-6 1,-6 2,-11l17 -12 17 30c0,1 0,3 -5,3 -1,0 -2,0 -2,2 0,1 1,1 1,1 4,0 11,0 13,0 3,0 4,0 6,0 1,0 4,0 5,0 1,0 2,0 2,-2 0,-1 -2,-1 -2,-1 -6,0 -6,-2 -7,-4l-18 -32z"/>
   <path class="fil0" d="M2621 323l18 -48 -4 0c-6,15 -21,26 -38,30 -4,1 -18,5 -47,5l-90 0 76 -89c1,-1 2,-3 2,-3 0,0 0,-1 -1,-2l-70 -95 82 0c20,0 33,1 35,3 8,1 21,3 32,10 5,3 14,10 19,22l4 0 -18 -42 -177 0c-3,0 -3,0 -3,1 0,0 0,3 0,5l79 108 -78 90c-1,2 -1,4 -1,4 0,1 1,1 3,1l177 0z"/>
   <path class="fil0" d="M2465 366c0,-1 0,-1 0,-2 0,-2 -1,-2 -3,-2l-10 2c-3,0 -4,0 -4,2 0,1 1,1 2,1 4,0 4,1 6,1 0,2 0,2 -1,3l-13 56c-1,1 -1,3 -1,3 0,2 2,2 3,2 2,0 3,0 5,-1 0,-3 4,-18 5,-22 7,0 14,3 14,9 0,0 0,1 -1,1 0,2 0,2 0,3 0,6 6,10 11,10 10,0 13,-14 13,-14 0,0 0,-2 -1,-2 -1,0 -2,0 -2,2 -2,3 -4,12 -9,12 -3,0 -3,-5 -3,-6 0,-2 0,-2 0,-4 0,0 0,-2 0,-4 0,-7 -9,-9 -16,-10 2,-2 4,-3 8,-6 5,-5 10,-9 16,-9 1,0 2,0 4,1 -4,0 -5,4 -5,6 0,3 2,4 3,4 3,0 6,-2 6,-7 0,-4 -3,-7 -8,-7 -6,0 -12,4 -17,8 -5,5 -8,7 -12,8l10 -38z"/>
   <path class="fil0" d="M2581 398c1,0 4,0 4,-3 0,-3 -3,-3 -4,-3l-69 0c-2,0 -4,0 -4,3 0,3 2,3 4,3l69 0zm0 23c1,0 4,0 4,-3 0,-3 -3,-3 -4,-3l-69 0c-2,0 -4,0 -4,3 0,3 2,3 4,3l69 0z"/>
   <path class="fil0" d="M2629 368c0,-3 0,-3 -2,-3 -7,7 -17,7 -21,7l0 4c3,0 9,0 15,-3l0 51c0,2 0,3 -10,3l-5 0 0 5c6,-1 14,-1 20,-1 6,0 13,0 19,1l0 -5 -5 0c-11,0 -11,-1 -11,-3l0 -56z"/>
   <path class="fil0" d="M2753 197c0,-3 -3,-5 -5,-5 -2,0 -6,2 -6,6 -4,-5 -8,-8 -14,-8 -18,0 -36,21 -36,42 0,14 8,24 20,24 6,0 12,-4 18,-9 -2,9 -5,18 -6,22 -1,1 -6,13 -22,13 -2,0 -7,0 -10,-1 2,-1 4,-4 4,-7 0,-4 -2,-5 -6,-5 -2,0 -7,2 -7,8 0,7 9,10 21,10 19,0 30,-12 32,-22l17 -68zm-21 39c-1,3 -1,3 -3,6 -7,9 -13,10 -17,10 -7,0 -10,-7 -10,-14 0,-6 4,-22 9,-32 3,-7 9,-13 17,-13 9,0 12,12 12,13 0,0 0,2 0,3l-8 27z"/>
   <path class="fil0" d="M2801 263c0,2 -1,6 -1,6 0,2 2,3 3,3 3,0 4,-1 5,-2 0,-1 0,-4 1,-6 0,-4 1,-6 3,-10 0,-2 1,-3 1,-6 1,-3 5,-8 8,-12 3,-2 6,-6 12,-6 6,0 6,6 6,8 0,6 -5,16 -6,21 -1,1 -1,4 -1,5 0,5 5,8 10,8 10,0 15,-13 15,-15 0,0 0,-1 -2,-1 -1,0 -1,1 -3,2 -1,6 -6,11 -10,11 -2,0 -3,0 -3,-4 0,-1 1,-3 1,-5 2,-3 6,-15 6,-21 0,-7 -6,-11 -13,-11 -6,0 -12,1 -18,10 -1,-8 -7,-10 -14,-10 -5,0 -11,1 -18,10 0,-9 -7,-10 -11,-10 -4,0 -6,2 -8,5 -3,5 -4,9 -4,9 0,2 1,3 2,3 2,0 2,-1 2,-3 2,-8 4,-12 8,-12 4,0 4,4 4,6 0,2 -2,5 -3,9 0,2 -1,6 -2,8 0,3 -1,5 -1,7 -2,4 -3,9 -3,9 0,2 3,3 4,3 2,0 3,-1 5,-2 0,-1 1,-4 1,-6 1,-4 1,-6 2,-10 0,-2 1,-3 1,-6 2,-3 5,-8 9,-12 2,-2 6,-6 12,-6 6,0 6,6 6,8 0,2 -1,7 -1,9l-5 16z"/>
   <path class="fil0" d="M2921 292c0,-2 0,-2 -1,-3 -20,-18 -26,-44 -26,-71 0,-22 5,-51 26,-72 1,0 1,0 1,-1 0,-1 0,-1 -1,-1 -3,0 -16,11 -24,26 -8,15 -11,30 -11,48 0,11 1,28 9,46 10,18 23,29 26,29 1,0 1,0 1,-1l0 0z"/>
   <path class="fil0" d="M2972 157c2,-2 2,-2 2,-3 0,-2 -2,-2 -3,-2 -2,0 -15,2 -18,2 -1,0 -3,0 -3,2 0,2 2,2 4,2 6,0 6,2 6,3 0,0 0,1 0,3l-21 86c0,2 0,2 0,3 0,3 1,4 3,4 5,0 6,-4 8,-7 2,-10 4,-18 7,-28 9,0 18,5 18,12 0,1 0,1 -1,4 0,1 0,2 0,4 0,9 6,15 14,15 5,0 8,-3 12,-7 4,-6 6,-15 6,-16 0,0 -1,-1 -2,-1 -2,0 -3,0 -3,3 -2,8 -6,17 -13,17 -5,0 -5,-3 -5,-7 0,-4 1,-7 1,-7 0,-1 0,-4 0,-5 0,-11 -10,-14 -21,-16 5,-3 7,-6 12,-10 8,-9 14,-15 21,-15 3,0 5,0 6,3 -7,0 -8,6 -8,7 0,3 1,6 5,6 3,0 8,-3 8,-10 0,-5 -3,-9 -11,-9 -8,0 -15,7 -21,13 -7,7 -11,11 -17,13l14 -59z"/>
   <path class="fil0" d="M3059 218c0,-12 -3,-28 -10,-45 -9,-18 -23,-29 -25,-29 -1,0 -1,1 -1,1 0,1 0,1 1,3 8,7 25,27 25,70 0,22 -3,51 -25,71 -1,1 -1,1 -1,3 0,0 0,1 1,1 2,0 16,-11 24,-28 7,-13 11,-29 11,-47l0 0z"/>
   <path class="fil0" d="M3222 206c2,0 5,0 5,-3 0,-4 -4,-4 -6,-4l-91 0c-2,0 -5,0 -5,4 0,3 2,3 5,3l92 0zm-1 30c2,0 6,0 6,-3 0,-3 -3,-3 -5,-3l-92 0c-3,0 -5,0 -5,3 0,3 3,3 5,3l91 0z"/>
   <path class="fil0" d="M3324 160c0,-4 -1,-4 -5,-4 -8,10 -23,10 -27,10l0 4c3,0 12,0 20,-3l0 77c0,6 0,7 -14,7l-5 0 0 5c5,0 19,0 25,0 6,0 19,0 24,0l0 -5 -5 0c-13,0 -13,-1 -13,-7l0 -84z"/>
  </g>
 </g>
</svg>
