<?xml version="1.0" encoding="iso-8859-1"?>
<!DOCTYPE svg PUBLIC "-//W3C//DTD SVG 1.0//EN" "http://www.w3.org/TR/2001/REC-SVG-20010904/DTD/svg10.dtd">
<!-- Creator: CorelDRAW -->
<svg xmlns="http://www.w3.org/2000/svg" xmlns:odm="http://product.corel.com/CGS/11/cddns/" xml:space="preserve" width="6.87362in" height="0.753583in" style="shape-rendering:geometricPrecision; text-rendering:geometricPrecision; image-rendering:optimizeQuality; fill-rule:evenodd"
     viewBox="0 0 6874 754">
 <defs>
  <style type="text/css">
   <![CDATA[
    .fil0 {fill:#1F1A17}
    .fil1 {fill:#131516}
   ]]>
  </style>
 </defs>
 <g id="Ebene 1">
  <g>
   <path class="fil0" d="M72 162c0,-2 0,-2 0,-3 0,-2 -1,-2 -2,-2 -3,0 -15,2 -18,2 -1,0 -4,0 -4,2 0,2 3,2 5,2 7,0 7,2 7,3 0,1 -1,6 -2,9 -3,8 -1,4 -3,11 -2,6 -3,12 -4,18 -3,-6 -8,-9 -15,-9 -17,0 -36,20 -36,43 0,17 10,24 21,24 9,0 16,-7 19,-11 2,8 9,11 14,11 5,0 9,-1 11,-7 4,-6 5,-15 5,-16 0,0 0,-1 -1,-1 -3,0 -3,0 -3,3 -3,14 -7,17 -12,17 -3,0 -5,-3 -5,-6 0,-2 2,-7 2,-7l21 -83zm-31 81c-1,2 -1,2 -4,6 -4,6 -10,9 -16,9 -8,0 -10,-7 -10,-13 0,-8 4,-25 7,-32 5,-9 12,-15 18,-15 10,0 12,12 12,13 0,0 0,2 0,3l-7 29z"/>
   <path class="fil0" d="M180 216c1,-2 1,-3 10,-3 1,0 3,0 3,-3 0,-1 -2,-1 -3,-1l-15 0c-2,0 -2,0 -4,2l-40 57 -11 -57c0,-2 -1,-2 -3,-2l-15 0c-2,0 -3,0 -3,2 0,2 1,2 2,2 2,0 5,0 7,1 0,0 0,1 -1,2l-12 49c-1,5 -2,8 -11,8 -1,0 -2,1 -2,2 0,0 1,1 2,1 3,0 9,0 11,0l5 0c2,0 3,0 6,0 2,0 2,-1 2,-2 -1,-1 -1,-1 -2,-1 -5,0 -7,-2 -7,-4 0,-1 0,-1 1,-2l13 -53 0 0 12 60c0,1 0,2 1,2 3,0 3,-1 4,-1l43 -62 0 0 -14 55c0,3 -2,5 -9,5 -2,0 -2,0 -2,0 0,1 -1,2 -1,2 0,0 0,1 2,1 1,0 4,0 6,0 2,0 4,0 6,0l7 0c3,0 5,0 6,0 1,0 1,0 3,0 0,-1 0,-1 0,-2 0,-1 -2,-1 -4,-1 -1,0 -2,0 -4,0 -1,0 -2,0 -2,-2 0,-1 0,-1 0,-2l13 -53z"/>
   <path class="fil0" d="M258 297c0,-2 0,-2 -1,-3 -19,-18 -25,-44 -25,-71 0,-22 5,-51 25,-72 1,0 1,0 1,-1 0,-1 0,-1 -1,-1 -2,0 -16,11 -24,26 -7,15 -11,30 -11,48 0,11 1,28 10,46 9,18 23,29 25,29 1,0 1,0 1,-1l0 0z"/>
   <path class="fil0" d="M346 172c0,0 -6,6 -6,8 0,3 1,4 3,4 2,0 2,-1 3,-3 1,-1 5,-6 12,-9 1,0 2,-1 2,-4 0,-1 -1,-2 -1,-2 -2,-1 -5,-4 -7,-9 0,-2 -1,-3 -4,-3 -1,0 -2,1 -2,3 0,3 2,8 3,9l-51 0c-3,0 -5,0 -5,2 0,4 2,4 5,4l48 0z"/>
   <path class="fil0" d="M341 201c-6,1 -7,6 -7,7 0,3 2,6 6,6 3,0 8,-4 8,-9 0,-7 -8,-10 -14,-10 -10,0 -15,8 -17,10 -2,-7 -10,-10 -17,-10 -15,0 -24,19 -24,22 0,2 1,3 3,3 1,0 1,-1 1,-3 5,-14 14,-19 20,-19 5,0 9,3 9,10 0,6 -6,30 -9,37 -1,5 -6,13 -14,13 -3,0 -6,-1 -7,-1 3,-1 7,-5 7,-8 0,-4 -3,-6 -6,-6 -4,0 -9,4 -9,9 0,7 9,10 15,10 9,0 14,-7 17,-11 3,10 12,11 16,11 16,0 24,-19 24,-23 0,0 0,-1 -2,-1 -1,0 -1,0 -2,2 -3,11 -12,18 -20,18 -4,0 -8,-2 -8,-9 0,-4 2,-12 4,-17 0,-4 4,-19 4,-21 2,-4 6,-13 14,-13 3,0 6,0 8,3l0 0z"/>
   <path class="fil0" d="M383 258c0,5 0,17 -12,28 0,1 0,1 0,2 0,0 1,1 1,1 3,0 15,-12 15,-28 0,-10 -4,-16 -10,-16 -6,0 -8,4 -8,7 0,5 2,9 8,9 2,0 4,-2 6,-3l0 0z"/>
   <path class="fil0" d="M466 162c1,-2 1,-2 1,-3 0,-2 -1,-2 -2,-2 -3,0 -16,2 -18,2 -2,0 -4,0 -4,2 0,2 2,2 5,2 6,0 6,2 6,3 0,0 0,1 0,3l-22 86c0,2 0,2 0,3 0,3 1,4 4,4 5,0 6,-4 7,-7 2,-10 5,-18 7,-28 10,0 18,5 18,12 0,1 0,1 -1,4 0,1 0,2 0,4 0,9 6,15 14,15 5,0 9,-3 12,-7 4,-6 6,-15 6,-16 0,0 -1,-1 -2,-1 -1,0 -2,0 -2,3 -3,8 -6,17 -14,17 -4,0 -4,-3 -4,-7 0,-4 1,-7 1,-7 0,-1 0,-4 0,-5 0,-11 -11,-14 -22,-16 5,-3 7,-6 12,-10 9,-9 15,-15 22,-15 2,0 5,0 6,3 -7,0 -9,6 -9,7 0,3 2,6 5,6 4,0 9,-3 9,-10 0,-5 -4,-9 -11,-9 -9,0 -16,7 -22,13 -7,7 -11,11 -17,13l15 -59z"/>
   <path class="fil0" d="M552 223c0,-12 -2,-28 -9,-45 -10,-18 -23,-29 -26,-29 -1,0 -1,1 -1,1 0,1 0,1 1,3 9,7 26,27 26,70 0,22 -4,51 -26,71 -1,1 -1,1 -1,3 0,0 0,1 1,1 3,0 16,-11 24,-28 8,-13 11,-29 11,-47l0 0z"/>
   <path class="fil0" d="M715 211c3,0 5,0 5,-3 0,-4 -3,-4 -6,-4l-91 0c-1,0 -5,0 -5,4 0,3 3,3 5,3l92 0zm-1 30c3,0 6,0 6,-3 0,-3 -2,-3 -5,-3l-92 0c-2,0 -5,0 -5,3 0,3 4,3 5,3l91 0z"/>
   <path class="fil0" d="M921 17c1,-4 3,-6 10,-6 2,0 3,0 3,-2 0,-2 0,-3 -1,-3 -3,0 -9,1 -11,1l-6 0c-1,0 -4,-1 -5,-1 -2,0 -2,1 -2,3 0,2 1,2 2,2 5,0 6,1 6,4 0,0 0,1 0,1l-11 44 -27 -51c0,-3 -2,-3 -4,-3l-14 0c-2,0 -3,0 -3,3 0,2 1,2 4,2 0,0 3,0 6,0l-13 53c-2,3 -3,6 -11,7 -1,0 -3,0 -3,2 0,0 0,2 3,2 2,0 8,0 11,0l4 0c3,0 4,0 6,0 3,0 3,-3 3,-3 -1,-1 -1,-1 -3,-1 -4,0 -7,-1 -7,-5 0,0 0,0 0,-1l13 -52 32 60c1,2 1,2 2,2 1,0 2,0 2,-3l14 -55z"/>
   <path class="fil0" d="M966 328l18 -48 -3 0c-6,15 -22,26 -39,30 -3,1 -18,5 -47,5l-90 0 76 -89c1,-1 2,-3 2,-3 0,0 0,-1 -1,-2l-69 -95 81 0c21,0 34,1 35,3 8,1 22,3 32,10 5,3 15,10 20,22l3 0 -18 -42 -176 0c-4,0 -4,0 -4,1 0,0 0,3 0,5l79 108 -78 90c-1,2 -1,4 -1,4 0,1 1,1 4,1l176 0z"/>
   <path class="fil0" d="M801 399c0,-9 -8,-10 -11,-10 -5,0 -7,2 -9,5 -2,5 -3,9 -3,9 0,2 0,3 1,3 2,0 2,-1 2,-3 3,-8 5,-12 8,-12 3,0 3,5 3,6 0,2 0,5 -1,9 -1,2 -1,6 -2,8 0,3 -2,5 -3,7 0,4 -1,9 -1,9 0,2 1,3 4,3 1,0 3,-1 3,-2 1,-1 1,-4 3,-6 0,-4 1,-6 2,-10 0,-2 0,-3 1,-6 1,-3 5,-8 9,-12 1,-2 6,-6 10,-6 8,0 8,6 8,8 0,6 -5,16 -6,21 -2,1 -2,4 -2,5 0,5 4,8 10,8 10,0 14,-13 14,-15 0,0 0,-1 -1,-1 -1,0 -1,1 -2,2 -1,6 -6,11 -11,11 -1,0 -2,-1 -2,-4 0,-1 0,-3 1,-5 1,-4 6,-15 6,-21 0,-7 -6,-11 -13,-11 -5,0 -12,1 -18,10l0 0z"/>
   <path class="fil0" d="M929 399c1,0 4,0 4,-3 0,-2 -3,-2 -5,-2l-69 0c-1,0 -3,0 -3,2 0,3 1,3 3,3l70 0zm-1 22c2,0 5,0 5,-2 0,-2 -3,-2 -4,-2l-70 0c-2,0 -3,0 -3,2 0,2 2,2 3,2l69 0z"/>
   <path class="fil0" d="M977 370c0,-4 0,-4 -4,-4 -6,6 -16,6 -20,6l0 5c4,0 10,0 16,-4l0 51c0,3 0,5 -11,5l-4 0 0 3c5,0 13,0 19,0 5,0 14,0 18,0l0 -3 -3 0c-11,0 -11,-2 -11,-5l0 -54z"/>
   <path class="fil0" d="M1193 17c1,-4 4,-6 11,-6 0,0 2,0 2,-2 0,-2 -1,-3 -2,-3 -3,0 -7,1 -10,1l-6 0c-2,0 -3,-1 -6,-1 -1,0 -1,1 -1,3 0,2 1,2 2,2 4,0 6,1 6,4 0,0 0,1 0,1l-10 44 -28 -51c-1,-3 -1,-3 -4,-3l-14 0c-1,0 -4,0 -4,3 0,2 3,2 4,2 1,0 5,0 7,0l-13 53c-1,3 -2,6 -11,7 -1,0 -2,0 -2,2 0,0 0,2 1,2 2,0 8,0 11,0l6 0c1,0 3,0 5,0 2,0 2,-3 2,-3 0,-1 -1,-1 -2,-1 -5,0 -6,-1 -6,-5 0,0 0,0 0,-1l13 -52 31 60c0,2 1,2 2,2 2,0 2,0 3,-3l13 -55z"/>
   <path class="fil0" d="M1239 328l18 -48 -4 0c-6,15 -22,26 -38,30 -4,1 -18,5 -47,5l-90 0 75 -89c2,-1 2,-3 2,-3 0,0 0,-1 -2,-2l-69 -95 83 0c19,0 33,1 34,3 8,1 21,3 33,10 3,3 14,10 19,22l4 0 -18 -42 -177 0c-3,0 -3,0 -5,1 0,0 0,3 0,5l80 108 -77 90c-3,2 -3,4 -3,4 0,1 3,1 5,1l177 0z"/>
   <path class="fil0" d="M1077 424c0,2 -2,6 -2,6 0,2 2,3 4,3 1,0 4,-1 4,-2 0,-1 1,-4 2,-6 0,-4 1,-6 1,-10 1,-2 1,-3 3,-6 1,-3 3,-8 8,-12 1,-2 6,-6 11,-6 7,0 7,6 7,8 0,6 -5,16 -6,21 -1,1 -2,4 -2,5 0,5 4,8 10,8 10,0 15,-13 15,-15 0,0 0,-1 -1,-1 -2,0 -2,1 -3,2 -1,6 -6,11 -11,11 -1,0 -2,0 -2,-4 0,-1 0,-3 1,-5 1,-3 6,-15 6,-21 0,-7 -6,-11 -13,-11 -6,0 -12,1 -19,10 0,-8 -6,-10 -13,-10 -5,0 -12,1 -18,10 0,-9 -8,-10 -11,-10 -5,0 -7,2 -9,5 -2,5 -3,9 -3,9 0,2 0,3 1,3 2,0 2,-1 2,-3 3,-8 5,-12 8,-12 3,0 3,4 3,6 0,2 0,5 -1,9 -1,2 -1,6 -2,8 0,3 -2,5 -3,7 0,4 -1,9 -1,9 0,2 1,3 4,3 1,0 3,-1 3,-2 1,-1 1,-4 3,-6 0,-4 1,-6 2,-10 0,-2 0,-3 1,-6 1,-3 5,-8 9,-12 1,-2 6,-6 10,-6 8,0 8,6 8,8 0,2 -2,7 -3,9l-3 16z"/>
   <path class="fil0" d="M1219 399c2,0 4,0 4,-3 0,-2 -4,-2 -5,-2l-68 0c-3,0 -5,0 -5,2 0,3 2,3 4,3l70 0zm-1 22c1,0 5,0 5,-2 0,-2 -2,-2 -4,-2l-70 0c-2,0 -4,0 -4,2 0,2 2,2 5,2l68 0z"/>
   <path class="fil0" d="M1267 370c0,-4 -1,-4 -3,-4 -6,6 -17,6 -21,6l0 5c3,0 10,0 16,-4l0 51c0,3 0,5 -11,5l-3 0 0 3c4,0 13,0 18,0 6,0 13,0 19,0l0 -3 -5 0c-10,0 -10,-2 -10,-5l0 -54z"/>
   <path class="fil0" d="M1371 220l20 -16c1,-1 4,-2 13,-2l0 -7c-5,0 -9,0 -13,0 -4,0 -10,0 -17,0l0 7c4,0 4,0 5,1l-29 22 0 -68 -26 2 0 7c8,0 9,0 9,6l0 81 -9 0 0 8c9,0 11,0 18,0 6,0 7,0 18,0l0 -8 -11 0 0 -18 10 -7c0,1 19,23 19,24 0,1 -3,1 -4,1l0 8c9,0 13,0 18,0 6,0 10,0 16,0l0 -8c-3,0 -5,0 -7,0 -3,-1 -3,-1 -4,-2l-26 -31z"/>
   <path class="fil0" d="M1451 207c-11,-9 -20,-24 -20,-47 0,-23 9,-40 20,-48 0,0 0,0 0,0 0,-1 0,-3 -1,-3 -3,0 -27,16 -27,51 0,33 24,49 27,49 1,0 1,0 1,-1 0,0 0,0 0,-1l0 0z"/>
   <path class="fil0" d="M1506 177c0,1 -1,4 -1,6 0,2 2,2 4,2 2,0 3,-1 4,-2 0,0 0,-4 2,-6 0,-3 1,-6 2,-9 0,-2 1,-5 1,-7 1,-4 5,-8 9,-12 2,-2 6,-5 12,-5 6,0 6,5 6,7 0,5 -5,16 -6,21 -2,2 -2,3 -2,5 0,4 5,8 10,8 11,0 16,-12 16,-14 0,0 0,-2 -3,-2 -1,0 -1,0 -2,3 -1,5 -6,11 -11,11 -1,0 -2,-2 -2,-4 0,-2 1,-4 1,-6 1,-2 6,-16 6,-20 0,-9 -6,-12 -13,-12 -6,0 -12,2 -18,10 -2,-7 -8,-10 -15,-10 -5,0 -11,1 -18,9 0,-7 -7,-9 -11,-9 -3,0 -6,2 -8,6 -2,3 -4,9 -4,9 0,1 2,1 3,1 1,0 1,-1 1,-2 2,-7 5,-11 8,-11 4,0 4,4 4,5 0,1 -1,6 -2,8 0,3 -2,8 -3,9 0,3 -1,6 -1,8 -1,3 -2,7 -2,9 0,2 2,2 3,2 3,0 4,-1 5,-2 0,0 1,-4 1,-6 1,-3 1,-6 3,-9 0,-2 1,-5 1,-7 1,-4 5,-8 8,-12 3,-2 6,-5 12,-5 6,0 6,5 6,7 0,3 -1,6 -1,10l-5 16z"/>
   <path class="fil0" d="M1596 150c0,-7 -7,-9 -11,-9 -3,0 -6,2 -8,6 -2,3 -4,8 -4,9 0,1 2,1 3,1 1,0 1,-1 1,-2 2,-8 5,-11 8,-11 4,0 4,4 4,5 0,1 -1,6 -2,8 0,3 -2,8 -3,9 0,3 -1,6 -1,8 -1,3 -2,7 -2,9 0,2 2,2 3,2 3,0 4,-1 5,-2 0,0 1,-4 1,-6 1,-3 1,-6 3,-9 0,-2 1,-5 1,-7 1,-4 5,-8 8,-12 3,-2 6,-5 12,-5 6,0 6,5 6,7 0,5 -5,16 -6,21 -1,2 -1,3 -1,5 0,4 5,8 10,8 10,0 15,-12 15,-14 0,0 0,-2 -2,-2 -1,0 -1,0 -3,3 -1,5 -4,11 -10,11 -2,0 -3,-2 -3,-4 0,-2 1,-4 3,-6 1,-4 6,-16 6,-20 0,-9 -8,-12 -15,-12 -5,0 -11,1 -18,9l0 0z"/>
   <path class="fil0" d="M1679 160c0,-34 -24,-51 -26,-51 -2,0 -2,2 -2,3 0,0 0,0 3,1 8,8 18,23 18,47 0,21 -7,37 -19,47 -2,1 -2,1 -2,1 0,1 0,1 2,1 2,0 26,-16 26,-49l0 0z"/>
   <path class="fil0" d="M1445 239c0,-1 0,-1 0,-2 0,-2 -2,-2 -4,-2l-10 2c-3,0 -4,0 -4,2 0,1 1,1 4,1 2,0 3,1 4,1 0,2 0,2 0,3l-14 56c0,1 0,3 0,3 0,2 1,2 2,2 2,0 4,0 5,-1 0,-3 5,-18 5,-22 7,0 14,3 14,9 0,0 0,1 0,1 -1,2 -1,2 -1,3 0,6 6,10 12,10 10,0 13,-14 13,-14 0,0 0,-2 -2,-2 -1,0 -1,0 -2,2 0,3 -4,12 -9,12 -3,0 -3,-5 -3,-6 0,-2 0,-2 0,-4 0,0 1,-2 1,-4 0,-7 -10,-9 -17,-10 2,-2 5,-3 8,-6 5,-5 11,-9 16,-9 1,0 2,0 4,1 -4,0 -5,4 -5,6 0,3 2,4 3,4 3,0 6,-2 6,-7 0,-4 -3,-7 -8,-7 -6,0 -12,4 -17,8 -5,5 -8,7 -12,8l11 -38z"/>
   <path class="fil0" d="M1735 208c0,-4 2,-9 2,-9 0,-2 -2,-4 -5,-4 -5,0 -6,4 -6,6l-22 85c0,1 0,2 0,2 0,3 1,5 5,5 5,0 6,-5 6,-7l7 -28c4,3 10,4 15,4 6,0 13,-1 20,-11 2,8 10,11 14,11 5,0 9,-1 11,-7 4,-6 5,-15 5,-16 0,0 0,-1 -1,-1 -3,0 -3,0 -3,3 -3,14 -7,17 -12,17 -3,0 -4,-3 -4,-6 0,-3 1,-6 2,-12 2,-6 2,-9 4,-15l3 -14c1,-3 3,-10 3,-10 0,-3 -2,-5 -4,-5 -5,0 -6,5 -7,8l-4 13c-1,5 -6,23 -7,27 0,1 -7,14 -19,14 -11,0 -11,-9 -11,-13 0,-4 0,-6 1,-13l7 -24z"/>
   <path class="fil0" d="M1839 270c0,3 -2,6 -2,6 0,3 2,4 4,4 1,0 4,-1 4,-3 0,-1 1,-4 2,-6 0,-3 1,-6 1,-9 1,-3 1,-5 3,-7 1,-3 3,-9 8,-12 1,-2 6,-5 11,-5 7,0 7,5 7,7 0,6 -5,17 -6,20 -1,3 -2,4 -2,6 0,5 4,9 10,9 10,0 15,-13 15,-16 0,0 0,-1 -1,-1 -2,0 -2,0 -3,2 -1,6 -6,11 -11,11 -1,0 -2,0 -2,-3 0,-3 0,-4 1,-6 1,-3 6,-15 6,-21 0,-8 -6,-12 -13,-12 -6,0 -12,3 -19,11 0,-7 -6,-11 -13,-11 -5,0 -12,3 -18,10 0,-7 -8,-10 -11,-10 -5,0 -7,3 -9,6 -2,4 -3,10 -3,10 0,1 0,1 1,1 2,0 2,0 2,-2 3,-8 5,-11 8,-11 3,0 3,3 3,5 0,2 0,6 -1,8 -1,4 -1,7 -2,10 0,2 -2,4 -3,7 0,2 -1,8 -1,8 0,3 1,4 4,4 1,0 3,-1 3,-3 1,-1 1,-4 3,-6 0,-3 1,-6 2,-9 0,-3 0,-5 1,-7 1,-3 5,-9 9,-12 1,-2 6,-5 10,-5 8,0 8,5 8,7 0,2 -2,6 -3,10l-3 15z"/>
   <path class="fil0" d="M1932 213c0,0 0,-2 0,-2 0,-2 -1,-2 -2,-2l-11 1c-2,0 -4,0 -4,3 0,2 2,2 3,2 3,0 3,0 6,0 0,1 0,1 -1,4l-14 55c-1,1 -1,2 -1,2 0,3 3,4 4,4 1,0 2,-1 5,-3 0,-1 3,-18 4,-21 8,1 15,2 15,8 0,0 0,1 -1,3 0,1 0,2 0,2 0,7 6,11 10,11 10,0 14,-15 14,-16 0,0 0,-1 -2,-1 -1,0 -2,0 -2,2 -1,4 -4,11 -8,11 -4,0 -4,-3 -4,-5 0,-2 0,-2 0,-3 0,-1 0,-3 0,-4 0,-8 -8,-11 -16,-11 3,-1 4,-3 9,-7 5,-3 9,-8 15,-8 2,0 3,0 4,1 -4,1 -5,4 -5,6 0,4 3,4 4,4 2,0 6,-2 6,-6 0,-5 -4,-9 -9,-9 -6,0 -12,5 -16,10 -5,3 -9,7 -12,8l9 -39z"/>
   <path class="fil0" d="M2013 208c1,-4 2,-9 2,-9 0,-2 -2,-4 -5,-4 -5,0 -6,4 -6,6l-21 85c0,1 0,2 0,2 0,3 1,5 3,5 5,0 6,-5 7,-7l8 -28c3,3 9,4 14,4 6,0 13,-1 20,-11 2,8 9,11 15,11 3,0 7,-1 11,-7 2,-6 4,-15 4,-16 0,0 0,-1 -2,-1 -1,0 -1,0 -2,3 -3,14 -6,17 -11,17 -4,0 -5,-3 -5,-6 0,-3 1,-6 2,-12 2,-6 3,-9 4,-15l4 -14c1,-3 2,-10 2,-10 0,-3 -1,-5 -5,-5 -5,0 -6,5 -7,8l-2 13c-2,5 -6,23 -8,27 0,1 -7,14 -19,14 -12,0 -12,-9 -12,-13 0,-4 1,-6 3,-13l6 -24z"/>
   <path class="fil0" d="M2099 244c-1,-7 -8,-10 -12,-10 -4,0 -6,3 -8,6 -3,4 -4,10 -4,10 0,1 1,1 2,1 2,0 2,0 3,-2 1,-8 3,-11 7,-11 4,0 4,5 4,5 0,2 -2,6 -2,8 -1,4 -2,7 -2,10 -1,2 -1,4 -2,7 0,2 -2,8 -2,8 0,3 2,4 3,4 2,0 3,-1 5,-3 0,-1 1,-4 1,-6 1,-3 2,-6 2,-9 1,-3 1,-5 3,-7 0,-3 3,-9 7,-12 2,-2 7,-5 12,-5 6,0 6,5 6,7 0,6 -4,17 -6,20 0,3 -1,4 -1,6 0,5 4,9 10,9 10,0 15,-13 15,-16 0,0 0,-1 -1,-1 -3,0 -3,0 -3,2 -2,5 -6,11 -11,11 -2,0 -2,-1 -2,-3 0,-3 0,-4 1,-6 1,-4 6,-15 6,-21 0,-8 -6,-12 -14,-12 -5,0 -11,3 -17,10l0 0z"/>
   <path class="fil0" d="M2178 213c0,0 0,-2 0,-2 0,-2 -1,-2 -2,-2l-11 1c-2,0 -4,0 -4,3 0,2 2,2 3,2 3,0 3,0 6,0 0,1 0,1 -1,4l-14 55c-1,1 -1,2 -1,2 0,3 3,4 4,4 1,0 2,-1 5,-3 0,-1 3,-18 4,-21 8,1 15,2 15,8 0,0 0,1 -1,3 0,1 0,2 0,2 0,7 6,11 10,11 10,0 14,-15 14,-16 0,0 0,-1 -2,-1 -1,0 -2,0 -2,2 -1,4 -4,11 -8,11 -4,0 -4,-3 -4,-5 0,-2 0,-2 0,-3 0,-1 0,-3 0,-4 0,-8 -8,-11 -16,-11 3,-1 4,-3 9,-7 5,-3 9,-8 15,-8 2,0 3,0 4,1 -4,1 -5,4 -5,6 0,4 3,4 4,4 2,0 6,-2 6,-6 0,-5 -4,-9 -9,-9 -6,0 -12,5 -16,10 -5,3 -9,7 -12,8l9 -39z"/>
   <path class="fil0" d="M840 505c0,-3 0,-4 -2,-4 -9,0 -24,-2 -37,-9 -16,-7 -22,-17 -27,-23 0,-1 -1,-1 -2,-1 -4,0 -4,1 -4,5l0 2c21,36 54,44 69,44 3,0 3,0 3,-4l0 -10z"/>
   <path class="fil0" d="M1503 544c-21,-36 -54,-43 -70,-43 -4,0 -4,0 -4,4l0 10c0,2 0,4 3,4 9,0 24,1 37,8 17,7 23,17 26,23 0,1 2,1 4,1 4,0 4,0 4,-5l0 -2z"/>
   <path class="fil0" d="M1569 505c0,-4 0,-4 -4,-4 -16,0 -49,7 -70,43l0 2c0,5 0,5 4,5 4,0 4,0 4,-1 13,-21 33,-31 63,-31 3,0 3,-2 3,-4l0 -10z"/>
   <path class="fil0" d="M2230 473c0,-4 0,-5 -4,-5 -2,0 -2,1 -3,1 -12,21 -33,32 -63,32 -2,0 -2,1 -2,4l0 10c0,4 0,4 3,4 15,0 48,-8 69,-44l0 -2z"/>
   <path class="fil0" d="M1355 635c1,0 4,0 4,-2 0,-3 -3,-3 -5,-3l-69 0c-1,0 -3,0 -3,3 0,2 1,2 3,2l70 0zm-1 23c2,0 5,0 5,-3 0,-2 -3,-2 -4,-2l-70 0c-2,0 -3,0 -3,2 0,3 2,3 3,3l69 0z"/>
   <path class="fil0" d="M1426 654c11,-11 13,-23 13,-23 0,-2 -1,-2 -2,-2 -2,0 -2,1 -2,2 -2,9 -7,16 -9,18 0,-2 0,-4 -1,-6 -2,-13 -10,-19 -21,-19 -14,0 -29,15 -29,28 0,11 8,18 20,18 4,0 14,-1 24,-9 1,4 4,9 10,9 6,0 10,-5 10,-7 0,-2 -1,-2 -1,-2 -1,0 -1,0 -3,2 -1,2 -3,3 -6,3 -1,0 -2,0 -3,-12l0 0zm-9 4c-9,7 -18,8 -22,8 -6,0 -11,-3 -11,-11 0,-3 1,-13 6,-19 3,-6 11,-8 14,-8 7,0 11,6 12,13 1,5 1,11 1,17l0 0z"/>
   <path class="fil0" d="M1477 639c2,-2 2,-2 2,-3 0,-1 -2,-1 -3,-1l-11 1c-1,0 -1,0 -2,0 0,0 0,1 0,3 0,1 1,1 2,1 0,0 2,0 3,0 2,0 2,0 2,1 0,0 0,0 -1,1l-11 47c0,1 0,1 0,1 0,3 1,4 3,4 3,0 4,-4 4,-5l4 -16c2,2 12,2 12,8 0,0 0,1 0,2 0,1 0,1 0,1 0,6 5,10 10,10 8,0 12,-12 12,-13 0,-2 -2,-2 -2,-2 -1,0 -2,0 -2,3 -1,2 -4,8 -7,8 -4,0 -4,-2 -4,-5 0,0 0,-1 0,-2 0,-1 0,-2 0,-2 0,-8 -8,-9 -14,-10 2,-1 6,-4 7,-5 5,-3 10,-7 14,-7 2,0 3,0 3,1 0,0 0,0 0,0 -4,1 -4,5 -4,5 0,1 0,4 4,4 1,0 5,-2 5,-6 0,-5 -4,-8 -8,-8 -6,0 -10,5 -16,10 -3,2 -5,4 -9,5l7 -31z"/>
   <path class="fil0" d="M1595 691c-11,-8 -20,-24 -20,-48 0,-22 9,-38 20,-46 0,0 0,-2 0,-2 0,-1 0,-1 -1,-1 -3,0 -27,16 -27,49 0,35 24,51 27,51 1,0 1,-1 1,-1 0,-2 0,-2 0,-2l0 0z"/>
   <path class="fil0" d="M1643 599l-10 0 -27 70 8 0 9 -20 30 0 7 20 11 0 -28 -70zm-6 8l13 36 -25 0 12 -36z"/>
   <path class="fil0" d="M1709 643c0,-33 -24,-49 -26,-49 -2,0 -2,0 -2,1 0,0 0,0 3,3 8,7 18,21 18,45 0,22 -7,38 -19,47 -2,1 -2,1 -2,3 0,0 0,1 2,1 2,0 26,-16 26,-51l0 0z"/>
   <path class="fil0" d="M2351 226c1,0 5,0 5,-3 0,-3 -3,-3 -5,-3l-84 0c-1,0 -5,0 -5,3 0,3 3,3 5,3l84 0z"/>
   <path class="fil0" d="M2439 234l-5 0c0,3 -1,11 -3,13 -1,2 -12,2 -14,2l-26 0c2,-3 12,-12 14,-15 24,-20 34,-29 34,-44 0,-17 -15,-29 -33,-29 -18,0 -29,13 -29,28 0,7 6,8 8,8 3,0 8,-2 8,-8 0,-5 -4,-8 -8,-8 0,0 -2,0 -2,0 4,-10 14,-15 21,-15 15,0 20,14 20,24 0,15 -11,27 -18,36l-27 30c-2,1 -2,1 -2,5l57 0 5 -27z"/>
   <path class="fil0" d="M2621 17c1,-4 4,-6 11,-6 0,0 2,0 2,-2 0,-2 -1,-3 -2,-3 -3,0 -7,1 -10,1l-6 0c-2,0 -3,-1 -6,-1 -1,0 -1,1 -1,3 0,2 1,2 2,2 4,0 6,1 6,4 0,0 0,1 0,1l-10 44 -28 -51c-1,-3 -1,-3 -4,-3l-14 0c-1,0 -4,0 -4,3 0,2 3,2 4,2 1,0 5,0 7,0l-13 53c-1,3 -2,6 -11,7 -1,0 -2,0 -2,2 0,0 0,2 1,2 2,0 8,0 11,0l6 0c1,0 3,0 5,0 2,0 2,-3 2,-3 0,-1 -1,-1 -2,-1 -5,0 -6,-1 -6,-5 0,0 0,0 0,-1l13 -52 31 60c0,2 1,2 2,2 2,0 2,0 3,-3l13 -55z"/>
   <path class="fil0" d="M2664 328l18 -48 -3 0c-6,15 -22,26 -39,30 -3,1 -18,5 -47,5l-90 0 76 -89c1,-1 2,-3 2,-3 0,0 0,-1 -1,-2l-69 -95 81 0c21,0 34,1 35,3 8,1 22,3 32,10 5,3 15,10 20,22l3 0 -18 -42 -176 0c-4,0 -4,0 -4,1 0,0 0,3 0,5l79 108 -78 90c-1,2 -1,4 -1,4 0,1 1,1 4,1l176 0z"/>
   <path class="fil0" d="M2501 399c-1,-9 -8,-10 -12,-10 -4,0 -6,2 -8,5 -3,5 -4,9 -4,9 0,2 1,3 2,3 2,0 2,-1 3,-3 1,-8 3,-12 7,-12 4,0 4,5 4,6 0,2 -2,5 -2,9 -1,2 -2,6 -2,8 -1,3 -1,5 -2,7 0,4 -2,9 -2,9 0,2 2,3 3,3 2,0 3,-1 5,-2 0,-1 1,-4 1,-6 1,-4 2,-6 2,-10 1,-2 1,-3 3,-6 0,-3 3,-8 7,-12 2,-2 7,-6 12,-6 6,0 6,6 6,8 0,6 -4,16 -6,21 0,1 -1,4 -1,5 0,5 4,8 10,8 10,0 15,-13 15,-15 0,0 0,-1 -1,-1 -3,0 -3,1 -3,2 -2,6 -6,11 -11,11 -2,0 -2,-1 -2,-4 0,-1 0,-3 1,-5 1,-4 6,-15 6,-21 0,-7 -6,-11 -14,-11 -5,0 -11,1 -17,10l0 0z"/>
   <path class="fil0" d="M2629 399c2,0 4,0 4,-3 0,-2 -4,-2 -5,-2l-68 0c-3,0 -5,0 -5,2 0,3 2,3 4,3l70 0zm-1 22c1,0 5,0 5,-2 0,-2 -2,-2 -4,-2l-70 0c-2,0 -4,0 -4,2 0,2 2,2 5,2l68 0z"/>
   <path class="fil0" d="M2677 370c0,-4 -1,-4 -3,-4 -6,6 -17,6 -21,6l0 5c3,0 10,0 16,-4l0 51c0,3 0,5 -11,5l-3 0 0 3c4,0 13,0 18,0 6,0 13,0 19,0l0 -3 -5 0c-10,0 -10,-2 -10,-5l0 -54z"/>
   <path class="fil0" d="M2841 448c0,-1 0,-1 -2,-3 -14,-16 -26,-36 -34,-57 -20,-46 -28,-99 -28,-163 0,-64 7,-119 30,-168 8,-20 19,-38 32,-53 2,-1 2,-1 2,-1 0,-3 -2,-3 -4,-3 -2,0 -2,0 -2,1 0,0 -10,9 -22,26 -25,37 -38,80 -46,124 -3,24 -4,50 -4,74 0,56 7,112 31,164 11,23 25,43 39,59 2,1 2,1 4,1 2,0 4,0 4,-1l0 0z"/>
   <path class="fil0" d="M3015 17c1,-4 3,-6 10,-6 2,0 3,0 3,-2 0,-2 0,-3 -1,-3 -3,0 -9,1 -11,1l-6 0c-1,0 -4,-1 -5,-1 -2,0 -2,1 -2,3 0,2 1,2 2,2 5,0 6,1 6,4 0,0 0,1 0,1l-11 44 -27 -51c0,-3 -2,-3 -4,-3l-14 0c-2,0 -3,0 -3,3 0,2 1,2 4,2 0,0 3,0 6,0l-13 53c-2,3 -3,6 -11,7 -1,0 -3,0 -3,2 0,0 0,2 3,2 2,0 8,0 11,0l4 0c3,0 4,0 6,0 3,0 3,-3 3,-3 -1,-1 -1,-1 -3,-1 -4,0 -7,-1 -7,-5 0,0 0,0 0,-1l13 -52 32 60c1,2 1,2 2,2 1,0 2,0 2,-3l14 -55z"/>
   <path class="fil0" d="M3059 328l18 -48 -4 0c-6,15 -21,26 -39,30 -3,1 -18,5 -46,5l-91 0 77 -89c1,-1 1,-3 1,-3 0,0 0,-1 -1,-2l-70 -95 82 0c20,0 33,1 35,3 8,1 21,3 33,10 4,3 13,10 19,22l4 0 -18 -42 -178 0c-2,0 -3,0 -3,1 0,0 0,3 0,5l79 108 -78 90c-1,2 -1,4 -1,4 0,1 1,1 3,1l178 0z"/>
   <path class="fil0" d="M2897 424c-1,2 -2,6 -2,6 0,2 2,3 3,3 3,0 4,-1 5,-2 0,-1 1,-4 1,-6 1,-4 1,-6 3,-10 1,-2 1,-3 1,-6 1,-3 5,-8 8,-12 3,-2 6,-6 12,-6 6,0 6,6 6,8 0,6 -3,16 -6,21 0,1 -1,4 -1,5 0,5 5,8 10,8 10,0 15,-13 15,-15 0,0 0,-1 -2,-1 -1,0 -1,1 -1,2 -3,6 -6,11 -11,11 -1,0 -4,0 -4,-4 0,-1 1,-3 3,-5 1,-3 6,-15 6,-21 0,-7 -6,-11 -15,-11 -5,0 -12,1 -18,10 -1,-8 -7,-10 -14,-10 -5,0 -11,1 -17,10 -1,-9 -8,-10 -12,-10 -4,0 -6,2 -8,5 -3,5 -4,9 -4,9 0,2 1,3 2,3 2,0 2,-1 3,-3 1,-8 3,-12 7,-12 4,0 4,4 4,6 0,2 -2,5 -2,9 -1,2 -2,6 -2,8 -1,3 -1,5 -2,7 0,4 -2,9 -2,9 0,2 2,3 3,3 2,0 3,-1 5,-2 0,-1 1,-4 1,-6 1,-4 2,-6 2,-10 1,-2 1,-3 3,-6 0,-3 3,-8 7,-12 2,-2 7,-6 12,-6 6,0 6,6 6,8 0,2 0,7 -1,9l-4 16z"/>
   <path class="fil0" d="M3039 399c1,0 3,0 3,-3 0,-2 -2,-2 -3,-2l-70 0c-1,0 -4,0 -4,2 0,3 3,3 4,3l70 0zm0 22c1,0 3,0 3,-2 0,-2 -2,-2 -3,-2l-70 0c-1,0 -4,0 -4,2 0,2 3,2 4,2l70 0z"/>
   <path class="fil0" d="M3087 370c0,-4 0,-4 -3,-4 -7,6 -17,6 -20,6l0 5c2,0 8,0 14,-4l0 51c0,3 0,5 -9,5l-5 0 0 3c6,0 13,0 19,0 6,0 13,0 19,0l0 -3 -5 0c-10,0 -10,-2 -10,-5l0 -54z"/>
   <path class="fil0" d="M3190 220l20 -16c3,-1 4,-2 13,-2l0 -7c-4,0 -8,0 -12,0 -3,0 -9,0 -16,0l0 7c3,0 3,0 4,1l-28 22 0 -68 -28 2 0 7c10,0 11,0 11,6l0 81 -11 0 0 8c10,0 12,0 18,0 7,0 8,0 18,0l0 -8 -10 0 0 -18 10 -7c0,1 19,23 19,24 0,1 -2,1 -3,1l0 8c8,0 12,0 16,0 6,0 11,0 17,0l0 -8c-2,0 -6,0 -7,0 -2,-1 -4,-1 -5,-2l-26 -31z"/>
   <path class="fil0" d="M3271 207c-10,-9 -20,-24 -20,-47 0,-23 8,-40 20,-48 0,0 0,0 0,0 0,-1 0,-3 -1,-3 -2,0 -26,16 -26,51 0,33 24,49 26,49 1,0 1,0 1,-1 0,0 0,0 0,-1l0 0z"/>
   <path class="fil0" d="M3327 177c0,1 -2,4 -2,6 0,2 2,2 4,2 1,0 4,-1 4,-2 0,0 1,-4 2,-6 0,-3 1,-6 1,-9 1,-2 1,-5 3,-7 1,-4 3,-8 8,-12 1,-2 6,-5 11,-5 7,0 7,5 7,7 0,5 -5,16 -6,21 -1,2 -2,3 -2,5 0,4 4,8 10,8 10,0 15,-12 15,-14 0,0 0,-2 -1,-2 -2,0 -2,0 -3,3 -1,5 -6,11 -11,11 -1,0 -2,-2 -2,-4 0,-2 0,-4 1,-6 1,-2 6,-16 6,-20 0,-9 -6,-12 -13,-12 -6,0 -12,2 -19,10 0,-7 -6,-10 -13,-10 -5,0 -12,1 -18,9 0,-7 -8,-9 -11,-9 -5,0 -7,2 -9,6 -2,3 -3,9 -3,9 0,1 0,1 1,1 2,0 2,-1 2,-2 3,-7 5,-11 8,-11 3,0 3,4 3,5 0,1 0,6 -1,8 -1,3 -1,8 -2,9 0,3 -2,6 -3,8 0,3 -1,7 -1,9 0,2 1,2 4,2 1,0 3,-1 3,-2 1,0 1,-4 3,-6 0,-3 1,-6 2,-9 0,-2 0,-5 1,-7 1,-4 5,-8 9,-12 1,-2 6,-5 10,-5 8,0 8,5 8,7 0,3 -2,6 -3,10l-3 16z"/>
   <path class="fil0" d="M3417 150c0,-7 -8,-9 -11,-9 -5,0 -7,2 -9,6 -2,3 -3,8 -3,9 0,1 0,1 1,1 2,0 2,-1 2,-2 3,-8 5,-11 8,-11 3,0 3,4 3,5 0,1 0,6 -1,8 -1,3 -1,8 -2,9 0,3 -2,6 -3,8 0,3 -1,7 -1,9 0,2 1,2 4,2 1,0 3,-1 3,-2 1,0 1,-4 3,-6 0,-3 1,-6 2,-9 0,-2 0,-5 1,-7 1,-4 5,-8 9,-12 1,-2 6,-5 10,-5 8,0 8,5 8,7 0,5 -5,16 -6,21 -2,2 -2,3 -2,5 0,4 4,8 10,8 10,0 14,-12 14,-14 0,0 0,-2 -1,-2 -1,0 -1,0 -2,3 -1,5 -6,11 -11,11 -1,0 -2,-2 -2,-4 0,-2 1,-4 1,-6 1,-4 6,-16 6,-20 0,-9 -6,-12 -13,-12 -5,0 -12,1 -18,9l0 0z"/>
   <path class="fil0" d="M3498 160c0,-34 -24,-51 -25,-51 -1,0 -1,2 -1,3 0,0 0,0 1,1 10,8 18,23 18,47 0,21 -7,37 -18,47 -1,1 -1,1 -1,1 0,1 0,1 1,1 1,0 25,-16 25,-49l0 0z"/>
   <path class="fil0" d="M3264 239c0,-1 0,-1 0,-2 0,-2 -1,-2 -2,-2l-11 2c-2,0 -4,0 -4,2 0,1 2,1 3,1 3,0 3,1 6,1 0,2 0,2 -1,3l-14 56c-1,1 -1,3 -1,3 0,2 3,2 4,2 1,0 2,0 5,-1 0,-3 3,-18 4,-22 8,0 15,3 15,9 0,0 0,1 -1,1 0,2 0,2 0,3 0,6 6,10 10,10 10,0 14,-14 14,-14 0,0 0,-2 -2,-2 -1,0 -2,0 -2,2 -1,3 -4,12 -8,12 -4,0 -4,-5 -4,-6 0,-2 0,-2 0,-4 0,0 0,-2 0,-4 0,-7 -8,-9 -16,-10 3,-2 4,-3 9,-6 5,-5 9,-9 15,-9 2,0 3,0 4,1 -4,0 -5,4 -5,6 0,3 3,4 4,4 2,0 6,-2 6,-7 0,-4 -4,-7 -9,-7 -6,0 -12,4 -16,8 -5,5 -9,7 -12,8l9 -38z"/>
   <path class="fil0" d="M3557 208c0,-4 2,-9 2,-9 0,-2 -2,-4 -4,-4 -5,0 -6,4 -6,6l-22 85c-1,1 -1,2 -1,2 0,3 2,5 5,5 4,0 6,-5 6,-7l7 -28c5,3 11,4 15,4 5,0 12,-1 21,-11 1,8 8,11 13,11 5,0 8,-1 12,-7 2,-6 5,-15 5,-16 0,0 -1,-1 -3,-1 -1,0 -2,0 -2,3 -4,14 -7,17 -11,17 -3,0 -5,-3 -5,-6 0,-3 0,-6 2,-12 2,-6 2,-9 4,-15l3 -14c1,-3 3,-10 3,-10 0,-3 -1,-5 -4,-5 -5,0 -6,5 -8,8l-2 13c-2,5 -6,23 -7,27 0,1 -7,14 -21,14 -10,0 -10,-9 -10,-13 0,-4 0,-6 2,-13l6 -24z"/>
   <path class="fil0" d="M3660 270c0,3 -1,6 -1,6 0,3 2,4 4,4 2,0 3,-1 4,-3 0,-1 0,-4 2,-6 0,-3 1,-6 2,-9 0,-3 1,-5 1,-7 1,-3 5,-9 9,-12 2,-2 6,-5 12,-5 6,0 6,5 6,7 0,6 -5,17 -6,20 -2,3 -2,4 -2,6 0,5 5,9 10,9 11,0 16,-13 16,-16 0,0 0,-1 -3,-1 -1,0 -1,0 -2,2 -1,6 -6,11 -11,11 -1,0 -2,0 -2,-3 0,-3 1,-4 1,-6 1,-3 6,-15 6,-21 0,-8 -6,-12 -13,-12 -6,0 -12,3 -18,11 -2,-7 -8,-11 -15,-11 -5,0 -11,3 -18,10 0,-7 -7,-10 -11,-10 -3,0 -6,3 -8,6 -2,4 -4,10 -4,10 0,1 2,1 3,1 1,0 1,0 1,-2 2,-8 5,-11 8,-11 4,0 4,3 4,5 0,2 -1,6 -2,8 0,4 -2,7 -3,10 0,2 -1,4 -1,7 -1,2 -2,8 -2,8 0,3 2,4 3,4 3,0 4,-1 5,-3 0,-1 1,-4 1,-6 1,-3 1,-6 3,-9 0,-3 1,-5 1,-7 1,-3 5,-9 8,-12 3,-2 6,-5 12,-5 6,0 6,5 6,7 0,2 -1,6 -1,10l-5 15z"/>
   <path class="fil0" d="M3755 213c0,0 0,-2 0,-2 0,-2 -2,-2 -4,-2l-10 1c-3,0 -4,0 -4,3 0,2 1,2 4,2 2,0 3,0 4,0 0,1 0,1 0,4l-14 55c0,1 0,2 0,2 0,3 1,4 2,4 2,0 4,-1 5,-3 0,-1 5,-18 5,-21 7,1 14,2 14,8 0,0 0,1 0,3 -1,1 -1,2 -1,2 0,7 6,11 12,11 10,0 13,-15 13,-16 0,0 0,-1 -2,-1 -1,0 -1,0 -2,2 0,4 -4,11 -9,11 -3,0 -3,-3 -3,-5 0,-2 0,-2 0,-3 0,-1 1,-3 1,-4 0,-8 -10,-11 -17,-11 2,-1 5,-3 8,-7 5,-3 11,-8 16,-8 1,0 2,0 4,1 -4,1 -5,4 -5,6 0,4 2,4 3,4 3,0 6,-2 6,-6 0,-5 -3,-9 -8,-9 -6,0 -12,5 -17,10 -5,3 -8,7 -12,8l11 -39z"/>
   <path class="fil0" d="M3880 225c0,-56 -6,-113 -30,-165 -11,-23 -25,-43 -40,-59 -1,-1 -2,-1 -5,-1 -1,0 -2,0 -2,3 0,0 0,1 0,1 14,18 26,36 36,57 19,46 26,99 26,164 0,63 -7,120 -28,168 -9,19 -21,37 -34,52 0,2 0,2 0,3 0,1 1,1 2,1 3,0 3,0 4,0 0,-1 10,-10 20,-26 27,-36 40,-81 46,-125 4,-24 5,-49 5,-73l0 0z"/>
   <path class="fil0" d="M2796 505c0,-3 0,-4 -2,-4 -9,0 -24,-2 -37,-9 -16,-7 -22,-17 -27,-23 0,-1 -1,-1 -2,-1 -4,0 -4,1 -4,5l0 2c21,36 54,44 69,44 3,0 3,0 3,-4l0 -10z"/>
   <path class="fil0" d="M3328 544c-21,-36 -54,-43 -69,-43 -3,0 -3,0 -3,4l0 10c0,2 0,4 2,4 9,0 24,1 37,8 16,7 23,17 27,23 0,1 1,1 2,1 4,0 4,0 4,-5l0 -2z"/>
   <path class="fil0" d="M3394 505c0,-4 0,-4 -3,-4 -15,0 -49,7 -69,43l0 2c0,5 0,5 3,5 3,0 3,0 4,-1 12,-21 34,-31 64,-31 1,0 1,-2 1,-4l0 -10z"/>
   <path class="fil0" d="M3927 473c0,-4 0,-5 -4,-5 -4,0 -4,1 -4,1 -13,21 -33,32 -63,32 -3,0 -3,1 -3,4l0 10c0,4 0,4 4,4 16,0 49,-8 70,-44l0 -2z"/>
   <path class="fil0" d="M3135 677c1,0 3,0 3,-2 0,-3 -2,-3 -3,-3l-70 0c-1,0 -4,0 -4,3 0,2 3,2 4,2l70 0zm0 23c1,0 3,0 3,-3 0,-2 -2,-2 -3,-2l-70 0c-1,0 -4,0 -4,2 0,3 3,3 4,3l70 0z"/>
   <path class="fil0" d="M3153 727c0,0 0,2 0,2 0,1 1,1 2,1 1,0 1,0 1,-3 1,-2 4,-12 7,-26 4,7 11,11 20,11 15,0 30,-13 30,-27 0,-6 -3,-10 -8,-14 5,-4 10,-10 10,-17 0,-8 -6,-13 -16,-13 -13,0 -27,11 -31,26l-15 60zm42 -56c-2,0 -3,0 -4,0 0,0 -4,0 -4,0 0,0 4,0 5,0 1,0 1,0 3,0l0 0zm6 -2c-4,-2 -6,-2 -9,-2 -3,0 -9,0 -9,4 0,4 4,4 8,4 1,0 5,0 10,-2 2,3 2,8 2,9 0,9 -5,26 -20,26 -9,0 -17,-5 -17,-14 0,-3 1,-5 1,-7 1,-6 2,-11 4,-16 1,-5 3,-13 10,-19 8,-7 14,-9 18,-9 5,0 9,3 9,9 0,1 0,12 -7,17l0 0z"/>
   <path class="fil0" d="M3261 597c0,0 0,-2 0,-2 0,0 0,-1 -2,-1 -2,0 -24,13 -24,42 0,28 22,41 24,41 2,0 2,0 2,-1 0,0 -2,0 -2,-1 -14,-11 -16,-28 -16,-39 0,-20 9,-33 18,-39l0 0z"/>
   <path class="fil0" d="M3283 648c0,3 -1,6 -1,6 0,3 1,4 4,4 1,0 2,-1 3,-4 0,0 2,-3 2,-6 3,-11 3,-11 3,-12 1,-2 7,-13 17,-13 4,0 6,2 6,6 0,5 -4,13 -6,18 0,1 0,1 0,4 0,3 4,7 8,7 10,0 14,-11 14,-13 0,-2 -2,-2 -2,-2 -1,0 -1,0 -2,3 -1,5 -5,8 -10,8 -1,0 -2,-1 -2,-2 0,-3 1,-3 1,-5 1,-4 6,-13 6,-17 0,-6 -5,-11 -13,-11 -7,0 -12,5 -16,9 0,-6 -7,-9 -9,-9 -9,0 -11,14 -11,14 0,1 1,1 1,1 3,0 3,0 3,-1 1,-5 3,-10 7,-10 2,0 2,2 2,4 0,1 0,4 -1,7 0,2 -1,6 -1,7l-3 7z"/>
   <path class="fil0" d="M3373 636c0,-29 -20,-42 -22,-42 -2,0 -2,1 -2,1 0,0 0,2 2,2 12,9 16,24 16,39 0,7 -1,15 -3,22 -5,9 -10,14 -15,18 0,0 0,0 0,0 0,0 0,1 2,1 2,0 22,-13 22,-41l0 0z"/>
   <path class="fil0" d="M3247 699c2,-2 2,-2 2,-3 0,-1 -2,-1 -3,-1l-11 1c-1,0 -1,0 -2,0 0,0 0,1 0,3 0,1 1,1 2,1 0,0 2,0 3,0 2,0 2,0 2,1 0,0 0,0 -1,1l-11 47c0,1 0,1 0,1 0,3 1,4 3,4 3,0 4,-4 4,-5l4 -16c2,2 12,2 12,8 0,0 0,1 0,2 0,1 0,1 0,1 0,6 5,10 10,10 8,0 12,-12 12,-13 0,-2 -2,-2 -2,-2 -1,0 -2,0 -2,3 -1,2 -4,8 -7,8 -4,0 -4,-2 -4,-5 0,0 0,-1 0,-2 0,-1 0,-2 0,-2 0,-8 -8,-9 -14,-10 2,-1 6,-4 7,-5 5,-3 10,-7 14,-7 2,0 3,0 3,1 0,0 0,0 0,0 -4,1 -4,5 -4,5 0,1 0,4 4,4 1,0 5,-2 5,-6 0,-5 -4,-8 -8,-8 -6,0 -10,5 -16,10 -3,2 -5,4 -9,5l7 -31z"/>
   <path class="fil0" d="M3467 733c-11,-8 -20,-24 -20,-48 0,-22 9,-38 20,-46 0,0 0,-2 0,-2 0,-1 0,-1 -1,-1 -3,0 -27,16 -27,49 0,35 24,51 27,51 1,0 1,-1 1,-1 0,-2 0,-2 0,-2l0 0z"/>
   <path class="fil0" d="M3485 641l0 70 29 0c14,0 26,-9 26,-20 0,-8 -9,-15 -20,-16 9,-3 17,-9 17,-16 0,-10 -11,-18 -26,-18l-26 0zm10 30l0 -24 13 0c11,0 20,6 20,12 0,6 -8,12 -20,12l-13 0zm0 34l0 -27 14 0c12,0 22,6 22,13 0,8 -9,14 -21,14l-15 0z"/>
   <path class="fil0" d="M3581 685c0,-33 -24,-49 -26,-49 -2,0 -2,0 -2,1 0,0 0,0 3,3 8,7 18,21 18,45 0,22 -7,38 -19,47 -2,1 -2,1 -2,3 0,0 0,1 2,1 2,0 26,-16 26,-51l0 0z"/>
   <path class="fil0" d="M4019 201c-6,1 -7,6 -7,7 0,3 2,6 6,6 3,0 8,-4 8,-9 0,-7 -8,-10 -14,-10 -10,0 -15,8 -17,10 -2,-7 -10,-10 -17,-10 -15,0 -24,19 -24,22 0,2 1,3 3,3 1,0 1,-1 1,-3 5,-14 14,-19 20,-19 5,0 9,3 9,10 0,6 -6,30 -9,37 -1,5 -6,13 -14,13 -3,0 -6,-1 -7,-1 3,-1 7,-5 7,-8 0,-4 -3,-6 -6,-6 -4,0 -9,4 -9,9 0,7 9,10 15,10 9,0 14,-7 17,-11 3,10 12,11 16,11 16,0 24,-19 24,-23 0,0 0,-1 -2,-1 -1,0 -1,0 -2,2 -3,11 -12,18 -20,18 -4,0 -8,-2 -8,-9 0,-4 2,-12 4,-17 0,-4 4,-19 4,-21 2,-4 6,-13 14,-13 3,0 6,0 8,3l0 0z"/>
   <path class="fil0" d="M4062 243c0,-9 -7,-10 -11,-10 -3,0 -6,2 -8,5 -2,5 -4,9 -4,9 0,2 2,3 3,3 1,0 1,-1 1,-3 2,-8 5,-12 8,-12 4,0 4,5 4,6 0,2 -1,5 -2,9 0,2 -2,6 -3,8 0,3 -1,5 -1,7 -1,4 -2,9 -2,9 0,2 2,3 3,3 3,0 4,-1 5,-2 0,-1 1,-4 1,-6 1,-4 1,-6 3,-10 0,-2 1,-3 1,-6 1,-3 5,-8 8,-12 3,-2 6,-6 12,-6 6,0 6,6 6,8 0,6 -5,16 -6,21 -1,1 -1,4 -1,5 0,5 5,8 10,8 10,0 15,-13 15,-15 0,0 0,-1 -2,-1 -1,0 -1,1 -3,2 -1,6 -4,11 -10,11 -2,0 -3,-1 -3,-4 0,-1 1,-3 3,-5 1,-4 6,-15 6,-21 0,-7 -8,-11 -15,-11 -5,0 -11,1 -18,10l0 0z"/>
   <path class="fil0" d="M4215 226l42 0c2,0 6,0 6,-3 0,-3 -4,-3 -6,-3l-42 0 0 -42c0,-3 0,-6 -4,-6 -4,0 -4,3 -4,6l0 42 -42 0c-2,0 -6,0 -6,3 0,3 4,3 6,3l42 0 0 43c0,2 0,5 4,5 4,0 4,-3 4,-5l0 -43z"/>
   <path class="fil0" d="M4455 17c1,-4 3,-6 10,-6 2,0 3,0 3,-2 0,-2 0,-3 -1,-3 -3,0 -9,1 -11,1l-6 0c-1,0 -4,-1 -5,-1 -2,0 -2,1 -2,3 0,2 1,2 2,2 5,0 6,1 6,4 0,0 0,1 0,1l-11 44 -27 -51c0,-3 -2,-3 -4,-3l-13 0c-3,0 -4,0 -4,3 0,2 1,2 4,2 0,0 3,0 6,0l-13 53c-2,3 -3,6 -11,7 -1,0 -3,0 -3,2 0,0 0,2 3,2 2,0 8,0 11,0l4 0c3,0 4,0 6,0 3,0 3,-3 3,-3 -1,-1 -1,-1 -3,-1 -4,0 -7,-1 -7,-5 0,0 0,0 0,-1l13 -52 32 60c1,2 1,2 2,2 1,0 2,0 2,-3l14 -55z"/>
   <path class="fil0" d="M4499 328l18 -48 -4 0c-6,15 -21,26 -39,30 -3,1 -18,5 -46,5l-91 0 77 -89c1,-1 1,-3 1,-3 0,0 0,-1 -1,-2l-70 -95 82 0c20,0 33,1 35,3 8,1 21,3 33,10 4,3 13,10 19,22l4 0 -18 -42 -178 0c-2,0 -3,0 -3,1 0,0 0,3 0,5l79 108 -78 90c-1,2 -1,4 -1,4 0,1 1,1 3,1l178 0z"/>
   <path class="fil0" d="M4335 399c0,-9 -8,-10 -11,-10 -5,0 -7,2 -9,5 -2,5 -3,9 -3,9 0,2 0,3 1,3 2,0 2,-1 2,-3 3,-8 5,-12 8,-12 3,0 3,5 3,6 0,2 0,5 -1,9 -1,2 -1,6 -2,8 0,3 -2,5 -3,7 0,4 -1,9 -1,9 0,2 1,3 4,3 1,0 3,-1 3,-2 1,-1 1,-4 3,-6 0,-4 1,-6 2,-10 0,-2 0,-3 1,-6 1,-3 5,-8 9,-12 1,-2 6,-6 10,-6 8,0 8,6 8,8 0,6 -5,16 -6,21 -2,1 -2,4 -2,5 0,5 4,8 10,8 10,0 14,-13 14,-15 0,0 0,-1 -1,-1 -1,0 -1,1 -2,2 -1,6 -6,11 -11,11 -1,0 -2,-1 -2,-4 0,-1 1,-3 1,-5 1,-4 6,-15 6,-21 0,-7 -6,-11 -13,-11 -5,0 -12,1 -18,10l0 0z"/>
   <path class="fil0" d="M4463 399c1,0 4,0 4,-3 0,-2 -3,-2 -5,-2l-69 0c-1,0 -3,0 -3,2 0,3 1,3 3,3l70 0zm0 22c1,0 4,0 4,-2 0,-2 -3,-2 -4,-2l-70 0c-2,0 -3,0 -3,2 0,2 2,2 3,2l70 0z"/>
   <path class="fil0" d="M4511 370c0,-4 0,-4 -4,-4 -6,6 -16,6 -20,6l0 5c4,0 10,0 16,-4l0 51c0,3 0,5 -11,5l-4 0 0 3c5,0 13,0 19,0 5,0 14,0 18,0l0 -3 -3 0c-11,0 -11,-2 -11,-5l0 -54z"/>
   <path class="fil0" d="M4614 220l21 -16c2,-1 3,-2 13,-2l0 -7c-5,0 -10,0 -12,0 -4,0 -10,0 -17,0l0 7c2,0 4,0 4,1l-29 22 0 -68 -27 2 0 7c10,0 11,0 11,6l0 81 -11 0 0 8c10,0 12,0 18,0 6,0 9,0 18,0l0 -8 -9 0 0 -18 8 -7c1,1 21,23 21,24 0,1 -3,1 -5,1l0 8c9,0 13,0 18,0 6,0 9,0 15,0l0 -8c-2,0 -4,0 -7,0 -1,-1 -2,-1 -3,-2l-27 -31z"/>
   <path class="fil0" d="M4695 207c-11,-9 -20,-24 -20,-47 0,-23 9,-40 20,-48 0,0 1,0 1,0 0,-1 -1,-3 -3,-3 -1,0 -25,16 -25,51 0,33 24,49 25,49 2,0 3,0 3,-1 0,0 -1,0 -1,-1l0 0z"/>
   <path class="fil0" d="M4733 150c-1,-7 -8,-9 -12,-9 -4,0 -6,2 -8,6 -3,3 -4,8 -4,9 0,1 1,1 2,1 2,0 2,-1 3,-2 1,-8 3,-11 7,-11 4,0 4,4 4,5 0,1 -2,6 -2,8 -1,3 -2,8 -2,9 -1,3 -1,6 -2,8 0,3 -2,7 -2,9 0,2 2,2 3,2 2,0 3,-1 5,-2 0,0 1,-4 1,-6 1,-3 2,-6 2,-9 1,-2 1,-5 3,-7 0,-4 3,-8 7,-12 2,-2 7,-5 12,-5 6,0 6,5 6,7 0,5 -4,16 -6,21 0,2 -1,3 -1,5 0,4 4,8 10,8 10,0 15,-12 15,-14 0,0 0,-2 -1,-2 -3,0 -3,0 -3,3 -2,5 -6,11 -11,11 -2,0 -2,-2 -2,-4 0,-2 0,-4 1,-6 1,-4 6,-16 6,-20 0,-9 -6,-12 -14,-12 -5,0 -11,1 -17,9l0 0z"/>
   <path class="fil0" d="M4809 150c0,-7 -8,-9 -11,-9 -5,0 -7,2 -9,6 -2,3 -3,8 -3,9 0,1 0,1 1,1 2,0 2,-1 2,-2 3,-8 5,-11 8,-11 3,0 3,4 3,5 0,1 0,6 -1,8 -1,3 -1,8 -2,9 0,3 -2,6 -3,8 0,3 -1,7 -1,9 0,2 1,2 4,2 1,0 3,-1 3,-2 1,0 1,-4 3,-6 0,-3 1,-6 2,-9 0,-2 0,-5 1,-7 1,-4 5,-8 9,-12 1,-2 6,-5 10,-5 8,0 8,5 8,7 0,5 -5,16 -6,21 -2,2 -2,3 -2,5 0,4 4,8 10,8 10,0 14,-12 14,-14 0,0 0,-2 -1,-2 -1,0 -1,0 -2,3 -1,5 -6,11 -11,11 -1,0 -2,-2 -2,-4 0,-2 1,-4 1,-6 1,-4 6,-16 6,-20 0,-9 -6,-12 -13,-12 -5,0 -12,1 -18,9l0 0z"/>
   <path class="fil0" d="M4890 160c0,-34 -24,-51 -25,-51 -1,0 -1,2 -1,3 0,0 0,0 1,1 10,8 18,23 18,47 0,21 -7,37 -18,47 -1,1 -1,1 -1,1 0,1 0,1 1,1 1,0 25,-16 25,-49l0 0z"/>
   <path class="fil0" d="M4689 239c0,-1 0,-1 0,-2 0,-2 -3,-2 -4,-2l-11 2c-1,0 -2,0 -2,2 0,1 1,1 2,1 4,0 4,1 5,1 0,2 0,2 0,3l-14 56c0,1 0,3 0,3 0,2 2,2 3,2 1,0 3,0 4,-1 1,-3 5,-18 6,-22 6,0 13,3 13,9 0,0 0,1 0,1 0,2 0,2 0,3 0,6 5,10 11,10 9,0 13,-14 13,-14 0,0 0,-2 -2,-2 -2,0 -2,0 -2,2 -1,3 -3,12 -9,12 -4,0 -4,-5 -4,-6 0,-2 0,-2 1,-4 0,0 0,-2 0,-4 0,-7 -8,-9 -16,-10 2,-2 4,-3 8,-6 6,-5 11,-9 17,-9 1,0 2,0 2,1 -3,0 -5,4 -5,6 0,3 3,4 5,4 1,0 5,-2 5,-7 0,-4 -2,-7 -7,-7 -7,0 -13,4 -17,8 -6,5 -8,7 -12,8l10 -38z"/>
   <path class="fil0" d="M4987 201c-6,1 -7,6 -7,7 0,3 1,6 5,6 5,0 8,-4 8,-9 0,-7 -7,-10 -14,-10 -8,0 -14,8 -16,10 -2,-7 -9,-10 -16,-10 -16,0 -24,19 -24,22 0,2 0,3 1,3 1,0 2,-1 2,-3 5,-14 15,-19 21,-19 3,0 8,3 8,10 0,6 -7,30 -8,37 -2,5 -6,13 -15,13 -2,0 -6,-1 -7,-1 4,-1 7,-5 7,-8 0,-4 -3,-6 -6,-6 -5,0 -8,4 -8,9 0,7 8,10 14,10 9,0 13,-7 16,-11 3,10 13,11 17,11 16,0 25,-19 25,-23 0,0 -1,-1 -3,-1 -1,0 -1,0 -2,2 -4,11 -12,18 -19,18 -5,0 -9,-2 -9,-9 0,-4 2,-12 3,-17 1,-4 5,-19 6,-21 1,-4 6,-13 13,-13 2,0 6,0 8,3l0 0z"/>
   <path class="fil0" d="M5055 169l-4 0c0,3 -1,9 -2,10 -2,1 -9,1 -10,1l-19 0c2,-2 9,-8 13,-11 2,-2 12,-9 14,-12 4,-3 8,-8 8,-15 0,-12 -11,-19 -24,-19 -14,0 -22,8 -22,18 0,4 4,4 5,4 2,0 6,-1 6,-4 0,-3 -1,-6 -6,-6 2,-5 8,-9 15,-9 10,0 16,9 16,16 0,7 -5,14 -12,20l-23 23c-1,0 -1,0 -1,4l43 0 3 -20z"/>
   <path class="fil0" d="M5031 252c0,-7 -8,-9 -11,-9 -5,0 -7,2 -9,6 -2,3 -3,8 -3,9 0,1 0,1 1,1 2,0 2,-1 2,-2 3,-8 5,-11 8,-11 3,0 3,4 3,5 0,1 0,6 -1,8 -1,3 -1,8 -2,9 0,3 -2,6 -3,8 0,3 -1,7 -1,9 0,2 1,2 4,2 1,0 3,-1 3,-2 1,0 1,-4 3,-6 0,-3 1,-6 2,-9 0,-2 0,-5 1,-7 1,-4 5,-8 9,-12 1,-2 6,-5 10,-5 8,0 8,5 8,7 0,5 -5,16 -6,21 -2,2 -2,3 -2,5 0,4 4,8 10,8 10,0 14,-12 14,-14 0,0 0,-2 -1,-2 -1,0 -1,0 -2,3 -1,5 -6,11 -11,11 -1,0 -2,-2 -2,-4 0,-2 1,-4 1,-6 1,-4 6,-16 6,-20 0,-9 -6,-12 -13,-12 -5,0 -12,1 -18,9l0 0z"/>
   <path class="fil0" d="M4374 505c0,-3 0,-4 -2,-4 -9,0 -24,-2 -37,-9 -16,-7 -22,-17 -27,-23 0,-1 -1,-1 -2,-1 -4,0 -4,1 -4,5l0 2c21,36 54,44 69,44 3,0 3,0 3,-4l0 -10z"/>
   <path class="fil0" d="M4701 544c-21,-36 -54,-43 -70,-43 -4,0 -4,0 -4,4l0 10c0,2 0,4 3,4 9,0 24,1 37,8 17,7 23,17 26,23 0,1 2,1 4,1 4,0 4,0 4,-5l0 -2z"/>
   <path class="fil0" d="M4767 505c0,-4 0,-4 -4,-4 -16,0 -49,7 -70,43l0 2c0,5 0,5 4,5 4,0 4,0 4,-1 13,-21 33,-31 63,-31 3,0 3,-2 3,-4l0 -10z"/>
   <path class="fil0" d="M5092 473c0,-4 0,-5 -4,-5 -2,0 -2,1 -3,1 -12,21 -33,32 -63,32 -2,0 -2,1 -2,4l0 10c0,4 0,4 3,4 15,0 48,-8 69,-44l0 -2z"/>
   <path class="fil0" d="M4655 691c-11,-8 -20,-24 -20,-48 0,-22 9,-38 20,-46 0,0 0,-2 0,-2 0,-1 0,-1 -1,-1 -3,0 -27,16 -27,49 0,35 24,51 27,51 1,0 1,-1 1,-1 0,-2 0,-2 0,-2l0 0z"/>
   <path class="fil0" d="M4717 636l0 -7 -34 0 0 -23 15 0c1,0 3,0 4,0l19 0 0 -6 -48 0 0 69 49 0 0 -8 -8 0c-9,0 -17,0 -25,0l-6 0 0 -25 34 0z"/>
   <path class="fil0" d="M4763 643c0,-33 -24,-49 -26,-49 -2,0 -2,0 -2,1 0,0 0,0 3,3 8,7 18,21 18,45 0,22 -7,38 -19,47 -2,1 -2,1 -2,3 0,0 0,1 2,1 2,0 26,-16 26,-51l0 0z"/>
   <path class="fil0" d="M5172 226l43 0c2,0 5,0 5,-3 0,-3 -2,-3 -5,-3l-43 0 0 -42c0,-3 0,-6 -3,-6 -3,0 -3,3 -3,6l0 42 -43 0c-2,0 -5,0 -5,3 0,3 3,3 5,3l43 0 0 43c0,2 0,5 3,5 3,0 3,-3 3,-5l0 -43z"/>
   <path class="fil0" d="M5325 234l-5 0c0,3 -1,11 -3,13 -1,2 -12,2 -14,2l-26 0c2,-3 12,-12 14,-15 24,-20 34,-29 34,-44 0,-17 -15,-29 -33,-29 -18,0 -29,13 -29,28 0,7 6,8 8,8 3,0 8,-2 8,-8 0,-5 -4,-8 -8,-8 0,0 -2,0 -2,0 4,-10 14,-15 21,-15 15,0 20,14 20,24 0,15 -11,27 -18,36l-27 30c-2,1 -2,1 -2,5l57 0 5 -27z"/>
   <path class="fil0" d="M5445 16c1,-5 3,-7 10,-7 2,0 3,0 3,-3 0,-1 0,-1 -1,-1 -3,0 -9,0 -11,0l-6 0c-1,0 -4,0 -5,0 -2,0 -2,1 -2,2 0,2 1,2 2,2 5,0 6,1 6,3 0,1 0,1 0,3l-11 43 -27 -52c0,-1 -2,-1 -4,-1l-13 0c-3,0 -4,0 -4,2 0,2 1,2 4,2 0,0 3,0 6,0l-13 52c-2,4 -3,8 -11,8 -1,0 -3,1 -3,2 0,0 0,1 3,1 2,0 8,0 11,0l4 0c3,0 4,0 6,0 3,0 3,-1 3,-2 -1,-1 -1,-1 -3,-1 -4,0 -7,-2 -7,-4 0,-1 0,-1 0,-2l13 -51 32 59c1,1 1,1 2,1 1,0 2,0 2,-2l14 -54z"/>
   <path class="fil0" d="M5543 51c1,0 4,0 4,-3 0,-3 -3,-3 -4,-3l-64 0c-1,0 -3,0 -3,3 0,3 2,3 3,3l64 0z"/>
   <path class="fil0" d="M5595 10c0,-4 0,-4 -3,-4 -7,6 -17,6 -20,6l0 5c2,0 8,0 14,-4l0 51c0,3 0,5 -9,5l-5 0 0 3c6,0 13,0 19,0 6,0 13,0 19,0l0 -3 -5 0c-10,0 -10,-2 -10,-5l0 -54z"/>
   <path class="fil0" d="M5568 328l18 -48 -3 0c-6,15 -22,26 -39,30 -3,1 -18,5 -47,5l-90 0 76 -89c1,-1 2,-3 2,-3 0,0 0,-1 -1,-2l-69 -95 81 0c21,0 34,1 35,3 8,1 22,3 32,10 5,3 15,10 20,22l3 0 -18 -42 -176 0c-4,0 -4,0 -4,1 0,0 0,3 0,5l79 108 -78 90c-1,2 -1,4 -1,4 0,1 1,1 4,1l176 0z"/>
   <path class="fil0" d="M5403 399c0,-9 -8,-10 -11,-10 -5,0 -7,2 -9,5 -2,5 -3,9 -3,9 0,2 0,3 1,3 2,0 2,-1 2,-3 3,-8 5,-12 8,-12 3,0 3,5 3,6 0,2 0,5 -1,9 -1,2 -1,6 -2,8 0,3 -2,5 -3,7 0,4 -1,9 -1,9 0,2 1,3 4,3 1,0 3,-1 3,-2 1,-1 1,-4 3,-6 0,-4 1,-6 2,-10 0,-2 0,-3 1,-6 1,-3 5,-8 9,-12 1,-2 6,-6 10,-6 8,0 8,6 8,8 0,6 -5,16 -6,21 -2,1 -2,4 -2,5 0,5 4,8 10,8 10,0 14,-13 14,-15 0,0 0,-1 -1,-1 -1,0 -1,1 -2,2 -1,6 -6,11 -11,11 -1,0 -2,-1 -2,-4 0,-1 1,-3 1,-5 1,-4 6,-15 6,-21 0,-7 -6,-11 -13,-11 -5,0 -12,1 -18,10l0 0z"/>
   <path class="fil0" d="M5531 399c1,0 4,0 4,-3 0,-2 -3,-2 -5,-2l-69 0c-1,0 -3,0 -3,2 0,3 1,3 3,3l70 0zm0 22c1,0 4,0 4,-2 0,-2 -3,-2 -4,-2l-70 0c-2,0 -3,0 -3,2 0,2 2,2 3,2l70 0z"/>
   <path class="fil0" d="M5579 370c0,-4 0,-4 -4,-4 -6,6 -16,6 -20,6l0 5c4,0 10,0 16,-4l0 51c0,3 0,5 -11,5l-4 0 0 3c5,0 13,0 19,0 5,0 14,0 18,0l0 -3 -3 0c-11,0 -11,-2 -11,-5l0 -54z"/>
   <path class="fil0" d="M5897 17c1,-4 4,-6 11,-6 0,0 2,0 2,-2 0,-2 -1,-3 -2,-3 -3,0 -7,1 -10,1l-6 0c-1,0 -3,-1 -6,-1 -1,0 -1,1 -1,3 0,2 1,2 2,2 4,0 6,1 6,4 0,0 0,1 0,1l-10 44 -28 -51c-1,-3 -1,-3 -4,-3l-14 0c-1,0 -4,0 -4,3 0,2 3,2 4,2 1,0 5,0 7,0l-13 53c-1,3 -2,6 -11,7 -1,0 -2,0 -2,2 0,0 0,2 1,2 2,0 8,0 11,0l6 0c1,0 3,0 5,0 2,0 2,-3 2,-3 0,-1 -1,-1 -2,-1 -5,0 -6,-1 -6,-5 0,0 0,0 0,-1l13 -52 31 60c0,2 1,2 2,2 2,0 2,0 3,-3l13 -55z"/>
   <path class="fil0" d="M5943 328l18 -48 -4 0c-6,15 -22,26 -38,30 -4,1 -18,5 -47,5l-90 0 75 -89c2,-1 2,-3 2,-3 0,0 0,-1 -2,-2l-69 -95 83 0c19,0 33,1 34,3 8,1 21,3 33,10 3,3 14,10 19,22l4 0 -18 -42 -177 0c-3,0 -3,0 -5,1 0,0 0,3 0,5l80 108 -77 90c-3,2 -3,4 -3,4 0,1 3,1 5,1l177 0z"/>
   <path class="fil0" d="M5694 424c0,2 -1,6 -1,6 0,2 2,3 4,3 2,0 3,-1 4,-2 0,-1 0,-4 2,-6 0,-4 1,-6 2,-10 0,-2 1,-3 1,-6 1,-3 5,-8 9,-12 2,-2 6,-6 12,-6 6,0 6,6 6,8 0,6 -5,16 -6,21 -2,1 -2,4 -2,5 0,5 5,8 10,8 11,0 16,-13 16,-15 0,0 0,-1 -3,-1 -1,0 -1,1 -2,2 -1,6 -6,11 -11,11 -1,0 -2,0 -2,-4 0,-1 1,-3 1,-5 1,-3 6,-15 6,-21 0,-7 -6,-11 -13,-11 -6,0 -12,1 -18,10 -2,-8 -8,-10 -15,-10 -5,0 -11,1 -18,10 0,-9 -7,-10 -11,-10 -3,0 -6,2 -8,5 -2,5 -4,9 -4,9 0,2 2,3 3,3 1,0 1,-1 1,-3 2,-8 5,-12 8,-12 4,0 4,4 4,6 0,2 -1,5 -2,9 0,2 -2,6 -3,8 0,3 -1,5 -1,7 -1,4 -2,9 -2,9 0,2 2,3 3,3 3,0 4,-1 5,-2 0,-1 1,-4 1,-6 1,-4 1,-6 3,-10 0,-2 1,-3 1,-6 1,-3 5,-8 8,-12 3,-2 6,-6 12,-6 6,0 6,6 6,8 0,2 -1,7 -1,9l-5 16z"/>
   <path class="fil0" d="M5837 399c1,0 4,0 4,-3 0,-2 -3,-2 -5,-2l-69 0c-1,0 -3,0 -3,2 0,3 1,3 3,3l70 0zm0 22c1,0 4,0 4,-2 0,-2 -3,-2 -4,-2l-70 0c-2,0 -3,0 -3,2 0,2 2,2 3,2l70 0z"/>
   <path class="fil0" d="M5879 399c-1,-9 -8,-10 -12,-10 -4,0 -6,2 -8,5 -3,5 -4,9 -4,9 0,2 1,3 2,3 2,0 2,-1 3,-3 1,-8 3,-12 7,-12 4,0 4,5 4,6 0,2 -2,5 -2,9 -1,2 -2,6 -2,8 -1,3 -1,5 -2,7 0,4 -2,9 -2,9 0,2 2,3 3,3 2,0 3,-1 5,-2 0,-1 1,-4 1,-6 1,-4 2,-6 2,-10 1,-2 1,-3 3,-6 0,-3 3,-8 7,-12 2,-2 7,-6 12,-6 6,0 6,6 6,8 0,6 -4,16 -6,21 0,1 -1,4 -1,5 0,5 4,8 10,8 10,0 15,-13 15,-15 0,0 0,-1 -1,-1 -3,0 -3,1 -3,2 -2,6 -6,11 -11,11 -2,0 -2,-1 -2,-4 0,-1 0,-3 1,-5 1,-4 6,-15 6,-21 0,-7 -6,-11 -14,-11 -5,0 -11,1 -17,10l0 0z"/>
   <path class="fil0" d="M5975 411l31 0c3,0 5,0 5,-3 0,-3 -2,-3 -5,-3l-31 0 0 -32c0,-2 0,-4 -4,-4 -2,0 -2,2 -2,4l0 32 -32 0c-2,0 -4,0 -4,3 0,3 2,3 4,3l32 0 0 32c0,1 0,4 2,4 4,0 4,-3 4,-4l0 -32z"/>
   <path class="fil0" d="M6055 370c0,-4 -1,-4 -3,-4 -6,6 -17,6 -21,6l0 5c3,0 10,0 16,-4l0 51c0,3 0,5 -11,5l-3 0 0 3c4,0 13,0 18,0 6,0 13,0 19,0l0 -3 -5 0c-10,0 -10,-2 -10,-5l0 -54z"/>
   <path class="fil0" d="M6159 220l20 -16c1,-1 4,-2 13,-2l0 -7c-5,0 -9,0 -13,0 -4,0 -10,0 -17,0l0 7c4,0 4,0 5,1l-29 22 0 -68 -26 2 0 7c8,0 9,0 9,6l0 81 -9 0 0 8c9,0 11,0 18,0 6,0 7,0 18,0l0 -8 -11 0 0 -18 10 -7c0,1 19,23 19,24 0,1 -3,1 -4,1l0 8c9,0 13,0 18,0 6,0 10,0 16,0l0 -8c-3,0 -5,0 -7,0 -3,-1 -3,-1 -4,-2l-26 -31z"/>
   <path class="fil0" d="M6239 207c-11,-9 -20,-24 -20,-47 0,-23 9,-40 20,-48 0,0 0,0 0,0 0,-1 0,-3 -1,-3 -3,0 -27,16 -27,51 0,33 24,49 27,49 1,0 1,0 1,-1 0,0 0,0 0,-1l0 0z"/>
   <path class="fil0" d="M6294 177c0,1 -1,4 -1,6 0,2 2,2 4,2 2,0 3,-1 4,-2 0,0 0,-4 2,-6 0,-3 1,-6 2,-9 0,-2 1,-5 1,-7 1,-4 5,-8 9,-12 2,-2 6,-5 12,-5 6,0 6,5 6,7 0,5 -5,16 -6,21 -2,2 -2,3 -2,5 0,4 5,8 10,8 11,0 16,-12 16,-14 0,0 0,-2 -3,-2 -1,0 -1,0 -2,3 -1,5 -6,11 -11,11 -1,0 -2,-2 -2,-4 0,-2 1,-4 1,-6 1,-2 6,-16 6,-20 0,-9 -6,-12 -13,-12 -6,0 -12,2 -18,10 -2,-7 -8,-10 -15,-10 -5,0 -11,1 -18,9 0,-7 -7,-9 -11,-9 -3,0 -6,2 -8,6 -2,3 -4,9 -4,9 0,1 2,1 3,1 1,0 1,-1 1,-2 2,-7 5,-11 8,-11 4,0 4,4 4,5 0,1 -1,6 -2,8 0,3 -2,8 -3,9 0,3 -1,6 -1,8 -1,3 -2,7 -2,9 0,2 2,2 3,2 3,0 4,-1 5,-2 0,0 1,-4 1,-6 1,-3 1,-6 3,-9 0,-2 1,-5 1,-7 1,-4 5,-8 8,-12 3,-2 6,-5 12,-5 6,0 6,5 6,7 0,3 -1,6 -1,10l-5 16z"/>
   <path class="fil0" d="M6384 150c0,-7 -7,-9 -11,-9 -3,0 -6,2 -8,6 -2,3 -4,8 -4,9 0,1 2,1 3,1 1,0 1,-1 1,-2 2,-8 5,-11 8,-11 4,0 4,4 4,5 0,1 -1,6 -2,8 0,3 -2,8 -3,9 0,3 -1,6 -1,8 -1,3 -2,7 -2,9 0,2 2,2 3,2 3,0 4,-1 5,-2 0,0 1,-4 1,-6 1,-3 1,-6 3,-9 0,-2 1,-5 1,-7 1,-4 5,-8 8,-12 3,-2 6,-5 12,-5 6,0 6,5 6,7 0,5 -5,16 -6,21 -1,2 -1,3 -1,5 0,4 5,8 10,8 10,0 15,-12 15,-14 0,0 0,-2 -2,-2 -1,0 -1,0 -3,3 -1,5 -4,11 -10,11 -2,0 -3,-2 -3,-4 0,-2 1,-4 3,-6 1,-4 6,-16 6,-20 0,-9 -8,-12 -15,-12 -5,0 -11,1 -18,9l0 0z"/>
   <path class="fil0" d="M6467 160c0,-34 -24,-51 -26,-51 -2,0 -2,2 -2,3 0,0 0,0 3,1 8,8 18,23 18,47 0,21 -7,37 -19,47 -2,1 -2,1 -2,1 0,1 0,1 2,1 2,0 26,-16 26,-49l0 0z"/>
   <path class="fil0" d="M6233 239c0,-1 0,-1 0,-2 0,-2 -2,-2 -4,-2l-10 2c-3,0 -4,0 -4,2 0,1 1,1 4,1 2,0 3,1 4,1 0,2 0,2 0,3l-14 56c0,1 0,3 0,3 0,2 1,2 2,2 2,0 4,0 5,-1 0,-3 5,-18 5,-22 7,0 14,3 14,9 0,0 0,1 0,1 -1,2 -1,2 -1,3 0,6 6,10 12,10 10,0 13,-14 13,-14 0,0 0,-2 -2,-2 -1,0 -1,0 -2,2 0,3 -4,12 -9,12 -3,0 -3,-5 -3,-6 0,-2 0,-2 0,-4 0,0 1,-2 1,-4 0,-7 -10,-9 -17,-10 2,-2 5,-3 8,-6 5,-5 11,-9 16,-9 1,0 2,0 4,1 -4,0 -5,4 -5,6 0,3 2,4 3,4 3,0 6,-2 6,-7 0,-4 -3,-7 -8,-7 -6,0 -12,4 -17,8 -5,5 -8,7 -12,8l11 -38z"/>
   <path class="fil0" d="M6563 201c-6,1 -7,6 -7,7 0,3 2,6 6,6 3,0 8,-4 8,-9 0,-7 -8,-10 -14,-10 -10,0 -15,8 -17,10 -2,-7 -10,-10 -17,-10 -15,0 -24,19 -24,22 0,2 1,3 3,3 1,0 1,-1 1,-3 5,-14 14,-19 20,-19 5,0 9,3 9,10 0,6 -6,30 -9,37 -1,5 -6,13 -14,13 -3,0 -6,-1 -7,-1 3,-1 7,-5 7,-8 0,-4 -3,-6 -6,-6 -4,0 -9,4 -9,9 0,7 9,10 15,10 9,0 14,-7 17,-11 3,10 12,11 16,11 16,0 24,-19 24,-23 0,0 0,-1 -2,-1 -1,0 -1,0 -2,2 -3,11 -12,18 -20,18 -4,0 -8,-2 -8,-9 0,-4 2,-12 4,-17 0,-4 4,-19 4,-21 2,-4 6,-13 14,-13 3,0 6,0 8,3l0 0z"/>
   <path class="fil0" d="M6624 268c0,2 -1,6 -1,6 0,2 2,3 4,3 2,0 3,-1 4,-2 0,-1 0,-4 2,-6 0,-4 1,-6 2,-10 0,-2 1,-3 1,-6 1,-3 5,-8 9,-12 2,-2 6,-6 12,-6 6,0 6,6 6,8 0,6 -5,16 -6,21 -2,1 -2,4 -2,5 0,5 5,8 10,8 11,0 16,-13 16,-15 0,0 0,-1 -3,-1 -1,0 -1,1 -2,2 -1,6 -6,11 -11,11 -1,0 -2,0 -2,-4 0,-1 1,-3 1,-5 1,-3 6,-15 6,-21 0,-7 -6,-11 -13,-11 -6,0 -12,1 -18,10 -2,-8 -8,-10 -15,-10 -5,0 -11,1 -18,10 0,-9 -7,-10 -11,-10 -3,0 -6,2 -8,5 -2,5 -4,9 -4,9 0,2 2,3 3,3 1,0 1,-1 1,-3 2,-8 5,-12 8,-12 4,0 4,4 4,6 0,2 -1,5 -2,9 0,2 -2,6 -3,8 0,3 -1,5 -1,7 -1,4 -2,9 -2,9 0,2 2,3 3,3 3,0 4,-1 5,-2 0,-1 1,-4 1,-6 1,-4 1,-6 3,-10 0,-2 1,-3 1,-6 1,-3 5,-8 8,-12 3,-2 6,-6 12,-6 6,0 6,6 6,8 0,2 -1,7 -1,9l-5 16z"/>
   <path class="fil0" d="M6767 201c-6,1 -7,6 -7,7 0,3 2,6 6,6 3,0 8,-4 8,-9 0,-7 -8,-10 -14,-10 -10,0 -15,8 -17,10 -2,-7 -10,-10 -17,-10 -15,0 -24,19 -24,22 0,2 1,3 3,3 1,0 1,-1 1,-3 5,-14 14,-19 20,-19 5,0 9,3 9,10 0,6 -6,30 -9,37 -1,5 -6,13 -14,13 -3,0 -6,-1 -7,-1 3,-1 7,-5 7,-8 0,-4 -3,-6 -6,-6 -4,0 -9,4 -9,9 0,7 9,10 15,10 9,0 14,-7 17,-11 3,10 12,11 16,11 16,0 24,-19 24,-23 0,0 0,-1 -2,-1 -1,0 -1,0 -2,2 -3,11 -12,18 -20,18 -4,0 -8,-2 -8,-9 0,-4 2,-12 4,-17 0,-4 4,-19 4,-21 2,-4 6,-13 14,-13 3,0 6,0 8,3l0 0z"/>
   <path class="fil0" d="M6810 243c0,-9 -7,-10 -11,-10 -3,0 -6,2 -8,5 -2,5 -4,9 -4,9 0,2 2,3 3,3 1,0 1,-1 1,-3 2,-8 5,-12 8,-12 4,0 4,5 4,6 0,2 -1,5 -2,9 0,2 -2,6 -3,8 0,3 -1,5 -1,7 -1,4 -2,9 -2,9 0,2 2,3 3,3 3,0 4,-1 5,-2 0,-1 1,-4 1,-6 1,-4 1,-6 3,-10 0,-2 1,-3 1,-6 1,-3 5,-8 8,-12 3,-2 6,-6 12,-6 6,0 6,6 6,8 0,6 -5,16 -6,21 -1,1 -1,4 -1,5 0,5 5,8 10,8 10,0 15,-13 15,-15 0,0 0,-1 -2,-1 -1,0 -1,1 -3,2 -1,6 -4,11 -10,11 -2,0 -3,-1 -3,-4 0,-1 1,-3 3,-5 1,-4 6,-15 6,-21 0,-7 -8,-11 -15,-11 -5,0 -11,1 -18,10l0 0z"/>
   <path class="fil0" d="M5325 519c0,-4 0,-4 -3,-4 -9,0 -24,-1 -37,-8 -17,-9 -23,-17 -26,-23 0,-1 -2,-1 -4,-1 -4,0 -4,0 -4,3l0 3c21,37 54,44 70,44 4,0 4,0 4,-5l0 -9z"/>
   <path class="fil0" d="M6066 558c-20,-36 -54,-43 -69,-43 -3,0 -3,0 -3,4l0 9c0,4 0,5 3,5 8,0 22,1 37,7 15,9 21,18 25,24 1,0 1,0 4,0 3,0 3,0 3,-3l0 -3z"/>
   <path class="fil0" d="M6132 519c0,-4 0,-4 -3,-4 -15,0 -48,7 -69,43l0 3c0,3 0,3 4,3 2,0 2,0 3,-1 12,-19 33,-30 63,-30 2,0 2,-1 2,-5l0 -9z"/>
   <path class="fil0" d="M6874 486c0,-3 0,-3 -4,-3 -2,0 -2,0 -3,1 -12,19 -33,30 -63,31 -2,0 -2,1 -2,4l0 9c0,5 0,5 3,5 15,0 48,-7 69,-44l0 -3z"/>
   <path class="fil0" d="M6019 705c-10,-9 -20,-24 -20,-47 0,-23 8,-40 20,-48 0,0 0,0 0,0 0,-1 0,-3 -1,-3 -2,0 -26,16 -26,51 0,33 24,49 26,49 1,0 1,0 1,-1 0,0 0,0 0,-1l0 0z"/>
   <path class="fil0" d="M6089 671c-7,5 -11,7 -19,7 -17,0 -25,-15 -25,-30 0,-15 9,-30 24,-30 8,0 13,3 18,6l2 -9c-8,-3 -14,-4 -20,-4 -21,0 -35,18 -35,37 0,19 14,36 36,36 8,0 12,-1 20,-5l-1 -8z"/>
   <path class="fil0" d="M6131 658c0,-34 -24,-51 -26,-51 -2,0 -2,2 -2,3 0,0 0,0 3,1 8,8 18,23 18,47 0,21 -7,37 -19,47 -2,1 -2,1 -2,1 0,1 0,1 2,1 2,0 26,-16 26,-49l0 0z"/>
   <rect class="fil1" x="838" y="501" width="594" height="18"/>
   <rect class="fil1" x="1565" y="501" width="594" height="18"/>
   <rect class="fil1" x="2796" y="501" width="463" height="18"/>
   <rect class="fil1" x="3391" y="501" width="462" height="18"/>
   <rect class="fil1" x="4374" y="501" width="257" height="18"/>
   <rect class="fil1" x="4763" y="501" width="259" height="18"/>
   <rect class="fil1" x="5322" y="515" width="672" height="18"/>
   <rect class="fil1" x="6129" y="515" width="673" height="18"/>
  </g>
 </g>
</svg>
