<?xml version="1.0" encoding="iso-8859-1"?>
<!DOCTYPE svg PUBLIC "-//W3C//DTD SVG 1.0//EN" "http://www.w3.org/TR/2001/REC-SVG-20010904/DTD/svg10.dtd">
<!-- Creator: CorelDRAW -->
<svg xmlns="http://www.w3.org/2000/svg" xmlns:odm="http://product.corel.com/CGS/11/cddns/" xml:space="preserve" width="3.22441in" height="0.542402in" style="shape-rendering:geometricPrecision; text-rendering:geometricPrecision; image-rendering:optimizeQuality; fill-rule:evenodd"
     viewBox="0 0 3224 542">
 <defs>
  <style type="text/css">
   <![CDATA[
    .fil0 {fill:#1F1A17}
    .fil1 {fill:#131516}
   ]]>
  </style>
 </defs>
 <g id="Ebene 1">
  <g>
   <path class="fil0" d="M21 95l-21 1 0 5c9,0 11,1 11,8l0 77c0,7 -2,7 -11,7l0 5c7,0 9,0 17,0 7,0 9,0 16,0l0 -5c-9,0 -12,0 -12,-7l0 -91z"/>
   <path class="fil0" d="M109 165c0,-19 -16,-34 -35,-34 -18,0 -33,16 -33,34 0,20 15,34 33,34 19,0 35,-14 35,-34l0 0zm-35 30c-7,0 -13,-3 -17,-9 -3,-6 -3,-15 -3,-22 0,-5 0,-13 3,-19 5,-8 12,-11 17,-11 9,0 15,5 18,11 4,6 4,13 4,19 0,6 0,15 -4,22 -5,6 -11,9 -18,9l0 0z"/>
   <path class="fil0" d="M131 171c3,3 8,5 15,5 15,0 25,-11 25,-23 0,-7 -4,-12 -6,-14 6,-5 12,-5 15,-5 -1,0 -3,1 -3,4 0,1 2,5 5,5 3,0 5,-3 5,-5 0,-4 -2,-7 -8,-7 -5,0 -11,1 -16,6 -5,-3 -11,-5 -17,-5 -14,0 -25,9 -25,21 0,9 5,14 7,16 0,0 -5,6 -5,12 0,6 3,11 8,13 -9,3 -15,9 -15,16 0,11 16,19 35,19 18,0 34,-8 34,-20 0,-6 -3,-12 -9,-16 -8,-5 -17,-5 -31,-5 -4,0 -8,0 -10,-1 -3,0 -7,-5 -7,-10 0,-2 1,-4 3,-6l0 0zm15 0c-13,0 -13,-14 -13,-18 0,-3 0,-8 2,-12 3,-3 6,-6 11,-6 13,0 13,15 13,18 0,4 0,18 -13,18l0 0zm7 26c5,0 23,1 23,13 0,8 -12,14 -25,14 -16,0 -26,-7 -26,-14 0,-3 1,-13 14,-13l14 0z"/>
   <path class="fil0" d="M225 217c-1,4 -1,5 -8,5 -1,0 -4,0 -4,3 0,0 2,2 3,2l6 0c1,0 5,0 7,0 2,0 5,0 7,0 3,0 5,0 7,0 2,0 3,0 3,-3 0,-2 -1,-2 -4,-2 -7,0 -7,-1 -7,-3 0,0 1,-4 2,-7 2,-7 4,-14 5,-21 1,2 6,8 15,8 18,0 37,-20 37,-43 0,-16 -10,-24 -22,-24 -2,0 -11,1 -19,11 -2,-9 -10,-11 -14,-11 -6,0 -10,5 -12,8 -3,6 -4,15 -4,15 0,1 0,2 1,2 3,0 3,-1 4,-4 2,-12 6,-18 11,-18 4,0 4,5 4,8 0,1 -1,3 -1,4l-17 70zm27 -65c1,-3 1,-3 3,-6 4,-5 10,-11 17,-11 7,0 10,8 10,15 0,6 -4,25 -9,32 -4,10 -12,13 -16,13 -10,0 -12,-12 -12,-12 0,-1 0,-2 0,-2l7 -29z"/>
   <path class="fil0" d="M347 234c0,-1 0,-1 -2,-3 -19,-18 -25,-44 -25,-70 0,-23 5,-52 27,-72 0,0 0,0 0,-2 0,-1 0,-1 -2,-1 -2,0 -15,11 -22,27 -8,14 -11,30 -11,48 0,10 1,27 9,45 9,18 22,29 24,29 2,0 2,0 2,-1l0 0z"/>
   <path class="fil0" d="M435 109c0,0 -7,6 -7,8 0,3 1,4 4,4 1,0 2,-1 2,-2 3,-2 5,-6 12,-10 3,0 4,-1 4,-4 0,-1 -1,-2 -3,-2 -2,-1 -4,-4 -6,-8 -1,-3 -1,-4 -3,-4 -1,0 -4,1 -4,4 0,2 4,7 4,8l-51 0c-2,0 -6,0 -6,2 0,4 3,4 6,4l48 0z"/>
   <path class="fil0" d="M429 138c-4,1 -7,6 -7,7 0,4 3,6 6,6 5,0 9,-4 9,-8 0,-8 -8,-11 -15,-11 -9,0 -14,8 -15,11 -4,-8 -10,-11 -17,-11 -17,0 -25,19 -25,23 0,1 1,2 2,2 1,0 1,-1 2,-2 5,-15 15,-20 21,-20 3,0 7,3 7,10 0,6 -6,30 -8,37 -2,5 -5,13 -14,13 -3,0 -6,-1 -8,-1 5,-1 7,-5 7,-8 0,-4 -2,-6 -5,-6 -4,0 -8,5 -8,9 0,8 7,10 14,10 9,0 14,-7 16,-11 4,10 12,11 17,11 15,0 24,-19 24,-23 0,0 0,-1 -1,-1 -3,0 -3,0 -3,2 -3,11 -12,18 -20,18 -4,0 -9,-2 -9,-9 0,-4 3,-12 4,-17 1,-4 5,-19 5,-20 2,-5 6,-14 14,-14 3,0 5,0 7,3l0 0z"/>
   <path class="fil0" d="M467 91c0,-2 0,-5 -4,-5 -2,0 -2,3 -2,5l0 139c0,3 0,5 2,5 4,0 4,-2 4,-5l0 -139z"/>
   <path class="fil0" d="M527 99c1,-2 1,-2 1,-3 0,-1 -1,-1 -3,-1 -2,0 -15,1 -18,1 -1,0 -3,0 -3,2 0,3 2,3 5,3 6,0 6,1 6,2 0,0 0,1 0,4l-22 85c0,2 0,2 0,3 0,3 1,4 4,4 4,0 6,-4 7,-7 2,-10 5,-18 7,-28 10,0 18,5 18,12 0,1 0,1 -1,4 0,1 0,2 0,5 0,8 6,14 14,14 5,0 9,-2 12,-7 4,-6 6,-15 6,-16 0,0 -1,-1 -2,-1 -1,0 -3,0 -3,4 -2,7 -6,16 -13,16 -3,0 -5,-3 -5,-7 0,-3 2,-7 2,-7 0,-1 0,-4 0,-5 0,-11 -11,-14 -22,-15 5,-4 7,-6 12,-11 8,-9 14,-15 22,-15 2,0 4,0 6,3 -8,0 -9,6 -9,7 0,4 1,6 5,6 4,0 8,-2 8,-10 0,-4 -3,-9 -10,-9 -9,0 -16,7 -22,13 -7,7 -11,11 -17,13l15 -59z"/>
   <path class="fil0" d="M613 161c0,-12 -2,-29 -10,-46 -9,-18 -22,-29 -25,-29 -1,0 -1,1 -1,1 0,2 0,2 1,3 9,7 25,27 25,71 0,21 -3,50 -25,70 -1,2 -1,2 -1,3 0,0 0,1 1,1 3,0 16,-11 24,-28 7,-13 11,-28 11,-46l0 0z"/>
   <path class="fil0" d="M779 149c1,0 4,0 4,-4 0,-4 -3,-4 -6,-4l-91 0c-2,0 -6,0 -6,4 0,4 4,4 6,4l93 0zm-2 30c3,0 6,0 6,-4 0,-2 -3,-2 -4,-2l-93 0c-2,0 -6,0 -6,2 0,4 4,4 6,4l91 0z"/>
   <path class="fil0" d="M936 163c1,0 5,0 5,-2 0,-4 -3,-4 -5,-4l-84 0c-1,0 -5,0 -5,4 0,2 2,2 5,2l84 0z"/>
   <path class="fil0" d="M1089 15c2,-6 5,-10 16,-10 1,0 4,0 4,-3 0,-1 -2,-2 -3,-2 -3,0 -12,0 -14,0 -5,0 -5,0 -9,0 -2,0 -4,0 -7,0 -1,0 -3,0 -3,2 0,3 2,3 3,3 5,0 10,1 10,6 0,1 0,3 0,3l-17 66 -35 -78c-1,-2 -1,-2 -5,-2l-19 0c-3,0 -5,0 -5,2 0,3 2,3 5,3 0,0 6,0 10,1l-21 80c-2,7 -6,11 -15,11 -1,0 -4,0 -4,2 0,2 0,3 3,3 2,0 6,0 7,0 2,0 3,0 8,0 4,0 4,0 7,0 3,0 6,0 9,0 0,0 2,0 2,-3 0,-2 -2,-2 -3,-2 -8,0 -10,-2 -10,-6 0,-1 0,-1 1,-4l19 -79 40 91c1,3 1,3 4,3 1,0 1,0 2,-4l20 -83z"/>
   <path class="fil0" d="M1074 273l-5 0c0,3 -1,11 -4,14 -1,1 -10,1 -14,1l-26 0c3,-3 13,-12 15,-15 24,-20 34,-28 34,-44 0,-17 -15,-29 -34,-29 -17,0 -29,13 -29,28 0,7 8,8 9,8 3,0 7,-2 7,-8 0,-5 -2,-7 -7,-7 -1,0 -1,0 -3,0 4,-11 14,-16 22,-16 16,0 20,14 20,24 0,16 -12,28 -18,36l-27 30c-3,1 -3,1 -3,5l58 0 5 -27z"/>
   <path class="fil0" d="M1185 95l-21 1 0 5c9,0 11,1 11,8l0 77c0,7 -2,7 -11,7l0 5c7,0 9,0 17,0 7,0 9,0 16,0l0 -5c-9,0 -12,0 -12,-7l0 -91z"/>
   <path class="fil0" d="M1273 165c0,-19 -16,-34 -35,-34 -18,0 -33,16 -33,34 0,20 15,34 33,34 19,0 35,-14 35,-34l0 0zm-35 30c-7,0 -13,-3 -17,-9 -3,-6 -3,-15 -3,-22 0,-5 0,-13 3,-19 5,-8 12,-11 17,-11 9,0 15,5 18,11 4,6 4,13 4,19 0,6 0,15 -4,22 -5,6 -11,9 -18,9l0 0z"/>
   <path class="fil0" d="M1295 171c3,3 8,5 15,5 15,0 25,-11 25,-23 0,-7 -4,-12 -6,-14 6,-5 12,-5 15,-5 -1,0 -3,1 -3,4 0,1 2,5 5,5 3,0 5,-3 5,-5 0,-4 -2,-7 -8,-7 -5,0 -11,1 -16,6 -5,-3 -11,-5 -17,-5 -14,0 -25,9 -25,21 0,9 5,14 7,16 0,0 -5,6 -5,12 0,6 3,11 8,13 -9,3 -15,9 -15,16 0,11 16,19 35,19 18,0 34,-8 34,-20 0,-6 -3,-12 -9,-16 -8,-5 -17,-5 -31,-5 -4,0 -8,0 -10,-1 -3,0 -7,-5 -7,-10 0,-2 1,-4 3,-6l0 0zm15 0c-13,0 -13,-14 -13,-18 0,-3 0,-8 2,-12 3,-3 6,-6 11,-6 13,0 13,15 13,18 0,4 0,18 -13,18l0 0zm7 26c5,0 23,1 23,13 0,8 -12,14 -25,14 -16,0 -26,-7 -26,-14 0,-3 1,-13 14,-13l14 0z"/>
   <path class="fil0" d="M1452 171l-5 0c0,3 -1,11 -4,14 -1,1 -10,1 -14,1l-26 0c3,-3 13,-12 15,-15 24,-20 34,-28 34,-44 0,-17 -15,-29 -34,-29 -17,0 -29,13 -29,28 0,7 8,8 9,8 3,0 7,-2 7,-8 0,-5 -2,-7 -7,-7 -1,0 -1,0 -3,0 4,-11 14,-16 22,-16 16,0 20,14 20,24 0,16 -12,28 -18,36l-27 30c-3,1 -3,1 -3,5l58 0 5 -27z"/>
   <path class="fil0" d="M1499 143l18 0c-3,9 -8,25 -8,37 0,1 0,7 3,12 1,6 2,7 5,7 3,0 7,-2 7,-6 0,-1 0,-1 -1,-4 -5,-9 -5,-21 -5,-24 0,-4 0,-10 2,-22l18 0c1,0 7,0 7,-5 0,-5 -3,-5 -6,-5l-51 0c-4,0 -10,0 -16,7 -5,5 -9,12 -9,13 0,3 1,3 1,3 1,0 2,0 2,-3 9,-10 17,-10 21,-10l8 0c-7,22 -17,44 -18,45 -1,3 -2,6 -2,7 0,2 1,4 4,4 5,0 6,-5 10,-17l10 -39z"/>
   <path class="fil0" d="M1687 163c2,0 6,0 6,-2 0,-4 -4,-4 -6,-4l-83 0c-2,0 -5,0 -5,4 0,2 3,2 5,2l83 0z"/>
   <path class="fil0" d="M1806 6c0,-4 0,-4 -4,-4 -9,10 -24,10 -27,10l0 5c2,0 12,0 19,-4l0 77c0,6 0,7 -15,7l-4 0 0 5c6,0 19,0 25,0 6,0 19,0 25,0l0 -5 -5 0c-14,0 -14,-1 -14,-7l0 -84z"/>
   <path class="fil0" d="M1830 273l-5 0c0,3 -1,11 -4,14 -1,1 -10,1 -14,1l-26 0c3,-3 13,-12 15,-15 24,-20 34,-28 34,-44 0,-17 -15,-29 -34,-29 -17,0 -29,13 -29,28 0,7 8,8 9,8 3,0 7,-2 7,-8 0,-5 -2,-7 -7,-7 -1,0 -1,0 -3,0 4,-11 14,-16 22,-16 16,0 20,14 20,24 0,16 -12,28 -18,36l-27 30c-3,1 -3,1 -3,5l58 0 5 -27z"/>
   <path class="fil0" d="M1910 95l-23 1 0 5c11,0 12,1 12,8l0 77c0,7 -2,7 -12,7l0 5c8,0 10,0 17,0 7,0 10,0 17,0l0 -5c-10,0 -11,0 -11,-7l0 -91z"/>
   <path class="fil0" d="M1997 165c0,-19 -16,-34 -34,-34 -19,0 -35,16 -35,34 0,20 16,34 35,34 18,0 34,-14 34,-34l0 0zm-34 30c-8,0 -14,-3 -18,-9 -4,-6 -4,-15 -4,-22 0,-5 0,-13 4,-19 5,-8 12,-11 18,-11 8,0 14,5 17,11 3,6 3,13 3,19 0,6 0,15 -3,22 -4,6 -11,9 -17,9l0 0z"/>
   <path class="fil0" d="M2019 171c4,3 9,5 15,5 14,0 25,-11 25,-23 0,-7 -4,-12 -6,-14 6,-5 13,-5 14,-5 0,0 -1,1 -1,4 0,1 1,5 4,5 2,0 5,-3 5,-5 0,-4 -3,-7 -9,-7 -3,0 -11,1 -15,6 -5,-3 -10,-5 -17,-5 -13,0 -24,9 -24,21 0,9 3,14 6,16 0,0 -4,6 -4,12 0,6 3,11 6,13 -7,3 -13,9 -13,16 0,11 14,19 34,19 18,0 33,-8 33,-20 0,-6 -2,-12 -8,-16 -9,-5 -17,-5 -31,-5 -3,0 -8,0 -9,-1 -5,0 -7,-5 -7,-10 0,-2 0,-4 2,-6l0 0zm15 0c-13,0 -13,-14 -13,-18 0,-3 0,-8 3,-12 1,-3 6,-6 10,-6 13,0 13,15 13,18 0,4 0,18 -13,18l0 0zm7 26c5,0 23,1 23,13 0,8 -11,14 -25,14 -15,0 -26,-7 -26,-14 0,-3 2,-13 15,-13l13 0z"/>
   <path class="fil0" d="M2131 91c0,-2 0,-5 -4,-5 -3,0 -3,3 -3,5l0 139c0,3 0,5 3,5 4,0 4,-2 4,-5l0 -139z"/>
   <path class="fil0" d="M2223 135l36 -30c4,-2 10,-2 15,-2l2 0 0 -7c-6,0 -14,0 -15,0 -6,0 -16,0 -22,0l0 7c4,0 7,0 8,1 2,0 2,0 2,0l-57 46 0 -47 17 0 0 -7c-6,0 -22,0 -28,0 -6,0 -21,0 -26,0l0 7 16 0 0 88 -16 0 0 7c5,0 20,0 26,0 6,0 22,0 28,0l0 -7 -17 0 0 -32 16 -12 32 40c0,1 1,1 1,2 0,2 -7,2 -10,2l0 7c6,0 19,0 26,0 1,0 13,0 22,0l0 -7 -4 0c-8,0 -8,-2 -11,-3l-41 -53z"/>
   <path class="fil0" d="M2319 150c0,0 0,-1 0,-1 0,-3 -2,-3 -3,-3l-11 1c-1,0 -2,0 -2,3 0,2 1,2 2,2 4,0 4,0 5,0 0,1 0,1 0,4l-15 55c0,1 0,2 0,2 0,3 3,4 4,4 1,0 2,-1 4,-2 1,-2 4,-18 6,-22 6,1 13,2 13,8 0,0 0,2 0,3 0,1 0,2 0,2 0,7 5,11 11,11 9,0 13,-14 13,-16 0,0 0,-1 -3,-1 -1,0 -1,0 -1,3 -1,3 -3,10 -9,10 -4,0 -4,-3 -4,-4 0,-3 0,-3 1,-4 0,-1 0,-2 0,-4 0,-8 -8,-10 -17,-10 3,-2 5,-4 9,-8 6,-3 11,-8 17,-8 1,0 2,0 2,1 -4,1 -5,4 -5,6 0,4 3,4 4,4 2,0 6,-1 6,-6 0,-5 -3,-9 -7,-9 -8,0 -14,5 -17,10 -6,4 -9,7 -12,8l9 -39z"/>
   <path class="fil0" d="M2387 91c0,-2 0,-5 -4,-5 -2,0 -2,3 -2,5l0 139c0,3 0,5 2,5 4,0 4,-2 4,-5l0 -139z"/>
   <path class="fil0" d="M903 354c0,-4 0,-4 -2,-4 -10,0 -24,-1 -37,-8 -17,-9 -23,-17 -27,-23 0,-1 -1,-1 -3,-1 -4,0 -4,0 -4,3l0 3c21,37 54,44 70,44 3,0 3,0 3,-5l0 -9z"/>
   <path class="fil0" d="M1625 393c-21,-36 -54,-43 -69,-43 -3,0 -3,0 -3,4l0 9c0,4 0,5 2,5 8,0 24,1 37,7 16,9 23,18 27,24 0,0 1,0 2,0 4,0 4,0 4,-3l0 -3z"/>
   <path class="fil0" d="M1691 354c0,-4 0,-4 -3,-4 -15,0 -49,7 -69,43l0 3c0,3 0,3 3,3 3,0 3,0 4,-1 12,-19 33,-30 63,-30 2,0 2,-1 2,-5l0 -9z"/>
   <path class="fil0" d="M2413 321c0,-3 0,-3 -4,-3 -2,0 -2,0 -3,1 -12,19 -33,30 -64,31 -1,0 -1,1 -1,4l0 9c0,5 0,5 2,5 16,0 50,-7 70,-44l0 -3z"/>
   <path class="fil0" d="M1485 485c2,0 4,0 4,-4 0,-2 -2,-2 -4,-2l-69 0c-1,0 -4,0 -4,2 0,4 3,4 4,4l69 0zm0 22c2,0 4,0 4,-3 0,-3 -2,-3 -4,-3l-69 0c-1,0 -4,0 -4,3 0,3 3,3 4,3l69 0z"/>
   <path class="fil0" d="M1530 475c-17,4 -24,17 -24,26 0,10 7,18 19,18 11,0 22,-13 22,-28 0,-10 -6,-16 -9,-20 -2,-1 -12,-12 -12,-16 0,-2 1,-4 5,-4 4,0 7,1 10,2 2,2 4,3 6,3 2,0 4,-3 4,-4 0,-2 -1,-3 -7,-5 -6,-1 -8,-1 -9,-1 -12,0 -12,10 -12,11 0,6 3,13 7,18l0 0zm2 2c5,9 6,14 6,18 0,9 -5,21 -13,21 -5,0 -12,-3 -12,-12 0,-9 6,-24 19,-27l0 0z"/>
   <path class="fil0" d="M1585 487c0,-1 0,-1 0,-1 0,-1 -1,-1 -2,-1l-11 0c-1,0 -1,0 -1,1 -2,0 -2,1 -2,1 0,2 2,2 3,2 0,0 2,0 3,0 2,0 2,0 2,2 0,0 0,0 0,1l-12 45c0,2 0,3 0,3 0,2 1,2 3,2 3,0 4,-2 4,-3l3 -16c3,0 14,1 14,7 0,0 0,0 -2,1 0,2 0,3 0,3 0,6 6,8 11,8 9,0 12,-11 12,-12 0,-1 -2,-1 -2,-1 -1,0 -1,0 -3,1 0,4 -2,10 -7,10 -3,0 -3,-3 -3,-5 0,0 0,-1 0,-2 1,-2 1,-3 1,-4 0,-7 -10,-8 -15,-8 2,-2 5,-5 6,-5 5,-5 10,-9 15,-9 2,0 2,2 3,2 0,0 -1,0 -1,0 -3,2 -3,4 -3,6 0,1 1,2 3,2 1,0 5,-1 5,-5 0,-5 -2,-7 -7,-7 -5,0 -10,4 -16,8 -3,3 -6,5 -9,6l8 -32z"/>
   <path class="fil0" d="M1701 540c-10,-9 -19,-24 -19,-47 0,-23 9,-40 19,-48 0,0 2,0 2,0 0,-1 -2,-2 -3,-2 -1,0 -25,15 -25,50 0,34 24,49 25,49 1,0 3,0 3,-1 0,0 -2,0 -2,-1l0 0z"/>
   <path class="fil0" d="M1719 449l0 69 29 0c18,0 33,-15 33,-35 0,-19 -15,-34 -33,-34l-29 0zm11 63l0 -57 16 0c13,0 25,10 25,28 0,20 -12,29 -25,29l-16 0z"/>
   <path class="fil0" d="M1821 493c0,-34 -24,-50 -25,-50 -1,0 -2,1 -2,2 0,0 0,0 2,1 9,9 18,23 18,47 0,22 -7,37 -18,47 -2,1 -2,1 -2,1 0,1 1,1 2,1 1,0 25,-15 25,-49l0 0z"/>
   <path class="fil0" d="M2533 163c2,0 6,0 6,-2 0,-4 -4,-4 -6,-4l-83 0c-2,0 -5,0 -5,4 0,2 3,2 5,2l83 0z"/>
   <path class="fil0" d="M2618 6c0,-4 -1,-4 -5,-4 -8,10 -22,10 -27,10l0 5c3,0 12,0 20,-4l0 77c0,6 0,7 -14,7l-5 0 0 5c5,0 19,0 25,0 6,0 19,0 24,0l0 -5 -5 0c-13,0 -13,-1 -13,-7l0 -84z"/>
   <path class="fil0" d="M2641 273l-4 0c-1,3 -2,11 -3,14 -1,1 -11,1 -15,1l-26 0c2,-3 13,-12 14,-15 26,-20 34,-28 34,-44 0,-17 -14,-29 -32,-29 -17,0 -29,13 -29,28 0,7 6,8 7,8 4,0 8,-2 8,-8 0,-5 -3,-7 -8,-7 0,0 -1,0 -1,0 3,-11 13,-16 21,-16 15,0 21,14 21,24 0,16 -12,28 -19,36l-28 30c-1,1 -1,1 -1,5l57 0 4 -27z"/>
   <path class="fil0" d="M2747 99c0,-2 0,-2 0,-3 0,-1 0,-1 -2,-1 -2,0 -15,1 -19,1 -1,0 -2,0 -2,2 0,3 1,3 3,3 8,0 8,1 8,2 0,1 -2,6 -3,10 -2,7 -1,3 -2,10 -1,6 -4,12 -5,18 -2,-6 -7,-9 -14,-9 -17,0 -36,20 -36,43 0,17 10,24 20,24 10,0 18,-7 20,-11 2,9 9,11 14,11 4,0 8,-1 12,-7 2,-6 4,-15 4,-16 0,0 -1,-1 -2,-1 -1,0 -2,0 -2,4 -4,13 -8,16 -11,16 -5,0 -5,-3 -5,-6 0,-2 0,-7 0,-7l22 -83zm-32 81c0,2 0,2 -2,6 -6,6 -12,9 -18,9 -7,0 -10,-7 -10,-13 0,-8 5,-25 9,-32 5,-9 11,-15 17,-15 10,0 13,12 13,14 0,0 -1,1 -1,2l-8 29z"/>
   <path class="fil0" d="M2856 153c0,-2 1,-3 8,-3 3,0 4,0 4,-3 0,-1 -1,-1 -4,-1l-13 0c-4,0 -4,0 -5,3l-39 56 -12 -56c0,-3 0,-3 -4,-3l-14 0c-3,0 -4,0 -4,3 0,1 1,1 4,1 1,0 3,0 6,1 0,0 0,1 0,2l-12 50c-2,4 -4,7 -12,7 -2,0 -2,1 -2,2 0,0 0,1 2,1 2,0 8,0 10,0l6 0c2,0 4,0 5,0 3,0 3,-1 3,-2 0,-1 -2,-1 -3,-1 -5,0 -6,-1 -6,-4 0,-1 0,-1 0,-2l13 -53 0 0 12 60c0,1 0,2 3,2 1,0 2,0 2,-1l43 -62 0 0 -13 55c-1,4 -1,5 -8,5 -3,0 -3,0 -4,0 0,1 0,2 0,2 0,0 0,1 1,1 3,0 4,0 6,0 3,0 5,0 8,0l6 0c2,0 4,0 7,0 0,0 1,0 1,0 0,-1 1,-1 1,-2 -1,-1 -1,-1 -3,-1 -2,0 -4,0 -4,0 -2,0 -4,0 -4,-1 0,-2 2,-2 2,-3l13 -53z"/>
   <path class="fil0" d="M2933 234c0,-1 0,-1 -2,-3 -19,-18 -25,-44 -25,-70 0,-23 5,-52 27,-72 0,0 0,0 0,-2 0,-1 0,-1 -2,-1 -2,0 -15,11 -22,27 -8,14 -11,30 -11,48 0,10 1,27 9,45 9,18 22,29 24,29 2,0 2,0 2,-1l0 0z"/>
   <path class="fil0" d="M3021 109c0,0 -7,6 -7,8 0,3 1,4 4,4 1,0 2,-1 2,-2 3,-2 5,-6 12,-10 3,0 4,-1 4,-4 0,-1 -1,-2 -3,-2 -2,-1 -4,-4 -6,-8 -1,-3 -1,-4 -3,-4 -1,0 -4,1 -4,4 0,2 4,7 4,8l-51 0c-2,0 -6,0 -6,2 0,4 3,4 6,4l48 0z"/>
   <path class="fil0" d="M3015 138c-4,1 -7,6 -7,7 0,4 3,6 6,6 5,0 9,-4 9,-8 0,-8 -8,-11 -15,-11 -9,0 -14,8 -15,11 -4,-8 -10,-11 -17,-11 -17,0 -25,19 -25,23 0,1 1,2 2,2 1,0 1,-1 2,-2 5,-15 15,-20 21,-20 3,0 7,3 7,10 0,6 -6,30 -8,37 -2,5 -5,13 -14,13 -3,0 -6,-1 -8,-1 5,-1 7,-5 7,-8 0,-4 -2,-6 -5,-6 -4,0 -8,5 -8,9 0,8 7,10 14,10 9,0 14,-7 16,-11 4,10 12,11 17,11 15,0 24,-19 24,-23 0,0 0,-1 -1,-1 -3,0 -3,0 -3,2 -3,11 -12,18 -20,18 -4,0 -9,-2 -9,-9 0,-4 3,-12 4,-17 1,-4 5,-19 5,-20 2,-5 6,-14 14,-14 3,0 5,0 7,3l0 0z"/>
   <path class="fil0" d="M3055 195c0,5 0,17 -11,28 -1,1 -1,1 -1,2 0,0 1,2 2,2 2,0 14,-12 14,-29 0,-10 -3,-16 -10,-16 -5,0 -7,4 -7,7 0,5 2,9 7,9 2,0 5,-1 6,-3l0 0z"/>
   <path class="fil0" d="M3139 99c1,-2 1,-2 1,-3 0,-1 -1,-1 -2,-1 -3,0 -16,1 -18,1 -3,0 -4,0 -4,2 0,3 1,3 4,3 7,0 7,1 7,2 0,0 0,1 -1,4l-21 85c-1,2 -1,2 -1,3 0,3 3,4 5,4 5,0 6,-4 7,-7 3,-10 5,-18 7,-28 10,0 17,5 17,12 0,1 0,1 0,4 0,1 -1,2 -1,5 0,8 7,14 14,14 6,0 10,-2 12,-7 4,-6 6,-15 6,-16 0,0 0,-1 -1,-1 -2,0 -2,0 -3,4 -2,7 -5,16 -12,16 -5,0 -5,-3 -5,-7 0,-3 1,-7 1,-7 0,-1 0,-4 0,-5 0,-11 -11,-14 -23,-15 5,-4 9,-6 13,-11 8,-9 15,-15 22,-15 2,0 4,0 5,3 -6,0 -9,6 -9,7 0,4 3,6 6,6 4,0 9,-2 9,-10 0,-4 -4,-9 -11,-9 -8,0 -17,7 -23,13 -7,7 -11,11 -15,13l14 -59z"/>
   <path class="fil0" d="M3224 161c0,-12 -1,-29 -9,-46 -9,-18 -22,-29 -24,-29 -2,0 -2,1 -2,1 0,2 0,2 2,3 8,7 25,27 25,71 0,21 -5,50 -27,70 0,2 0,2 0,3 0,0 0,1 2,1 2,0 15,-11 22,-28 8,-13 11,-28 11,-46l0 0z"/>
   <rect class="fil1" x="901" y="350" width="652" height="18"/>
   <rect class="fil1" x="1688" y="350" width="653" height="18"/>
  </g>
 </g>
</svg>
