<?xml version="1.0" encoding="iso-8859-1"?>
<!DOCTYPE svg PUBLIC "-//W3C//DTD SVG 1.0//EN" "http://www.w3.org/TR/2001/REC-SVG-20010904/DTD/svg10.dtd">
<!-- Creator: CorelDRAW -->
<svg xmlns="http://www.w3.org/2000/svg" xmlns:odm="http://product.corel.com/CGS/11/cddns/" xml:space="preserve" width="7.38437in" height="3.22803in" style="shape-rendering:geometricPrecision; text-rendering:geometricPrecision; image-rendering:optimizeQuality; fill-rule:evenodd"
     viewBox="0 0 7384 3228">
 <defs>
  <style type="text/css">
   <![CDATA[
    .str1 {stroke:#1F1A17;stroke-width:3}
    .str0 {stroke:#131516;stroke-width:14}
    .fil1 {fill:none}
    .fil2 {fill:#1F1A17}
    .fil3 {fill:#AAA9A9}
    .fil0 {fill:#131516}
   ]]>
  </style>
 </defs>
 <g id="Ebene 1">
  <g>
   <g>
    <g>
     <g>
      <path class="fil0" d="M2647 54l0 524 7 0 0 -524z"/>
      <path class="fil0" d="M2651 5l-23 53 0 0 1 0 2 -1 1 0 2 -1 1 -1 2 0 1 0 1 -1 2 0 1 0 2 -1 1 0 2 0 1 0 1 0 2 0 1 0 2 0 1 0 2 0 1 0 1 1 2 0 1 0 2 1 1 0 2 0 1 1 2 1 1 0 1 1 2 0 -23 -53 0 0z"/>
     </g>
     <g>
      <path class="fil0" d="M3496 528l-880 0 0 7 880 0z"/>
      <path class="fil0" d="M3545 531l-53 -23 0 0 0 2 1 1 0 1 1 2 1 1 0 2 0 1 1 2 0 1 0 1 1 2 0 1 0 2 0 1 0 2 0 1 0 1 0 2 0 1 0 2 0 1 -1 2 0 1 0 2 -1 1 0 1 0 2 -1 1 -1 2 0 1 -1 2 0 1 53 -23 0 0z"/>
     </g>
     <path class="fil1 str0" d="M2616 509l0 0c109,0 100,-220 172,-220 73,-1 69,218 175,218l569 0"/>
     <path class="fil1 str0" d="M2822 509l0 0c62,0 57,-424 99,-424 41,-2 39,420 99,420l253 0"/>
     <path class="fil1 str0" d="M3540 509l-52 -1c-164,-2 -151,-247 -259,-247 -110,-1 -104,246 -264,246l-341 1"/>
    </g>
    <g>
     <g>
      <path class="fil0" d="M1505 55l0 523 7 0 0 -523z"/>
      <path class="fil0" d="M1508 6l-23 53 0 0 2 -1 1 0 2 -1 1 0 2 -1 1 0 1 -1 2 0 1 -1 2 0 1 0 2 0 1 0 1 -1 2 0 1 0 2 0 1 0 2 1 1 0 1 0 2 0 1 0 2 1 1 0 2 1 1 0 2 1 1 0 1 1 2 0 1 1 -23 -53 0 0z"/>
     </g>
     <g>
      <path class="fil0" d="M2353 528l-880 0 0 7 880 0z"/>
      <path class="fil0" d="M2402 532l-53 -23 0 0 1 1 0 2 1 1 0 1 1 2 0 1 1 2 0 1 1 2 0 1 0 1 0 2 1 1 0 2 0 1 0 2 0 1 0 2 0 1 -1 1 0 2 0 1 0 2 -1 1 0 2 -1 1 0 1 -1 2 0 1 -1 2 0 1 -1 2 53 -23 0 0z"/>
     </g>
     <path class="fil1 str0" d="M2281 509l0 0c-63,0 -58,-424 -99,-424 -41,-1 -39,421 -100,421l-253 0"/>
     <path class="fil1 str0" d="M2402 509l-230 -3c-164,-4 -151,-506 -258,-506 -110,-2 -105,504 -264,504l-177 2"/>
     <path class="fil1 str0" d="M2397 510l-52 -2c-164,-2 -151,-247 -258,-247 -110,-1 -105,246 -264,246l-177 1"/>
    </g>
    <g>
     <g>
      <path class="fil0" d="M3793 60l0 523 7 0 0 -523z"/>
      <path class="fil0" d="M3797 10l-23 54 0 0 1 -1 2 -1 1 0 2 -1 1 0 2 -1 1 0 1 -1 2 0 1 0 2 0 1 -1 2 0 1 0 1 0 2 0 1 0 2 0 1 0 2 0 1 1 1 0 2 0 1 0 2 1 1 0 2 1 1 0 1 1 2 0 1 1 2 1 -23 -54 0 0z"/>
     </g>
     <g>
      <path class="fil0" d="M4642 533l-880 0 0 7 880 0z"/>
      <path class="fil0" d="M4691 536l-53 -23 0 0 0 2 1 1 0 2 1 1 1 2 0 1 0 1 1 2 0 1 0 2 1 1 0 2 0 1 0 1 0 2 0 1 0 2 0 1 0 2 0 1 0 2 -1 1 0 1 0 2 -1 1 0 2 0 1 -1 2 -1 1 0 1 -1 2 0 1 53 -23 0 0z"/>
     </g>
     <path class="fil1 str0" d="M3762 514l0 0c109,0 100,-220 172,-220 73,-1 69,218 175,218l443 0"/>
     <path class="fil1 str0" d="M3968 514l0 0c62,0 57,-424 99,-424 41,-2 39,420 99,420l253 0"/>
     <path class="fil1 str0" d="M3762 514l230 -4c164,-3 151,-505 258,-505 110,-2 105,503 264,503l177 2"/>
     <path class="fil1 str0" d="M4686 515l-52 -2c-164,-2 -151,-247 -259,-247 -110,-1 -104,246 -264,246l-176 1"/>
    </g>
   </g>
   <g>
    <g>
     <g>
      <path class="fil0" d="M1084 1375l0 523 7 0 0 -523z"/>
      <path class="fil0" d="M1087 1326l-23 53 0 0 2 -1 1 0 1 -1 2 0 1 -1 2 0 1 -1 2 0 1 -1 1 0 2 0 1 0 2 0 1 -1 2 0 1 0 1 0 2 0 1 1 2 0 1 0 2 0 1 0 1 1 2 0 1 1 2 0 1 1 2 0 1 1 2 0 1 1 -23 -53 0 0z"/>
     </g>
     <g>
      <path class="fil0" d="M1932 1848l-880 0 0 7 880 0z"/>
      <path class="fil0" d="M1981 1852l-53 -23 0 0 0 1 1 2 1 1 0 2 1 1 0 1 1 2 0 1 0 2 1 1 0 2 0 1 0 1 0 2 0 1 0 2 0 1 0 2 0 1 0 1 0 2 0 1 -1 2 0 1 0 2 -1 1 0 1 -1 2 0 1 -1 2 -1 1 0 2 53 -23 0 0z"/>
     </g>
     <path class="fil1 str0" d="M1860 1829l0 0c-63,0 -58,-423 -99,-423 -42,-2 -40,420 -100,420l-574 0"/>
    </g>
    <g>
     <g>
      <path class="fil0" d="M4215 1375l0 523 7 0 0 -523z"/>
      <path class="fil0" d="M4218 1326l-23 53 0 0 2 -1 1 0 1 -1 2 0 1 -1 2 0 1 -1 2 0 1 -1 2 0 1 0 1 0 2 0 1 -1 2 0 1 0 2 0 1 0 1 1 2 0 1 0 2 0 1 0 2 1 1 0 1 1 2 0 1 1 2 0 1 1 2 0 1 1 -23 -53 0 0z"/>
     </g>
     <g>
      <path class="fil0" d="M5063 1848l-880 0 0 7 880 0z"/>
      <path class="fil0" d="M5112 1852l-53 -23 0 0 0 1 1 2 1 1 0 2 1 1 0 1 1 2 0 1 0 2 1 1 0 2 0 1 0 1 0 2 1 1 0 2 0 1 -1 2 0 1 0 1 0 2 0 1 -1 2 0 1 0 2 -1 1 0 1 -1 2 0 1 -1 2 -1 1 0 2 53 -23 0 0z"/>
     </g>
     <path class="fil1 str0" d="M4389 1829l0 0c63,0 57,-423 99,-423 41,-2 39,420 100,420l451 0m-650 3l-168 0"/>
    </g>
    <g>
     <g>
      <path class="fil0" d="M38 1375l0 523 7 0 0 -523z"/>
      <path class="fil0" d="M41 1326l-23 53 0 0 2 -1 1 0 1 -1 2 0 1 -1 2 0 1 -1 2 0 1 -1 1 0 2 0 1 0 2 0 1 -1 2 0 1 0 1 0 2 0 1 1 2 0 1 0 2 0 1 0 2 1 1 0 1 1 2 0 1 1 2 0 1 1 2 0 1 1 -23 -53 0 0z"/>
     </g>
     <g>
      <path class="fil0" d="M886 1848l-880 0 0 7 880 0z"/>
      <path class="fil0" d="M935 1852l-53 -23 0 0 0 1 1 2 1 1 0 2 1 1 0 1 1 2 0 1 0 2 1 1 0 2 0 1 0 1 0 2 0 1 0 2 0 1 0 2 0 1 0 1 0 2 0 1 -1 2 0 1 0 2 -1 1 0 1 -1 2 0 1 -1 2 -1 1 0 2 53 -23 0 0z"/>
     </g>
     <path class="fil1 str0" d="M935 1829l-230 -3c-164,-4 -151,-506 -259,-506 -109,-2 -104,504 -264,504l-176 2"/>
    </g>
    <g>
     <g>
      <path class="fil0" d="M2126 1375l0 523 7 0 0 -523z"/>
      <path class="fil0" d="M2130 1326l-23 53 0 0 1 -1 2 0 1 -1 1 0 2 -1 1 0 2 -1 1 0 2 -1 1 0 1 0 2 0 1 0 2 -1 1 0 2 0 1 0 1 0 2 1 1 0 2 0 1 0 2 0 1 1 1 0 2 1 1 0 2 1 1 0 2 1 1 0 2 1 -23 -53 0 0z"/>
     </g>
     <g>
      <path class="fil0" d="M2975 1848l-881 0 0 7 881 0z"/>
      <path class="fil0" d="M3024 1852l-54 -23 0 0 1 1 1 2 0 1 1 2 0 1 1 1 0 2 1 1 0 2 0 1 0 2 1 1 0 1 0 2 0 1 0 2 0 1 0 2 0 1 0 1 -1 2 0 1 0 2 0 1 -1 2 0 1 -1 1 0 2 -1 1 0 2 -1 1 -1 2 54 -23 0 0z"/>
     </g>
     <path class="fil1 str0" d="M3018 1830l-52 -2c-163,-2 -150,-247 -258,-247 -110,-1 -104,246 -264,246l-310 1"/>
    </g>
    <g>
     <g>
      <path class="fil0" d="M5261 1375l0 523 7 0 0 -523z"/>
      <path class="fil0" d="M5264 1326l-23 53 0 0 2 -1 1 0 1 -1 2 0 1 -1 2 0 1 -1 2 0 1 -1 2 0 1 0 1 0 2 0 1 -1 2 0 1 0 2 0 1 0 1 1 2 0 1 0 2 0 1 0 2 1 1 0 1 1 2 0 1 1 2 0 1 1 2 0 1 1 -23 -53 0 0z"/>
     </g>
     <g>
      <path class="fil0" d="M6109 1848l-880 0 0 7 880 0z"/>
      <path class="fil0" d="M6158 1852l-53 -23 0 0 0 1 1 2 1 1 0 2 1 1 0 1 1 2 0 1 0 2 1 1 0 2 0 1 0 1 0 2 0 1 1 2 -1 1 0 2 0 1 0 1 0 2 0 1 -1 2 0 1 0 2 -1 1 0 1 -1 2 0 1 -1 2 -1 1 0 2 53 -23 0 0z"/>
     </g>
     <path class="fil1 str0" d="M5229 1829l230 -3c164,-4 151,-506 259,-506 109,-2 104,504 264,504l176 2"/>
    </g>
    <g>
     <g>
      <path class="fil0" d="M3172 1375l0 523 7 0 0 -523z"/>
      <path class="fil0" d="M3176 1326l-23 53 0 0 1 -1 2 0 1 -1 1 0 2 -1 1 0 2 -1 1 0 2 -1 1 0 1 0 2 0 1 0 2 -1 1 0 2 0 1 0 1 0 2 1 1 0 2 0 1 0 2 0 1 1 1 0 2 1 1 0 2 1 1 0 2 1 1 0 2 1 -23 -53 0 0z"/>
     </g>
     <g>
      <path class="fil0" d="M4020 1848l-880 0 0 7 880 0z"/>
      <path class="fil0" d="M4070 1852l-54 -23 0 0 1 1 1 2 0 1 1 2 0 1 1 1 0 2 1 1 0 2 0 1 0 2 1 1 0 1 0 2 0 1 0 2 0 1 0 2 0 1 0 1 -1 2 0 1 0 2 0 1 -1 2 0 1 -1 1 0 2 -1 1 0 2 -1 1 -1 2 54 -23 0 0z"/>
     </g>
     <path class="fil1 str0" d="M3140 1829l0 0c110,0 101,-220 173,-220 73,-1 69,218 175,218l482 0"/>
    </g>
   </g>
   <g>
    <g>
     <path class="fil2" d="M1870 733l-2 -6 31 -11 3 7z"/>
     <path class="fil2" d="M1819 750l-3 -7 32 -10 2 6z"/>
     <path class="fil2" d="M1767 766l-2 -6 32 -11 2 7z"/>
     <path class="fil2" d="M1716 783l-2 -7 32 -10 2 6z"/>
     <path class="fil2" d="M1665 799l-2 -6 32 -11 2 7z"/>
     <path class="fil2" d="M1614 816l-2 -7 32 -10 2 7z"/>
     <path class="fil2" d="M1563 833l-2 -7 32 -10 2 6z"/>
     <path class="fil2" d="M1512 849l-2 -6 32 -11 2 7z"/>
     <path class="fil2" d="M1461 866l-2 -7 32 -10 2 6z"/>
     <path class="fil2" d="M1410 882l-3 -6 32 -11 3 7z"/>
     <path class="fil2" d="M1358 899l-2 -7 32 -10 2 6z"/>
     <path class="fil2" d="M1307 915l-2 -6 32 -11 2 7z"/>
     <path class="fil2" d="M1256 932l-2 -7 32 -10 2 7z"/>
     <path class="fil2" d="M1205 949l-2 -7 32 -10 2 6z"/>
     <path class="fil2" d="M1154 965l-2 -7 32 -10 2 7z"/>
     <path class="fil2" d="M1103 982l-2 -7 32 -10 2 6z"/>
     <path class="fil2" d="M1052 998l-2 -6 32 -11 2 7z"/>
     <path class="fil2" d="M1001 1015l-3 -7 32 -10 3 6z"/>
     <path class="fil2" d="M949 1031l-2 -6 32 -11 2 7z"/>
     <path class="fil2" d="M898 1048l-2 -7 32 -10 2 7z"/>
     <path class="fil2" d="M847 1065l-2 -7 32 -10 2 6z"/>
     <path class="fil2" d="M796 1081l-2 -7 32 -10 2 7z"/>
     <path class="fil2" d="M745 1098l-2 -7 32 -10 2 6z"/>
     <path class="fil2" d="M694 1114l-2 -6 32 -11 2 7z"/>
     <path class="fil2" d="M643 1131l-2 -7 32 -10 2 6z"/>
     <path class="fil2" d="M592 1147l-3 -6 32 -11 3 7z"/>
     <path class="fil2" d="M540 1164l-2 -7 32 -10 2 7z"/>
     <path class="fil2" d="M517 1171l4 -1 -2 -6 -4 1z"/>
     <path class="fil2" d="M469 1183l58 6 0 0 -1 -1 -1 -2 -1 -1 -1 -1 -1 -1 -1 -1 -1 -2 0 -1 -1 -1 -1 -1 0 -2 -1 -1 -1 -1 0 -2 -1 -1 0 -1 -1 -2 0 -1 0 -2 -1 -1 0 -1 0 -2 0 -1 0 -2 0 -1 -1 -2 0 -1 1 -2 0 -1 0 -2 0 -1 0 -2 -44 38 0 0z"/>
    </g>
    <g>
     <path class="fil2" d="M1882 746l-5 -5 21 -24 5 5z"/>
     <path class="fil2" d="M1849 785l-5 -5 21 -24 5 4z"/>
     <path class="fil2" d="M1816 823l-6 -4 21 -24 5 4z"/>
     <path class="fil2" d="M1782 862l-5 -4 21 -25 5 5z"/>
     <path class="fil2" d="M1749 901l-5 -5 21 -24 5 5z"/>
     <path class="fil2" d="M1716 939l-6 -4 21 -24 5 4z"/>
     <path class="fil2" d="M1682 978l-5 -4 21 -25 5 5z"/>
     <path class="fil2" d="M1649 1017l-5 -5 20 -24 6 5z"/>
     <path class="fil2" d="M1616 1056l-6 -5 21 -24 5 4z"/>
     <path class="fil2" d="M1582 1094l-5 -4 21 -24 5 4z"/>
     <path class="fil2" d="M1549 1133l-5 -5 20 -24 6 5z"/>
     <path class="fil2" d="M1536 1148l0 0 -5 -5 -1 1z"/>
     <path class="fil2" d="M1501 1183l52 -25 0 0 -1 -1 -2 0 -1 -1 -2 0 -1 -1 -2 0 -1 -1 -1 0 -2 -1 -1 -1 -1 -1 -1 0 -2 -1 -1 -1 -1 -1 -1 -1 -1 -1 -1 -1 -1 -1 -1 -1 -1 -1 -1 -1 -1 -1 -1 -1 -1 -2 0 -1 -1 -1 -1 -1 -1 -2 0 -1 -1 -2 -1 -1 -17 55 0 0z"/>
    </g>
    <g>
     <path class="fil2" d="M1930 734l-4 6 -27 -18 3 -5z"/>
     <path class="fil2" d="M1974 763l-4 5 -27 -17 3 -6z"/>
     <path class="fil2" d="M2018 791l-4 6 -27 -18 4 -6z"/>
     <path class="fil2" d="M2062 819l-4 6 -27 -18 4 -6z"/>
     <path class="fil2" d="M2106 847l-4 6 -27 -17 4 -6z"/>
     <path class="fil2" d="M2150 876l-4 6 -27 -18 4 -6z"/>
     <path class="fil2" d="M2194 904l-3 6 -28 -18 4 -6z"/>
     <path class="fil2" d="M2238 932l-3 6 -28 -18 4 -5z"/>
     <path class="fil2" d="M2282 961l-3 5 -28 -17 4 -6z"/>
     <path class="fil2" d="M2326 989l-3 6 -28 -18 4 -6z"/>
     <path class="fil2" d="M2371 1017l-4 6 -28 -18 4 -5z"/>
     <path class="fil2" d="M2415 1046l-4 5 -28 -17 4 -6z"/>
     <path class="fil2" d="M2459 1074l-4 6 -28 -18 4 -6z"/>
     <path class="fil2" d="M2503 1102l-4 6 -28 -18 4 -6z"/>
     <path class="fil2" d="M2547 1130l-4 6 -27 -17 3 -6z"/>
     <path class="fil2" d="M2583 1154l-20 -13 -3 6 20 13z"/>
     <path class="fil2" d="M2623 1183l-33 -48 0 0 0 2 0 1 0 2 -1 1 0 2 -1 1 0 2 0 1 -1 2 0 1 -1 1 -1 2 0 1 -1 1 -1 1 0 2 -1 1 -1 1 -1 1 -1 1 -1 1 -1 1 -1 1 -1 1 -1 1 -1 1 -1 1 -1 1 -2 1 -1 1 -1 1 -2 1 58 9 0 0z"/>
    </g>
    <g>
     <path class="fil2" d="M3055 736l-4 5 -27 -19 4 -5z"/>
     <path class="fil2" d="M3097 766l-4 6 -26 -19 4 -6z"/>
     <path class="fil2" d="M3139 797l-4 5 -26 -19 4 -5z"/>
     <path class="fil2" d="M3182 827l-4 6 -27 -19 4 -6z"/>
     <path class="fil2" d="M3224 858l-4 5 -27 -19 4 -5z"/>
     <path class="fil2" d="M3266 888l-4 6 -26 -19 4 -6z"/>
     <path class="fil2" d="M3308 919l-4 5 -26 -19 4 -5z"/>
     <path class="fil2" d="M3351 949l-4 6 -27 -19 4 -6z"/>
     <path class="fil2" d="M3393 980l-4 5 -27 -19 4 -5z"/>
     <path class="fil2" d="M3435 1010l-4 6 -26 -19 4 -6z"/>
     <path class="fil2" d="M3477 1041l-4 5 -26 -19 4 -5z"/>
     <path class="fil2" d="M3520 1071l-4 6 -27 -19 4 -6z"/>
     <path class="fil2" d="M3562 1102l-4 5 -27 -19 4 -6z"/>
     <path class="fil2" d="M3604 1132l-4 6 -26 -19 4 -6z"/>
     <path class="fil2" d="M3632 1152l-12 -9 -4 6 12 8z"/>
     <path class="fil2" d="M3669 1183l-30 -50 0 0 0 2 0 2 0 1 -1 2 0 1 -1 1 0 2 -1 1 0 2 -1 1 -1 1 0 2 -1 1 -1 1 0 1 -1 1 -1 2 -1 1 -1 1 -1 1 -1 1 -1 1 -1 1 -1 1 -1 1 -1 1 -2 1 -1 0 -1 1 -2 1 -1 1 -1 1 56 12 0 0z"/>
    </g>
    <g>
     <path class="fil2" d="M3010 747l-6 -4 20 -26 5 5z"/>
     <path class="fil2" d="M2979 787l-6 -4 20 -25 5 4z"/>
     <path class="fil2" d="M2947 827l-5 -4 19 -25 6 4z"/>
     <path class="fil2" d="M2916 868l-5 -5 19 -25 6 4z"/>
     <path class="fil2" d="M2885 908l-5 -4 19 -26 6 5z"/>
     <path class="fil2" d="M2854 948l-5 -4 19 -25 6 4z"/>
     <path class="fil2" d="M2823 988l-5 -4 19 -25 5 4z"/>
     <path class="fil2" d="M2792 1029l-6 -5 20 -25 5 5z"/>
     <path class="fil2" d="M2761 1069l-6 -4 20 -25 5 4z"/>
     <path class="fil2" d="M2730 1109l-6 -4 20 -25 5 4z"/>
     <path class="fil2" d="M2701 1147l17 -23 -5 -4 -18 22z"/>
     <path class="fil2" d="M2668 1183l51 -28 0 0 -2 0 -1 -1 -2 0 -1 0 -2 -1 -1 0 -1 -1 -2 -1 -1 0 -1 -1 -2 0 -1 -1 -1 -1 -1 -1 -2 -1 -1 0 -1 -1 -1 -1 -1 -1 -1 -1 -1 -1 -1 -1 -1 -1 -1 -2 -1 -1 -1 -1 -1 -1 0 -2 -1 -1 -1 -1 -1 -2 0 -1 -15 56 0 0z"/>
    </g>
    <g>
     <path class="fil2" d="M3059 726l-2 7 -32 -10 2 -7z"/>
     <path class="fil2" d="M3111 742l-2 7 -32 -10 2 -7z"/>
     <path class="fil2" d="M3162 758l-2 7 -32 -10 2 -7z"/>
     <path class="fil2" d="M3213 775l-2 6 -32 -10 2 -7z"/>
     <path class="fil2" d="M3265 791l-2 6 -32 -10 2 -6z"/>
     <path class="fil2" d="M3316 807l-2 6 -32 -10 2 -6z"/>
     <path class="fil2" d="M3367 823l-2 6 -32 -10 2 -6z"/>
     <path class="fil2" d="M3419 839l-2 7 -32 -10 2 -7z"/>
     <path class="fil2" d="M3470 855l-2 7 -32 -10 2 -7z"/>
     <path class="fil2" d="M3521 871l-2 7 -32 -10 2 -7z"/>
     <path class="fil2" d="M3573 887l-2 7 -32 -10 2 -7z"/>
     <path class="fil2" d="M3624 903l-2 7 -32 -10 2 -7z"/>
     <path class="fil2" d="M3675 919l-2 7 -32 -10 2 -7z"/>
     <path class="fil2" d="M3727 936l-2 6 -32 -10 2 -6z"/>
     <path class="fil2" d="M3778 952l-2 6 -32 -10 2 -6z"/>
     <path class="fil2" d="M3829 968l-2 6 -32 -10 2 -6z"/>
     <path class="fil2" d="M3881 984l-2 7 -33 -11 3 -6z"/>
     <path class="fil2" d="M3932 1000l-2 7 -32 -10 2 -7z"/>
     <path class="fil2" d="M3983 1016l-2 7 -32 -10 2 -7z"/>
     <path class="fil2" d="M4035 1032l-2 7 -33 -10 3 -7z"/>
     <path class="fil2" d="M4086 1048l-2 7 -32 -10 2 -7z"/>
     <path class="fil2" d="M4137 1064l-2 7 -32 -10 2 -7z"/>
     <path class="fil2" d="M4189 1081l-2 6 -33 -10 3 -7z"/>
     <path class="fil2" d="M4240 1097l-2 6 -32 -10 2 -6z"/>
     <path class="fil2" d="M4291 1113l-2 6 -32 -10 2 -6z"/>
     <path class="fil2" d="M4343 1129l-2 6 -33 -10 2 -6z"/>
     <path class="fil2" d="M4394 1145l-2 7 -32 -10 2 -7z"/>
     <path class="fil2" d="M4445 1161l-2 7 -32 -10 2 -7z"/>
     <path class="fil2" d="M4505 1183l-44 -38 0 0 0 2 0 2 0 1 0 2 0 1 0 2 0 1 0 2 0 1 0 2 0 1 0 2 -1 1 0 1 0 2 -1 1 0 1 -1 2 0 1 -1 1 0 2 -1 1 -1 1 -1 2 0 1 -1 1 -1 1 -1 2 -1 1 -1 1 -1 1 -1 1 58 -6 0 0z"/>
    </g>
    <g>
     <path class="fil2" d="M4127 733l-2 -6 32 -11 2 7z"/>
     <path class="fil2" d="M4076 750l-2 -7 32 -10 2 6z"/>
     <path class="fil2" d="M4025 766l-2 -6 32 -11 2 7z"/>
     <path class="fil2" d="M3974 783l-2 -7 31 -10 3 7z"/>
     <path class="fil2" d="M3923 800l-3 -7 32 -10 3 6z"/>
     <path class="fil2" d="M3871 816l-2 -6 32 -11 2 7z"/>
     <path class="fil2" d="M3820 833l-2 -7 32 -10 2 6z"/>
     <path class="fil2" d="M3769 849l-2 -6 32 -11 2 7z"/>
     <path class="fil2" d="M3718 866l-2 -7 32 -10 2 7z"/>
     <path class="fil2" d="M3667 883l-2 -7 32 -10 2 6z"/>
     <path class="fil2" d="M3616 899l-2 -6 32 -11 2 7z"/>
     <path class="fil2" d="M3565 916l-2 -7 32 -10 2 6z"/>
     <path class="fil2" d="M3514 932l-2 -6 32 -11 2 7z"/>
     <path class="fil2" d="M3463 949l-2 -7 31 -10 3 7z"/>
     <path class="fil2" d="M3412 966l-3 -7 32 -10 2 6z"/>
     <path class="fil2" d="M3360 982l-2 -6 32 -11 2 7z"/>
     <path class="fil2" d="M3309 999l-2 -7 32 -10 2 6z"/>
     <path class="fil2" d="M3258 1015l-2 -6 32 -11 2 7z"/>
     <path class="fil2" d="M3207 1032l-2 -7 32 -10 2 7z"/>
     <path class="fil2" d="M3156 1049l-2 -7 32 -10 2 6z"/>
     <path class="fil2" d="M3105 1065l-2 -6 32 -11 2 7z"/>
     <path class="fil2" d="M3054 1082l-2 -7 32 -10 2 7z"/>
     <path class="fil2" d="M3003 1099l-2 -7 31 -10 3 6z"/>
     <path class="fil2" d="M2952 1115l-3 -6 32 -11 3 7z"/>
     <path class="fil2" d="M2900 1132l-2 -7 32 -10 2 6z"/>
     <path class="fil2" d="M2849 1148l-2 -6 32 -11 2 7z"/>
     <path class="fil2" d="M2798 1165l-2 -7 32 -10 2 7z"/>
     <path class="fil2" d="M2778 1171l1 0 -2 -6 -1 0z"/>
     <path class="fil2" d="M2730 1183l58 6 0 0 -1 -1 -1 -2 -1 -1 -1 -1 -1 -1 -1 -1 -1 -2 0 -1 -1 -1 -1 -1 0 -2 -1 -1 -1 -1 0 -2 -1 -1 0 -1 -1 -2 0 -1 0 -2 -1 -1 0 -1 0 -2 0 -1 0 -2 0 -1 -1 -2 0 -1 1 -2 0 -1 0 -2 0 -1 0 -2 -44 38 0 0z"/>
    </g>
    <g>
     <path class="fil2" d="M4191 726l-2 7 -32 -10 2 -7z"/>
     <path class="fil2" d="M4243 741l-2 7 -33 -10 2 -6z"/>
     <path class="fil2" d="M4294 757l-2 7 -32 -10 2 -7z"/>
     <path class="fil2" d="M4346 773l-2 6 -32 -10 1 -6z"/>
     <path class="fil2" d="M4397 788l-2 7 -32 -10 2 -7z"/>
     <path class="fil2" d="M4449 804l-2 6 -32 -9 2 -7z"/>
     <path class="fil2" d="M4500 819l-2 7 -32 -10 2 -6z"/>
     <path class="fil2" d="M4552 835l-2 6 -32 -9 2 -7z"/>
     <path class="fil2" d="M4603 850l-2 7 -32 -10 2 -6z"/>
     <path class="fil2" d="M4655 866l-2 7 -32 -10 2 -7z"/>
     <path class="fil2" d="M4707 881l-2 7 -33 -10 2 -6z"/>
     <path class="fil2" d="M4758 897l-2 7 -32 -10 2 -7z"/>
     <path class="fil2" d="M4810 913l-2 6 -33 -9 2 -7z"/>
     <path class="fil2" d="M4861 928l-2 7 -32 -10 2 -7z"/>
     <path class="fil2" d="M4913 944l-2 6 -32 -9 2 -7z"/>
     <path class="fil2" d="M4964 959l-2 7 -32 -10 2 -6z"/>
     <path class="fil2" d="M5016 975l-2 6 -32 -9 2 -7z"/>
     <path class="fil2" d="M5068 990l-2 7 -33 -10 2 -6z"/>
     <path class="fil2" d="M5119 1006l-2 7 -32 -10 2 -7z"/>
     <path class="fil2" d="M5171 1022l-2 6 -33 -10 2 -6z"/>
     <path class="fil2" d="M5222 1037l-2 7 -32 -10 2 -7z"/>
     <path class="fil2" d="M5274 1053l-2 6 -32 -9 2 -7z"/>
     <path class="fil2" d="M5325 1068l-2 7 -32 -10 2 -7z"/>
     <path class="fil2" d="M5377 1084l-2 6 -32 -9 2 -7z"/>
     <path class="fil2" d="M5428 1099l-2 7 -32 -10 2 -6z"/>
     <path class="fil2" d="M5480 1115l-2 7 -32 -10 2 -7z"/>
     <path class="fil2" d="M5532 1130l-2 7 -33 -10 2 -6z"/>
     <path class="fil2" d="M5583 1146l-2 7 -32 -10 2 -7z"/>
     <path class="fil2" d="M5635 1162l-2 6 -33 -9 2 -7z"/>
     <path class="fil2" d="M5695 1183l-45 -37 0 0 0 2 1 1 0 2 0 1 0 2 0 1 0 2 0 1 0 2 0 1 -1 2 0 1 0 1 0 2 -1 1 0 2 0 1 -1 1 0 2 -1 1 -1 1 0 2 -1 1 -1 1 -1 1 0 2 -1 1 -1 1 -1 1 -1 2 -1 1 -1 1 58 -7 0 0z"/>
    </g>
    <g>
     <path class="fil2" d="M4182 740l-5 5 -22 -23 5 -5z"/>
     <path class="fil2" d="M4218 778l-6 4 -22 -23 6 -5z"/>
     <path class="fil2" d="M4253 815l-5 5 -22 -24 5 -4z"/>
     <path class="fil2" d="M4288 852l-5 5 -22 -23 5 -5z"/>
     <path class="fil2" d="M4323 890l-5 4 -22 -23 5 -5z"/>
     <path class="fil2" d="M4358 927l-5 5 -22 -24 5 -4z"/>
     <path class="fil2" d="M4393 964l-5 5 -22 -23 5 -5z"/>
     <path class="fil2" d="M4429 1001l-5 5 -22 -23 5 -5z"/>
     <path class="fil2" d="M4464 1039l-5 5 -22 -24 5 -5z"/>
     <path class="fil2" d="M4499 1076l-5 5 -22 -23 5 -5z"/>
     <path class="fil2" d="M4534 1113l-5 5 -22 -23 5 -5z"/>
     <path class="fil2" d="M4564 1145l-17 -18 -5 5 17 18z"/>
     <path class="fil2" d="M4595 1183l-20 -54 0 0 0 1 -1 2 -1 1 0 1 -1 2 -1 1 0 1 -1 2 -1 1 -1 1 -1 1 -1 1 0 2 -1 1 -1 1 -1 1 -2 1 -1 1 -1 0 -1 1 -1 1 -1 1 -2 1 -1 0 -1 1 -1 1 -2 0 -1 1 -2 1 -1 0 -2 1 -1 0 53 23 0 0z"/>
    </g>
    <g>
     <path class="fil2" d="M4139 745l-6 -4 22 -24 5 5z"/>
     <path class="fil2" d="M4104 783l-5 -5 21 -23 5 4z"/>
     <path class="fil2" d="M4069 820l-5 -4 21 -24 6 5z"/>
     <path class="fil2" d="M4034 858l-5 -5 22 -23 5 4z"/>
     <path class="fil2" d="M3999 895l-5 -4 22 -24 5 5z"/>
     <path class="fil2" d="M3964 933l-5 -5 22 -23 5 4z"/>
     <path class="fil2" d="M3929 970l-5 -4 22 -24 5 5z"/>
     <path class="fil2" d="M3894 1008l-5 -5 22 -23 5 4z"/>
     <path class="fil2" d="M3859 1045l-5 -4 22 -24 5 5z"/>
     <path class="fil2" d="M3824 1083l-5 -5 22 -23 5 4z"/>
     <path class="fil2" d="M3789 1120l-5 -4 22 -24 5 5z"/>
     <path class="fil2" d="M3762 1150l14 -16 -5 -4 -14 15z"/>
     <path class="fil2" d="M3726 1183l53 -23 0 0 -1 -1 -2 0 -1 -1 -2 0 -1 -1 -1 0 -2 -1 -1 -1 -1 -1 -2 0 -1 -1 -1 -1 -1 -1 -1 -1 -1 -1 -1 -1 -1 -1 -1 -1 -1 -1 -1 -1 -1 -1 -1 -1 -1 -1 -1 -1 -1 -2 0 -1 -1 -1 -1 -2 0 -1 -1 -1 -1 -2 0 -1 -20 54 0 0z"/>
    </g>
    <path class="fil2" d="M832 951c0,-8 1,-15 3,-20 1,-5 4,-9 7,-11 4,-3 8,-4 13,-4 4,0 7,0 10,2 2,1 5,3 7,6 1,3 3,7 4,11 1,4 2,9 2,16 0,8 -1,15 -3,20 -2,5 -4,9 -8,11 -3,3 -7,5 -12,5 -7,0 -12,-3 -16,-8 -5,-5 -7,-15 -7,-28zm9 0c0,12 1,19 4,23 3,4 6,6 10,6 4,0 7,-2 10,-6 2,-4 4,-12 4,-23 0,-11 -2,-19 -4,-23 -3,-4 -6,-5 -10,-5 -4,0 -7,1 -10,5 -3,4 -4,12 -4,23z"/>
    <path class="fil2" d="M891 985l0 -9 10 0 0 9 -10 0z"/>
    <path class="fil2" d="M913 967l9 -1c1,5 2,8 5,10 2,2 5,4 8,4 4,0 8,-2 11,-5 2,-2 4,-6 4,-10 0,-4 -2,-7 -4,-10 -3,-2 -6,-3 -10,-3 -1,0 -3,0 -6,0l1 -7c1,0 1,0 1,0 4,0 7,-1 10,-3 3,-2 5,-5 5,-9 0,-3 -1,-5 -4,-7 -2,-2 -4,-3 -8,-3 -3,0 -6,1 -8,3 -2,2 -4,5 -4,9l-9 -1c1,-6 4,-11 7,-14 4,-3 9,-4 14,-4 4,0 7,0 11,2 3,2 5,4 7,7 2,2 2,5 2,9 0,3 0,5 -2,8 -2,2 -4,4 -7,6 4,1 7,3 9,6 3,3 4,6 4,11 0,6 -2,11 -7,15 -4,5 -10,7 -17,7 -6,0 -11,-2 -15,-6 -4,-3 -6,-8 -7,-14z"/>
    <path class="fil2" d="M967 967l9 -1c1,5 3,8 5,10 2,2 5,4 9,4 4,0 7,-2 10,-5 2,-2 4,-6 4,-10 0,-4 -1,-7 -4,-10 -3,-2 -6,-3 -10,-3 -1,0 -3,0 -6,0l1 -7c1,0 1,0 2,0 3,0 6,-1 9,-3 3,-2 5,-5 5,-9 0,-3 -1,-5 -3,-7 -3,-2 -5,-3 -9,-3 -3,0 -6,1 -8,3 -2,2 -4,5 -4,9l-9 -1c1,-6 4,-11 7,-14 4,-3 9,-4 14,-4 4,0 7,0 11,2 3,2 5,4 7,7 2,2 2,5 2,9 0,3 0,5 -2,8 -2,2 -4,4 -7,6 4,1 7,3 9,6 3,3 4,6 4,11 0,6 -2,11 -7,15 -4,5 -10,7 -17,7 -6,0 -11,-2 -15,-6 -4,-3 -6,-8 -7,-14z"/>
    <path class="fil2" d="M1470 951c0,-8 1,-15 2,-20 2,-5 5,-9 8,-11 3,-3 7,-4 13,-4 3,0 7,0 9,2 3,1 6,3 7,6 2,3 4,7 5,11 1,4 1,9 1,16 0,8 -1,15 -2,20 -2,5 -4,9 -8,11 -3,3 -7,5 -12,5 -7,0 -12,-3 -16,-8 -5,-5 -7,-15 -7,-28zm9 0c0,12 1,19 4,23 2,4 6,6 10,6 3,0 7,-2 9,-6 3,-4 4,-12 4,-23 0,-11 -1,-19 -4,-23 -2,-4 -6,-5 -10,-5 -3,0 -7,1 -9,5 -3,4 -4,12 -4,23z"/>
    <path class="fil2" d="M1529 985l0 -9 9 0 0 9 -9 0z"/>
    <path class="fil2" d="M1551 967l9 -1c1,5 2,8 5,10 2,2 5,4 8,4 4,0 8,-2 10,-5 3,-2 5,-6 5,-10 0,-4 -2,-7 -4,-10 -3,-2 -6,-3 -10,-3 -2,0 -4,0 -6,0l1 -7c0,0 1,0 1,0 4,0 7,-1 10,-3 3,-2 4,-5 4,-9 0,-3 -1,-5 -3,-7 -2,-2 -5,-3 -8,-3 -3,0 -6,1 -8,3 -3,2 -4,5 -5,9l-8 -1c1,-6 3,-11 7,-14 4,-3 8,-4 14,-4 4,0 7,0 10,2 3,2 6,4 8,7 1,2 2,5 2,9 0,3 -1,5 -2,8 -2,2 -4,4 -7,6 4,1 7,3 9,6 2,3 4,6 4,11 0,6 -3,11 -7,15 -5,5 -10,7 -17,7 -6,0 -11,-2 -15,-6 -4,-3 -6,-8 -7,-14z"/>
    <path class="fil2" d="M1605 967l9 -1c1,5 2,8 5,10 2,2 5,4 8,4 4,0 8,-2 10,-5 3,-2 5,-6 5,-10 0,-4 -2,-7 -4,-10 -3,-2 -6,-3 -10,-3 -2,0 -4,0 -6,0l1 -7c0,0 1,0 1,0 4,0 7,-1 10,-3 3,-2 4,-5 4,-9 0,-3 -1,-5 -3,-7 -2,-2 -5,-3 -8,-3 -3,0 -6,1 -8,3 -2,2 -4,5 -5,9l-8 -1c1,-6 3,-11 7,-14 4,-3 8,-4 14,-4 4,0 7,0 10,2 4,2 6,4 8,7 1,2 2,5 2,9 0,3 -1,5 -2,8 -2,2 -4,4 -7,6 4,1 7,3 9,6 2,3 4,6 4,11 0,6 -3,11 -7,15 -4,5 -10,7 -17,7 -6,0 -11,-2 -15,-6 -4,-3 -6,-8 -7,-14z"/>
    <path class="fil2" d="M1993 951c0,-8 1,-15 3,-20 1,-5 4,-9 7,-11 4,-3 8,-4 13,-4 4,0 7,0 10,2 3,1 5,3 7,6 2,3 3,7 4,11 1,4 2,9 2,16 0,8 -1,15 -3,20 -2,5 -4,9 -7,11 -4,3 -8,5 -13,5 -7,0 -12,-3 -16,-8 -5,-5 -7,-15 -7,-28zm9 0c0,12 1,19 4,23 3,4 6,6 10,6 4,0 7,-2 10,-6 2,-4 4,-12 4,-23 0,-11 -2,-19 -4,-23 -3,-4 -6,-5 -10,-5 -4,0 -7,1 -10,5 -3,4 -4,12 -4,23z"/>
    <path class="fil2" d="M2052 985l0 -9 10 0 0 9 -10 0z"/>
    <path class="fil2" d="M2074 967l9 -1c1,5 3,8 5,10 2,2 5,4 8,4 5,0 8,-2 11,-5 2,-2 4,-6 4,-10 0,-4 -1,-7 -4,-10 -3,-2 -6,-3 -10,-3 -1,0 -3,0 -6,0l1 -7c1,0 1,0 2,0 3,0 6,-1 9,-3 3,-2 5,-5 5,-9 0,-3 -1,-5 -3,-7 -3,-2 -5,-3 -9,-3 -3,0 -6,1 -8,3 -2,2 -4,5 -4,9l-9 -1c1,-6 4,-11 7,-14 4,-3 9,-4 14,-4 4,0 7,0 11,2 3,2 5,4 7,7 2,2 2,5 2,9 0,3 0,5 -2,8 -2,2 -4,4 -7,6 4,1 7,3 9,6 3,3 4,6 4,11 0,6 -2,11 -7,15 -4,5 -10,7 -17,7 -6,0 -11,-2 -15,-6 -4,-3 -6,-8 -7,-14z"/>
    <path class="fil2" d="M2128 967l9 -1c1,5 3,8 5,10 2,2 5,4 9,4 4,0 7,-2 10,-5 3,-2 4,-6 4,-10 0,-4 -1,-7 -4,-10 -3,-2 -6,-3 -10,-3 -1,0 -3,0 -6,0l1 -7c1,0 1,0 2,0 3,0 6,-1 9,-3 3,-2 5,-5 5,-9 0,-3 -1,-5 -3,-7 -3,-2 -5,-3 -9,-3 -3,0 -6,1 -8,3 -2,2 -4,5 -4,9l-9 -1c1,-6 4,-11 7,-14 4,-3 9,-4 14,-4 4,0 7,0 11,2 3,2 5,4 7,7 2,2 3,5 3,9 0,3 -1,5 -3,8 -1,2 -4,4 -7,6 4,1 7,3 10,6 2,3 3,6 3,11 0,6 -2,11 -7,15 -4,5 -10,7 -16,7 -7,0 -12,-2 -16,-6 -4,-3 -6,-8 -7,-14z"/>
    <path class="fil2" d="M2609 960c0,-8 1,-15 2,-20 2,-5 5,-9 8,-11 3,-3 7,-5 12,-5 4,0 7,1 10,3 3,1 5,3 7,6 2,3 4,7 5,11 1,4 1,9 1,16 0,8 -1,15 -2,20 -2,5 -5,9 -8,11 -3,3 -7,5 -13,5 -6,0 -12,-3 -15,-8 -5,-5 -7,-15 -7,-28zm9 0c0,11 1,19 4,23 2,4 6,6 9,6 4,0 8,-2 10,-6 3,-4 4,-12 4,-23 0,-11 -1,-19 -4,-23 -2,-4 -6,-5 -10,-5 -4,0 -7,1 -9,5 -3,4 -4,12 -4,23z"/>
    <path class="fil2" d="M2668 994l0 -9 9 0 0 9 -9 0z"/>
    <path class="fil2" d="M2722 994l-8 0 0 -54c-3,2 -5,4 -9,6 -3,2 -6,3 -9,4l0 -8c5,-2 9,-5 13,-8 4,-3 6,-7 8,-10l5 0 0 70z"/>
    <path class="fil2" d="M2744 960c0,-8 1,-15 2,-20 2,-5 5,-9 8,-11 3,-3 8,-5 13,-5 3,0 7,1 9,3 3,1 6,3 7,6 2,3 4,7 5,11 1,4 1,9 1,16 0,8 -1,15 -2,20 -2,5 -4,9 -8,11 -3,3 -7,5 -12,5 -7,0 -12,-3 -16,-8 -5,-5 -7,-15 -7,-28zm9 0c0,11 1,19 4,23 2,4 6,6 10,6 4,0 7,-2 10,-6 2,-4 4,-12 4,-23 0,-11 -2,-19 -4,-23 -3,-4 -6,-5 -10,-5 -4,0 -8,1 -10,5 -3,4 -4,12 -4,23z"/>
    <path class="fil2" d="M3314 1136c0,-9 1,-15 3,-20 1,-5 4,-9 7,-12 4,-3 8,-4 13,-4 4,0 7,1 10,2 2,2 5,4 7,7 1,3 3,6 4,10 1,4 1,10 1,17 0,8 0,14 -2,19 -2,5 -4,9 -8,12 -3,3 -7,4 -12,4 -7,0 -12,-2 -16,-7 -5,-6 -7,-15 -7,-28zm9 0c0,11 1,19 4,22 3,4 6,6 10,6 4,0 7,-2 10,-6 2,-3 4,-11 4,-22 0,-12 -2,-20 -4,-23 -3,-4 -6,-6 -10,-6 -4,0 -7,2 -10,5 -3,4 -4,12 -4,24z"/>
    <path class="fil2" d="M3373 1170l0 -10 10 0 0 10 -10 0z"/>
    <path class="fil2" d="M3396 1109l0 -8 45 0 0 7c-5,5 -9,11 -13,19 -5,7 -8,15 -10,24 -2,6 -3,12 -4,19l-9 0c1,-6 2,-12 4,-20 2,-8 5,-15 9,-22 3,-8 8,-14 12,-19l-34 0z"/>
    <path class="fil2" d="M3449 1136c0,-9 1,-15 3,-20 1,-5 4,-9 7,-12 4,-3 8,-4 13,-4 4,0 7,1 10,2 3,2 5,4 7,7 2,3 3,6 4,10 1,4 2,10 2,17 0,8 -1,14 -3,19 -2,5 -4,9 -7,12 -4,3 -8,4 -13,4 -7,0 -12,-2 -16,-7 -4,-6 -7,-15 -7,-28zm9 0c0,11 1,19 4,22 3,4 6,6 10,6 4,0 7,-2 10,-6 3,-3 4,-11 4,-22 0,-12 -1,-20 -4,-23 -3,-4 -6,-6 -10,-6 -4,0 -7,2 -10,5 -2,4 -4,12 -4,24z"/>
    <path class="fil2" d="M4077 1136c0,-9 1,-15 3,-20 1,-5 4,-9 7,-12 3,-3 8,-4 13,-4 3,0 7,1 9,2 3,2 6,4 7,7 2,3 4,6 5,10 1,4 1,10 1,17 0,8 0,14 -2,19 -2,5 -4,9 -8,12 -3,3 -7,4 -12,4 -7,0 -12,-2 -16,-7 -5,-6 -7,-15 -7,-28zm9 0c0,11 1,19 4,22 2,4 6,6 10,6 4,0 7,-2 10,-6 2,-3 4,-11 4,-22 0,-12 -2,-20 -4,-23 -3,-4 -6,-6 -10,-6 -4,0 -7,2 -10,5 -3,4 -4,12 -4,24z"/>
    <path class="fil2" d="M4136 1170l0 -10 10 0 0 10 -10 0z"/>
    <path class="fil2" d="M4203 1162l0 8 -46 0c0,-2 0,-4 1,-6 1,-3 3,-6 6,-9 2,-3 6,-7 11,-11 7,-6 12,-11 15,-15 3,-3 4,-7 4,-10 0,-3 -1,-6 -4,-8 -2,-3 -5,-4 -9,-4 -4,0 -7,1 -10,4 -2,2 -4,6 -4,10l-8 -1c0,-6 2,-11 6,-15 4,-3 10,-5 16,-5 7,0 12,2 16,6 4,3 6,8 6,13 0,3 -1,6 -2,8 -1,3 -3,6 -6,9 -2,3 -7,7 -13,12 -5,5 -8,7 -10,9 -1,2 -2,3 -3,5l34 0z"/>
    <path class="fil2" d="M4212 1136c0,-9 1,-15 3,-20 1,-5 4,-9 7,-12 4,-3 8,-4 13,-4 4,0 7,1 10,2 2,2 5,4 7,7 1,3 3,6 4,10 1,4 2,10 2,17 0,8 -1,14 -3,19 -2,5 -4,9 -8,12 -3,3 -7,4 -12,4 -7,0 -12,-2 -16,-7 -5,-6 -7,-15 -7,-28zm9 0c0,11 1,19 4,22 3,4 6,6 10,6 4,0 7,-2 10,-6 2,-3 4,-11 4,-22 0,-12 -2,-20 -4,-23 -3,-4 -6,-6 -10,-6 -4,0 -7,2 -10,5 -3,4 -4,12 -4,24z"/>
    <path class="fil2" d="M5193 1136c0,-9 1,-15 2,-20 2,-5 5,-9 8,-12 3,-3 7,-4 12,-4 4,0 7,1 10,2 3,2 5,4 7,7 2,3 4,6 5,10 1,4 1,10 1,17 0,8 -1,14 -2,19 -2,5 -5,9 -8,12 -3,3 -7,4 -13,4 -6,0 -12,-2 -15,-7 -5,-6 -7,-15 -7,-28zm9 0c0,11 1,19 4,22 2,4 6,6 9,6 4,0 8,-2 10,-6 3,-3 4,-11 4,-22 0,-12 -1,-20 -4,-23 -2,-4 -6,-6 -10,-6 -4,0 -7,2 -9,5 -3,4 -4,12 -4,24z"/>
    <path class="fil2" d="M5252 1170l0 -10 9 0 0 10 -9 0z"/>
    <path class="fil2" d="M5319 1162l0 8 -46 0c0,-2 0,-4 1,-6 1,-3 3,-6 5,-9 3,-3 7,-7 12,-11 7,-6 12,-11 15,-15 3,-3 4,-7 4,-10 0,-3 -1,-6 -4,-8 -2,-3 -5,-4 -9,-4 -4,0 -8,1 -10,4 -3,2 -4,6 -4,10l-9 -1c1,-6 3,-11 7,-15 4,-3 9,-5 16,-5 7,0 12,2 16,6 4,3 6,8 6,13 0,3 -1,6 -2,8 -1,3 -3,6 -6,9 -2,3 -7,7 -13,12 -5,5 -8,7 -10,9 -1,2 -2,3 -3,5l34 0z"/>
    <path class="fil2" d="M5328 1136c0,-9 1,-15 2,-20 2,-5 5,-9 8,-12 3,-3 8,-4 13,-4 3,0 7,1 9,2 3,2 6,4 7,7 2,3 4,6 5,10 1,4 1,10 1,17 0,8 -1,14 -2,19 -2,5 -4,9 -8,12 -3,3 -7,4 -12,4 -7,0 -12,-2 -16,-7 -5,-6 -7,-15 -7,-28zm9 0c0,11 1,19 4,22 2,4 6,6 10,6 4,0 7,-2 10,-6 2,-3 4,-11 4,-22 0,-12 -2,-20 -4,-23 -3,-4 -6,-6 -10,-6 -4,0 -8,2 -10,5 -3,4 -4,12 -4,24z"/>
    <path class="fil2" d="M3818 1136c0,-9 0,-15 2,-20 2,-5 4,-9 8,-12 3,-3 7,-4 12,-4 4,0 7,1 10,2 3,2 5,4 7,7 2,3 3,6 4,10 2,4 2,10 2,17 0,8 -1,14 -2,19 -2,5 -5,9 -8,12 -3,3 -8,4 -13,4 -6,0 -12,-2 -15,-7 -5,-6 -7,-15 -7,-28zm8 0c0,11 2,19 4,22 3,4 6,6 10,6 4,0 8,-2 10,-6 3,-3 4,-11 4,-22 0,-12 -1,-20 -4,-23 -2,-4 -6,-6 -10,-6 -4,0 -7,2 -9,5 -3,4 -5,12 -5,24z"/>
    <path class="fil2" d="M3877 1170l0 -10 9 0 0 10 -9 0z"/>
    <path class="fil2" d="M3899 1151l8 -1c1,5 3,9 5,11 3,2 6,3 9,3 4,0 7,-1 10,-4 3,-3 4,-6 4,-11 0,-3 -1,-7 -4,-9 -2,-3 -5,-4 -9,-4 -2,0 -4,0 -6,1l1 -8c0,0 1,0 1,0 4,0 7,0 10,-2 3,-2 4,-5 4,-9 0,-3 -1,-6 -3,-8 -2,-2 -5,-3 -8,-3 -4,0 -6,1 -9,3 -2,2 -3,5 -4,10l-8 -2c1,-6 3,-10 7,-13 3,-3 8,-5 14,-5 3,0 7,1 10,2 3,2 6,4 7,7 2,3 3,6 3,9 0,3 -1,6 -2,8 -2,3 -4,5 -8,6 4,1 8,3 10,6 2,3 3,7 3,11 0,6 -2,11 -6,16 -5,4 -10,6 -17,6 -6,0 -11,-2 -15,-5 -4,-4 -7,-9 -7,-15z"/>
    <path class="fil2" d="M3953 1151l8 -1c1,5 3,9 5,11 3,2 6,3 9,3 4,0 7,-1 10,-4 3,-3 4,-6 4,-11 0,-3 -1,-7 -3,-9 -3,-3 -6,-4 -10,-4 -2,0 -4,0 -6,1l1 -8c0,0 1,0 1,0 4,0 7,0 10,-2 3,-2 4,-5 4,-9 0,-3 -1,-6 -3,-8 -2,-2 -5,-3 -8,-3 -4,0 -6,1 -8,3 -3,2 -4,5 -5,10l-8 -2c1,-6 3,-10 7,-13 4,-3 8,-5 14,-5 3,0 7,1 10,2 3,2 6,4 7,7 2,3 3,6 3,9 0,3 -1,6 -2,8 -2,3 -4,5 -8,6 5,1 8,3 10,6 2,3 3,7 3,11 0,6 -2,11 -6,16 -5,4 -10,6 -17,6 -6,0 -11,-2 -15,-5 -4,-4 -7,-9 -7,-15z"/>
    <path class="fil2" d="M4550 1054c0,-8 1,-15 3,-20 2,-5 4,-8 7,-11 4,-3 8,-4 13,-4 4,0 7,0 10,2 3,1 5,4 7,6 2,3 3,7 4,11 1,4 2,9 2,16 0,8 -1,15 -3,20 -2,5 -4,9 -7,12 -4,2 -8,4 -13,4 -7,0 -12,-3 -16,-7 -4,-6 -7,-16 -7,-29zm9 0c0,12 1,19 4,23 3,4 6,6 10,6 4,0 7,-2 10,-6 3,-4 4,-11 4,-23 0,-11 -1,-19 -4,-23 -3,-3 -6,-5 -10,-5 -4,0 -7,1 -10,5 -2,4 -4,12 -4,23z"/>
    <path class="fil2" d="M4609 1089l0 -10 10 0 0 10 -10 0z"/>
    <path class="fil2" d="M4631 1070l9 -1c1,5 3,8 5,11 2,2 5,3 9,3 4,0 7,-2 10,-4 3,-3 4,-7 4,-11 0,-4 -1,-7 -4,-9 -2,-3 -6,-4 -10,-4 -1,0 -3,0 -6,1l1 -8c1,0 1,0 2,0 3,0 7,-1 9,-3 3,-2 5,-4 5,-8 0,-4 -1,-6 -3,-8 -3,-2 -5,-3 -9,-3 -3,0 -6,1 -8,3 -2,2 -4,5 -4,9l-9 -1c1,-6 4,-10 7,-14 4,-3 9,-4 14,-4 4,0 8,1 11,2 3,2 5,4 7,7 2,3 3,6 3,9 0,3 -1,6 -3,8 -1,2 -4,4 -7,6 4,1 7,3 10,6 2,3 3,7 3,11 0,6 -2,11 -7,15 -4,5 -10,7 -16,7 -7,0 -12,-2 -16,-6 -4,-3 -6,-8 -7,-14z"/>
    <path class="fil2" d="M4686 1028l0 -8 45 0 0 7c-4,4 -9,11 -13,18 -4,8 -8,16 -10,24 -2,6 -3,13 -3,20l-9 0c0,-6 1,-13 3,-20 2,-8 5,-15 9,-23 4,-7 8,-13 12,-18l-34 0z"/>
    <path class="fil2" d="M2985 1136c0,-9 1,-15 2,-20 2,-5 5,-9 8,-12 3,-3 7,-4 12,-4 4,0 7,1 10,2 3,2 5,4 7,7 2,3 4,6 5,10 1,4 1,10 1,17 0,8 -1,14 -2,19 -2,5 -5,9 -8,12 -3,3 -7,4 -13,4 -6,0 -12,-2 -15,-7 -5,-6 -7,-15 -7,-28zm9 0c0,11 1,19 4,22 2,4 6,6 9,6 4,0 8,-2 10,-6 3,-3 4,-11 4,-22 0,-12 -1,-20 -4,-23 -2,-4 -6,-6 -10,-6 -4,0 -7,2 -9,5 -3,4 -4,12 -4,24z"/>
    <path class="fil2" d="M3044 1170l0 -10 9 0 0 10 -9 0z"/>
    <path class="fil2" d="M3098 1170l-9 0 0 -55c-2,2 -4,4 -8,6 -3,2 -6,4 -9,5l0 -9c5,-2 9,-5 13,-8 3,-3 6,-6 8,-9l5 0 0 70z"/>
    <path class="fil2" d="M3120 1136c0,-9 1,-15 2,-20 2,-5 5,-9 8,-12 3,-3 8,-4 13,-4 3,0 7,1 9,2 3,2 6,4 7,7 2,3 4,6 5,10 1,4 1,10 1,17 0,8 -1,14 -2,19 -2,5 -4,9 -8,12 -3,3 -7,4 -12,4 -7,0 -12,-2 -16,-7 -5,-6 -7,-15 -7,-28zm9 0c0,11 1,19 4,22 2,4 6,6 10,6 4,0 7,-2 9,-6 3,-3 5,-11 5,-22 0,-12 -2,-20 -5,-23 -2,-4 -6,-6 -9,-6 -4,0 -8,2 -10,5 -3,4 -4,12 -4,24z"/>
   </g>
   <g>
    <g>
     <rect class="fil3 str1" x="1070" y="2635" width="74" height="74"/>
     <rect class="fil1 str1" x="1144" y="2635" width="74" height="74"/>
     <rect class="fil3 str1" x="1144" y="2709" width="74" height="74"/>
     <rect class="fil1 str1" x="1218" y="2635" width="74" height="74"/>
     <rect class="fil1 str1" x="1218" y="2709" width="74" height="74"/>
     <rect class="fil3 str1" x="1218" y="2784" width="74" height="74"/>
     <rect class="fil1 str1" x="1292" y="2635" width="74" height="74"/>
     <rect class="fil1 str1" x="1292" y="2709" width="74" height="74"/>
     <rect class="fil1 str1" x="1292" y="2784" width="74" height="74"/>
     <rect class="fil3 str1" x="1292" y="2858" width="74" height="74"/>
     <rect class="fil1 str1" x="1366" y="2635" width="74" height="74"/>
     <rect class="fil1 str1" x="1366" y="2709" width="74" height="74"/>
     <rect class="fil1 str1" x="1366" y="2784" width="74" height="74"/>
     <rect class="fil1 str1" x="1366" y="2858" width="74" height="74"/>
     <rect class="fil3 str1" x="1366" y="2932" width="74" height="74"/>
     <rect class="fil1 str1" x="1441" y="2635" width="74" height="74"/>
     <rect class="fil1 str1" x="1441" y="2709" width="74" height="74"/>
     <rect class="fil1 str1" x="1441" y="2784" width="74" height="74"/>
     <rect class="fil1 str1" x="1441" y="2858" width="74" height="74"/>
     <rect class="fil1 str1" x="1441" y="2932" width="74" height="74"/>
     <rect class="fil3 str1" x="1441" y="3006" width="74" height="74"/>
     <rect class="fil1 str1" x="1515" y="2635" width="74" height="74"/>
     <rect class="fil1 str1" x="1515" y="2709" width="74" height="74"/>
     <rect class="fil1 str1" x="1515" y="2784" width="74" height="74"/>
     <rect class="fil1 str1" x="1515" y="2858" width="74" height="74"/>
     <rect class="fil1 str1" x="1515" y="2932" width="74" height="74"/>
     <rect class="fil1 str1" x="1515" y="3006" width="74" height="74"/>
     <rect class="fil3 str1" x="1515" y="3080" width="74" height="74"/>
     <rect class="fil1 str1" x="1589" y="2635" width="74" height="74"/>
     <rect class="fil1 str1" x="1589" y="2709" width="74" height="74"/>
     <rect class="fil1 str1" x="1589" y="2784" width="74" height="74"/>
     <rect class="fil1 str1" x="1589" y="2858" width="74" height="74"/>
     <rect class="fil1 str1" x="1589" y="2932" width="74" height="74"/>
     <rect class="fil1 str1" x="1589" y="3006" width="74" height="74"/>
     <rect class="fil1 str1" x="1589" y="3080" width="74" height="74"/>
     <rect class="fil3 str1" x="1589" y="3154" width="74" height="74"/>
    </g>
    <g>
     <rect class="fil3 str1" x="4501" y="2635" width="74" height="74"/>
     <rect class="fil1 str1" x="4575" y="2635" width="74" height="74"/>
     <rect class="fil3 str1" x="4575" y="2709" width="74" height="74"/>
     <rect class="fil1 str1" x="4649" y="2635" width="74" height="74"/>
     <rect class="fil1 str1" x="4649" y="2709" width="74" height="74"/>
     <rect class="fil3 str1" x="4649" y="2784" width="74" height="74"/>
     <rect class="fil1 str1" x="4723" y="2635" width="74" height="74"/>
     <rect class="fil1 str1" x="4723" y="2709" width="74" height="74"/>
     <rect class="fil1 str1" x="4723" y="2784" width="74" height="74"/>
     <rect class="fil3 str1" x="4723" y="2858" width="74" height="74"/>
     <rect class="fil1 str1" x="4798" y="2635" width="74" height="74"/>
     <rect class="fil1 str1" x="4798" y="2709" width="74" height="74"/>
     <rect class="fil1 str1" x="4798" y="2784" width="74" height="74"/>
     <rect class="fil1 str1" x="4798" y="2858" width="74" height="74"/>
     <rect class="fil3 str1" x="4798" y="2932" width="74" height="74"/>
     <rect class="fil1 str1" x="4872" y="2635" width="74" height="74"/>
     <rect class="fil1 str1" x="4872" y="2709" width="74" height="74"/>
     <rect class="fil1 str1" x="4872" y="2784" width="74" height="74"/>
     <rect class="fil1 str1" x="4872" y="2858" width="74" height="74"/>
     <rect class="fil1 str1" x="4872" y="2932" width="74" height="74"/>
     <rect class="fil3 str1" x="4872" y="3006" width="74" height="74"/>
     <rect class="fil1 str1" x="4946" y="2635" width="74" height="74"/>
     <rect class="fil1 str1" x="4946" y="2709" width="74" height="74"/>
     <rect class="fil1 str1" x="4946" y="2784" width="74" height="74"/>
     <rect class="fil1 str1" x="4946" y="2858" width="74" height="74"/>
     <rect class="fil1 str1" x="4946" y="2932" width="74" height="74"/>
     <rect class="fil1 str1" x="4946" y="3006" width="74" height="74"/>
     <rect class="fil3 str1" x="4946" y="3080" width="74" height="74"/>
     <rect class="fil1 str1" x="5020" y="2635" width="74" height="74"/>
     <rect class="fil1 str1" x="5020" y="2709" width="74" height="74"/>
     <rect class="fil1 str1" x="5020" y="2784" width="74" height="74"/>
     <rect class="fil1 str1" x="5020" y="2858" width="74" height="74"/>
     <rect class="fil1 str1" x="5020" y="2932" width="74" height="74"/>
     <rect class="fil1 str1" x="5020" y="3006" width="74" height="74"/>
     <rect class="fil1 str1" x="5020" y="3080" width="74" height="74"/>
     <rect class="fil3 str1" x="5020" y="3154" width="74" height="74"/>
    </g>
    <g>
     <rect class="fil3 str1" x="2214" y="2635" width="74" height="74"/>
     <rect class="fil1 str1" x="2288" y="2635" width="74" height="74"/>
     <rect class="fil3 str1" x="2288" y="2709" width="74" height="74"/>
     <rect class="fil1 str1" x="2362" y="2635" width="74" height="74"/>
     <rect class="fil1 str1" x="2362" y="2709" width="74" height="74"/>
     <rect class="fil3 str1" x="2362" y="2784" width="74" height="74"/>
     <rect class="fil1 str1" x="2436" y="2635" width="74" height="74"/>
     <rect class="fil1 str1" x="2436" y="2709" width="74" height="74"/>
     <rect class="fil1 str1" x="2436" y="2784" width="74" height="74"/>
     <rect class="fil3 str1" x="2436" y="2858" width="74" height="74"/>
     <rect class="fil1 str1" x="2510" y="2635" width="74" height="74"/>
     <rect class="fil1 str1" x="2510" y="2709" width="74" height="74"/>
     <rect class="fil1 str1" x="2510" y="2784" width="74" height="74"/>
     <rect class="fil1 str1" x="2510" y="2858" width="74" height="74"/>
     <rect class="fil3 str1" x="2510" y="2932" width="74" height="74"/>
     <rect class="fil1 str1" x="2584" y="2635" width="74" height="74"/>
     <rect class="fil1 str1" x="2584" y="2709" width="74" height="74"/>
     <rect class="fil1 str1" x="2584" y="2784" width="74" height="74"/>
     <rect class="fil1 str1" x="2584" y="2858" width="74" height="74"/>
     <rect class="fil1 str1" x="2584" y="2932" width="74" height="74"/>
     <rect class="fil3 str1" x="2584" y="3006" width="74" height="74"/>
     <rect class="fil1 str1" x="2658" y="2635" width="74" height="74"/>
     <rect class="fil1 str1" x="2658" y="2709" width="74" height="74"/>
     <rect class="fil1 str1" x="2658" y="2784" width="74" height="74"/>
     <rect class="fil1 str1" x="2658" y="2858" width="74" height="74"/>
     <rect class="fil1 str1" x="2658" y="2932" width="74" height="74"/>
     <rect class="fil1 str1" x="2658" y="3006" width="74" height="74"/>
     <rect class="fil3 str1" x="2658" y="3080" width="74" height="74"/>
     <rect class="fil1 str1" x="2732" y="2635" width="74" height="74"/>
     <rect class="fil1 str1" x="2732" y="2709" width="74" height="74"/>
     <rect class="fil1 str1" x="2732" y="2784" width="74" height="74"/>
     <rect class="fil1 str1" x="2732" y="2858" width="74" height="74"/>
     <rect class="fil1 str1" x="2732" y="2932" width="74" height="74"/>
     <rect class="fil1 str1" x="2732" y="3006" width="74" height="74"/>
     <rect class="fil1 str1" x="2732" y="3080" width="74" height="74"/>
     <rect class="fil3 str1" x="2732" y="3154" width="74" height="74"/>
    </g>
    <g>
     <rect class="fil3 str1" x="3358" y="2635" width="74" height="74"/>
     <rect class="fil1 str1" x="3432" y="2635" width="74" height="74"/>
     <rect class="fil3 str1" x="3432" y="2709" width="74" height="74"/>
     <rect class="fil1 str1" x="3506" y="2635" width="74" height="74"/>
     <rect class="fil1 str1" x="3506" y="2709" width="74" height="74"/>
     <rect class="fil3 str1" x="3506" y="2784" width="74" height="74"/>
     <rect class="fil1 str1" x="3580" y="2635" width="74" height="74"/>
     <rect class="fil1 str1" x="3580" y="2709" width="74" height="74"/>
     <rect class="fil1 str1" x="3580" y="2784" width="74" height="74"/>
     <rect class="fil3 str1" x="3580" y="2858" width="74" height="74"/>
     <rect class="fil1 str1" x="3654" y="2635" width="74" height="74"/>
     <rect class="fil1 str1" x="3654" y="2709" width="74" height="74"/>
     <rect class="fil1 str1" x="3654" y="2784" width="74" height="74"/>
     <rect class="fil1 str1" x="3654" y="2858" width="74" height="74"/>
     <rect class="fil3 str1" x="3654" y="2932" width="74" height="74"/>
     <rect class="fil1 str1" x="3728" y="2635" width="74" height="74"/>
     <rect class="fil1 str1" x="3728" y="2709" width="74" height="74"/>
     <rect class="fil1 str1" x="3728" y="2784" width="74" height="74"/>
     <rect class="fil1 str1" x="3728" y="2858" width="74" height="74"/>
     <rect class="fil1 str1" x="3728" y="2932" width="74" height="74"/>
     <rect class="fil3 str1" x="3728" y="3006" width="74" height="74"/>
     <rect class="fil1 str1" x="3802" y="2635" width="74" height="74"/>
     <rect class="fil1 str1" x="3802" y="2709" width="74" height="74"/>
     <rect class="fil1 str1" x="3802" y="2784" width="74" height="74"/>
     <rect class="fil1 str1" x="3802" y="2858" width="74" height="74"/>
     <rect class="fil1 str1" x="3802" y="2932" width="74" height="74"/>
     <rect class="fil1 str1" x="3802" y="3006" width="74" height="74"/>
     <rect class="fil3 str1" x="3802" y="3080" width="74" height="74"/>
     <rect class="fil1 str1" x="3876" y="2635" width="74" height="74"/>
     <rect class="fil1 str1" x="3876" y="2709" width="74" height="74"/>
     <rect class="fil1 str1" x="3876" y="2784" width="74" height="74"/>
     <rect class="fil1 str1" x="3876" y="2858" width="74" height="74"/>
     <rect class="fil1 str1" x="3876" y="2932" width="74" height="74"/>
     <rect class="fil1 str1" x="3876" y="3006" width="74" height="74"/>
     <rect class="fil1 str1" x="3876" y="3080" width="74" height="74"/>
     <rect class="fil3 str1" x="3876" y="3154" width="74" height="74"/>
    </g>
   </g>
   <g>
    <g>
     <path class="fil2" d="M492 2048l-3 6 -29 -16 3 -6z"/>
     <path class="fil2" d="M539 2073l-4 6 -29 -16 4 -6z"/>
     <path class="fil2" d="M585 2098l-3 6 -29 -16 3 -6z"/>
     <path class="fil2" d="M631 2123l-3 6 -29 -15 3 -7z"/>
     <path class="fil2" d="M678 2148l-4 7 -29 -16 4 -6z"/>
     <path class="fil2" d="M724 2174l-3 6 -29 -16 3 -6z"/>
     <path class="fil2" d="M770 2199l-3 6 -29 -16 3 -6z"/>
     <path class="fil2" d="M817 2224l-4 6 -29 -16 4 -6z"/>
     <path class="fil2" d="M863 2249l-3 6 -29 -15 3 -6z"/>
     <path class="fil2" d="M909 2275l-3 6 -29 -16 3 -6z"/>
     <path class="fil2" d="M956 2300l-4 6 -29 -16 4 -6z"/>
     <path class="fil2" d="M1002 2325l-3 6 -29 -16 3 -6z"/>
     <path class="fil2" d="M1048 2350l-3 6 -29 -15 3 -7z"/>
     <path class="fil2" d="M1095 2375l-4 7 -29 -16 4 -6z"/>
     <path class="fil2" d="M1141 2401l-3 6 -29 -16 3 -6z"/>
     <path class="fil2" d="M1187 2426l-3 6 -29 -16 3 -6z"/>
     <path class="fil2" d="M1233 2451l-3 6 -29 -16 4 -6z"/>
     <path class="fil2" d="M1272 2472l-21 -11 -3 6 21 11z"/>
     <path class="fil2" d="M1314 2499l-36 -46 0 0 0 2 0 1 -1 2 0 1 0 2 0 1 -1 2 0 1 0 2 -1 1 0 1 -1 2 0 1 -1 1 -1 2 0 1 -1 1 -1 1 0 2 -1 1 -1 1 -1 1 -1 1 -1 1 -1 1 -1 1 -1 1 -1 1 -1 1 -2 1 -1 1 -1 1 58 6 0 0z"/>
    </g>
    <g>
     <path class="fil2" d="M4649 2064l-6 2 -9 -30 6 -2z"/>
     <path class="fil2" d="M4663 2112l-6 2 -9 -30 6 -2z"/>
     <path class="fil2" d="M4677 2160l-6 1 -9 -29 6 -2z"/>
     <path class="fil2" d="M4691 2207l-6 2 -9 -30 6 -1z"/>
     <path class="fil2" d="M4705 2255l-6 2 -9 -30 6 -2z"/>
     <path class="fil2" d="M4719 2303l-6 2 -9 -30 7 -2z"/>
     <path class="fil2" d="M4733 2351l-6 2 -9 -30 7 -2z"/>
     <path class="fil2" d="M4747 2399l-6 2 -9 -30 7 -2z"/>
     <path class="fil2" d="M4761 2447l-6 2 -9 -30 7 -2z"/>
     <path class="fil2" d="M4773 2499l7 -58 0 0 -1 1 -1 1 -2 1 -1 1 -1 1 -1 1 -2 1 -1 0 -1 1 -1 1 -2 0 -1 1 -1 0 -2 1 -1 0 -1 1 -2 0 -1 1 -2 0 -1 0 -2 0 -1 1 -1 0 -2 0 -1 0 -2 0 -1 0 -2 0 -1 -1 -2 0 -2 0 -1 0 37 45 0 0z"/>
    </g>
    <g>
     <path class="fil2" d="M2558 2066l-7 0 0 -31 7 0z"/>
     <path class="fil2" d="M2558 2116l-7 0 0 -32 7 1z"/>
     <path class="fil2" d="M2557 2165l-7 0 0 -31 7 0z"/>
     <path class="fil2" d="M2557 2215l-7 0 0 -31 7 0z"/>
     <path class="fil2" d="M2556 2265l-6 -1 0 -31 7 0z"/>
     <path class="fil2" d="M2556 2314l-7 0 0 -31 7 0z"/>
     <path class="fil2" d="M2556 2364l-7 0 0 -31 7 0z"/>
     <path class="fil2" d="M2555 2413l-7 0 1 -31 7 0z"/>
     <path class="fil2" d="M2555 2450l0 -18 -7 0 0 17z"/>
     <path class="fil2" d="M2551 2499l24 -54 0 0 -2 1 -1 1 -2 0 -1 1 -2 0 -1 1 -1 0 -2 1 -1 0 -2 0 -1 0 -2 1 -1 0 -1 0 -2 0 -1 0 -2 0 -1 0 -2 0 -1 0 -2 -1 -1 0 -1 0 -2 -1 -1 0 -2 0 -1 -1 -2 0 -1 -1 -1 -1 -2 0 -1 -1 22 54 0 0z"/>
    </g>
    <g>
     <path class="fil2" d="M3608 2066l-7 0 1 -31 6 0z"/>
     <path class="fil2" d="M3608 2116l-7 0 0 -32 7 1z"/>
     <path class="fil2" d="M3608 2165l-7 0 0 -31 7 0z"/>
     <path class="fil2" d="M3607 2215l-7 0 0 -31 7 0z"/>
     <path class="fil2" d="M3607 2265l-7 -1 0 -31 7 0z"/>
     <path class="fil2" d="M3606 2314l-6 0 0 -31 7 0z"/>
     <path class="fil2" d="M3606 2364l-7 0 0 -31 7 0z"/>
     <path class="fil2" d="M3606 2413l-7 0 0 -31 7 0z"/>
     <path class="fil2" d="M3605 2450l1 -18 -7 0 0 17z"/>
     <path class="fil2" d="M3602 2499l23 -54 0 0 -1 1 -2 1 -1 0 -2 1 -1 0 -2 1 -1 0 -2 1 -1 0 -1 0 -2 0 -1 1 -2 0 -1 0 -2 0 -1 0 -1 0 -2 0 -1 0 -2 0 -1 -1 -2 0 -1 0 -1 -1 -2 0 -1 0 -2 -1 -1 0 -2 -1 -1 -1 -1 0 -2 -1 23 54 0 0z"/>
    </g>
    <g>
     <path class="fil2" d="M1550 2036l-1 7 -33 -5 0 -7z"/>
     <path class="fil2" d="M1604 2044l0 7 -34 -5 1 -7z"/>
     <path class="fil2" d="M1659 2052l-1 7 -34 -5 1 -7z"/>
     <path class="fil2" d="M1713 2060l-1 7 -34 -5 1 -7z"/>
     <path class="fil2" d="M1767 2068l-1 6 -34 -4 1 -7z"/>
     <path class="fil2" d="M1821 2075l-1 7 -34 -5 1 -6z"/>
     <path class="fil2" d="M1875 2083l-1 7 -34 -5 1 -7z"/>
     <path class="fil2" d="M1929 2091l-1 7 -33 -5 1 -7z"/>
     <path class="fil2" d="M1984 2099l-1 7 -34 -5 1 -7z"/>
     <path class="fil2" d="M2038 2107l-1 7 -34 -5 1 -7z"/>
     <path class="fil2" d="M2092 2115l-1 6 -34 -5 1 -6z"/>
     <path class="fil2" d="M2146 2122l-1 7 -34 -5 1 -7z"/>
     <path class="fil2" d="M2200 2130l-1 7 -34 -5 1 -7z"/>
     <path class="fil2" d="M2254 2138l-1 7 -34 -5 1 -7z"/>
     <path class="fil2" d="M2308 2146l-1 7 -33 -5 1 -7z"/>
     <path class="fil2" d="M2363 2154l-1 6 -34 -4 1 -7z"/>
     <path class="fil2" d="M2417 2161l-1 7 -34 -5 1 -6z"/>
     <path class="fil2" d="M2471 2169l-1 7 -34 -5 1 -7z"/>
     <path class="fil2" d="M2525 2177l-1 7 -34 -5 1 -7z"/>
     <path class="fil2" d="M2579 2185l-1 7 -34 -5 1 -7z"/>
     <path class="fil2" d="M2633 2193l-1 7 -33 -5 0 -7z"/>
     <path class="fil2" d="M2687 2201l0 6 -34 -4 1 -7z"/>
     <path class="fil2" d="M2742 2208l-1 7 -34 -5 1 -6z"/>
     <path class="fil2" d="M2796 2216l-1 7 -34 -5 1 -7z"/>
     <path class="fil2" d="M2850 2224l-1 7 -34 -5 1 -7z"/>
     <path class="fil2" d="M2904 2232l-1 7 -34 -5 1 -7z"/>
     <path class="fil2" d="M2958 2240l-1 7 -34 -5 1 -7z"/>
     <path class="fil2" d="M3012 2248l-1 6 -33 -5 1 -6z"/>
     <path class="fil2" d="M3067 2255l-1 7 -34 -5 1 -7z"/>
     <path class="fil2" d="M3121 2263l-1 7 -34 -5 1 -7z"/>
     <path class="fil2" d="M3175 2271l-1 7 -34 -5 1 -7z"/>
     <path class="fil2" d="M3229 2279l-1 7 -34 -5 1 -7z"/>
     <path class="fil2" d="M3283 2287l-1 7 -34 -5 1 -7z"/>
     <path class="fil2" d="M3337 2294l-1 7 -33 -5 0 -6z"/>
     <path class="fil2" d="M3391 2302l0 7 -34 -5 1 -7z"/>
     <path class="fil2" d="M3446 2310l-1 7 -34 -5 1 -7z"/>
     <path class="fil2" d="M3500 2318l-1 7 -34 -5 1 -7z"/>
     <path class="fil2" d="M3554 2326l-1 7 -34 -5 1 -7z"/>
     <path class="fil2" d="M3608 2334l-1 6 -34 -4 1 -7z"/>
     <path class="fil2" d="M3662 2341l-1 7 -34 -5 1 -6z"/>
     <path class="fil2" d="M3716 2349l-1 7 -33 -5 1 -7z"/>
     <path class="fil2" d="M3771 2357l-1 7 -34 -5 1 -7z"/>
     <path class="fil2" d="M3825 2365l-1 7 -34 -5 1 -7z"/>
     <path class="fil2" d="M3879 2373l-1 7 -34 -5 1 -7z"/>
     <path class="fil2" d="M3933 2381l-1 6 -34 -4 1 -7z"/>
     <path class="fil2" d="M3987 2388l-1 7 -34 -5 1 -6z"/>
     <path class="fil2" d="M4041 2396l-1 7 -33 -5 0 -7z"/>
     <path class="fil2" d="M4095 2404l0 7 -34 -5 1 -7z"/>
     <path class="fil2" d="M4150 2412l-1 7 -34 -5 1 -7z"/>
     <path class="fil2" d="M4204 2420l-1 7 -34 -5 1 -7z"/>
     <path class="fil2" d="M4258 2428l-1 6 -34 -4 1 -7z"/>
     <path class="fil2" d="M4312 2435l-1 7 -34 -5 1 -6z"/>
     <path class="fil2" d="M4366 2443l-1 7 -34 -5 1 -7z"/>
     <path class="fil2" d="M4420 2451l-1 7 -33 -5 1 -7z"/>
     <path class="fil2" d="M4475 2459l-1 7 -34 -5 1 -7z"/>
     <path class="fil2" d="M4529 2467l-1 7 -34 -5 1 -7z"/>
     <path class="fil2" d="M4583 2475l-1 6 -34 -4 1 -7z"/>
     <path class="fil2" d="M4637 2482l-1 7 -34 -5 1 -7z"/>
     <path class="fil2" d="M4678 2488l-21 -3 -1 7 21 3z"/>
     <path class="fil2" d="M4726 2499l-50 -31 0 0 1 2 0 1 0 2 1 1 0 2 0 1 1 2 0 1 0 2 0 1 0 2 0 1 0 2 0 1 0 1 0 2 -1 1 0 2 0 1 -1 2 0 1 0 1 -1 2 0 1 -1 1 -1 2 0 1 -1 1 -1 2 -1 1 -1 1 0 2 56 -15 0 0z"/>
    </g>
    <g>
     <path class="fil2" d="M5727 2042l0 -7 34 -4 0 7z"/>
     <path class="fil2" d="M5673 2048l-1 -7 34 -4 1 7z"/>
     <path class="fil2" d="M5618 2053l-1 -6 34 -4 1 7z"/>
     <path class="fil2" d="M5563 2059l0 -7 34 -3 1 7z"/>
     <path class="fil2" d="M5509 2065l-1 -7 34 -4 1 7z"/>
     <path class="fil2" d="M5454 2071l-1 -7 35 -4 0 7z"/>
     <path class="fil2" d="M5400 2076l-1 -6 34 -4 1 7z"/>
     <path class="fil2" d="M5345 2082l-1 -7 34 -3 1 7z"/>
     <path class="fil2" d="M5290 2088l0 -7 34 -4 0 7z"/>
     <path class="fil2" d="M5236 2094l-1 -7 34 -4 1 7z"/>
     <path class="fil2" d="M5181 2100l-1 -7 34 -4 1 7z"/>
     <path class="fil2" d="M5126 2105l0 -7 34 -3 0 7z"/>
     <path class="fil2" d="M5072 2111l-1 -7 34 -3 1 6z"/>
     <path class="fil2" d="M5017 2117l-1 -7 35 -4 0 7z"/>
     <path class="fil2" d="M4962 2123l0 -7 34 -4 1 7z"/>
     <path class="fil2" d="M4908 2128l-1 -7 34 -3 1 7z"/>
     <path class="fil2" d="M4853 2134l-1 -7 35 -3 0 7z"/>
     <path class="fil2" d="M4799 2140l-1 -7 34 -4 1 7z"/>
     <path class="fil2" d="M4744 2146l-1 -7 34 -4 1 7z"/>
     <path class="fil2" d="M4689 2151l0 -6 34 -4 0 7z"/>
     <path class="fil2" d="M4635 2157l-1 -7 34 -3 1 7z"/>
     <path class="fil2" d="M4580 2163l-1 -7 34 -4 1 7z"/>
     <path class="fil2" d="M4525 2169l0 -7 34 -4 1 7z"/>
     <path class="fil2" d="M4471 2174l-1 -6 34 -4 1 7z"/>
     <path class="fil2" d="M4416 2180l-1 -7 35 -3 0 7z"/>
     <path class="fil2" d="M4361 2186l0 -7 34 -3 1 6z"/>
     <path class="fil2" d="M4307 2192l-1 -7 34 -4 1 7z"/>
     <path class="fil2" d="M4252 2198l0 -7 34 -4 0 7z"/>
     <path class="fil2" d="M4198 2203l-1 -7 34 -3 1 7z"/>
     <path class="fil2" d="M4143 2209l-1 -7 34 -3 1 6z"/>
     <path class="fil2" d="M4088 2215l0 -7 34 -4 0 7z"/>
     <path class="fil2" d="M4034 2221l-1 -7 34 -4 1 7z"/>
     <path class="fil2" d="M3979 2226l-1 -6 34 -4 1 7z"/>
     <path class="fil2" d="M3924 2232l0 -7 34 -3 1 7z"/>
     <path class="fil2" d="M3870 2238l-1 -7 34 -4 1 7z"/>
     <path class="fil2" d="M3815 2244l-1 -7 35 -4 0 7z"/>
     <path class="fil2" d="M3761 2249l-1 -6 34 -4 1 7z"/>
     <path class="fil2" d="M3706 2255l-1 -7 34 -3 1 7z"/>
     <path class="fil2" d="M3651 2261l0 -7 34 -3 0 6z"/>
     <path class="fil2" d="M3597 2267l-1 -7 34 -4 1 7z"/>
     <path class="fil2" d="M3542 2273l-1 -7 34 -4 1 7z"/>
     <path class="fil2" d="M3487 2278l0 -7 34 -3 0 7z"/>
     <path class="fil2" d="M3433 2284l-1 -7 34 -3 1 6z"/>
     <path class="fil2" d="M3378 2290l-1 -7 35 -4 0 7z"/>
     <path class="fil2" d="M3323 2296l0 -7 34 -4 1 7z"/>
     <path class="fil2" d="M3269 2301l-1 -7 34 -3 1 7z"/>
     <path class="fil2" d="M3214 2307l-1 -7 35 -3 0 7z"/>
     <path class="fil2" d="M3160 2313l-1 -7 34 -4 1 7z"/>
     <path class="fil2" d="M3105 2319l-1 -7 34 -4 1 7z"/>
     <path class="fil2" d="M3050 2324l0 -6 34 -4 0 7z"/>
     <path class="fil2" d="M2996 2330l-1 -7 34 -3 1 7z"/>
     <path class="fil2" d="M2941 2336l-1 -7 34 -4 1 7z"/>
     <path class="fil2" d="M2886 2342l0 -7 34 -4 0 7z"/>
     <path class="fil2" d="M2832 2348l-1 -7 34 -4 1 7z"/>
     <path class="fil2" d="M2777 2353l-1 -7 35 -3 0 7z"/>
     <path class="fil2" d="M2722 2359l0 -7 34 -3 1 6z"/>
     <path class="fil2" d="M2668 2365l-1 -7 34 -4 1 7z"/>
     <path class="fil2" d="M2613 2371l-1 -7 35 -4 0 7z"/>
     <path class="fil2" d="M2559 2376l-1 -7 34 -3 1 7z"/>
     <path class="fil2" d="M2504 2382l-1 -7 34 -3 1 7z"/>
     <path class="fil2" d="M2449 2388l0 -7 34 -4 0 7z"/>
     <path class="fil2" d="M2395 2394l-1 -7 34 -4 1 7z"/>
     <path class="fil2" d="M2340 2399l-1 -6 34 -4 1 7z"/>
     <path class="fil2" d="M2285 2405l0 -7 34 -3 0 7z"/>
     <path class="fil2" d="M2231 2411l-1 -7 34 -3 1 6z"/>
     <path class="fil2" d="M2176 2417l-1 -7 34 -4 1 7z"/>
     <path class="fil2" d="M2121 2423l0 -7 34 -4 1 7z"/>
     <path class="fil2" d="M2067 2428l-1 -7 34 -3 1 7z"/>
     <path class="fil2" d="M2012 2434l-1 -7 35 -3 0 6z"/>
     <path class="fil2" d="M1958 2440l-1 -7 34 -4 1 7z"/>
     <path class="fil2" d="M1903 2446l-1 -7 34 -4 1 7z"/>
     <path class="fil2" d="M1848 2451l0 -6 34 -4 0 7z"/>
     <path class="fil2" d="M1794 2457l-1 -7 34 -3 1 7z"/>
     <path class="fil2" d="M1739 2463l-1 -7 34 -4 1 7z"/>
     <path class="fil2" d="M1684 2469l0 -7 34 -4 0 7z"/>
     <path class="fil2" d="M1630 2475l-1 -7 34 -4 1 7z"/>
     <path class="fil2" d="M1575 2480l-1 -7 34 -3 1 7z"/>
     <path class="fil2" d="M1520 2486l0 -7 34 -3 1 6z"/>
     <path class="fil2" d="M1466 2492l-1 -7 34 -4 1 7z"/>
     <path class="fil2" d="M1417 2497l28 -3 0 -7 -29 3z"/>
     <path class="fil2" d="M1368 2499l55 17 0 0 -1 -1 0 -2 -1 -1 -1 -2 -1 -1 0 -1 -1 -2 0 -1 -1 -1 0 -2 -1 -1 0 -2 0 -1 -1 -1 0 -2 0 -1 0 -2 0 -1 0 -2 0 -1 0 -1 0 -2 0 -1 0 -2 1 -1 0 -2 0 -1 0 -2 1 -1 0 -2 1 -1 0 -2 -50 29 0 0z"/>
    </g>
   </g>
   <path class="fil2" d="M5943 335l19 -89 15 0 9 58c1,8 2,15 2,22 2,-6 7,-14 12,-25l32 -55 15 0 -19 89 -12 0 10 -43c2,-10 5,-21 9,-34 -3,6 -6,12 -10,19l-33 58 -11 0 -9 -57c-1,-5 -2,-11 -2,-18 -1,8 -2,14 -3,18l-12 57 -12 0z"/>
   <path class="fil2" d="M6086 335l0 -89 18 0 21 63c2,6 3,11 4,14 1,-4 3,-9 5,-15l21 -62 16 0 0 89 -11 0 0 -74 -26 74 -11 0 -26 -76 0 76 -11 0z"/>
   <path class="fil2" d="M6189 259l0 -13 11 0 0 13 -11 0zm0 76l0 -64 11 0 0 64 -11 0z"/>
   <path class="fil2" d="M6209 335l24 -33 -22 -31 14 0 10 15c2,3 3,5 4,7 2,-3 4,-5 5,-7l11 -15 13 0 -22 30 24 34 -13 0 -14 -20 -3 -5 -17 25 -14 0z"/>
   <path class="fil2" d="M6303 326l2 9c-3,1 -6,1 -8,1 -4,0 -8,0 -10,-2 -2,-1 -4,-3 -4,-5 -1,-2 -2,-6 -2,-13l0 -37 -8 0 0 -8 8 0 0 -16 11 -7 0 23 11 0 0 8 -11 0 0 38c0,3 0,5 1,6 0,1 1,2 2,2 1,1 2,1 3,1 2,0 3,0 5,0z"/>
   <path class="fil2" d="M6356 335l0 -9c-5,7 -11,11 -20,11 -4,0 -8,-1 -11,-2 -3,-2 -6,-4 -7,-6 -2,-2 -3,-5 -4,-8 0,-2 0,-6 0,-10l0 -40 11 0 0 36c0,5 0,9 0,11 1,3 3,5 5,7 2,2 5,2 8,2 3,0 6,0 9,-2 3,-2 5,-4 6,-7 2,-3 2,-7 2,-13l0 -34 11 0 0 64 -10 0z"/>
   <path class="fil2" d="M6383 335l0 -64 10 0 0 9c3,-4 5,-7 7,-9 2,-1 5,-2 7,-2 4,0 8,1 12,4l-4 10c-3,-2 -6,-3 -8,-3 -3,0 -5,1 -7,3 -2,1 -3,3 -4,6 -1,4 -2,8 -2,12l0 34 -11 0z"/>
   <path class="fil2" d="M6469 315l12 1c-2,7 -5,12 -10,15 -5,4 -11,6 -19,6 -9,0 -17,-3 -22,-9 -6,-6 -9,-14 -9,-24 0,-11 3,-20 9,-26 5,-6 13,-9 22,-9 8,0 15,3 21,9 5,6 8,14 8,25 0,1 0,2 0,3l-48 0c0,7 2,12 6,16 3,4 8,6 13,6 4,0 8,-1 11,-3 3,-2 5,-6 6,-10zm-36 -18l37 0c-1,-6 -2,-10 -5,-12 -3,-5 -8,-7 -13,-7 -5,0 -9,2 -13,5 -3,4 -5,8 -6,14z"/>
   <path class="fil2" d="M6490 316l11 -2c1,5 2,8 5,10 3,3 7,4 12,4 5,0 9,-1 11,-3 3,-2 4,-5 4,-7 0,-3 -1,-5 -3,-6 -2,-1 -6,-3 -12,-4 -8,-2 -13,-4 -16,-5 -4,-2 -6,-4 -8,-7 -1,-2 -2,-5 -2,-8 0,-3 1,-6 2,-8 1,-3 3,-5 5,-6 2,-2 4,-3 7,-4 3,0 7,-1 10,-1 5,0 9,1 13,2 4,2 7,4 9,6 2,3 3,6 4,10l-11 2c-1,-4 -2,-6 -4,-8 -3,-2 -6,-3 -10,-3 -5,0 -9,1 -11,3 -2,1 -3,3 -3,6 0,1 0,2 1,3 1,2 2,3 4,3 1,1 5,2 10,3 8,2 13,4 16,5 3,2 6,3 7,6 2,2 3,6 3,9 0,4 -1,7 -3,11 -2,3 -5,5 -9,7 -4,2 -9,3 -14,3 -8,0 -15,-2 -19,-5 -5,-4 -8,-9 -9,-16z"/>
   <path class="fil2" d="M6303 1501l19 -90 12 0 -9 43 48 -43 17 0 -41 37 30 53 -13 0 -26 -46 -19 17 -6 29 -12 0z"/>
   <path class="fil2" d="M6467 1465l0 -10 38 0 0 33c-6,5 -12,8 -18,11 -6,2 -12,3 -19,3 -9,0 -17,-2 -24,-6 -7,-3 -13,-9 -16,-16 -4,-7 -6,-15 -6,-24 0,-8 2,-17 6,-24 3,-8 9,-13 16,-17 6,-4 14,-5 23,-5 7,0 12,1 18,3 5,2 9,5 12,8 3,4 5,9 7,15l-11 3c-1,-5 -3,-8 -5,-11 -2,-2 -5,-4 -8,-6 -4,-2 -8,-2 -13,-2 -5,0 -10,1 -14,2 -4,2 -7,4 -9,7 -3,2 -5,5 -6,9 -2,5 -3,11 -3,18 0,8 1,14 4,20 2,5 6,9 12,12 5,2 10,3 16,3 6,0 11,-1 15,-3 5,-2 9,-4 11,-6l0 -17 -26 0z"/>
   <path class="fil2" d="M6563 1493c-4,3 -8,5 -11,7 -4,1 -8,2 -12,2 -8,0 -13,-2 -17,-5 -4,-4 -6,-8 -6,-14 0,-3 1,-6 3,-8 1,-3 3,-5 5,-7 3,-1 5,-2 8,-3 2,-1 6,-1 10,-2 9,-1 15,-2 20,-4 0,-1 0,-2 0,-2 0,-5 -1,-8 -4,-10 -2,-2 -7,-4 -12,-4 -5,0 -9,1 -11,3 -3,2 -5,5 -6,10l-11 -2c1,-4 3,-8 5,-11 2,-3 6,-5 10,-6 4,-2 9,-3 15,-3 5,0 10,1 13,2 3,2 6,3 8,5 1,2 2,5 3,8 0,2 1,5 1,10l0 14c0,11 0,17 0,20 1,2 2,5 3,8l-11 0c-1,-3 -2,-5 -3,-8zm0 -25c-4,2 -10,3 -18,4 -5,1 -8,2 -10,2 -2,1 -3,2 -4,4 -1,2 -2,3 -2,5 0,3 1,6 3,8 3,1 6,2 10,2 4,0 8,0 11,-2 4,-2 6,-5 8,-8 1,-2 2,-6 2,-11l0 -4z"/>
   <path class="fil2" d="M6633 1501l0 -10c-5,7 -12,11 -20,11 -4,0 -8,-1 -11,-2 -3,-2 -6,-3 -8,-6 -1,-2 -2,-5 -3,-8 0,-2 -1,-5 -1,-10l0 -40 11 0 0 36c0,5 1,9 1,11 1,3 2,5 4,7 3,2 5,3 9,3 3,0 6,-1 9,-3 3,-2 5,-4 6,-7 1,-3 2,-7 2,-13l0 -34 11 0 0 65 -10 0z"/>
   <path class="fil2" d="M6656 1481l11 -1c0,4 2,7 5,10 3,2 6,3 11,3 5,0 9,-1 12,-3 2,-2 3,-5 3,-7 0,-3 -1,-5 -3,-6 -1,-1 -5,-2 -11,-4 -8,-2 -14,-4 -17,-5 -3,-2 -5,-4 -7,-6 -2,-3 -2,-6 -2,-9 0,-3 0,-6 2,-8 1,-3 3,-5 5,-6 2,-1 4,-3 7,-3 3,-1 6,-2 9,-2 6,0 10,1 14,2 4,2 7,4 8,6 2,3 3,6 4,10l-11 2c0,-3 -1,-6 -4,-8 -2,-2 -5,-3 -10,-3 -5,0 -8,1 -11,3 -2,1 -3,3 -3,6 0,1 1,2 2,4 0,1 2,2 4,2 1,1 4,2 10,3 7,2 13,4 16,5 3,2 5,4 7,6 2,3 3,6 3,10 0,3 -1,7 -4,10 -2,3 -5,6 -9,7 -4,2 -8,3 -13,3 -9,0 -15,-2 -20,-5 -4,-4 -7,-9 -8,-16z"/>
   <path class="fil2" d="M6718 1481l11 -1c1,4 2,7 5,10 3,2 7,3 12,3 5,0 9,-1 11,-3 3,-2 4,-5 4,-7 0,-3 -1,-5 -3,-6 -2,-1 -6,-2 -12,-4 -8,-2 -13,-4 -16,-5 -3,-2 -6,-4 -7,-6 -2,-3 -3,-6 -3,-9 0,-3 1,-6 2,-8 1,-3 3,-5 6,-6 1,-1 4,-3 6,-3 3,-1 7,-2 10,-2 5,0 10,1 13,2 4,2 7,4 9,6 2,3 3,6 4,10l-11 2c-1,-3 -2,-6 -4,-8 -3,-2 -6,-3 -10,-3 -5,0 -9,1 -11,3 -2,1 -3,3 -3,6 0,1 0,2 1,4 1,1 2,2 4,2 1,1 5,2 10,3 8,2 13,4 16,5 3,2 6,4 8,6 1,3 2,6 2,10 0,3 -1,7 -3,10 -2,3 -5,6 -9,7 -4,2 -9,3 -14,3 -8,0 -15,-2 -19,-5 -5,-4 -7,-9 -9,-16z"/>
   <path class="fil2" d="M6785 1424l0 -13 11 0 0 13 -11 0zm0 77l0 -65 11 0 0 65 -11 0z"/>
   <path class="fil2" d="M6855 1493c-4,3 -8,5 -11,7 -4,1 -8,2 -13,2 -7,0 -12,-2 -16,-5 -4,-4 -6,-8 -6,-14 0,-3 1,-6 2,-8 2,-3 4,-5 6,-7 2,-1 5,-2 8,-3 2,-1 5,-1 10,-2 9,-1 15,-2 19,-4 0,-1 0,-2 0,-2 0,-5 -1,-8 -3,-10 -3,-2 -7,-4 -12,-4 -5,0 -9,1 -12,3 -2,2 -4,5 -5,10l-11 -2c1,-4 3,-8 5,-11 2,-3 5,-5 10,-6 4,-2 9,-3 14,-3 6,0 10,1 14,2 3,2 6,3 7,5 2,2 3,5 4,8 0,2 0,5 0,10l0 14c0,11 1,17 1,20 1,2 2,5 3,8l-12 0c-1,-3 -1,-5 -2,-8zm-1 -25c-4,2 -10,3 -18,4 -4,1 -7,2 -9,2 -2,1 -4,2 -5,4 -1,2 -1,3 -1,5 0,3 1,6 3,8 2,1 6,2 10,2 4,0 8,0 11,-2 4,-2 6,-5 8,-8 1,-2 1,-6 1,-11l0 -4z"/>
   <path class="fil2" d="M6882 1501l0 -65 10 0 0 9c5,-7 12,-11 21,-11 4,0 7,1 11,2 3,2 5,4 7,6 2,2 3,5 4,8 0,2 0,6 0,11l0 40 -11 0 0 -40c0,-4 0,-8 -1,-10 -1,-2 -2,-4 -5,-5 -2,-2 -4,-2 -7,-2 -5,0 -9,1 -12,4 -4,3 -6,9 -6,17l0 36 -11 0z"/>
   <path class="fil2" d="M6948 1481l10 -1c1,4 3,7 6,10 2,2 6,3 11,3 5,0 9,-1 11,-3 3,-2 4,-5 4,-7 0,-3 -1,-5 -3,-6 -2,-1 -5,-2 -11,-4 -8,-2 -14,-4 -17,-5 -3,-2 -6,-4 -7,-6 -2,-3 -3,-6 -3,-9 0,-3 1,-6 2,-8 2,-3 4,-5 6,-6 2,-1 4,-3 7,-3 3,-1 6,-2 9,-2 5,0 10,1 14,2 4,2 6,4 8,6 2,3 3,6 4,10l-11 2c0,-3 -2,-6 -4,-8 -2,-2 -6,-3 -10,-3 -5,0 -9,1 -11,3 -2,1 -3,3 -3,6 0,1 1,2 1,4 1,1 3,2 5,2 1,1 4,2 9,3 8,2 14,4 17,5 3,2 5,4 7,6 2,3 2,6 2,10 0,3 -1,7 -3,10 -2,3 -5,6 -9,7 -4,2 -9,3 -14,3 -8,0 -15,-2 -19,-5 -4,-4 -7,-9 -8,-16z"/>
   <path class="fil2" d="M6609 1640l0 -12 12 0 0 12c0,5 -1,9 -2,11 -2,3 -4,5 -8,7l-3 -5c2,-1 4,-2 5,-4 1,-2 2,-5 2,-9l-6 0z"/>
   <path class="fil2" d="M6978 1640l0 -12 13 0 0 12c0,5 -1,9 -3,11 -1,3 -4,5 -7,7l-3 -5c2,-1 4,-2 5,-4 1,-2 1,-5 2,-9l-7 0z"/>
   <path class="fil2" d="M6312 1587l0 6c4,-5 8,-7 13,-7 3,0 5,0 7,2 2,1 3,3 5,6 2,-3 4,-5 7,-6 2,-2 4,-2 7,-2 4,0 6,1 9,3 3,3 4,7 4,10l0 36 4 0c2,0 2,0 3,1 0,0 1,1 1,2 0,0 -1,1 -1,1 -1,1 -1,1 -3,1l-9 0 0 -40c0,-3 -1,-5 -3,-7 -1,-1 -3,-2 -5,-2 -2,0 -4,0 -6,2 -2,1 -4,4 -7,8l0 34 4 0c1,0 2,0 3,1 0,0 1,1 1,2 0,0 -1,1 -1,1 -1,1 -2,1 -3,1l-9 0 0 -40c0,-3 -1,-5 -3,-7 -1,-1 -3,-2 -5,-2 -2,0 -4,0 -5,1 -3,2 -6,5 -8,9l0 34 4 0c1,0 2,0 3,1 0,0 1,1 1,2 0,0 -1,1 -1,1 -1,1 -2,1 -3,1l-14 0c-1,0 -2,0 -2,-1 -1,0 -1,-1 -1,-1 0,-1 0,-2 1,-2 0,-1 1,-1 2,-1l5 0 0 -42 -5 0c-1,0 -2,-1 -2,-1 -1,-1 -1,-1 -1,-2 0,-1 0,-1 1,-2 0,0 1,-1 2,-1l10 0z"/>
   <path class="fil2" d="M6438 1615l-52 0c1,7 3,12 8,16 5,4 10,6 17,6 4,0 8,-1 12,-2 4,-1 8,-3 11,-5 0,0 1,-1 2,-1 0,0 1,1 1,1 1,1 1,1 1,2 0,1 0,1 -1,2 -2,2 -5,4 -10,6 -5,1 -11,2 -16,2 -9,0 -16,-3 -22,-8 -6,-6 -9,-13 -9,-21 0,-8 3,-14 9,-19 5,-6 12,-8 20,-8 9,0 15,2 21,8 5,5 8,12 8,21zm-5 -5c-1,-6 -4,-10 -8,-14 -5,-4 -10,-5 -16,-5 -6,0 -11,1 -15,5 -5,3 -7,8 -8,14l47 0z"/>
   <path class="fil2" d="M6500 1640l0 -7c-8,6 -16,9 -24,9 -6,0 -11,-1 -14,-4 -4,-4 -6,-7 -6,-12 0,-5 3,-9 7,-13 5,-4 11,-5 20,-5 3,0 5,0 8,0 3,0 6,1 9,1l0 -8c0,-3 -1,-5 -4,-7 -3,-2 -7,-3 -12,-3 -4,0 -9,1 -17,3 -1,1 -2,1 -2,1 -1,0 -1,0 -2,-1 0,0 0,-1 0,-2 0,0 0,-1 0,-1 1,-1 3,-2 7,-3 6,-2 11,-2 14,-2 7,0 12,1 16,4 3,4 5,7 5,11l0 34 7 0c1,0 2,0 3,1 0,0 0,1 0,2 0,0 0,1 0,1 -1,1 -2,1 -3,1l-12 0zm0 -25c-3,-1 -5,-1 -8,-2 -2,0 -5,0 -8,0 -8,0 -14,1 -18,5 -3,2 -4,5 -4,8 0,3 1,6 3,8 3,2 6,3 11,3 4,0 8,-1 12,-3 4,-1 8,-4 12,-8l0 -11z"/>
   <path class="fil2" d="M6544 1587l0 8c3,-4 6,-6 9,-7 3,-2 6,-2 10,-2 4,0 8,0 11,2 2,1 4,3 6,6 2,3 3,6 3,9l0 32 4 0c1,0 2,0 3,1 0,0 0,1 0,2 0,0 0,1 0,1 -1,1 -2,1 -3,1l-14 0c-1,0 -2,0 -2,-1 -1,0 -1,-1 -1,-1 0,-1 0,-2 1,-2 0,-1 1,-1 2,-1l5 0 0 -31c0,-4 -2,-7 -4,-10 -3,-2 -7,-3 -11,-3 -3,0 -6,0 -9,2 -2,1 -6,5 -10,10l0 32 5 0c2,0 2,0 3,1 1,0 1,1 1,2 0,0 0,1 -1,1 -1,1 -1,1 -3,1l-16 0c-2,0 -2,0 -3,-1 -1,0 -1,-1 -1,-1 0,-1 0,-2 1,-2 1,-1 1,-1 3,-1l5 0 0 -42 -4 0c-1,0 -2,-1 -3,-1 0,-1 0,-1 0,-2 0,-1 0,-1 0,-2 1,0 2,-1 3,-1l10 0z"/>
   <path class="fil2" d="M6707 1561l0 13 -7 0 0 -13 7 0zm0 26l0 48 20 0c2,0 3,0 3,1 1,0 1,1 1,2 0,0 0,1 -1,1 0,1 -1,1 -3,1l-45 0c-1,0 -2,0 -3,-1 0,0 0,-1 0,-1 0,-1 0,-2 0,-2 1,-1 2,-1 3,-1l20 0 0 -42 -15 0c-1,0 -2,-1 -2,-1 -1,-1 -1,-1 -1,-2 0,-1 0,-1 1,-2 0,0 1,-1 2,-1l20 0z"/>
   <path class="fil2" d="M6784 1640l-9 0 -21 -47 -5 0c-1,0 -2,-1 -2,-1 -1,-1 -1,-1 -1,-2 0,-1 0,-1 1,-2 0,0 1,-1 2,-1l19 0c2,0 2,1 3,1 1,1 1,1 1,2 0,1 0,1 -1,2 -1,0 -1,1 -3,1l-8 0 19 42 2 0 18 -42 -8 0c-1,0 -2,-1 -3,-1 0,-1 -1,-1 -1,-2 0,-1 1,-1 1,-2 1,0 2,-1 3,-1l19 0c1,0 2,1 3,1 0,1 1,1 1,2 0,1 -1,1 -1,2 -1,0 -2,1 -3,1l-5 0 -21 47z"/>
   <path class="fil2" d="M6869 1640l0 -7c-7,6 -15,9 -23,9 -7,0 -11,-1 -15,-4 -3,-4 -5,-7 -5,-12 0,-5 2,-9 7,-13 4,-4 11,-5 20,-5 2,0 5,0 7,0 3,0 6,1 9,1l0 -8c0,-3 -1,-5 -4,-7 -2,-2 -6,-3 -11,-3 -4,0 -10,1 -17,3 -1,1 -2,1 -3,1 0,0 -1,0 -1,-1 -1,0 -1,-1 -1,-2 0,0 0,-1 1,-1 0,-1 3,-2 7,-3 6,-2 11,-2 14,-2 6,0 12,1 15,4 4,4 6,7 6,11l0 34 6 0c2,0 3,0 3,1 1,0 1,1 1,2 0,0 0,1 -1,1 0,1 -1,1 -3,1l-12 0zm0 -25c-2,-1 -5,-1 -7,-2 -3,0 -6,0 -9,0 -7,0 -13,1 -17,5 -3,2 -5,5 -5,8 0,3 1,6 4,8 2,2 6,3 10,3 5,0 9,-1 13,-3 3,-1 7,-4 11,-8l0 -11z"/>
   <path class="fil2" d="M6924 1587l0 13c6,-6 11,-10 15,-11 3,-2 6,-3 9,-3 3,0 6,1 8,3 3,2 4,4 4,5 0,1 0,1 -1,2 0,0 -1,1 -2,1 0,0 0,-1 -1,-1 0,0 0,0 -1,-1 -2,-1 -3,-2 -4,-3 -1,-1 -2,-1 -3,-1 -2,0 -5,1 -8,3 -3,2 -9,6 -16,13l0 28 22 0c2,0 2,0 3,1 0,0 1,1 1,2 0,0 -1,1 -1,1 -1,1 -1,1 -3,1l-40 0c-1,0 -2,0 -3,0 0,-1 0,-2 0,-2 0,-1 0,-2 0,-2 1,0 2,-1 3,-1l12 0 0 -42 -9 0c-1,0 -2,-1 -3,-1 0,-1 0,-1 0,-2 0,-1 0,-1 0,-2 1,0 2,-1 3,-1l15 0z"/>
   <path class="fil2" d="M6356 1734l0 -2c0,-1 1,-2 1,-2 1,-1 1,-1 2,-1 1,0 1,0 2,1 0,0 1,1 1,2l0 12c0,1 -1,2 -1,3 -1,0 -1,1 -2,1 -1,0 -1,-1 -2,-1 0,-1 0,-1 -1,-3 0,-2 -2,-5 -5,-8 -4,-2 -9,-4 -15,-4 -7,0 -13,3 -17,7 -4,5 -6,11 -6,17 0,6 2,12 7,16 4,5 10,7 17,7 4,0 8,-1 12,-2 4,-2 8,-4 11,-8 1,0 2,-1 2,-1 1,0 2,0 2,1 0,0 1,1 1,2 0,1 -2,4 -6,6 -7,5 -15,7 -23,7 -8,0 -15,-3 -20,-8 -5,-5 -8,-12 -8,-20 0,-8 3,-15 8,-21 6,-5 12,-8 21,-8 8,0 14,2 19,7z"/>
   <path class="fil2" d="M6435 1705l0 72 7 0c1,0 2,0 3,0 0,1 1,1 1,2 0,1 -1,2 -1,2 -1,1 -2,1 -3,1l-12 0 0 -10c-6,8 -13,12 -23,12 -4,0 -9,-1 -13,-4 -4,-2 -8,-6 -10,-10 -2,-5 -4,-10 -4,-14 0,-5 2,-10 4,-15 2,-4 6,-8 10,-10 4,-3 9,-4 13,-4 9,0 17,4 23,12l0 -29 -7 0c-1,0 -2,0 -2,0 -1,-1 -1,-1 -1,-2 0,-1 0,-2 1,-2 0,-1 1,-1 2,-1l12 0zm-5 51c0,-7 -2,-12 -7,-17 -4,-4 -9,-7 -15,-7 -6,0 -12,3 -16,7 -4,5 -7,10 -7,17 0,6 3,11 7,16 4,4 10,7 16,7 6,0 11,-3 15,-7 5,-5 7,-10 7,-16z"/>
   <path class="fil2" d="M6513 1757l-52 0c1,6 3,12 8,16 5,4 10,6 17,6 4,0 8,-1 12,-2 4,-1 8,-3 11,-5 0,-1 1,-1 2,-1 0,0 1,0 1,1 1,0 1,1 1,1 0,1 0,2 -1,2 -2,3 -5,4 -10,6 -5,2 -11,3 -16,3 -9,0 -16,-3 -22,-9 -6,-6 -9,-13 -9,-21 0,-7 3,-14 9,-19 5,-5 12,-8 20,-8 9,0 15,3 21,8 5,6 8,13 8,22zm-5 -6c-1,-5 -4,-10 -8,-13 -5,-4 -10,-6 -16,-6 -6,0 -11,2 -15,6 -5,3 -7,8 -8,13l47 0z"/>
   <path class="fil2" d="M6550 1729l27 0c2,0 3,0 3,1 1,0 1,1 1,2 0,0 0,1 -1,1 0,1 -1,1 -3,1l-27 0 0 34c0,3 1,6 3,8 3,2 6,3 11,3 3,0 7,-1 11,-2 4,-1 7,-2 9,-3 1,-1 2,-1 2,-1 1,0 2,0 2,1 0,0 1,1 1,1 0,1 -1,2 -1,2 -1,1 -5,3 -10,4 -5,2 -9,3 -14,3 -6,0 -11,-2 -14,-4 -4,-3 -6,-7 -6,-12l0 -34 -9 0c-1,0 -2,0 -3,-1 0,0 0,-1 0,-1 0,-1 0,-2 0,-2 1,-1 2,-1 3,-1l9 0 0 -15c0,-1 1,-2 1,-3 1,0 1,-1 2,-1 1,0 1,1 2,1 0,1 1,2 1,3l0 15z"/>
   <path class="fil2" d="M5947 849l0 -89 18 0 21 63c2,6 3,10 4,13 1,-3 3,-8 5,-14l21 -62 16 0 0 89 -11 0 0 -75 -26 75 -11 0 -26 -76 0 76 -11 0z"/>
   <path class="fil2" d="M6050 772l0 -12 11 0 0 12 -11 0zm0 77l0 -65 11 0 0 65 -11 0z"/>
   <path class="fil2" d="M6071 849l23 -33 -22 -32 14 0 10 16c2,3 3,5 5,7 1,-3 3,-5 4,-7l11 -16 14 0 -23 31 24 34 -13 0 -14 -20 -3 -5 -17 25 -13 0z"/>
   <path class="fil2" d="M6164 839l2 10c-3,1 -6,1 -8,1 -4,0 -7,0 -10,-2 -2,-1 -3,-3 -4,-5 -1,-2 -2,-6 -2,-13l0 -37 -8 0 0 -9 8 0 0 -16 11 -6 0 22 11 0 0 9 -11 0 0 38c0,3 1,5 1,6 0,1 1,2 2,2 1,1 2,1 4,1 1,0 2,0 4,-1z"/>
   <path class="fil2" d="M6218 849l0 -9c-5,7 -12,11 -21,11 -4,0 -7,-1 -11,-2 -3,-2 -5,-4 -7,-6 -2,-2 -3,-5 -3,-8 -1,-2 -1,-6 -1,-10l0 -41 11 0 0 36c0,6 0,10 1,12 0,3 2,5 4,7 2,1 5,2 8,2 4,0 7,-1 9,-2 3,-2 5,-4 7,-7 1,-3 1,-7 1,-13l0 -35 11 0 0 65 -9 0z"/>
   <path class="fil2" d="M6245 849l0 -65 9 0 0 10c3,-4 5,-7 7,-9 3,-1 5,-2 7,-2 4,0 8,1 12,4l-4 10c-3,-2 -5,-3 -8,-3 -3,0 -5,1 -7,3 -2,1 -3,3 -4,6 -1,3 -2,8 -2,12l0 34 -10 0z"/>
   <path class="fil2" d="M6331 828l11 2c-2,6 -5,12 -10,15 -5,4 -11,6 -19,6 -9,0 -17,-3 -22,-9 -6,-6 -8,-14 -8,-25 0,-10 2,-19 8,-25 6,-6 13,-9 22,-9 9,0 16,3 21,9 6,6 8,14 8,25 0,0 0,1 0,3l-48 0c0,7 2,12 6,16 4,4 8,6 14,6 4,0 7,-1 10,-3 3,-3 5,-6 7,-11zm-36 -17l36 0c-1,-6 -2,-10 -4,-13 -4,-4 -8,-6 -14,-6 -5,0 -9,2 -13,5 -3,3 -5,8 -5,14z"/>
   <path class="fil2" d="M6391 849l0 -65 9 0 0 10c2,-4 5,-6 8,-8 4,-2 8,-3 12,-3 5,0 9,1 12,3 3,2 5,5 6,8 5,-7 12,-11 20,-11 7,0 12,2 15,5 4,4 5,9 5,17l0 44 -11 0 0 -41c0,-4 0,-7 -1,-9 0,-2 -2,-4 -4,-5 -1,-1 -4,-1 -6,-1 -5,0 -8,1 -11,4 -3,3 -5,8 -5,15l0 37 -11 0 0 -42c0,-5 -1,-8 -3,-11 -1,-2 -4,-3 -8,-3 -4,0 -6,0 -9,2 -3,2 -5,4 -6,7 -1,3 -2,8 -2,14l0 33 -10 0z"/>
   <path class="fil2" d="M6537 841c-4,4 -8,6 -12,8 -4,1 -8,2 -12,2 -7,0 -13,-2 -16,-5 -4,-4 -6,-8 -6,-14 0,-3 1,-6 2,-8 2,-3 3,-5 6,-7 2,-1 5,-3 8,-3 2,-1 5,-2 9,-2 9,-1 16,-2 20,-4 0,-1 0,-2 0,-3 0,-4 -1,-7 -3,-9 -3,-3 -7,-4 -13,-4 -5,0 -9,1 -11,3 -2,2 -4,5 -5,9l-11 -1c1,-5 2,-8 5,-11 2,-3 5,-5 9,-7 5,-1 9,-2 15,-2 6,0 10,1 14,2 3,1 6,3 7,5 2,2 3,4 4,7 0,2 0,6 0,10l0 15c0,10 0,17 1,20 0,2 1,5 3,7l-12 0c-1,-2 -2,-5 -2,-8zm-1 -24c-4,1 -10,3 -18,4 -4,1 -8,1 -10,2 -1,1 -3,2 -4,4 -1,1 -1,3 -1,5 0,3 1,5 3,7 2,2 5,3 10,3 4,0 8,-1 11,-3 3,-1 6,-4 7,-7 1,-3 2,-6 2,-11l0 -4z"/>
   <path class="fil2" d="M6564 874l0 -90 10 0 0 9c3,-3 5,-6 8,-8 3,-1 7,-2 11,-2 5,0 10,1 15,4 4,3 7,7 9,12 2,6 3,11 3,17 0,7 -1,13 -3,18 -3,6 -6,10 -11,13 -4,2 -9,4 -14,4 -4,0 -7,-1 -10,-3 -3,-1 -5,-3 -7,-5l0 31 -11 0zm10 -57c0,9 2,15 5,19 4,4 8,6 12,6 5,0 9,-2 13,-6 3,-5 5,-11 5,-20 0,-8 -2,-14 -5,-18 -3,-4 -7,-6 -12,-6 -5,0 -9,2 -13,6 -3,5 -5,11 -5,19z"/>
   <path class="fil2" d="M5967 1015c-6,-7 -11,-16 -15,-27 -5,-10 -7,-20 -7,-31 0,-10 2,-19 5,-28 4,-11 9,-21 17,-31l8 0c-5,8 -8,14 -10,18 -2,6 -4,12 -6,18 -2,7 -2,15 -2,23 0,19 6,39 18,58l-8 0z"/>
   <path class="fil2" d="M6000 989l-20 -65 11 0 10 38 4 13c0,0 2,-5 4,-13l10 -38 11 0 10 38 3 12 4 -12 11 -38 11 0 -21 65 -11 0 -10 -39 -3 -11 -13 50 -11 0z"/>
   <path class="fil2" d="M6078 912l0 -13 11 0 0 13 -11 0zm0 77l0 -65 11 0 0 65 -11 0z"/>
   <path class="fil2" d="M6130 979l1 10c-3,0 -6,1 -8,1 -4,0 -7,-1 -9,-2 -3,-1 -4,-3 -5,-5 -1,-2 -1,-6 -1,-13l0 -37 -8 0 0 -9 8 0 0 -16 11 -7 0 23 11 0 0 9 -11 0 0 38c0,3 0,5 0,6 1,1 1,1 2,2 1,0 2,1 4,1 1,0 3,-1 5,-1z"/>
   <path class="fil2" d="M6140 989l0 -90 11 0 0 33c5,-6 12,-9 20,-9 5,0 9,1 12,3 4,1 6,4 8,7 1,4 2,9 2,15l0 41 -11 0 0 -41c0,-6 -1,-10 -3,-12 -3,-3 -6,-4 -10,-4 -4,0 -7,1 -10,3 -3,1 -5,4 -6,7 -1,2 -2,6 -2,11l0 36 -11 0z"/>
   <path class="fil2" d="M6245 989l0 -65 9 0 0 9c2,-3 5,-6 9,-7 3,-2 7,-3 11,-3 5,0 9,1 12,3 3,2 5,4 6,8 6,-8 12,-11 20,-11 7,0 12,1 15,5 4,4 5,9 5,16l0 45 -10 0 0 -41c0,-4 -1,-7 -2,-9 0,-2 -2,-4 -3,-5 -2,-1 -4,-2 -7,-2 -5,0 -8,2 -11,5 -3,3 -5,8 -5,14l0 38 -11 0 0 -42c0,-5 -1,-9 -3,-11 -1,-3 -4,-4 -8,-4 -3,0 -6,1 -9,3 -3,1 -4,4 -6,7 -1,3 -1,7 -1,13l0 34 -11 0z"/>
   <path class="fil2" d="M6349 912l0 -13 11 0 0 13 -11 0zm0 77l0 -65 11 0 0 65 -11 0z"/>
   <path class="fil2" d="M6369 989l24 -34 -22 -31 14 0 10 15c2,3 3,6 4,8 2,-3 4,-5 5,-8l11 -15 13 0 -22 31 24 34 -14 0 -13 -20 -3 -6 -17 26 -14 0z"/>
   <path class="fil2" d="M6463 979l2 10c-3,0 -6,1 -9,1 -4,0 -7,-1 -9,-2 -2,-1 -4,-3 -5,-5 -1,-2 -1,-6 -1,-13l0 -37 -8 0 0 -9 8 0 0 -16 11 -7 0 23 11 0 0 9 -11 0 0 38c0,3 0,5 1,6 0,1 1,1 1,2 1,0 3,1 4,1 1,0 3,-1 5,-1z"/>
   <path class="fil2" d="M6516 989l0 -10c-5,8 -12,11 -20,11 -4,0 -8,0 -11,-2 -3,-1 -6,-3 -7,-5 -2,-3 -3,-5 -4,-8 0,-3 0,-6 0,-11l0 -40 10 0 0 36c0,6 1,10 1,12 1,3 2,5 5,6 2,2 5,3 8,3 3,0 6,-1 9,-3 3,-1 5,-4 6,-6 1,-3 2,-8 2,-13l0 -35 11 0 0 65 -10 0z"/>
   <path class="fil2" d="M6543 989l0 -65 10 0 0 10c3,-5 5,-8 7,-9 2,-2 5,-2 7,-2 4,0 8,1 11,3l-3 10c-3,-1 -6,-2 -8,-2 -3,0 -5,1 -7,2 -2,2 -3,4 -4,6 -1,4 -2,8 -2,13l0 34 -11 0z"/>
   <path class="fil2" d="M6629 968l12 1c-2,7 -5,12 -10,16 -5,4 -11,5 -19,5 -9,0 -17,-3 -22,-8 -6,-6 -9,-14 -9,-25 0,-11 3,-19 9,-25 5,-6 13,-9 22,-9 8,0 15,3 21,9 5,5 8,14 8,24 0,1 0,2 0,3l-48 0c0,7 2,13 6,17 3,3 8,5 13,5 4,0 8,-1 10,-3 3,-2 6,-5 7,-10zm-36 -18l36 0c0,-5 -1,-9 -4,-12 -3,-4 -8,-6 -13,-6 -5,0 -10,1 -13,5 -4,3 -5,8 -6,13z"/>
   <path class="fil2" d="M6701 989l-20 -65 12 0 10 38 4 13c0,0 1,-5 3,-13l10 -38 12 0 9 38 4 12 3 -12 12 -38 10 0 -20 65 -11 0 -11 -39 -2 -11 -13 50 -12 0z"/>
   <path class="fil2" d="M6824 968l11 1c-2,7 -5,12 -10,16 -5,4 -11,5 -18,5 -10,0 -17,-3 -23,-8 -5,-6 -8,-14 -8,-25 0,-11 3,-19 8,-25 6,-6 13,-9 22,-9 9,0 16,3 21,9 6,5 9,14 9,24 0,1 -1,2 -1,3l-48 0c1,7 3,13 6,17 4,3 8,5 14,5 4,0 7,-1 10,-3 3,-2 5,-5 7,-10zm-36 -18l36 0c-1,-5 -2,-9 -4,-12 -4,-4 -8,-6 -14,-6 -5,0 -9,1 -13,5 -3,3 -5,8 -5,13z"/>
   <path class="fil2" d="M6849 912l0 -13 11 0 0 13 -11 0zm0 77l0 -65 11 0 0 65 -11 0z"/>
   <path class="fil2" d="M6875 994l10 2c1,3 2,6 4,7 3,2 7,3 11,3 5,0 9,-1 12,-3 3,-2 5,-5 6,-8 0,-3 0,-7 0,-15 -4,6 -10,9 -17,9 -9,0 -16,-3 -21,-10 -5,-6 -8,-14 -8,-23 0,-6 2,-12 4,-17 2,-5 5,-9 10,-12 4,-3 9,-4 15,-4 7,0 14,3 18,9l0 -8 11 0 0 56c0,10 -1,17 -3,22 -3,4 -6,7 -10,10 -5,2 -10,3 -17,3 -7,0 -14,-1 -18,-5 -5,-3 -7,-9 -7,-16zm9 -39c0,9 1,15 5,19 3,4 7,6 13,6 5,0 9,-2 12,-6 4,-4 5,-10 5,-18 0,-8 -1,-14 -5,-18 -3,-4 -8,-6 -13,-6 -5,0 -9,2 -12,6 -4,4 -5,10 -5,17z"/>
   <path class="fil2" d="M6946 989l0 -90 11 0 0 33c5,-6 12,-9 20,-9 4,0 9,1 12,3 4,1 6,4 8,7 1,4 2,9 2,15l0 41 -11 0 0 -41c0,-6 -1,-10 -4,-12 -2,-3 -5,-4 -10,-4 -3,0 -6,1 -9,3 -3,1 -5,4 -6,7 -1,2 -2,6 -2,11l0 36 -11 0z"/>
   <path class="fil2" d="M7040 979l1 10c-3,0 -6,1 -8,1 -4,0 -7,-1 -9,-2 -2,-1 -4,-3 -5,-5 -1,-2 -1,-6 -1,-13l0 -37 -8 0 0 -9 8 0 0 -16 11 -7 0 23 11 0 0 9 -11 0 0 38c0,3 0,5 0,6 1,1 1,1 2,2 1,0 2,1 4,1 1,0 3,-1 5,-1z"/>
   <path class="fil2" d="M7044 970l11 -2c1,4 2,8 5,10 3,2 7,3 12,3 5,0 9,-1 11,-3 3,-2 4,-4 4,-7 0,-2 -1,-4 -3,-6 -2,-1 -6,-2 -12,-4 -8,-2 -13,-3 -16,-5 -3,-1 -6,-3 -7,-6 -2,-3 -3,-5 -3,-9 0,-3 1,-5 2,-8 1,-2 3,-4 6,-6 1,-1 4,-2 7,-3 2,-1 6,-1 9,-1 5,0 10,0 13,2 4,1 7,3 9,6 2,2 3,6 4,10l-11 1c-1,-3 -2,-6 -4,-7 -3,-2 -6,-3 -10,-3 -5,0 -9,1 -11,2 -2,2 -3,4 -3,6 0,1 0,3 1,4 1,1 2,2 4,3 1,0 5,1 10,3 8,2 13,3 16,5 3,1 6,3 8,6 1,2 2,5 2,9 0,4 -1,7 -3,10 -2,3 -5,6 -9,8 -4,2 -9,2 -14,2 -8,0 -15,-1 -19,-5 -5,-3 -7,-9 -9,-15z"/>
   <path class="fil2" d="M7118 1015l-7 0c12,-19 18,-39 18,-58 0,-8 -1,-16 -3,-23 -1,-6 -3,-12 -6,-18 -1,-3 -4,-10 -9,-18l7 0c8,10 14,20 17,31 4,9 5,18 5,28 0,11 -2,21 -6,31 -4,11 -10,20 -16,27z"/>
   <path class="fil2" d="M5952 1067l0 5c4,-5 9,-7 13,-7 3,0 5,1 7,2 2,1 4,3 5,6 2,-3 5,-5 7,-6 2,-1 5,-2 7,-2 4,0 7,1 9,3 3,3 4,7 4,11l0 35 4 0c2,0 3,1 3,1 1,1 1,1 1,2 0,1 0,1 -1,2 0,0 -1,0 -3,0l-9 0 0 -40c0,-3 -1,-5 -2,-6 -2,-2 -4,-3 -6,-3 -2,0 -4,1 -6,2 -2,1 -4,4 -7,8l0 34 4 0c2,0 3,1 3,1 1,1 1,1 1,2 0,1 0,1 -1,2 0,0 -1,0 -3,0l-9 0 0 -40c0,-2 -1,-5 -2,-6 -2,-2 -4,-3 -6,-3 -2,0 -3,1 -5,2 -3,1 -5,4 -8,8l0 34 4 0c1,0 2,1 3,1 0,1 1,1 1,2 0,1 -1,1 -1,2 -1,0 -2,0 -3,0l-14 0c-1,0 -2,0 -2,0 -1,-1 -1,-1 -1,-2 0,-1 0,-1 1,-2 0,0 1,-1 2,-1l5 0 0 -42 -5 0c-1,0 -2,0 -2,-1 -1,0 -1,-1 -1,-2 0,-1 0,-1 1,-2 0,0 1,0 2,0l10 0z"/>
   <path class="fil2" d="M6027 1067l0 5c4,-5 9,-7 13,-7 3,0 5,1 7,2 2,1 4,3 5,6 2,-3 5,-5 7,-6 2,-1 5,-2 7,-2 4,0 7,1 9,3 3,3 4,7 4,11l0 35 5 0c1,0 2,1 2,1 1,1 1,1 1,2 0,1 0,1 -1,2 0,0 -1,0 -2,0l-10 0 0 -40c0,-3 -1,-5 -2,-6 -2,-2 -4,-3 -6,-3 -2,0 -4,1 -6,2 -2,1 -4,4 -7,8l0 34 4 0c2,0 3,1 3,1 1,1 1,1 1,2 0,1 0,1 -1,2 0,0 -1,0 -3,0l-9 0 0 -40c0,-2 -1,-5 -2,-6 -2,-2 -4,-3 -6,-3 -2,0 -3,1 -5,2 -3,1 -5,4 -8,8l0 34 4 0c1,0 2,1 3,1 0,1 1,1 1,2 0,1 -1,1 -1,2 -1,0 -2,0 -3,0l-14 0c-1,0 -2,0 -2,0 -1,-1 -1,-1 -1,-2 0,-1 0,-1 1,-2 0,0 1,-1 2,-1l5 0 0 -42 -5 0c-1,0 -2,0 -2,-1 -1,0 -1,-1 -1,-2 0,-1 0,-1 1,-2 0,0 1,0 2,0l10 0z"/>
   <path class="fil2" d="M6140 1119l0 -7c-7,6 -15,10 -24,10 -6,0 -11,-2 -14,-5 -4,-3 -5,-7 -5,-12 0,-5 2,-9 6,-13 5,-3 12,-5 20,-5 3,0 5,0 8,0 3,1 6,1 9,2l0 -9c0,-2 -1,-5 -4,-7 -2,-2 -6,-3 -12,-3 -4,0 -9,1 -16,3 -2,1 -3,1 -3,1 -1,0 -1,0 -2,-1 0,0 0,-1 0,-1 0,-1 0,-2 0,-2 1,-1 3,-2 7,-3 7,-1 11,-2 15,-2 6,0 11,1 15,5 3,3 5,6 5,10l0 34 7 0c1,0 2,1 3,1 0,1 1,1 1,2 0,1 -1,1 -1,2 -1,0 -2,0 -3,0l-12 0zm0 -25c-2,-1 -5,-1 -8,-2 -2,0 -5,0 -8,0 -8,0 -13,2 -18,5 -3,2 -4,5 -4,8 0,3 1,6 3,8 3,2 6,3 11,3 4,0 8,-1 12,-2 4,-2 8,-5 12,-9l0 -11z"/>
   <path class="fil2" d="M6181 1067l0 9c3,-4 6,-7 10,-8 3,-2 7,-3 12,-3 5,0 10,1 14,3 4,3 8,6 10,10 2,4 4,9 4,13 0,8 -3,14 -8,19 -6,6 -12,8 -20,8 -9,0 -16,-4 -22,-11l0 31 12 0c2,0 3,0 3,1 1,0 1,1 1,1 0,1 0,2 -1,2 0,1 -1,1 -3,1l-24 0c-1,0 -2,0 -3,-1 0,0 0,-1 0,-2 0,0 0,-1 0,-1 1,-1 2,-1 3,-1l7 0 0 -66 -7 0c-1,0 -2,0 -3,-1 0,0 0,-1 0,-2 0,-1 0,-1 0,-2 1,0 2,0 3,0l12 0zm44 24c0,-5 -2,-10 -6,-15 -4,-4 -10,-6 -16,-6 -6,0 -11,2 -16,6 -4,5 -6,10 -6,15 0,6 2,11 6,16 5,4 10,6 16,6 6,0 12,-2 16,-6 4,-5 6,-10 6,-16z"/>
   <path class="fil2" d="M6011 2204l12 3c-2,10 -7,17 -13,22 -7,5 -15,8 -24,8 -10,0 -17,-2 -24,-6 -6,-4 -10,-10 -13,-17 -3,-8 -5,-16 -5,-24 0,-9 2,-18 5,-25 4,-6 9,-12 16,-15 6,-4 13,-6 21,-6 9,0 17,3 23,7 6,5 10,11 13,19l-12 3c-2,-6 -5,-11 -9,-14 -4,-3 -9,-5 -15,-5 -7,0 -13,2 -17,5 -5,4 -8,8 -10,14 -2,5 -3,11 -3,17 0,7 1,14 3,20 3,5 6,10 11,12 5,3 10,5 15,5 7,0 12,-2 17,-6 4,-4 8,-10 9,-17z"/>
   <path class="fil2" d="M6032 2203c0,-12 3,-21 10,-27 6,-5 13,-7 21,-7 8,0 16,3 21,9 6,6 9,14 9,24 0,8 -1,15 -4,20 -2,4 -6,8 -11,11 -5,2 -10,4 -15,4 -10,0 -17,-3 -22,-9 -6,-6 -9,-14 -9,-25zm11 0c0,8 2,14 6,18 4,5 8,7 14,7 5,0 10,-2 13,-7 4,-4 6,-10 6,-19 0,-8 -2,-14 -6,-18 -4,-4 -8,-6 -13,-6 -6,0 -10,2 -14,6 -4,4 -6,11 -6,19z"/>
   <path class="fil2" d="M6124 2235l-25 -65 12 0 14 39c1,4 3,9 4,13 1,-3 2,-7 4,-12l14 -40 12 0 -25 65 -10 0z"/>
   <path class="fil2" d="M6211 2227c-5,4 -8,6 -12,8 -4,1 -8,2 -12,2 -7,0 -13,-2 -17,-6 -4,-3 -5,-7 -5,-13 0,-3 0,-6 2,-9 1,-2 3,-4 5,-6 3,-1 5,-3 8,-3 2,-1 6,-2 10,-2 9,-1 15,-2 20,-4 0,-1 0,-2 0,-3 0,-4 -1,-7 -3,-9 -3,-3 -7,-4 -13,-4 -5,0 -9,1 -11,3 -3,2 -5,5 -6,9l-11 -1c1,-5 3,-8 5,-11 2,-3 6,-5 10,-7 4,-1 9,-2 15,-2 5,0 10,1 13,2 4,1 6,3 8,5 1,2 3,4 3,7 1,2 1,6 1,10l0 15c0,10 0,17 0,19 1,3 2,6 3,8l-11 0c-1,-2 -2,-5 -2,-8zm-1 -24c-4,1 -10,3 -18,4 -5,1 -8,1 -10,2 -2,1 -3,2 -4,4 -1,1 -2,3 -2,5 0,3 1,5 4,7 2,2 5,3 9,3 5,0 8,-1 12,-3 3,-2 5,-4 7,-7 1,-3 2,-6 2,-11l0 -4z"/>
   <path class="fil2" d="M6238 2235l0 -65 10 0 0 10c2,-4 4,-7 7,-9 2,-1 4,-2 7,-2 3,0 7,1 11,3l-4 11c-3,-2 -5,-3 -8,-3 -2,0 -5,1 -6,2 -2,2 -4,4 -5,6 -1,4 -1,9 -1,13l0 34 -11 0z"/>
   <path class="fil2" d="M6279 2158l0 -12 11 0 0 12 -11 0zm0 77l0 -65 11 0 0 65 -11 0z"/>
   <path class="fil2" d="M6349 2227c-4,4 -8,6 -11,8 -4,1 -8,2 -12,2 -8,0 -13,-2 -17,-6 -4,-3 -6,-7 -6,-13 0,-3 1,-6 3,-9 1,-2 3,-4 5,-6 3,-1 5,-3 8,-3 2,-1 6,-2 10,-2 9,-1 15,-2 20,-4 0,-1 0,-2 0,-3 0,-4 -1,-7 -3,-9 -3,-3 -7,-4 -13,-4 -5,0 -9,1 -11,3 -3,2 -5,5 -6,9l-11 -1c1,-5 3,-8 5,-11 2,-3 6,-5 10,-7 4,-1 9,-2 15,-2 5,0 10,1 13,2 4,1 6,3 8,5 1,2 2,4 3,7 0,2 1,6 1,10l0 15c0,10 0,17 0,19 1,3 2,6 3,8l-11 0c-1,-2 -2,-5 -3,-8zm0 -24c-4,1 -10,3 -18,4 -5,1 -8,1 -10,2 -2,1 -3,2 -4,4 -1,1 -2,3 -2,5 0,3 1,5 4,7 2,2 5,3 9,3 4,0 8,-1 12,-3 3,-2 5,-4 7,-7 1,-3 2,-6 2,-11l0 -4z"/>
   <path class="fil2" d="M6377 2235l0 -65 10 0 0 10c4,-7 11,-11 20,-11 4,0 8,1 11,2 3,1 6,3 7,6 2,2 3,5 4,8 0,2 0,5 0,10l0 40 -11 0 0 -39c0,-5 0,-8 -1,-10 -1,-2 -2,-4 -4,-6 -3,-1 -5,-2 -8,-2 -5,0 -9,2 -12,5 -4,3 -5,9 -5,17l0 35 -11 0z"/>
   <path class="fil2" d="M6489 2211l10 2c-1,7 -4,13 -9,17 -5,5 -11,7 -18,7 -9,0 -16,-3 -21,-9 -5,-6 -8,-14 -8,-25 0,-7 1,-13 3,-18 3,-6 6,-9 11,-12 5,-3 10,-4 15,-4 7,0 13,2 18,5 4,4 7,9 8,15l-10 2c-1,-4 -3,-8 -6,-10 -2,-2 -5,-3 -9,-3 -6,0 -10,2 -14,6 -3,4 -5,10 -5,19 0,8 2,15 5,19 4,4 8,6 13,6 5,0 8,-2 11,-4 3,-3 5,-7 6,-13z"/>
   <path class="fil2" d="M6553 2214l11 2c-1,6 -5,12 -9,15 -5,4 -12,6 -19,6 -10,0 -17,-3 -23,-9 -5,-6 -8,-14 -8,-25 0,-11 3,-19 8,-25 6,-6 13,-9 22,-9 9,0 16,3 22,9 5,6 8,14 8,25 0,0 0,1 0,3l-49 0c1,7 3,12 6,16 4,4 9,6 14,6 4,0 7,-1 10,-4 3,-2 5,-5 7,-10zm-36 -17l36 0c0,-6 -2,-10 -4,-13 -3,-4 -8,-6 -14,-6 -5,0 -9,2 -12,5 -4,3 -6,8 -6,14z"/>
   <path class="fil2" d="M6637 2225l2 10c-4,1 -6,1 -9,1 -4,0 -7,-1 -9,-2 -2,-1 -4,-3 -5,-5 -1,-2 -1,-6 -1,-13l0 -37 -8 0 0 -9 8 0 0 -16 11 -6 0 22 11 0 0 9 -11 0 0 38c0,3 0,5 0,6 1,1 2,2 2,2 1,1 3,1 4,1 1,0 3,0 5,-1z"/>
   <path class="fil2" d="M6647 2260l-1 -10c2,1 4,1 6,1 3,0 5,-1 6,-1 2,-1 3,-2 4,-4 0,-1 2,-4 3,-8 0,-1 1,-1 1,-3l-25 -65 12 0 14 38c2,5 3,10 5,15 1,-5 2,-10 4,-15l14 -38 11 0 -25 66c-2,7 -4,12 -6,15 -2,4 -4,6 -7,8 -2,2 -5,3 -9,3 -2,0 -4,-1 -7,-2z"/>
   <path class="fil2" d="M6710 2158l0 -12 11 0 0 12 -11 0zm0 77l0 -65 11 0 0 65 -11 0z"/>
   <path class="fil2" d="M6738 2235l0 -65 10 0 0 10c5,-7 12,-11 20,-11 4,0 8,1 11,2 4,1 6,3 8,6 1,2 2,5 3,8 0,2 1,5 1,10l0 40 -11 0 0 -39c0,-5 -1,-8 -2,-10 0,-2 -2,-4 -4,-6 -2,-1 -5,-2 -8,-2 -5,0 -9,2 -12,5 -3,3 -5,9 -5,17l0 35 -11 0z"/>
   <path class="fil2" d="M6805 2241l11 1c1,3 2,6 4,7 3,2 6,3 11,3 5,0 9,-1 12,-3 3,-2 4,-4 5,-8 1,-2 1,-7 1,-14 -5,5 -11,8 -18,8 -9,0 -16,-3 -20,-9 -5,-7 -8,-15 -8,-24 0,-6 1,-11 4,-17 2,-5 5,-9 9,-12 5,-3 10,-4 15,-4 8,0 14,3 19,9l0 -8 10 0 0 56c0,11 -1,18 -3,22 -2,4 -5,7 -9,10 -5,2 -10,4 -17,4 -8,0 -14,-2 -19,-6 -4,-3 -7,-8 -7,-15zm10 -39c0,8 1,14 5,18 3,4 7,6 12,6 5,0 10,-2 13,-6 3,-4 5,-10 5,-18 0,-8 -2,-14 -5,-18 -4,-4 -8,-6 -13,-6 -5,0 -9,2 -12,6 -4,4 -5,10 -5,18z"/>
   <path class="fil2" d="M6912 2235l0 -65 10 0 0 10c2,-4 4,-6 8,-8 3,-2 7,-3 11,-3 5,0 9,1 12,3 3,2 5,5 7,8 5,-7 11,-11 20,-11 6,0 11,2 14,5 4,4 6,9 6,17l0 44 -11 0 0 -41c0,-4 -1,-7 -1,-9 -1,-2 -2,-4 -4,-5 -2,-1 -4,-2 -7,-2 -4,0 -8,2 -11,5 -3,3 -5,8 -5,15l0 37 -11 0 0 -42c0,-5 -1,-8 -2,-11 -2,-2 -5,-4 -9,-4 -3,0 -6,1 -9,3 -2,2 -4,4 -6,7 -1,3 -1,8 -1,14l0 33 -11 0z"/>
   <path class="fil2" d="M7058 2227c-4,4 -8,6 -12,8 -3,1 -7,2 -12,2 -7,0 -12,-2 -16,-6 -4,-3 -6,-7 -6,-13 0,-3 1,-6 2,-9 2,-2 4,-4 6,-6 2,-1 5,-3 8,-3 2,-1 5,-2 10,-2 9,-1 15,-2 19,-4 0,-1 0,-2 0,-3 0,-4 -1,-7 -3,-9 -3,-3 -7,-4 -12,-4 -5,0 -9,1 -12,3 -2,2 -4,5 -5,9l-11 -1c1,-5 3,-8 5,-11 2,-3 5,-5 10,-7 4,-1 9,-2 14,-2 6,0 10,1 14,2 3,1 6,3 7,5 2,2 3,4 4,7 0,2 0,6 0,10l0 15c0,10 1,17 1,19 1,3 1,6 3,8l-12 0c-1,-2 -2,-5 -2,-8zm-1 -24c-4,1 -10,3 -18,4 -4,1 -7,1 -9,2 -2,1 -4,2 -5,4 -1,1 -1,3 -1,5 0,3 1,5 3,7 2,2 6,3 10,3 4,0 8,-1 11,-3 3,-2 6,-4 7,-7 2,-3 2,-6 2,-11l0 -4z"/>
   <path class="fil2" d="M7085 2260l0 -90 10 0 0 9c3,-3 5,-6 8,-8 3,-1 7,-2 11,-2 6,0 11,1 15,4 4,3 7,7 9,12 3,5 4,11 4,17 0,7 -2,13 -4,18 -2,6 -6,10 -10,12 -5,3 -10,5 -15,5 -3,0 -7,-1 -9,-3 -3,-1 -6,-3 -8,-5l0 31 -11 0zm10 -57c0,9 2,15 5,19 4,4 8,6 13,6 5,0 9,-2 12,-7 4,-4 5,-10 5,-19 0,-8 -1,-14 -5,-18 -3,-4 -7,-6 -12,-6 -5,0 -9,2 -12,6 -4,4 -6,11 -6,19z"/>
   <path class="fil2" d="M5997 2318l0 -2c0,-1 0,-2 0,-2 1,-1 1,-1 2,-1 1,0 2,0 2,1 1,0 1,1 1,2l0 12c0,1 0,2 -1,3 0,0 -1,0 -2,0 0,0 -1,0 -2,0 0,-1 0,-1 0,-3 -1,-2 -3,-5 -6,-8 -4,-2 -8,-4 -14,-4 -8,0 -14,3 -18,7 -4,5 -6,11 -6,17 0,6 2,12 7,16 4,5 10,7 17,7 4,0 8,-1 12,-3 4,-1 8,-3 11,-7 1,0 2,-1 2,-1 1,0 2,0 2,1 1,0 1,1 1,2 0,1 -2,4 -6,6 -7,5 -14,7 -23,7 -8,0 -15,-3 -20,-8 -5,-5 -8,-12 -8,-20 0,-8 3,-15 8,-21 6,-5 13,-8 21,-8 8,0 14,2 20,7z"/>
   <path class="fil2" d="M6027 2313l0 5c4,-5 9,-7 13,-7 3,0 5,1 7,2 2,2 4,4 5,7 2,-3 5,-5 7,-7 2,-1 5,-2 7,-2 4,0 7,1 9,4 3,3 4,6 4,10l0 36 5 0c1,0 2,0 2,0 1,1 1,1 1,2 0,1 0,2 -1,2 0,1 -1,1 -2,1l-10 0 0 -41c0,-2 -1,-4 -2,-6 -2,-2 -4,-3 -6,-3 -2,0 -4,1 -6,2 -2,2 -4,5 -7,9l0 34 4 0c2,0 3,0 3,0 1,1 1,1 1,2 0,1 0,2 -1,2 0,1 -1,1 -3,1l-9 0 0 -40c0,-3 -1,-5 -2,-7 -2,-2 -4,-3 -6,-3 -2,0 -3,1 -5,2 -3,2 -5,5 -8,9l0 34 4 0c1,0 2,0 3,0 0,1 1,1 1,2 0,1 -1,2 -1,2 -1,1 -2,1 -3,1l-14 0c-1,0 -2,0 -2,-1 -1,0 -1,-1 -1,-2 0,-1 0,-1 1,-2 0,0 1,0 2,0l5 0 0 -43 -5 0c-1,0 -2,0 -2,-1 -1,0 -1,-1 -1,-2 0,0 0,-1 1,-1 0,-1 1,-1 2,-1l10 0z"/>
   <path class="fil2" d="M6140 2366l0 -8c-7,7 -15,10 -24,10 -6,0 -11,-2 -14,-5 -4,-3 -5,-7 -5,-11 0,-5 2,-10 6,-13 5,-4 12,-6 20,-6 3,0 5,0 8,1 3,0 6,0 9,1l0 -8c0,-3 -1,-6 -4,-8 -2,-2 -6,-3 -12,-3 -4,0 -9,1 -16,4 -2,0 -3,0 -3,0 -1,0 -1,0 -2,0 0,-1 0,-1 0,-2 0,-1 0,-1 0,-2 1,0 3,-1 7,-2 7,-2 11,-3 15,-3 6,0 11,2 15,5 3,3 5,7 5,11l0 34 7 0c1,0 2,0 3,0 0,1 1,1 1,2 0,1 -1,2 -1,2 -1,1 -2,1 -3,1l-12 0zm0 -26c-2,0 -5,-1 -8,-1 -2,-1 -5,-1 -8,-1 -8,0 -13,2 -18,5 -3,2 -4,5 -4,9 0,3 1,5 3,7 3,3 6,4 11,4 4,0 8,-1 12,-3 4,-2 8,-5 12,-8l0 -12z"/>
   <path class="fil2" d="M6181 2313l0 9c3,-3 6,-6 10,-8 3,-2 7,-3 12,-3 5,0 10,1 14,4 4,2 8,5 10,9 2,5 4,9 4,14 0,7 -3,13 -8,19 -6,5 -12,7 -20,7 -9,0 -16,-3 -22,-11l0 31 12 0c2,0 3,0 3,1 1,0 1,1 1,2 0,1 0,1 -1,2 0,0 -1,0 -3,0l-24 0c-1,0 -2,0 -3,0 0,-1 0,-1 0,-2 0,-1 0,-2 0,-2 1,-1 2,-1 3,-1l7 0 0 -66 -7 0c-1,0 -2,0 -3,-1 0,0 0,-1 0,-2 0,0 0,-1 0,-1 1,-1 2,-1 3,-1l12 0zm44 25c0,-6 -2,-11 -6,-15 -4,-5 -10,-7 -16,-7 -6,0 -11,2 -16,7 -4,4 -6,9 -6,15 0,6 2,11 6,15 5,4 10,6 16,6 6,0 12,-2 16,-6 4,-4 6,-9 6,-15z"/>
   <path class="fil2" d="M6013 2869l12 1c-4,11 -9,18 -16,24 -8,5 -16,8 -25,8 -10,0 -19,-4 -25,-10 -7,-7 -10,-16 -10,-29 0,-16 5,-29 15,-40 8,-9 19,-14 32,-14 9,0 17,3 23,8 6,5 9,12 10,20l-11 1c-1,-6 -4,-11 -7,-14 -4,-3 -9,-5 -15,-5 -11,0 -19,5 -26,15 -6,8 -9,18 -9,29 0,10 2,17 7,22 4,4 10,7 17,7 7,0 12,-2 17,-6 5,-4 9,-10 11,-17z"/>
   <path class="fil2" d="M6136 2869l12 3c-2,9 -7,17 -13,22 -7,5 -15,8 -24,8 -10,0 -17,-2 -24,-6 -6,-4 -10,-10 -13,-17 -3,-8 -5,-16 -5,-24 0,-10 2,-18 5,-25 4,-7 9,-12 16,-15 6,-4 13,-6 21,-6 9,0 17,2 23,7 6,5 10,11 13,19l-12 3c-2,-7 -5,-11 -9,-14 -4,-3 -9,-5 -15,-5 -7,0 -13,2 -17,5 -5,4 -8,8 -10,14 -2,5 -3,11 -3,17 0,7 1,14 3,20 3,5 6,10 11,12 5,3 10,5 15,5 7,0 12,-2 17,-6 4,-4 8,-10 9,-17z"/>
   <path class="fil2" d="M6157 2868c0,-12 3,-21 10,-27 6,-5 13,-7 21,-7 8,0 16,3 21,9 6,5 9,14 9,24 0,8 -1,15 -4,20 -2,4 -6,8 -11,11 -5,2 -10,4 -15,4 -10,0 -17,-3 -22,-9 -6,-6 -9,-14 -9,-25zm11 0c0,8 2,14 6,18 4,5 8,7 14,7 5,0 10,-2 13,-7 4,-4 6,-10 6,-19 0,-8 -2,-14 -6,-18 -4,-4 -8,-6 -13,-6 -6,0 -10,2 -14,6 -4,4 -6,10 -6,19z"/>
   <path class="fil2" d="M6249 2900l-25 -65 12 0 14 39c1,4 3,9 4,13 1,-3 2,-7 4,-12l14 -40 12 0 -25 65 -10 0z"/>
   <path class="fil2" d="M6336 2892c-5,4 -8,6 -12,7 -4,2 -8,3 -12,3 -7,0 -13,-2 -17,-6 -4,-3 -5,-8 -5,-13 0,-3 0,-6 2,-9 1,-2 3,-4 5,-6 3,-2 5,-3 8,-4 2,0 6,-1 10,-1 9,-1 15,-3 20,-4 0,-1 0,-2 0,-3 0,-4 -1,-7 -3,-9 -3,-3 -7,-4 -13,-4 -5,0 -9,1 -11,3 -3,1 -5,5 -6,9l-11 -1c1,-5 3,-8 5,-11 2,-3 6,-5 10,-7 4,-1 9,-2 15,-2 5,0 10,1 13,2 4,1 6,3 8,5 1,2 3,4 3,7 1,2 1,5 1,10l0 15c0,10 0,17 0,19 1,3 2,6 3,8l-11 0c-1,-2 -2,-5 -2,-8zm-1 -24c-4,1 -10,3 -18,4 -5,0 -8,1 -10,2 -2,1 -3,2 -4,4 -1,1 -2,3 -2,5 0,3 1,5 4,7 2,2 5,3 9,3 5,0 8,-1 12,-3 3,-2 5,-4 7,-7 1,-3 2,-7 2,-11l0 -4z"/>
   <path class="fil2" d="M6363 2900l0 -65 10 0 0 10c2,-4 4,-7 7,-9 2,-1 4,-2 7,-2 3,0 7,1 11,3l-4 11c-3,-2 -5,-3 -8,-3 -2,0 -5,1 -6,2 -2,2 -4,4 -5,6 -1,4 -1,9 -1,13l0 34 -11 0z"/>
   <path class="fil2" d="M6404 2823l0 -12 11 0 0 12 -11 0zm0 77l0 -65 11 0 0 65 -11 0z"/>
   <path class="fil2" d="M6474 2892c-4,4 -8,6 -11,7 -4,2 -8,3 -12,3 -8,0 -13,-2 -17,-6 -4,-3 -6,-8 -6,-13 0,-3 1,-6 3,-9 1,-2 3,-4 5,-6 3,-2 5,-3 8,-4 2,0 6,-1 10,-1 9,-1 15,-3 20,-4 0,-1 0,-2 0,-3 0,-4 -1,-7 -3,-9 -3,-3 -7,-4 -13,-4 -5,0 -9,1 -11,3 -3,1 -5,5 -6,9l-11 -1c1,-5 3,-8 5,-11 2,-3 6,-5 10,-7 4,-1 9,-2 15,-2 5,0 10,1 13,2 4,1 6,3 8,5 1,2 2,4 3,7 0,2 1,5 1,10l0 15c0,10 0,17 0,19 1,3 2,6 3,8l-11 0c-1,-2 -2,-5 -3,-8zm0 -24c-4,1 -10,3 -18,4 -5,0 -8,1 -10,2 -2,1 -3,2 -4,4 -1,1 -2,3 -2,5 0,3 1,5 4,7 2,2 5,3 9,3 4,0 8,-1 12,-3 3,-2 5,-4 7,-7 1,-3 2,-7 2,-11l0 -4z"/>
   <path class="fil2" d="M6502 2900l0 -65 10 0 0 10c4,-8 11,-11 20,-11 4,0 8,1 11,2 3,1 6,3 7,6 2,2 3,4 4,8 0,2 0,5 0,10l0 40 -11 0 0 -39c0,-5 0,-8 -1,-10 -1,-3 -2,-4 -4,-6 -3,-1 -5,-2 -8,-2 -5,0 -9,2 -12,5 -4,3 -5,8 -5,17l0 35 -11 0z"/>
   <path class="fil2" d="M6614 2876l10 2c-1,7 -4,13 -9,17 -5,5 -11,7 -18,7 -9,0 -16,-3 -21,-9 -5,-6 -8,-14 -8,-25 0,-7 1,-13 3,-18 3,-6 6,-10 11,-12 5,-3 10,-4 15,-4 7,0 13,2 18,5 4,4 7,9 8,15l-10 2c-1,-4 -3,-8 -6,-10 -2,-2 -5,-3 -9,-3 -6,0 -10,2 -14,6 -3,4 -5,10 -5,19 0,8 2,15 5,19 4,4 8,6 13,6 5,0 8,-2 11,-4 3,-3 5,-7 6,-13z"/>
   <path class="fil2" d="M6678 2879l11 2c-1,6 -5,11 -9,15 -5,4 -12,6 -19,6 -10,0 -17,-3 -23,-9 -5,-6 -8,-14 -8,-25 0,-11 3,-19 8,-25 6,-6 13,-9 22,-9 9,0 16,3 22,9 5,6 8,14 8,25 0,0 0,1 0,3l-49 0c1,7 3,12 6,16 4,4 9,6 14,6 4,0 7,-1 10,-4 3,-2 5,-5 7,-10zm-36 -17l36 0c0,-6 -2,-10 -4,-13 -3,-4 -8,-6 -14,-6 -5,0 -9,2 -12,5 -4,3 -6,8 -6,14z"/>
   <path class="fil2" d="M6738 2900l0 -65 10 0 0 9c2,-3 5,-5 8,-7 3,-2 7,-3 11,-3 5,0 9,1 12,3 3,2 6,5 7,8 5,-7 12,-11 20,-11 6,0 11,2 15,5 3,4 5,9 5,17l0 44 -11 0 0 -41c0,-4 0,-7 -1,-9 -1,-2 -2,-4 -4,-5 -2,-1 -4,-2 -7,-2 -4,0 -8,2 -11,5 -3,3 -5,8 -5,14l0 38 -11 0 0 -42c0,-5 0,-9 -2,-11 -2,-2 -5,-4 -9,-4 -3,0 -6,1 -9,3 -2,1 -4,4 -5,7 -1,3 -2,8 -2,14l0 33 -11 0z"/>
   <path class="fil2" d="M6884 2892c-4,4 -8,6 -11,7 -4,2 -8,3 -12,3 -8,0 -13,-2 -17,-6 -4,-3 -6,-8 -6,-13 0,-3 1,-6 3,-9 1,-2 3,-4 5,-6 3,-2 5,-3 8,-4 2,0 6,-1 10,-1 9,-1 15,-3 19,-4 1,-1 1,-2 1,-3 0,-4 -1,-7 -4,-9 -2,-3 -7,-4 -12,-4 -5,0 -9,1 -12,3 -2,1 -4,5 -5,9l-11 -1c1,-5 3,-8 5,-11 2,-3 6,-5 10,-7 4,-1 9,-2 15,-2 5,0 10,1 13,2 3,1 6,3 8,5 1,2 2,4 3,7 0,2 1,5 1,10l0 15c0,10 0,17 0,19 1,3 2,6 3,8l-11 0c-2,-2 -2,-5 -3,-8zm-1 -24c-4,1 -9,3 -17,4 -5,0 -8,1 -10,2 -2,1 -3,2 -4,4 -1,1 -2,3 -2,5 0,3 1,5 3,7 3,2 6,3 10,3 4,0 8,-1 11,-3 4,-2 6,-4 8,-7 1,-3 1,-7 1,-11l0 -4z"/>
   <path class="fil2" d="M6936 2890l1 10c-3,1 -6,1 -8,1 -4,0 -7,-1 -9,-2 -3,-1 -4,-3 -5,-5 -1,-2 -1,-6 -1,-13l0 -37 -8 0 0 -9 8 0 0 -16 11 -6 0 22 11 0 0 9 -11 0 0 38c0,3 0,5 0,6 1,1 1,1 2,2 1,0 2,1 4,1 1,0 3,0 5,-1z"/>
   <path class="fil2" d="M6946 2900l0 -65 10 0 0 10c3,-4 5,-7 7,-9 2,-1 5,-2 7,-2 4,0 8,1 11,3l-3 11c-3,-2 -6,-3 -8,-3 -3,0 -5,1 -7,2 -2,2 -3,4 -4,6 -1,4 -2,9 -2,13l0 34 -11 0z"/>
   <path class="fil2" d="M6988 2823l0 -12 11 0 0 12 -11 0zm0 77l0 -65 11 0 0 65 -11 0z"/>
   <path class="fil2" d="M7058 2876l11 2c-1,7 -4,13 -9,17 -5,5 -11,7 -18,7 -9,0 -16,-3 -22,-9 -5,-6 -8,-14 -8,-25 0,-7 2,-13 4,-18 2,-6 6,-10 10,-12 5,-3 10,-4 16,-4 7,0 13,2 17,5 5,4 8,9 9,15l-11 2c-1,-4 -3,-8 -5,-10 -3,-2 -6,-3 -10,-3 -5,0 -10,2 -13,6 -4,4 -5,10 -5,19 0,8 1,15 5,19 3,4 7,6 13,6 4,0 8,-2 11,-4 2,-3 4,-7 5,-13z"/>
   <path class="fil2" d="M7123 2879l11 2c-2,6 -5,11 -10,15 -5,4 -11,6 -19,6 -9,0 -17,-3 -22,-9 -6,-6 -8,-14 -8,-25 0,-11 2,-19 8,-25 6,-6 13,-9 22,-9 9,0 16,3 21,9 6,6 8,14 8,25 0,0 0,1 0,3l-48 0c0,7 2,12 6,16 4,4 8,6 14,6 4,0 7,-1 10,-4 3,-2 5,-5 7,-10zm-36 -17l36 0c-1,-6 -2,-10 -4,-13 -4,-4 -8,-6 -14,-6 -5,0 -9,2 -13,5 -3,3 -5,8 -5,14z"/>
   <path class="fil2" d="M7143 2881l11 -2c1,4 3,8 5,10 3,2 7,4 12,4 5,0 9,-1 11,-3 3,-3 4,-5 4,-8 0,-2 -1,-4 -3,-6 -2,-1 -6,-2 -12,-3 -8,-2 -13,-4 -16,-6 -3,-1 -6,-3 -7,-6 -2,-2 -3,-5 -3,-8 0,-3 1,-6 2,-8 2,-3 3,-5 6,-7 1,-1 4,-2 7,-3 3,-1 6,-1 9,-1 5,0 10,1 13,2 4,2 7,4 9,6 2,3 3,6 4,10l-11 2c0,-4 -2,-6 -4,-8 -3,-2 -6,-3 -10,-3 -5,0 -9,1 -11,2 -2,2 -3,4 -3,6 0,2 0,3 1,4 1,1 2,2 4,3 1,0 5,1 10,3 8,2 13,4 16,5 3,1 6,3 8,6 1,2 2,5 2,9 0,4 -1,7 -3,10 -2,4 -5,6 -9,8 -4,2 -9,3 -14,3 -8,0 -15,-2 -19,-6 -5,-3 -7,-8 -9,-15z"/>
   <path class="fil2" d="M5967 3066c-6,-8 -11,-16 -15,-27 -5,-10 -7,-21 -7,-32 0,-9 2,-19 5,-27 4,-11 9,-21 17,-31l8 0c-5,8 -8,14 -10,18 -2,6 -4,11 -6,18 -2,7 -2,15 -2,22 0,20 6,40 18,59l-8 0z"/>
   <path class="fil2" d="M6012 3030l1 10c-3,0 -6,1 -8,1 -4,0 -7,-1 -9,-2 -3,-1 -4,-3 -5,-5 -1,-2 -1,-7 -1,-13l0 -37 -8 0 0 -9 8 0 0 -16 11 -7 0 23 11 0 0 9 -11 0 0 37c0,4 0,6 0,6 1,1 1,2 2,3 1,0 2,0 4,0 1,0 3,0 5,0z"/>
   <path class="fil2" d="M6022 3040l0 -65 10 0 0 10c3,-5 5,-8 7,-9 2,-2 5,-2 7,-2 4,0 8,1 11,3l-3 10c-3,-1 -6,-2 -8,-2 -3,0 -5,1 -7,2 -2,1 -3,3 -4,6 -1,4 -2,8 -2,13l0 34 -11 0z"/>
   <path class="fil2" d="M6064 2963l0 -13 11 0 0 13 -11 0zm0 77l0 -65 11 0 0 65 -11 0z"/>
   <path class="fil2" d="M6134 3032c-4,3 -8,6 -12,7 -3,2 -8,2 -12,2 -7,0 -12,-1 -16,-5 -4,-3 -6,-8 -6,-13 0,-3 1,-6 2,-9 2,-3 4,-5 6,-6 2,-2 5,-3 8,-4 2,0 5,-1 10,-2 8,-1 15,-2 19,-3 0,-2 0,-3 0,-3 0,-5 -1,-8 -3,-10 -3,-2 -7,-3 -12,-3 -6,0 -9,1 -12,2 -2,2 -4,5 -5,10l-11 -2c1,-4 2,-8 5,-11 2,-2 5,-5 9,-6 5,-2 10,-2 15,-2 6,0 10,0 14,1 3,2 6,3 7,5 2,2 3,5 4,8 0,2 0,5 0,10l0 15c0,10 0,16 1,19 0,3 1,5 3,8l-12 0c-1,-2 -2,-5 -2,-8zm-1 -25c-4,2 -10,3 -18,4 -4,1 -8,2 -9,3 -2,0 -4,2 -5,3 -1,2 -1,3 -1,5 0,3 1,6 3,8 2,2 6,3 10,3 4,0 8,-1 11,-3 3,-2 6,-5 7,-8 2,-2 2,-6 2,-11l0 -4z"/>
   <path class="fil2" d="M6161 3040l0 -65 10 0 0 9c5,-7 12,-10 21,-10 4,0 7,0 11,2 3,1 5,3 7,5 2,2 3,5 3,8 1,2 1,6 1,11l0 40 -11 0 0 -40c0,-4 0,-7 -1,-10 -1,-2 -3,-4 -5,-5 -2,-1 -5,-2 -8,-2 -4,0 -8,2 -12,4 -3,3 -5,9 -5,17l0 36 -11 0z"/>
   <path class="fil2" d="M6229 3045l10 2c1,3 2,5 4,7 3,2 7,3 11,3 5,0 9,-1 12,-3 3,-2 5,-5 6,-9 0,-2 1,-7 1,-14 -5,6 -11,9 -18,9 -9,0 -16,-3 -21,-10 -5,-6 -7,-14 -7,-23 0,-6 1,-12 3,-17 2,-5 5,-9 10,-12 4,-3 9,-4 15,-4 7,0 14,3 19,9l0 -8 10 0 0 56c0,10 -1,17 -3,21 -2,5 -6,8 -10,10 -5,3 -10,4 -17,4 -7,0 -14,-2 -18,-5 -5,-4 -7,-9 -7,-16zm9 -39c0,9 2,15 5,19 3,4 8,6 13,6 5,0 9,-2 12,-6 4,-4 5,-10 5,-18 0,-8 -1,-14 -5,-18 -3,-4 -8,-6 -13,-6 -4,0 -9,2 -12,6 -3,4 -5,9 -5,17z"/>
   <path class="fil2" d="M6343 3040l0 -10c-5,8 -12,11 -21,11 -4,0 -7,0 -11,-2 -3,-1 -5,-3 -7,-5 -2,-3 -3,-5 -3,-9 -1,-2 -1,-5 -1,-10l0 -40 11 0 0 36c0,6 0,10 1,12 0,2 2,5 4,6 2,2 5,3 8,3 4,0 7,-1 10,-3 3,-1 5,-4 6,-7 1,-3 2,-7 2,-12l0 -35 11 0 0 65 -10 0z"/>
   <path class="fil2" d="M6370 3040l0 -90 11 0 0 90 -11 0z"/>
   <path class="fil2" d="M6440 3032c-4,3 -8,6 -12,7 -4,2 -8,2 -12,2 -7,0 -13,-1 -16,-5 -4,-3 -6,-8 -6,-13 0,-3 1,-6 2,-9 1,-3 3,-5 6,-6 2,-2 5,-3 8,-4 2,0 5,-1 9,-2 9,-1 16,-2 20,-3 0,-2 0,-3 0,-3 0,-5 -1,-8 -3,-10 -3,-2 -7,-3 -13,-3 -5,0 -9,1 -11,2 -3,2 -4,5 -6,10l-10 -2c1,-4 2,-8 5,-11 2,-2 5,-5 9,-6 5,-2 9,-2 15,-2 6,0 10,0 13,1 4,2 6,3 8,5 2,2 3,5 4,8 0,2 0,5 0,10l0 15c0,10 0,16 1,19 0,3 1,5 3,8l-12 0c-1,-2 -2,-5 -2,-8zm-1 -25c-4,2 -10,3 -18,4 -4,1 -8,2 -10,3 -1,0 -3,2 -4,3 -1,2 -1,3 -1,5 0,3 1,6 3,8 2,2 5,3 10,3 4,0 8,-1 11,-3 3,-2 6,-5 7,-8 1,-2 2,-6 2,-11l0 -4z"/>
   <path class="fil2" d="M6467 3040l0 -65 10 0 0 10c2,-5 5,-8 7,-9 2,-2 4,-2 7,-2 4,0 7,1 11,3l-4 10c-2,-1 -5,-2 -8,-2 -2,0 -4,1 -6,2 -2,1 -3,3 -4,6 -1,4 -2,8 -2,13l0 34 -11 0z"/>
   <path class="fil2" d="M6555 3040l-19 -65 11 0 10 37 4 14c0,0 1,-5 3,-13l11 -38 11 0 10 38 3 12 4 -13 11 -37 11 0 -21 65 -11 0 -10 -39 -3 -11 -13 50 -12 0z"/>
   <path class="fil2" d="M6625 3041l26 -92 9 0 -26 92 -9 0z"/>
   <path class="fil2" d="M6664 3007c0,-12 4,-21 10,-26 6,-5 13,-7 21,-7 9,0 16,2 22,8 5,6 8,14 8,24 0,9 -1,15 -4,20 -2,5 -6,9 -11,11 -4,3 -10,4 -15,4 -9,0 -17,-3 -22,-8 -6,-6 -9,-15 -9,-26zm12 0c0,9 1,15 5,19 4,4 8,6 14,6 5,0 10,-2 13,-6 4,-4 6,-10 6,-19 0,-8 -2,-14 -6,-18 -3,-4 -8,-6 -13,-6 -6,0 -10,2 -14,6 -4,4 -5,10 -5,18z"/>
   <path class="fil2" d="M6773 3040l0 -65 10 0 0 9c2,-3 4,-6 8,-8 3,-2 7,-2 11,-2 5,0 9,1 12,3 3,2 5,4 6,8 6,-8 12,-11 21,-11 6,0 11,1 14,5 4,3 6,9 6,16l0 45 -11 0 0 -41c0,-4 -1,-8 -1,-10 -1,-1 -2,-3 -4,-4 -2,-1 -4,-2 -7,-2 -4,0 -8,2 -11,5 -3,3 -5,7 -5,14l0 38 -11 0 0 -42c0,-5 -1,-9 -2,-11 -2,-3 -5,-4 -9,-4 -3,0 -6,1 -9,2 -2,2 -4,4 -6,8 -1,3 -1,7 -1,13l0 34 -11 0z"/>
   <path class="fil2" d="M6919 3032c-4,3 -8,6 -12,7 -3,2 -7,2 -12,2 -7,0 -12,-1 -16,-5 -4,-3 -6,-8 -6,-13 0,-3 1,-6 2,-9 2,-3 4,-5 6,-6 2,-2 5,-3 8,-4 2,0 5,-1 10,-2 8,-1 15,-2 19,-3 0,-2 0,-3 0,-3 0,-5 -1,-8 -3,-10 -3,-2 -7,-3 -12,-3 -6,0 -9,1 -12,2 -2,2 -4,5 -5,10l-11 -2c1,-4 3,-8 5,-11 2,-2 5,-5 10,-6 4,-2 9,-2 14,-2 6,0 10,0 14,1 3,2 6,3 7,5 2,2 3,5 4,8 0,2 0,5 0,10l0 15c0,10 1,16 1,19 0,3 1,5 3,8l-12 0c-1,-2 -2,-5 -2,-8zm-1 -25c-4,2 -10,3 -18,4 -4,1 -7,2 -9,3 -2,0 -4,2 -5,3 -1,2 -1,3 -1,5 0,3 1,6 3,8 2,2 6,3 10,3 4,0 8,-1 11,-3 3,-2 6,-5 7,-8 2,-2 2,-6 2,-11l0 -4z"/>
   <path class="fil2" d="M6946 2963l0 -13 11 0 0 13 -11 0zm0 77l0 -65 11 0 0 65 -11 0z"/>
   <path class="fil2" d="M6974 3040l0 -65 10 0 0 9c5,-7 12,-10 21,-10 4,0 7,0 10,2 4,1 6,3 8,5 1,2 3,5 3,8 1,2 1,6 1,11l0 40 -11 0 0 -40c0,-4 -1,-7 -1,-10 -1,-2 -3,-4 -5,-5 -2,-1 -5,-2 -8,-2 -4,0 -8,2 -12,4 -3,3 -5,9 -5,17l0 36 -11 0z"/>
   <path class="fil2" d="M7120 3040l0 -8c-4,6 -10,9 -18,9 -5,0 -10,-1 -14,-4 -4,-3 -8,-7 -10,-12 -2,-5 -4,-11 -4,-18 0,-6 1,-12 4,-17 2,-5 5,-9 9,-12 5,-3 9,-4 15,-4 4,0 7,0 10,2 3,2 6,4 8,6l0 -32 11 0 0 90 -11 0zm-34 -33c0,9 1,15 5,19 3,4 8,6 12,6 5,0 9,-2 13,-6 3,-4 5,-10 5,-18 0,-9 -2,-15 -6,-19 -3,-4 -7,-6 -12,-6 -5,0 -9,2 -12,6 -4,4 -5,10 -5,18z"/>
   <path class="fil2" d="M7148 2963l0 -13 11 0 0 13 -11 0zm0 77l0 -65 11 0 0 65 -11 0z"/>
   <path class="fil2" d="M7218 3032c-4,3 -8,6 -12,7 -4,2 -8,2 -12,2 -7,0 -13,-1 -16,-5 -4,-3 -6,-8 -6,-13 0,-3 1,-6 2,-9 2,-3 3,-5 6,-6 2,-2 5,-3 8,-4 2,0 5,-1 9,-2 9,-1 16,-2 20,-3 0,-2 0,-3 0,-3 0,-5 -1,-8 -3,-10 -3,-2 -7,-3 -13,-3 -5,0 -9,1 -11,2 -2,2 -4,5 -5,10l-11 -2c1,-4 2,-8 5,-11 2,-2 5,-5 9,-6 5,-2 9,-2 15,-2 6,0 10,0 14,1 3,2 6,3 7,5 2,2 3,5 4,8 0,2 0,5 0,10l0 15c0,10 0,16 1,19 0,3 1,5 3,8l-12 0c-1,-2 -2,-5 -2,-8zm-1 -25c-4,2 -10,3 -18,4 -4,1 -8,2 -9,3 -2,0 -4,2 -5,3 -1,2 -1,3 -1,5 0,3 1,6 3,8 2,2 5,3 10,3 4,0 8,-1 11,-3 3,-2 6,-5 7,-8 1,-2 2,-6 2,-11l0 -4z"/>
   <path class="fil2" d="M7243 3045l11 2c0,3 2,5 4,7 2,2 6,3 11,3 5,0 9,-1 12,-3 2,-2 4,-5 5,-9 1,-2 1,-7 1,-14 -5,6 -11,9 -18,9 -9,0 -16,-3 -21,-10 -5,-6 -7,-14 -7,-23 0,-6 1,-12 3,-17 3,-5 6,-9 10,-12 4,-3 9,-4 15,-4 8,0 14,3 19,9l0 -8 10 0 0 56c0,10 -1,17 -3,21 -2,5 -5,8 -10,10 -4,3 -10,4 -16,4 -8,0 -14,-2 -19,-5 -5,-4 -7,-9 -7,-16zm9 -39c0,9 2,15 5,19 4,4 8,6 13,6 5,0 9,-2 13,-6 3,-4 5,-10 5,-18 0,-8 -2,-14 -5,-18 -4,-4 -8,-6 -13,-6 -5,0 -9,2 -13,6 -3,4 -5,9 -5,17z"/>
   <path class="fil2" d="M7318 3040l0 -13 12 0 0 13 -12 0z"/>
   <path class="fil2" d="M7357 3066l-8 0c12,-19 18,-39 18,-59 0,-7 -1,-15 -3,-22 -1,-6 -3,-12 -5,-18 -2,-4 -5,-10 -10,-18l8 0c7,10 13,20 17,31 3,8 4,18 4,27 0,11 -2,22 -6,32 -4,11 -9,19 -15,27z"/>
   <path class="fil2" d="M5978 3091l0 13 -8 0 0 -13 8 0zm0 26l0 48 20 0c1,0 2,0 3,1 0,0 1,1 1,2 0,1 -1,1 -1,2 -1,0 -2,0 -3,0l-45 0c-2,0 -2,0 -3,0 0,-1 -1,-1 -1,-2 0,-1 1,-2 1,-2 1,-1 1,-1 3,-1l20 0 0 -42 -15 0c-1,0 -2,-1 -3,-1 0,-1 -1,-1 -1,-2 0,-1 1,-1 1,-2 1,0 2,-1 3,-1l20 0z"/>
   <path class="fil2" d="M6072 3123l0 -2c0,-1 0,-2 0,-3 1,0 1,-1 2,-1 1,0 2,1 2,1 1,1 1,2 1,3l0 12c0,1 0,2 -1,2 0,1 -1,1 -2,1 0,0 -1,0 -2,-1 0,0 0,-1 0,-2 -1,-3 -2,-6 -6,-8 -4,-3 -8,-4 -14,-4 -8,0 -14,2 -18,7 -4,5 -6,10 -6,16 0,7 3,12 7,17 4,4 10,6 17,6 4,0 8,-1 12,-2 4,-1 8,-4 11,-7 1,-1 2,-1 2,-1 1,0 2,0 2,0 1,1 1,1 1,2 0,2 -2,4 -6,7 -7,4 -14,6 -22,6 -9,0 -16,-2 -21,-8 -5,-5 -8,-11 -8,-20 0,-8 3,-15 8,-20 6,-6 13,-8 21,-8 8,0 14,2 20,7z"/>
   <path class="fil2" d="M6154 3144c0,8 -3,15 -8,20 -6,6 -13,8 -21,8 -8,0 -14,-2 -20,-8 -6,-6 -8,-12 -8,-20 0,-8 2,-14 8,-20 6,-6 12,-8 20,-8 8,0 15,2 21,8 5,5 8,12 8,20zm-5 0c0,-6 -3,-12 -7,-16 -5,-5 -10,-7 -17,-7 -6,0 -12,2 -16,7 -5,4 -7,10 -7,16 0,6 2,12 7,16 4,5 10,7 16,7 7,0 12,-2 17,-7 4,-4 7,-10 7,-16z"/>
   <path class="fil2" d="M6205 3170l-9 0 -21 -47 -5 0c-1,0 -2,-1 -3,-1 0,-1 -1,-1 -1,-2 0,-1 1,-1 1,-2 1,0 2,-1 3,-1l19 0c1,0 2,1 3,1 0,1 0,1 0,2 0,1 0,1 0,2 -1,0 -2,1 -3,1l-8 0 18 42 3 0 18 -42 -8 0c-2,0 -3,-1 -3,-1 -1,-1 -1,-1 -1,-2 0,-1 0,-1 1,-2 0,0 1,-1 3,-1l19 0c1,0 2,1 2,1 1,1 1,1 1,2 0,1 0,1 -1,2 0,0 -1,1 -2,1l-5 0 -21 47z"/>
  </g>
 </g>
</svg>
