<?xml version="1.0" encoding="iso-8859-1"?>
<!DOCTYPE svg PUBLIC "-//W3C//DTD SVG 1.0//EN" "http://www.w3.org/TR/2001/REC-SVG-20010904/DTD/svg10.dtd">
<!-- Creator: CorelDRAW -->
<svg xmlns="http://www.w3.org/2000/svg" xmlns:odm="http://product.corel.com/CGS/11/cddns/" xml:space="preserve" width="3.81921in" height="0.384016in" style="shape-rendering:geometricPrecision; text-rendering:geometricPrecision; image-rendering:optimizeQuality; fill-rule:evenodd"
     viewBox="0 0 3820 384">
 <defs>
  <style type="text/css">
   <![CDATA[
    .str0 {stroke:#1F1A17;stroke-width:10}
    .fil1 {fill:none}
    .fil0 {fill:#1F1A17}
   ]]>
  </style>
 </defs>
 <g id="Ebene 1">
  <g>
   <path class="fil0" d="M2038 190c2,0 5,0 5,-4 0,-4 -3,-4 -5,-4l-83 0c-2,0 -6,0 -6,4 0,4 4,4 6,4l83 0z"/>
   <path class="fil0" d="M2122 32c0,-3 0,-4 -4,-4 -9,9 -22,9 -27,9l0 5c2,0 12,0 20,-4l0 77c0,6 -1,7 -14,7l-5 0 0 5c5,0 18,0 24,0 6,0 20,0 25,0l0 -5 -5 0c-13,0 -14,-1 -14,-7l0 -83z"/>
   <path class="fil0" d="M2146 299l-5 0c0,2 -1,11 -2,13 -1,1 -12,1 -15,1l-26 0c2,-2 12,-12 14,-13 24,-22 34,-30 34,-44 0,-18 -14,-30 -32,-30 -18,0 -29,14 -29,27 0,7 6,9 7,9 4,0 8,-3 8,-9 0,-3 -3,-7 -8,-7 0,0 -1,0 -1,0 3,-11 13,-16 20,-16 16,0 21,15 21,26 0,14 -11,27 -18,34l-28 30c-1,2 -1,2 -1,5l56 0 5 -26z"/>
   <path class="fil0" d="M11 235c-1,4 -1,6 -7,6 -2,0 -4,0 -4,3 0,0 0,1 2,1l7 0c0,0 3,0 6,0 2,0 5,0 7,0 2,0 6,0 7,0 1,0 4,0 4,-3 0,-1 -1,-1 -5,-1 -6,0 -6,-1 -6,-2 0,-1 0,-5 1,-7 1,-9 4,-16 6,-23 1,3 5,9 13,9 18,0 38,-21 38,-44 0,-14 -10,-24 -21,-24 -3,0 -11,1 -20,11 -3,-9 -9,-11 -15,-11 -6,0 -8,5 -10,10 -3,4 -5,13 -5,13 0,2 1,2 2,2 1,0 1,-1 3,-3 2,-12 6,-18 10,-18 5,0 5,4 5,7 0,1 0,3 0,5l-18 69zm28 -65c0,-3 0,-3 2,-6 4,-4 11,-10 17,-10 7,0 11,7 11,14 0,7 -5,25 -10,34 -5,8 -11,13 -17,13 -9,0 -12,-12 -12,-13 0,-2 0,-2 2,-3l7 -29z"/>
   <path class="fil0" d="M134 252c0,-1 -2,-1 -2,-2 -19,-18 -25,-45 -25,-71 0,-23 4,-52 25,-71 2,-1 2,-1 2,-2 0,-2 -2,-2 -3,-2 -1,0 -14,11 -23,27 -7,14 -10,30 -10,48 0,11 1,27 9,45 9,18 23,29 24,29 1,0 3,0 3,-1l0 0z"/>
   <path class="fil0" d="M221 127c0,1 -7,6 -7,9 0,2 2,3 4,3 1,0 2,-1 3,-1 1,-2 5,-7 11,-10 2,-1 4,-2 4,-3 0,-3 -2,-4 -3,-4 -2,-1 -5,-3 -6,-8 -1,-1 -1,-4 -3,-4 -2,0 -4,1 -4,4 0,2 4,7 4,8l-51 0c-2,0 -6,0 -6,4 0,2 4,2 6,2l48 0z"/>
   <path class="fil0" d="M216 156c-6,1 -7,6 -7,8 0,3 1,5 5,5 5,0 8,-3 8,-8 0,-7 -7,-11 -14,-11 -8,0 -14,8 -16,11 -2,-7 -9,-11 -16,-11 -16,0 -24,19 -24,23 0,2 0,2 1,2 1,0 2,-1 2,-1 5,-16 15,-20 21,-20 3,0 8,3 8,10 0,5 -7,29 -8,36 -2,5 -6,15 -15,15 -2,0 -6,-1 -7,-3 4,-1 7,-4 7,-8 0,-4 -3,-5 -6,-5 -5,0 -8,4 -8,9 0,7 8,10 14,10 9,0 13,-7 16,-12 3,11 13,12 17,12 16,0 25,-19 25,-22 0,-2 -1,-3 -3,-3 -1,0 -1,1 -2,3 -4,10 -12,19 -19,19 -5,0 -9,-4 -9,-11 0,-2 2,-11 3,-17 1,-2 5,-19 6,-20 1,-5 6,-13 13,-13 2,0 6,1 8,2l0 0z"/>
   <path class="fil0" d="M252 109c0,-1 0,-5 -2,-5 -4,0 -4,3 -4,5l0 139c0,3 0,5 4,5 2,0 2,-2 2,-5l0 -139z"/>
   <path class="fil0" d="M314 118c0,-3 0,-3 0,-3 0,-1 -2,-2 -3,-2 -1,0 -14,1 -18,1 -1,0 -2,0 -2,4 0,1 1,1 3,1 8,0 8,1 8,2 0,1 0,1 -2,4l-21 86c0,1 0,3 0,3 0,2 1,4 5,4 4,0 6,-4 6,-7 2,-9 4,-19 7,-29 11,2 18,5 18,12 0,2 0,3 0,5 -1,0 -1,3 -1,4 0,8 6,15 14,15 6,0 10,-3 12,-8 4,-6 6,-14 6,-14 0,-2 0,-3 -2,-3 -2,0 -2,1 -3,4 -2,7 -6,18 -13,18 -4,0 -5,-5 -5,-7 0,-5 1,-9 1,-9 2,-1 2,-2 2,-5 0,-9 -11,-14 -23,-15 5,-3 8,-6 13,-11 7,-7 13,-14 22,-14 1,0 3,1 4,2 -7,0 -8,6 -8,8 0,3 2,5 6,5 4,0 8,-2 8,-8 0,-6 -3,-11 -10,-11 -10,0 -17,7 -23,14 -7,8 -11,11 -17,14l16 -60z"/>
   <path class="fil0" d="M399 179c0,-12 -1,-29 -10,-46 -8,-18 -23,-29 -24,-29 -2,0 -2,2 -2,2 0,1 0,1 1,2 10,8 25,29 25,71 0,21 -3,51 -25,71 0,1 -1,1 -1,2 0,0 0,1 2,1 1,0 15,-11 23,-26 7,-15 11,-30 11,-48l0 0z"/>
   <path class="fil0" d="M564 167c3,0 5,0 5,-4 0,-2 -3,-2 -6,-2l-91 0c-1,0 -5,0 -5,2 0,4 3,4 5,4l92 0zm-1 31c3,0 6,0 6,-4 0,-3 -2,-3 -5,-3l-92 0c-2,0 -5,0 -5,3 0,4 4,4 5,4l91 0z"/>
   <path class="fil0" d="M1108 25c0,-3 0,-5 -4,-5 -9,10 -24,10 -27,10l0 5c2,0 12,0 19,-4l0 77c0,6 0,7 -14,7l-5 0 0 5c6,0 19,0 25,0 6,0 19,0 25,0l0 -5 -5 0c-14,0 -14,-1 -14,-7l0 -83z"/>
   <path class="fil0" d="M710 320l-5 0c0,2 -1,11 -3,14 -1,1 -12,1 -14,1l-26 0c2,-4 12,-13 14,-15 24,-21 34,-28 34,-44 0,-17 -15,-29 -33,-29 -18,0 -29,13 -29,27 0,8 6,8 8,8 3,0 8,-2 8,-7 0,-5 -4,-9 -8,-9 0,0 -2,0 -2,0 4,-9 14,-14 21,-14 15,0 20,13 20,24 0,16 -11,28 -18,36l-27 29c-2,2 -2,2 -2,6l57 0 5 -27z"/>
   <path class="fil0" d="M758 292l16 0c-2,9 -6,25 -6,37 0,1 0,6 2,12 1,6 2,7 6,7 2,0 6,-2 6,-6 0,-1 0,-1 -2,-4 -4,-10 -4,-21 -4,-25 0,-3 0,-9 2,-21l18 0c2,0 7,0 7,-6 0,-4 -2,-4 -6,-4l-51 0c-4,0 -9,0 -16,7 -4,4 -10,12 -10,13 0,2 2,2 3,2 1,0 1,0 2,-2 7,-10 16,-10 19,-10l9 0c-6,22 -17,43 -18,45 -1,3 -3,5 -3,6 0,3 2,5 5,5 5,0 7,-5 10,-18l11 -38z"/>
   <path class="fil0" d="M898 247c1,-3 4,-6 11,-7 0,0 2,0 2,-2 0,-2 -1,-2 -2,-2 -3,0 -7,0 -10,0l-6 0c-2,0 -3,0 -6,0 -1,0 -1,2 -1,3 0,1 1,1 2,1 4,0 6,1 6,5 0,0 0,0 0,1l-10 43 -28 -51c-1,-2 -1,-2 -4,-2l-14 0c-1,0 -4,0 -4,3 0,1 3,1 4,1 1,0 5,0 7,1l-13 52c-1,5 -2,7 -11,7 -1,0 -2,1 -2,4 0,0 0,1 1,1 2,0 8,-1 11,-1l6 0c1,0 3,1 5,1 2,0 2,-3 2,-3 0,-2 -1,-2 -2,-2 -5,0 -6,-1 -6,-4 0,0 0,-1 0,-2l13 -50 31 58c0,2 1,3 2,3 2,0 2,-1 3,-3l13 -55z"/>
   <path class="fil0" d="M962 234c1,-1 1,-1 1,-1 0,-3 -1,-4 -3,-4 -2,0 -2,1 -3,4l-39 91c-1,2 -1,2 -1,2 0,2 1,3 4,3 1,0 1,-1 2,-3l39 -92z"/>
   <path class="fil0" d="M1026 286l-3 0c-1,1 -1,8 -4,9 0,0 -8,0 -9,0l-20 0c4,-2 11,-8 14,-9 3,-4 12,-10 15,-12 3,-4 7,-9 7,-16 0,-12 -12,-20 -25,-20 -13,0 -21,9 -21,18 0,6 4,6 4,6 4,0 6,-2 6,-5 0,-3 -1,-6 -6,-6 3,-5 9,-9 16,-9 11,0 16,8 16,16 0,7 -5,14 -11,20l-24 22c-1,1 -1,1 -1,5l43 0 3 -19z"/>
   <path class="fil0" d="M1091 240c0,-2 0,-6 -3,-6 -4,0 -4,4 -4,6l0 138c0,2 0,6 4,6 3,0 3,-4 3,-6l0 -138z"/>
   <path class="fil0" d="M1184 283l36 -29c3,-3 9,-3 14,-3l2 0 0 -7c-6,1 -14,1 -15,1 -6,0 -16,0 -22,-1l0 7c4,0 7,1 9,1 1,0 1,1 1,1l-57 46 0 -48 17 0 0 -7c-6,1 -21,1 -27,1 -6,0 -22,0 -27,-1l0 7 16 0 0 89 -16 0 0 7c5,-1 21,-1 27,-1 6,0 21,0 27,1l0 -7 -17 0 0 -32 16 -13 32 41c0,0 2,1 2,1 0,3 -8,3 -11,3l0 7c6,-1 19,-1 26,-1 1,0 13,0 22,1l0 -7 -4 0c-8,0 -8,-2 -11,-4l-40 -53z"/>
   <path class="fil0" d="M1280 299c0,-1 0,-1 0,-3 0,-1 -3,-1 -4,-1l-11 1c-1,0 -2,0 -2,3 0,1 1,1 2,1 4,0 4,1 5,1 0,1 0,1 0,3l-14 56c0,1 0,2 0,2 0,3 2,3 3,3 1,0 3,0 4,-1 1,-3 5,-18 6,-22 6,0 13,2 13,8 0,0 0,2 0,2 0,2 0,2 0,3 0,6 5,10 11,10 9,0 13,-15 13,-15 0,0 0,-1 -2,-1 -2,0 -2,0 -2,1 -1,4 -3,12 -9,12 -4,0 -4,-4 -4,-6 0,-1 0,-1 1,-3 0,0 0,-3 0,-4 0,-7 -8,-9 -16,-11 2,-1 4,-2 8,-6 6,-4 11,-8 17,-8 1,0 2,0 2,1 -3,0 -5,4 -5,6 0,3 3,4 4,4 2,0 6,-3 6,-7 0,-4 -2,-8 -7,-8 -7,0 -13,5 -17,9 -6,5 -8,7 -12,8l10 -38z"/>
   <path class="fil0" d="M1347 240c0,-2 0,-6 -4,-6 -2,0 -2,4 -2,6l0 138c0,2 0,6 2,6 4,0 4,-4 4,-6l0 -138z"/>
   <path class="fil0" d="M1402 214c0,-4 0,-4 -4,-4 -6,6 -16,6 -20,6l0 5c4,0 10,0 16,-4l0 51c0,3 0,4 -11,4l-4 0 0 4c5,0 13,0 19,0 5,0 14,0 18,0l0 -4 -3 0c-11,0 -11,-1 -11,-4l0 -54z"/>
   <path class="fil0" d="M1480 206c1,-1 1,-1 1,-2 0,-1 -1,-2 -3,-2 -2,0 -2,1 -3,2l-38 92c-1,2 -1,3 -1,3 0,1 1,2 2,2 2,0 2,-1 4,-2l38 -93z"/>
   <path class="fil0" d="M1544 258l-4 0c0,1 -1,7 -2,8 -2,2 -9,2 -10,2l-19 0c2,-3 9,-9 13,-11 2,-3 12,-9 14,-12 4,-3 8,-9 8,-15 0,-13 -11,-20 -24,-20 -14,0 -22,8 -22,18 0,5 4,6 5,6 2,0 6,-2 6,-6 0,-2 -1,-5 -6,-5 2,-5 8,-9 15,-9 10,0 16,8 16,16 0,6 -5,15 -12,21l-23 21c-1,2 -1,2 -1,4l43 0 3 -18z"/>
   <path class="fil0" d="M1664 182c3,0 4,0 4,-3 0,-16 -8,-29 -27,-29 -18,0 -33,14 -33,34 0,19 16,34 35,34 18,0 25,-16 25,-19 0,-1 -1,-2 -2,-2 -1,0 -2,1 -2,1 -5,16 -18,16 -21,16 -7,0 -13,-4 -17,-9 -4,-7 -4,-17 -4,-23l42 0zm-42 -3c1,-23 14,-25 19,-25 8,0 17,6 17,25l-36 0z"/>
   <path class="fil0" d="M1718 182c-2,-1 -2,-1 -2,-1 0,0 12,-14 14,-15 4,-5 9,-9 19,-9l0 -5c-5,0 -9,0 -13,0 -5,0 -9,0 -15,0l0 5c3,0 5,1 5,4 0,2 -1,5 -2,5l-10 12 -12 -15c-1,-1 -1,-2 -1,-2 0,-3 2,-4 5,-4l0 -5c-5,0 -9,0 -16,0 0,0 -8,0 -14,0l0 5c9,0 10,0 16,9l16 19c-4,3 -11,14 -14,18 -8,8 -16,8 -20,8l0 5c5,0 9,0 14,0 4,0 9,0 14,0l0 -5c-4,0 -5,-2 -5,-3 0,-2 0,-3 3,-6 3,-4 7,-9 10,-14l12 16c4,2 4,4 4,4 0,2 -2,3 -6,3l0 5c7,0 11,0 17,0 0,0 8,0 14,0l0 -5c-6,0 -11,0 -13,-3l-20 -26z"/>
   <path class="fil0" d="M1793 241c-9,0 -12,0 -12,-7l0 -25c4,5 10,9 19,9 18,0 34,-14 34,-34 0,-18 -14,-34 -31,-34 -9,0 -16,4 -22,10l0 -10 -23 2 0 5c11,0 12,0 12,7l0 70c0,7 -1,7 -12,7l0 4c8,0 11,0 18,0 8,0 9,0 17,0l0 -4zm-12 -75c5,-9 13,-11 21,-11 10,0 20,13 20,29 0,18 -11,31 -23,31 -6,0 -12,-5 -15,-10 -3,-3 -3,-3 -3,-6l0 -33z"/>
   <path class="fil0" d="M1904 359l39 0 0 -9 -31 0 0 -342 31 0 0 -8 -39 0 0 359z"/>
   <path class="fil0" d="M3811 350l-31 0 0 9 40 0 0 -359 -40 0 0 8 31 0 0 342z"/>
   <path class="fil0" d="M2233 253c0,0 0,-1 -1,-3 -19,-16 -25,-44 -25,-69 0,-24 5,-52 25,-72 1,0 1,-1 1,-1 0,-2 0,-3 -1,-3 -2,0 -15,11 -24,28 -7,14 -11,30 -11,47 0,10 2,28 10,45 10,19 23,30 25,30 1,0 1,-1 1,-2l0 0z"/>
   <path class="fil0" d="M2321 129c0,0 -6,6 -6,9 0,1 1,3 4,3 1,0 1,-1 2,-2 1,-3 5,-6 12,-10 1,-1 2,-1 2,-3 0,-2 -1,-3 -1,-4 -2,-1 -5,-4 -7,-8 0,-2 -1,-4 -4,-4 -1,0 -2,1 -2,4 0,2 2,8 4,8l-52 0c-2,0 -5,0 -5,4 0,3 3,3 5,3l48 0z"/>
   <path class="fil0" d="M2316 157c-6,1 -7,6 -7,8 0,3 2,6 6,6 4,0 8,-3 8,-9 0,-8 -8,-10 -14,-10 -10,0 -14,7 -17,11 -2,-7 -9,-11 -17,-11 -15,0 -24,19 -24,23 0,1 2,1 3,1 1,0 1,0 1,-1 5,-15 14,-19 20,-19 5,0 9,2 9,9 0,5 -6,29 -9,36 -1,5 -6,15 -14,15 -2,0 -6,-2 -7,-3 3,0 7,-3 7,-7 0,-5 -2,-6 -6,-6 -4,0 -8,4 -8,8 0,9 8,11 14,11 10,0 14,-7 17,-11 3,10 12,11 17,11 15,0 24,-19 24,-23 0,-1 0,-2 -3,-2 -1,0 -1,1 -2,4 -3,10 -12,18 -19,18 -5,0 -9,-3 -9,-10 0,-4 3,-12 4,-18 0,-2 5,-18 5,-19 1,-6 6,-13 13,-13 3,0 6,0 8,1l0 0z"/>
   <path class="fil0" d="M2466 183c1,0 5,0 5,-2 0,-4 -2,-4 -5,-4l-84 0c-1,0 -5,0 -5,3 0,3 3,3 5,3l84 0z"/>
   <path class="fil0" d="M2599 129c0,0 -7,6 -7,9 0,1 3,3 4,3 1,0 2,-1 3,-2 2,-3 5,-6 11,-10 3,-1 4,-1 4,-3 0,-2 -1,-3 -3,-4 -2,-1 -4,-4 -6,-8 -1,-2 -1,-4 -3,-4 -1,0 -4,1 -4,4 0,2 4,8 4,8l-51 0c-2,0 -6,0 -6,4 0,3 4,3 6,3l48 0z"/>
   <path class="fil0" d="M2554 164c1,-2 2,-7 2,-8 0,-3 -2,-4 -5,-4 -4,0 -6,4 -6,5l-21 85c0,2 0,2 0,4 0,2 1,4 3,4 5,0 6,-4 8,-7l7 -29c3,4 9,5 14,5 6,0 13,-1 21,-11 1,9 8,11 14,11 4,0 7,-2 11,-8 2,-5 5,-15 5,-15 0,-1 0,-2 -3,-2 -1,0 -1,1 -2,4 -3,13 -6,18 -11,18 -4,0 -5,-4 -5,-8 0,-2 1,-6 3,-10 1,-8 2,-10 3,-16l4 -13c1,-4 2,-11 2,-11 0,-2 -1,-5 -5,-5 -4,0 -6,4 -7,9l-2 12c-1,6 -6,24 -7,27 0,0 -8,15 -20,15 -12,0 -12,-11 -12,-14 0,-3 2,-6 3,-13l6 -25z"/>
   <path class="fil0" d="M2644 170c0,-1 0,-1 0,-2 0,-2 -3,-2 -4,-2l-11 2c-1,0 -2,0 -2,2 0,1 1,1 2,1 4,0 4,1 5,1 0,2 0,2 0,3l-14 56c0,1 0,3 0,3 0,2 2,2 3,2 2,0 3,0 4,-1 1,-3 5,-18 6,-22 6,0 13,3 13,9 0,0 0,1 0,1 0,2 0,2 0,3 0,6 5,10 11,10 10,0 13,-14 13,-14 0,0 0,-2 -2,-2 -1,0 -1,0 -1,2 -2,3 -4,12 -10,12 -4,0 -4,-5 -4,-6 0,-2 0,-2 2,-4 0,0 0,-2 0,-4 0,-7 -9,-9 -17,-10 2,-2 5,-3 8,-6 6,-5 11,-9 17,-9 1,0 2,0 2,1 -3,0 -4,4 -4,6 0,3 2,4 3,4 3,0 6,-2 6,-7 0,-4 -2,-7 -7,-7 -7,0 -13,4 -17,8 -6,5 -8,7 -12,8l10 -38z"/>
   <path class="fil0" d="M2731 180c0,-12 -2,-29 -9,-45 -10,-19 -23,-30 -25,-30 -2,0 -2,1 -2,3 0,0 0,1 2,2 8,7 25,28 25,70 0,21 -4,51 -25,72 -2,0 -2,1 -2,1 0,1 0,2 2,2 2,0 15,-11 24,-27 7,-15 10,-30 10,-48l0 0z"/>
   <path class="fil0" d="M2799 86c1,-4 1,-4 4,-4l10 0c11,0 12,3 12,9 0,1 0,5 -1,7 0,0 0,1 0,2 0,0 1,2 2,2 1,0 1,-2 1,-3l4 -19c0,-1 -1,-1 -4,-1l-64 0c-3,0 -3,0 -4,1l-6 18c-1,1 -1,2 -1,2 0,0 0,2 2,2 1,0 1,0 3,-3 4,-13 7,-17 20,-17l8 0c3,0 3,0 4,0l-13 56c-1,2 -1,3 -4,3 -3,0 -8,0 -9,0 -3,0 -3,0 -3,1 -1,0 -1,2 -1,3 0,0 0,1 2,1 3,0 5,-1 9,-1 3,0 6,0 8,0 4,0 6,0 10,0 2,0 6,1 8,1 1,0 3,0 3,-1 0,0 0,-1 0,-1 0,-3 0,-3 -4,-3 -2,0 -5,0 -6,0 -2,0 -4,0 -4,-1l14 -54z"/>
   <path class="fil0" d="M2944 154l36 -28c3,-4 9,-4 14,-4l3 0 0 -7c-6,1 -15,1 -16,1 -6,0 -16,0 -22,-1l0 7c4,0 8,1 9,1 1,0 1,1 1,1l-56 46 0 -48 16 0 0 -7c-6,1 -21,1 -27,1 -6,0 -22,0 -27,-1l0 7 16 0 0 89 -16 0 0 7c5,-1 21,-1 27,-1 6,0 21,0 27,1l0 -7 -16 0 0 -31 15 -14 33 41c0,0 1,1 1,1 0,3 -7,3 -11,3l0 7c6,-1 19,-1 26,-1 2,0 14,0 22,1l0 -7 -4 0c-8,0 -8,-1 -10,-4l-41 -53z"/>
   <path class="fil0" d="M3087 123c1,0 3,0 3,-2 0,-3 -2,-3 -3,-3l-64 0c-1,0 -4,0 -4,3 0,2 3,2 4,2l64 0z"/>
   <path class="fil0" d="M3138 82c0,-3 0,-3 -3,-3 -6,7 -17,7 -21,7l0 4c4,0 10,0 16,-3l0 51c0,2 0,3 -11,3l-4 0 0 5c5,-1 14,-1 20,-1 4,0 13,0 18,1l0 -5 -4 0c-11,0 -11,-1 -11,-3l0 -56z"/>
   <path class="fil0" d="M3040 188c0,-1 0,-1 0,-2 0,-2 -3,-2 -4,-2l-11 2c-1,0 -2,0 -2,2 0,1 1,1 2,1 4,0 4,1 5,1 0,2 0,2 0,3l-14 56c0,1 0,3 0,3 0,2 2,2 3,2 2,0 3,0 4,-1 1,-3 5,-18 6,-22 6,0 13,3 13,9 0,0 0,1 0,1 0,2 0,2 0,3 0,6 5,10 11,10 10,0 13,-14 13,-14 0,0 0,-2 -2,-2 -1,0 -1,0 -1,2 -2,3 -4,12 -10,12 -4,0 -4,-5 -4,-6 0,-2 0,-2 2,-4 0,0 0,-2 0,-4 0,-7 -9,-9 -17,-10 2,-2 5,-3 8,-6 6,-5 11,-9 17,-9 1,0 2,0 2,1 -3,0 -4,4 -4,6 0,3 2,4 3,4 3,0 6,-2 6,-7 0,-4 -2,-7 -7,-7 -7,0 -13,4 -17,8 -6,5 -8,7 -12,8l10 -38z"/>
   <path class="fil0" d="M3250 253c0,0 -1,-1 -1,-3 -20,-16 -26,-44 -26,-69 0,-24 4,-52 26,-72 1,0 1,-1 1,-1 0,-2 -1,-3 -3,-3 -1,0 -14,11 -22,28 -8,14 -11,30 -11,47 0,10 1,28 9,45 9,19 23,30 24,30 2,0 3,-1 3,-2l0 0z"/>
   <path class="fil0" d="M3337 129c0,0 -7,6 -7,9 0,1 3,3 4,3 1,0 2,-1 3,-2 2,-3 5,-6 11,-10 3,-1 4,-1 4,-3 0,-2 -1,-3 -3,-4 -2,-1 -4,-4 -6,-8 -1,-2 -1,-4 -3,-4 -1,0 -4,1 -4,4 0,2 4,8 4,8l-51 0c-2,0 -6,0 -6,4 0,3 4,3 6,3l48 0z"/>
   <path class="fil0" d="M3333 157c-6,1 -8,6 -8,8 0,3 2,6 5,6 5,0 9,-3 9,-9 0,-8 -8,-10 -15,-10 -8,0 -14,7 -15,11 -3,-7 -10,-11 -17,-11 -16,0 -24,19 -24,23 0,1 0,1 1,1 1,0 2,0 2,-1 5,-15 15,-19 21,-19 3,0 8,2 8,9 0,5 -7,29 -8,36 -1,5 -6,15 -15,15 -2,0 -6,-2 -7,-3 4,0 7,-3 7,-7 0,-5 -3,-6 -6,-6 -4,0 -8,4 -8,8 0,9 8,11 14,11 9,0 14,-7 16,-11 4,10 13,11 17,11 17,0 25,-19 25,-23 0,-1 -1,-2 -2,-2 -2,0 -2,1 -3,4 -3,10 -12,18 -19,18 -5,0 -8,-3 -8,-10 0,-4 1,-12 2,-18 1,-2 5,-18 6,-19 1,-6 6,-13 13,-13 3,0 6,0 9,1l0 0z"/>
   <path class="fil0" d="M3480 183c1,0 5,0 5,-2 0,-4 -2,-4 -5,-4l-84 0c-1,0 -5,0 -5,3 0,3 3,3 5,3l84 0z"/>
   <path class="fil0" d="M3613 129c0,0 -7,6 -7,9 0,1 3,3 4,3 1,0 2,-1 3,-2 2,-3 5,-6 11,-10 3,-1 4,-1 4,-3 0,-2 -1,-3 -3,-4 -2,-1 -4,-4 -6,-8 -1,-2 -1,-4 -3,-4 -1,0 -4,1 -4,4 0,2 4,8 4,8l-51 0c-2,0 -6,0 -6,4 0,3 4,3 6,3l48 0z"/>
   <path class="fil0" d="M3568 164c1,-2 2,-7 2,-8 0,-3 -2,-4 -5,-4 -4,0 -6,4 -6,5l-21 85c0,2 0,2 0,4 0,2 1,4 3,4 5,0 6,-4 8,-7l7 -29c3,4 9,5 14,5 6,0 13,-1 21,-11 1,9 8,11 14,11 4,0 7,-2 11,-8 2,-5 5,-15 5,-15 0,-1 0,-2 -3,-2 -1,0 -1,1 -2,4 -3,13 -6,18 -11,18 -4,0 -5,-4 -5,-8 0,-2 1,-6 3,-10 1,-8 2,-10 3,-16l4 -13c1,-4 2,-11 2,-11 0,-2 -1,-5 -5,-5 -4,0 -6,4 -7,9l-2 12c-1,6 -6,24 -7,27 0,0 -8,15 -20,15 -12,0 -12,-11 -12,-14 0,-3 2,-6 3,-13l6 -25z"/>
   <path class="fil0" d="M3658 170c0,-1 0,-1 0,-2 0,-2 -3,-2 -4,-2l-11 2c-1,0 -2,0 -2,2 0,1 1,1 2,1 4,0 4,1 5,1 0,2 0,2 0,3l-14 56c0,1 0,3 0,3 0,2 2,2 3,2 2,0 3,0 4,-1 1,-3 5,-18 6,-22 6,0 13,3 13,9 0,0 0,1 0,1 0,2 0,2 0,3 0,6 5,10 11,10 10,0 13,-14 13,-14 0,0 0,-2 -2,-2 -1,0 -1,0 -1,2 -2,3 -4,12 -10,12 -4,0 -4,-5 -4,-6 0,-2 0,-2 2,-4 0,0 0,-2 0,-4 0,-7 -9,-9 -17,-10 2,-2 5,-3 8,-6 6,-5 11,-9 17,-9 1,0 2,0 2,1 -3,0 -4,4 -4,6 0,3 2,4 3,4 3,0 6,-2 6,-7 0,-4 -2,-7 -7,-7 -7,0 -13,4 -17,8 -6,5 -8,7 -12,8l10 -38z"/>
   <path class="fil0" d="M3745 180c0,-12 -2,-29 -9,-45 -10,-19 -23,-30 -25,-30 -2,0 -2,1 -2,3 0,0 0,1 2,2 8,7 25,28 25,70 0,21 -4,51 -25,72 -2,0 -2,1 -2,1 0,1 0,2 2,2 2,0 15,-11 24,-27 7,-15 10,-30 10,-48l0 0z"/>
   <path class="fil1 str0" d="M640 179l922 0"/>
   <path class="fil1 str0" d="M2078 185l78 0"/>
  </g>
 </g>
</svg>
